  0
SECTION
  2
HEADER
  9
$ACADVER
  1
AC1009
  9
$FILLMODE
 70
1
  9
$EXTMIN
 10
-2.3241
 20
-0.5461
 30
0.0000
  9
$EXTMAX
 10
110.5553
 20
63.1825
 30
0.0000
  0
ENDSEC
  0
SECTION
  2
TABLES
  0
TABLE
  2
LTYPE
 70
1
  0
LTYPE
  2
CONTINUOUS
 70
64
  3
Solid line
 72
65
 73
0
 40
0
  0
ENDTAB
  0
TABLE
  2
LAYER
 70
255
  0
LAYER
  2
17
 70
64
 62
110
  6
CONTINUOUS
  0
LAYER
  2
20
 70
64
 62
53
  6
CONTINUOUS
  0
LAYER
  2
47
 70
64
 62
253
  6
CONTINUOUS
  0
LAYER
  2
51
 70
64
 62
253
  6
CONTINUOUS
  0
LAYER
  2
52
 70
64
 62
253
  6
CONTINUOUS
  0
ENDTAB
  0
ENDSEC
  0
SECTION
  2
BLOCKS
  0
BLOCK
  8
0
  2
RECT
 70
64
 10
0.0000
 20
0.0000
 30
0.0000
  3
RECT
  0
SOLID
  8
0
 10
-0.5000
 20
-0.5000
 30
0.0000
 11
0.5000
 21
-0.5000
 31
0.0000
 12
-0.5000
 22
0.5000
 32
0.0000
 13
0.5000
 23
0.5000
 33
0.0000
  0
ENDBLK
  8
0
  0
BLOCK
  8
0
  2
PIE
 70
64
 10
0.0000
 20
0.0000
 30
0.0000
  3
PIE
  0
POLYLINE
  8
0
 66
1
 10
0.0000
 20
0.0000
 30
0.0000
 40
0.5000
 41
0.5000
 70
0
  0
VERTEX
  8
0
 10
0.0000
 20
-0.2500
 30
0.0000
 42
1.0000
  0
VERTEX
  8
0
 10
0.0000
 20
0.2500
 30
0.0000
 42
1.0000
  0
VERTEX
  8
0
 10
0.0000
 20
-0.2500
 30
0.0000
  0
SEQEND
  8
0
  0
ENDBLK
  8
0
  0
BLOCK
  8
0
  2
OCTAGONP
 70
64
 10
0.0000
 20
0.0000
 30
0.0000
  3
OCTAGONP
  0
POLYLINE
  8
0
 66
1
 10
0.0000
 20
0.0000
 30
0.0000
 40
0.5000
 41
0.5000
 70
0
  0
VERTEX
  8
0
 10
-0.2500
 20
-0.1036
 30
0.0000
  0
VERTEX
  8
0
 10
-0.2500
 20
0.1036
 30
0.0000
  0
VERTEX
  8
0
 10
-0.1036
 20
0.2500
 30
0.0000
  0
VERTEX
  8
0
 10
0.1036
 20
0.2500
 30
0.0000
  0
VERTEX
  8
0
 10
0.2500
 20
0.1036
 30
0.0000
  0
VERTEX
  8
0
 10
0.2500
 20
-0.1036
 30
0.0000
  0
VERTEX
  8
0
 10
0.1036
 20
-0.2500
 30
0.0000
  0
VERTEX
  8
0
 10
-0.1036
 20
-0.2500
 30
0.0000
  0
VERTEX
  8
0
 10
-0.2500
 20
-0.1036
 30
0.0000
  0
VERTEX
  8
0
 10
-0.2500
 20
0.1036
 30
0.0000
  0
SEQEND
  8
0
  0
ENDBLK
  8
0
  0
BLOCK
  8
0
  2
SQUAREP
 70
64
 10
0.0000
 20
0.0000
 30
0.0000
  3
SQUAREP
  0
SOLID
  8
0
 10
-0.5000
 20
-0.5000
 30
0.0000
 11
0.5000
 21
-0.5000
 31
0.0000
 12
-0.5000
 22
0.5000
 32
0.0000
 13
0.5000
 23
0.5000
 33
0.0000
  0
ENDBLK
  8
0
  0
BLOCK
  8
0
  2
ROUNDP
 70
64
 10
0.0000
 20
0.0000
 30
0.0000
  3
ROUNDP
  0
POLYLINE
  8
0
 66
1
 10
0.0000
 20
0.0000
 30
0.0000
 40
0.5000
 41
0.5000
 70
0
  0
VERTEX
  8
0
 10
0.0000
 20
-0.2500
 30
0.0000
 42
1.0000
  0
VERTEX
  8
0
 10
0.0000
 20
0.2500
 30
0.0000
 42
1.0000
  0
VERTEX
  8
0
 10
0.0000
 20
-0.2500
 30
0.0000
  0
SEQEND
  8
0
  0
ENDBLK
  8
0
  0
BLOCK
  8
0
  2
ANNULUSP
 70
64
 10
0.0000
 20
0.0000
 30
0.0000
  3
ANNULUSP
  0
POLYLINE
  8
0
 66
1
 10
0.0000
 20
0.0000
 30
0.0000
 40
0.5000
 41
0.5000
 70
0
  0
VERTEX
  8
0
 10
0.0000
 20
-0.2500
 30
0.0000
 42
1.0000
  0
VERTEX
  8
0
 10
0.0000
 20
0.2500
 30
0.0000
 42
1.0000
  0
VERTEX
  8
0
 10
0.0000
 20
-0.2500
 30
0.0000
  0
SEQEND
  8
0
  0
ENDBLK
  8
0
  0
BLOCK
  8
0
  2
THERMALP
 70
64
 10
0.0000
 20
0.0000
 30
0.0000
  3
THERMALP
  0
POLYLINE
  8
0
 66
1
 10
0.0000
 20
0.0000
 30
0.0000
 40
0.1000
 41
0.1000
 70
0
  0
VERTEX
  8
0
 10
-0.2379
 20
0.4500
 30
0.0000
  0
VERTEX
  8
0
 10
0.2379
 20
0.4500
 30
0.0000
  0
SEQEND
  8
0
  0
POLYLINE
  8
0
 66
1
 10
0.0000
 20
0.0000
 30
0.0000
 40
0.0500
 41
0.0500
 70
0
  0
VERTEX
  8
0
 10
0.2379
 20
0.4250
 30
0.0000
 42
1.0000
  0
VERTEX
  8
0
 10
0.2379
 20
0.4750
 30
0.0000
  0
SEQEND
  8
0
  0
POLYLINE
  8
0
 66
1
 10
0.0000
 20
0.0000
 30
0.0000
 40
0.0500
 41
0.0500
 70
0
  0
VERTEX
  8
0
 10
-0.2379
 20
0.4750
 30
0.0000
 42
1.0000
  0
VERTEX
  8
0
 10
-0.2379
 20
0.4250
 30
0.0000
  0
SEQEND
  8
0
  0
POLYLINE
  8
0
 66
1
 10
0.0000
 20
0.0000
 30
0.0000
 40
0.1000
 41
0.1000
 70
0
  0
VERTEX
  8
0
 10
0.4500
 20
0.2379
 30
0.0000
  0
VERTEX
  8
0
 10
0.4500
 20
-0.2379
 30
0.0000
  0
SEQEND
  8
0
  0
POLYLINE
  8
0
 66
1
 10
0.0000
 20
0.0000
 30
0.0000
 40
0.0500
 41
0.0500
 70
0
  0
VERTEX
  8
0
 10
0.4250
 20
-0.2379
 30
0.0000
 42
1.0000
  0
VERTEX
  8
0
 10
0.4750
 20
-0.2379
 30
0.0000
  0
SEQEND
  8
0
  0
POLYLINE
  8
0
 66
1
 10
0.0000
 20
0.0000
 30
0.0000
 40
0.0500
 41
0.0500
 70
0
  0
VERTEX
  8
0
 10
0.4750
 20
0.2379
 30
0.0000
 42
1.0000
  0
VERTEX
  8
0
 10
0.4250
 20
0.2379
 30
0.0000
  0
SEQEND
  8
0
  0
POLYLINE
  8
0
 66
1
 10
0.0000
 20
0.0000
 30
0.0000
 40
0.1000
 41
0.1000
 70
0
  0
VERTEX
  8
0
 10
0.2379
 20
-0.4500
 30
0.0000
  0
VERTEX
  8
0
 10
-0.2379
 20
-0.4500
 30
0.0000
  0
SEQEND
  8
0
  0
POLYLINE
  8
0
 66
1
 10
0.0000
 20
0.0000
 30
0.0000
 40
0.0500
 41
0.0500
 70
0
  0
VERTEX
  8
0
 10
-0.2379
 20
-0.4250
 30
0.0000
 42
1.0000
  0
VERTEX
  8
0
 10
-0.2379
 20
-0.4750
 30
0.0000
  0
SEQEND
  8
0
  0
POLYLINE
  8
0
 66
1
 10
0.0000
 20
0.0000
 30
0.0000
 40
0.0500
 41
0.0500
 70
0
  0
VERTEX
  8
0
 10
0.2379
 20
-0.4750
 30
0.0000
 42
1.0000
  0
VERTEX
  8
0
 10
0.2379
 20
-0.4250
 30
0.0000
  0
SEQEND
  8
0
  0
POLYLINE
  8
0
 66
1
 10
0.0000
 20
0.0000
 30
0.0000
 40
0.1000
 41
0.1000
 70
0
  0
VERTEX
  8
0
 10
-0.4500
 20
-0.2379
 30
0.0000
  0
VERTEX
  8
0
 10
-0.4500
 20
0.2379
 30
0.0000
  0
SEQEND
  8
0
  0
POLYLINE
  8
0
 66
1
 10
0.0000
 20
0.0000
 30
0.0000
 40
0.0500
 41
0.0500
 70
0
  0
VERTEX
  8
0
 10
-0.4250
 20
0.2379
 30
0.0000
 42
1.0000
  0
VERTEX
  8
0
 10
-0.4750
 20
0.2379
 30
0.0000
  0
SEQEND
  8
0
  0
POLYLINE
  8
0
 66
1
 10
0.0000
 20
0.0000
 30
0.0000
 40
0.0500
 41
0.0500
 70
0
  0
VERTEX
  8
0
 10
-0.4750
 20
-0.2379
 30
0.0000
 42
1.0000
  0
VERTEX
  8
0
 10
-0.4250
 20
-0.2379
 30
0.0000
  0
SEQEND
  8
0
  0
ENDBLK
  8
0
  0
BLOCK
  8
0
  2
OCTAGONV
 70
64
 10
0.0000
 20
0.0000
 30
0.0000
  3
OCTAGONV
  0
POLYLINE
  8
0
 66
1
 10
0.0000
 20
0.0000
 30
0.0000
 40
0.5000
 41
0.5000
 70
0
  0
VERTEX
  8
0
 10
-0.2500
 20
-0.1036
 30
0.0000
  0
VERTEX
  8
0
 10
-0.2500
 20
0.1036
 30
0.0000
  0
VERTEX
  8
0
 10
-0.1036
 20
0.2500
 30
0.0000
  0
VERTEX
  8
0
 10
0.1036
 20
0.2500
 30
0.0000
  0
VERTEX
  8
0
 10
0.2500
 20
0.1036
 30
0.0000
  0
VERTEX
  8
0
 10
0.2500
 20
-0.1036
 30
0.0000
  0
VERTEX
  8
0
 10
0.1036
 20
-0.2500
 30
0.0000
  0
VERTEX
  8
0
 10
-0.1036
 20
-0.2500
 30
0.0000
  0
VERTEX
  8
0
 10
-0.2500
 20
-0.1036
 30
0.0000
  0
VERTEX
  8
0
 10
-0.2500
 20
0.1036
 30
0.0000
  0
SEQEND
  8
0
  0
ENDBLK
  8
0
  0
BLOCK
  8
0
  2
SQUAREV
 70
64
 10
0.0000
 20
0.0000
 30
0.0000
  3
SQUAREV
  0
SOLID
  8
0
 10
-0.5000
 20
-0.5000
 30
0.0000
 11
0.5000
 21
-0.5000
 31
0.0000
 12
-0.5000
 22
0.5000
 32
0.0000
 13
0.5000
 23
0.5000
 33
0.0000
  0
ENDBLK
  8
0
  0
BLOCK
  8
0
  2
ROUNDV
 70
64
 10
0.0000
 20
0.0000
 30
0.0000
  3
ROUNDV
  0
POLYLINE
  8
0
 66
1
 10
0.0000
 20
0.0000
 30
0.0000
 40
0.5000
 41
0.5000
 70
0
  0
VERTEX
  8
0
 10
0.0000
 20
-0.2500
 30
0.0000
 42
1.0000
  0
VERTEX
  8
0
 10
0.0000
 20
0.2500
 30
0.0000
 42
1.0000
  0
VERTEX
  8
0
 10
0.0000
 20
-0.2500
 30
0.0000
  0
SEQEND
  8
0
  0
ENDBLK
  8
0
  0
BLOCK
  8
0
  2
ANNULUSV
 70
64
 10
0.0000
 20
0.0000
 30
0.0000
  3
ANNULUSV
  0
POLYLINE
  8
0
 66
1
 10
0.0000
 20
0.0000
 30
0.0000
 40
0.5000
 41
0.5000
 70
0
  0
VERTEX
  8
0
 10
0.0000
 20
-0.2500
 30
0.0000
 42
1.0000
  0
VERTEX
  8
0
 10
0.0000
 20
0.2500
 30
0.0000
 42
1.0000
  0
VERTEX
  8
0
 10
0.0000
 20
-0.2500
 30
0.0000
  0
SEQEND
  8
0
  0
ENDBLK
  8
0
  0
BLOCK
  8
0
  2
THERMALV
 70
64
 10
0.0000
 20
0.0000
 30
0.0000
  3
THERMALV
  0
POLYLINE
  8
0
 66
1
 10
0.0000
 20
0.0000
 30
0.0000
 40
0.1000
 41
0.1000
 70
0
  0
VERTEX
  8
0
 10
-0.2379
 20
0.4500
 30
0.0000
  0
VERTEX
  8
0
 10
0.2379
 20
0.4500
 30
0.0000
  0
SEQEND
  8
0
  0
POLYLINE
  8
0
 66
1
 10
0.0000
 20
0.0000
 30
0.0000
 40
0.0500
 41
0.0500
 70
0
  0
VERTEX
  8
0
 10
0.2379
 20
0.4250
 30
0.0000
 42
1.0000
  0
VERTEX
  8
0
 10
0.2379
 20
0.4750
 30
0.0000
  0
SEQEND
  8
0
  0
POLYLINE
  8
0
 66
1
 10
0.0000
 20
0.0000
 30
0.0000
 40
0.0500
 41
0.0500
 70
0
  0
VERTEX
  8
0
 10
-0.2379
 20
0.4750
 30
0.0000
 42
1.0000
  0
VERTEX
  8
0
 10
-0.2379
 20
0.4250
 30
0.0000
  0
SEQEND
  8
0
  0
POLYLINE
  8
0
 66
1
 10
0.0000
 20
0.0000
 30
0.0000
 40
0.1000
 41
0.1000
 70
0
  0
VERTEX
  8
0
 10
0.4500
 20
0.2379
 30
0.0000
  0
VERTEX
  8
0
 10
0.4500
 20
-0.2379
 30
0.0000
  0
SEQEND
  8
0
  0
POLYLINE
  8
0
 66
1
 10
0.0000
 20
0.0000
 30
0.0000
 40
0.0500
 41
0.0500
 70
0
  0
VERTEX
  8
0
 10
0.4250
 20
-0.2379
 30
0.0000
 42
1.0000
  0
VERTEX
  8
0
 10
0.4750
 20
-0.2379
 30
0.0000
  0
SEQEND
  8
0
  0
POLYLINE
  8
0
 66
1
 10
0.0000
 20
0.0000
 30
0.0000
 40
0.0500
 41
0.0500
 70
0
  0
VERTEX
  8
0
 10
0.4750
 20
0.2379
 30
0.0000
 42
1.0000
  0
VERTEX
  8
0
 10
0.4250
 20
0.2379
 30
0.0000
  0
SEQEND
  8
0
  0
POLYLINE
  8
0
 66
1
 10
0.0000
 20
0.0000
 30
0.0000
 40
0.1000
 41
0.1000
 70
0
  0
VERTEX
  8
0
 10
0.2379
 20
-0.4500
 30
0.0000
  0
VERTEX
  8
0
 10
-0.2379
 20
-0.4500
 30
0.0000
  0
SEQEND
  8
0
  0
POLYLINE
  8
0
 66
1
 10
0.0000
 20
0.0000
 30
0.0000
 40
0.0500
 41
0.0500
 70
0
  0
VERTEX
  8
0
 10
-0.2379
 20
-0.4250
 30
0.0000
 42
1.0000
  0
VERTEX
  8
0
 10
-0.2379
 20
-0.4750
 30
0.0000
  0
SEQEND
  8
0
  0
POLYLINE
  8
0
 66
1
 10
0.0000
 20
0.0000
 30
0.0000
 40
0.0500
 41
0.0500
 70
0
  0
VERTEX
  8
0
 10
0.2379
 20
-0.4750
 30
0.0000
 42
1.0000
  0
VERTEX
  8
0
 10
0.2379
 20
-0.4250
 30
0.0000
  0
SEQEND
  8
0
  0
POLYLINE
  8
0
 66
1
 10
0.0000
 20
0.0000
 30
0.0000
 40
0.1000
 41
0.1000
 70
0
  0
VERTEX
  8
0
 10
-0.4500
 20
-0.2379
 30
0.0000
  0
VERTEX
  8
0
 10
-0.4500
 20
0.2379
 30
0.0000
  0
SEQEND
  8
0
  0
POLYLINE
  8
0
 66
1
 10
0.0000
 20
0.0000
 30
0.0000
 40
0.0500
 41
0.0500
 70
0
  0
VERTEX
  8
0
 10
-0.4250
 20
0.2379
 30
0.0000
 42
1.0000
  0
VERTEX
  8
0
 10
-0.4750
 20
0.2379
 30
0.0000
  0
SEQEND
  8
0
  0
POLYLINE
  8
0
 66
1
 10
0.0000
 20
0.0000
 30
0.0000
 40
0.0500
 41
0.0500
 70
0
  0
VERTEX
  8
0
 10
-0.4750
 20
-0.2379
 30
0.0000
 42
1.0000
  0
VERTEX
  8
0
 10
-0.4250
 20
-0.2379
 30
0.0000
  0
SEQEND
  8
0
  0
ENDBLK
  8
0
  0
BLOCK
  8
0
  2
LONGP100
 70
64
 10
0.0000
 20
0.0000
 30
0.0000
  3
LONGP100
  0
POLYLINE
  8
0
 66
1
 10
0.0000
 20
0.0000
 30
0.0000
 40
1.0000
 41
1.0000
 70
0
  0
VERTEX
  8
0
 10
-0.5000
 20
0.0000
 30
0.0000
  0
VERTEX
  8
0
 10
0.5000
 20
0.0000
 30
0.0000
  0
SEQEND
  8
0
  0
POLYLINE
  8
0
 66
1
 10
0.0000
 20
0.0000
 30
0.0000
 40
0.5000
 41
0.5000
 70
0
  0
VERTEX
  8
0
 10
0.5000
 20
-0.2500
 30
0.0000
 42
1.0000
  0
VERTEX
  8
0
 10
0.5000
 20
0.2500
 30
0.0000
  0
SEQEND
  8
0
  0
POLYLINE
  8
0
 66
1
 10
0.0000
 20
0.0000
 30
0.0000
 40
0.5000
 41
0.5000
 70
0
  0
VERTEX
  8
0
 10
-0.5000
 20
0.2500
 30
0.0000
 42
1.0000
  0
VERTEX
  8
0
 10
-0.5000
 20
-0.2500
 30
0.0000
  0
SEQEND
  8
0
  0
ENDBLK
  8
0
  0
ENDSEC
  0
SECTION
  2
ENTITIES
  0
POLYLINE
  8
20
 66
1
 10
0.0000
 20
0.0000
 30
0.0000
 40
0.0762
 41
0.0762
 70
0
  0
VERTEX
  8
20
 10
1.9050
 20
51.9430
 30
0.0000
  0
VERTEX
  8
20
 10
104.0130
 20
51.9430
 30
0.0000
  0
SEQEND
  8
0
  0
POLYLINE
  8
20
 66
1
 10
0.0000
 20
0.0000
 30
0.0000
 40
0.0381
 41
0.0381
 70
0
  0
VERTEX
  8
20
 10
104.0130
 20
51.9240
 30
0.0000
 42
1.0000
  0
VERTEX
  8
20
 10
104.0130
 20
51.9621
 30
0.0000
  0
SEQEND
  8
0
  0
POLYLINE
  8
20
 66
1
 10
0.0000
 20
0.0000
 30
0.0000
 40
0.0381
 41
0.0381
 70
0
  0
VERTEX
  8
20
 10
1.9050
 20
51.9621
 30
0.0000
 42
1.0000
  0
VERTEX
  8
20
 10
1.9050
 20
51.9240
 30
0.0000
  0
SEQEND
  8
0
  0
POLYLINE
  8
20
 66
1
 10
0.0000
 20
0.0000
 30
0.0000
 40
0.0762
 41
0.0762
 70
0
  0
VERTEX
  8
20
 10
1.9050
 20
2.6670
 30
0.0000
  0
VERTEX
  8
20
 10
1.9050
 20
51.9430
 30
0.0000
  0
SEQEND
  8
0
  0
POLYLINE
  8
20
 66
1
 10
0.0000
 20
0.0000
 30
0.0000
 40
0.0381
 41
0.0381
 70
0
  0
VERTEX
  8
20
 10
1.9241
 20
51.9430
 30
0.0000
 42
1.0000
  0
VERTEX
  8
20
 10
1.8860
 20
51.9430
 30
0.0000
  0
SEQEND
  8
0
  0
POLYLINE
  8
20
 66
1
 10
0.0000
 20
0.0000
 30
0.0000
 40
0.0381
 41
0.0381
 70
0
  0
VERTEX
  8
20
 10
1.8860
 20
2.6670
 30
0.0000
 42
1.0000
  0
VERTEX
  8
20
 10
1.9241
 20
2.6670
 30
0.0000
  0
SEQEND
  8
0
  0
POLYLINE
  8
20
 66
1
 10
0.0000
 20
0.0000
 30
0.0000
 40
0.0762
 41
0.0762
 70
0
  0
VERTEX
  8
20
 10
104.0130
 20
2.6670
 30
0.0000
  0
VERTEX
  8
20
 10
104.0130
 20
51.9430
 30
0.0000
  0
SEQEND
  8
0
  0
POLYLINE
  8
20
 66
1
 10
0.0000
 20
0.0000
 30
0.0000
 40
0.0381
 41
0.0381
 70
0
  0
VERTEX
  8
20
 10
104.0320
 20
51.9430
 30
0.0000
 42
1.0000
  0
VERTEX
  8
20
 10
103.9940
 20
51.9430
 30
0.0000
  0
SEQEND
  8
0
  0
POLYLINE
  8
20
 66
1
 10
0.0000
 20
0.0000
 30
0.0000
 40
0.0381
 41
0.0381
 70
0
  0
VERTEX
  8
20
 10
103.9940
 20
2.6670
 30
0.0000
 42
1.0000
  0
VERTEX
  8
20
 10
104.0320
 20
2.6670
 30
0.0000
  0
SEQEND
  8
0
  0
POLYLINE
  8
20
 66
1
 10
0.0000
 20
0.0000
 30
0.0000
 40
0.1016
 41
0.1016
 70
0
  0
VERTEX
  8
20
 10
104.0130
 20
2.6670
 30
0.0000
  0
VERTEX
  8
20
 10
83.4390
 20
2.6670
 30
0.0000
  0
SEQEND
  8
0
  0
POLYLINE
  8
20
 66
1
 10
0.0000
 20
0.0000
 30
0.0000
 40
0.0508
 41
0.0508
 70
0
  0
VERTEX
  8
20
 10
83.4390
 20
2.6924
 30
0.0000
 42
1.0000
  0
VERTEX
  8
20
 10
83.4390
 20
2.6416
 30
0.0000
  0
SEQEND
  8
0
  0
POLYLINE
  8
20
 66
1
 10
0.0000
 20
0.0000
 30
0.0000
 40
0.0508
 41
0.0508
 70
0
  0
VERTEX
  8
20
 10
104.0130
 20
2.6416
 30
0.0000
 42
1.0000
  0
VERTEX
  8
20
 10
104.0130
 20
2.6924
 30
0.0000
  0
SEQEND
  8
0
  0
POLYLINE
  8
20
 66
1
 10
0.0000
 20
0.0000
 30
0.0000
 40
0.1016
 41
0.1016
 70
0
  0
VERTEX
  8
20
 10
83.4390
 20
2.6670
 30
0.0000
  0
VERTEX
  8
20
 10
81.0260
 20
4.3180
 30
0.0000
  0
SEQEND
  8
0
  0
POLYLINE
  8
20
 66
1
 10
0.0000
 20
0.0000
 30
0.0000
 40
0.0508
 41
0.0508
 70
0
  0
VERTEX
  8
20
 10
81.0403
 20
4.3390
 30
0.0000
 42
1.0000
  0
VERTEX
  8
20
 10
81.0117
 20
4.2970
 30
0.0000
  0
SEQEND
  8
0
  0
POLYLINE
  8
20
 66
1
 10
0.0000
 20
0.0000
 30
0.0000
 40
0.0508
 41
0.0508
 70
0
  0
VERTEX
  8
20
 10
83.4247
 20
2.6460
 30
0.0000
 42
1.0000
  0
VERTEX
  8
20
 10
83.4533
 20
2.6880
 30
0.0000
  0
SEQEND
  8
0
  0
POLYLINE
  8
20
 66
1
 10
0.0000
 20
0.0000
 30
0.0000
 40
0.1016
 41
0.1016
 70
0
  0
VERTEX
  8
20
 10
13.4620
 20
2.6670
 30
0.0000
  0
VERTEX
  8
20
 10
15.8750
 20
4.3180
 30
0.0000
  0
SEQEND
  8
0
  0
POLYLINE
  8
20
 66
1
 10
0.0000
 20
0.0000
 30
0.0000
 40
0.0508
 41
0.0508
 70
0
  0
VERTEX
  8
20
 10
15.8893
 20
4.2970
 30
0.0000
 42
1.0000
  0
VERTEX
  8
20
 10
15.8607
 20
4.3390
 30
0.0000
  0
SEQEND
  8
0
  0
POLYLINE
  8
20
 66
1
 10
0.0000
 20
0.0000
 30
0.0000
 40
0.0508
 41
0.0508
 70
0
  0
VERTEX
  8
20
 10
13.4477
 20
2.6880
 30
0.0000
 42
1.0000
  0
VERTEX
  8
20
 10
13.4763
 20
2.6460
 30
0.0000
  0
SEQEND
  8
0
  0
POLYLINE
  8
20
 66
1
 10
0.0000
 20
0.0000
 30
0.0000
 40
0.1016
 41
0.1016
 70
0
  0
VERTEX
  8
20
 10
15.8750
 20
4.3180
 30
0.0000
  0
VERTEX
  8
20
 10
81.0260
 20
4.3180
 30
0.0000
  0
SEQEND
  8
0
  0
POLYLINE
  8
20
 66
1
 10
0.0000
 20
0.0000
 30
0.0000
 40
0.0508
 41
0.0508
 70
0
  0
VERTEX
  8
20
 10
81.0260
 20
4.2926
 30
0.0000
 42
1.0000
  0
VERTEX
  8
20
 10
81.0260
 20
4.3434
 30
0.0000
  0
SEQEND
  8
0
  0
POLYLINE
  8
20
 66
1
 10
0.0000
 20
0.0000
 30
0.0000
 40
0.0508
 41
0.0508
 70
0
  0
VERTEX
  8
20
 10
15.8750
 20
4.3434
 30
0.0000
 42
1.0000
  0
VERTEX
  8
20
 10
15.8750
 20
4.2926
 30
0.0000
  0
SEQEND
  8
0
  0
POLYLINE
  8
20
 66
1
 10
0.0000
 20
0.0000
 30
0.0000
 40
0.0762
 41
0.0762
 70
0
  0
VERTEX
  8
20
 10
1.9050
 20
2.6670
 30
0.0000
  0
VERTEX
  8
20
 10
13.4620
 20
2.6670
 30
0.0000
  0
SEQEND
  8
0
  0
POLYLINE
  8
20
 66
1
 10
0.0000
 20
0.0000
 30
0.0000
 40
0.0381
 41
0.0381
 70
0
  0
VERTEX
  8
20
 10
13.4620
 20
2.6480
 30
0.0000
 42
1.0000
  0
VERTEX
  8
20
 10
13.4620
 20
2.6861
 30
0.0000
  0
SEQEND
  8
0
  0
POLYLINE
  8
20
 66
1
 10
0.0000
 20
0.0000
 30
0.0000
 40
0.0381
 41
0.0381
 70
0
  0
VERTEX
  8
20
 10
1.9050
 20
2.6861
 30
0.0000
 42
1.0000
  0
VERTEX
  8
20
 10
1.9050
 20
2.6480
 30
0.0000
  0
SEQEND
  8
0
  0
POLYLINE
  8
47
 66
1
 10
0.0000
 20
0.0000
 30
0.0000
 40
0.1524
 41
0.1524
 70
0
  0
VERTEX
  8
47
 10
10.1600
 20
46.5178
 30
0.0000
 42
1.0000
  0
VERTEX
  8
47
 10
10.1600
 20
49.2910
 30
0.0000
 42
1.0000
  0
VERTEX
  8
47
 10
10.1600
 20
46.5178
 30
0.0000
  0
SEQEND
  8
0
  0
POLYLINE
  8
47
 66
1
 10
0.0000
 20
0.0000
 30
0.0000
 40
0.1524
 41
0.1524
 70
0
  0
VERTEX
  8
47
 10
89.9668
 20
46.5517
 30
0.0000
 42
1.0000
  0
VERTEX
  8
47
 10
89.9668
 20
49.2571
 30
0.0000
 42
1.0000
  0
VERTEX
  8
47
 10
89.9668
 20
46.5517
 30
0.0000
  0
SEQEND
  8
0
  0
POLYLINE
  8
47
 66
1
 10
0.0000
 20
0.0000
 30
0.0000
 40
0.1524
 41
0.1524
 70
0
  0
VERTEX
  8
47
 10
89.9668
 20
5.8261
 30
0.0000
 42
1.0000
  0
VERTEX
  8
47
 10
89.9668
 20
8.6011
 30
0.0000
 42
1.0000
  0
VERTEX
  8
47
 10
89.9668
 20
5.8261
 30
0.0000
  0
SEQEND
  8
0
  0
POLYLINE
  8
47
 66
1
 10
0.0000
 20
0.0000
 30
0.0000
 40
0.1524
 41
0.1524
 70
0
  0
VERTEX
  8
47
 10
10.1600
 20
5.8186
 30
0.0000
 42
1.0000
  0
VERTEX
  8
47
 10
10.1600
 20
8.7102
 30
0.0000
 42
1.0000
  0
VERTEX
  8
47
 10
10.1600
 20
5.8186
 30
0.0000
  0
SEQEND
  8
0
  0
POLYLINE
  8
51
 66
1
 10
0.0000
 20
0.0000
 30
0.0000
 40
0.1016
 41
0.1016
 70
0
  0
VERTEX
  8
51
 10
17.4635
 20
37.2905
 30
0.0000
  0
VERTEX
  8
51
 10
17.4635
 20
32.9405
 30
0.0000
  0
SEQEND
  8
0
  0
POLYLINE
  8
51
 66
1
 10
0.0000
 20
0.0000
 30
0.0000
 40
0.0508
 41
0.0508
 70
0
  0
VERTEX
  8
51
 10
17.4381
 20
32.9405
 30
0.0000
 42
1.0000
  0
VERTEX
  8
51
 10
17.4889
 20
32.9405
 30
0.0000
  0
SEQEND
  8
0
  0
POLYLINE
  8
51
 66
1
 10
0.0000
 20
0.0000
 30
0.0000
 40
0.0508
 41
0.0508
 70
0
  0
VERTEX
  8
51
 10
17.4889
 20
37.2905
 30
0.0000
 42
1.0000
  0
VERTEX
  8
51
 10
17.4381
 20
37.2905
 30
0.0000
  0
SEQEND
  8
0
  0
POLYLINE
  8
51
 66
1
 10
0.0000
 20
0.0000
 30
0.0000
 40
0.1016
 41
0.1016
 70
0
  0
VERTEX
  8
51
 10
14.4135
 20
32.9405
 30
0.0000
  0
VERTEX
  8
51
 10
14.4135
 20
37.2905
 30
0.0000
  0
SEQEND
  8
0
  0
POLYLINE
  8
51
 66
1
 10
0.0000
 20
0.0000
 30
0.0000
 40
0.0508
 41
0.0508
 70
0
  0
VERTEX
  8
51
 10
14.4389
 20
37.2905
 30
0.0000
 42
1.0000
  0
VERTEX
  8
51
 10
14.3881
 20
37.2905
 30
0.0000
  0
SEQEND
  8
0
  0
POLYLINE
  8
51
 66
1
 10
0.0000
 20
0.0000
 30
0.0000
 40
0.0508
 41
0.0508
 70
0
  0
VERTEX
  8
51
 10
14.3881
 20
32.9405
 30
0.0000
 42
1.0000
  0
VERTEX
  8
51
 10
14.4389
 20
32.9405
 30
0.0000
  0
SEQEND
  8
0
  0
INSERT
  8
51
  2
RECT
 10
15.9385
 20
37.0655
 30
0.0000
 41
0.6000
 42
3.2000
 43
1.0000
 50
270.0000
  0
INSERT
  8
51
  2
RECT
 10
15.9385
 20
33.1655
 30
0.0000
 41
0.6000
 42
3.2000
 43
1.0000
 50
270.0000
  0
POLYLINE
  8
51
 66
1
 10
0.0000
 20
0.0000
 30
0.0000
 40
0.1016
 41
0.1016
 70
0
  0
VERTEX
  8
51
 10
11.1135
 20
37.2905
 30
0.0000
  0
VERTEX
  8
51
 10
11.1135
 20
32.9405
 30
0.0000
  0
SEQEND
  8
0
  0
POLYLINE
  8
51
 66
1
 10
0.0000
 20
0.0000
 30
0.0000
 40
0.0508
 41
0.0508
 70
0
  0
VERTEX
  8
51
 10
11.0881
 20
32.9405
 30
0.0000
 42
1.0000
  0
VERTEX
  8
51
 10
11.1389
 20
32.9405
 30
0.0000
  0
SEQEND
  8
0
  0
POLYLINE
  8
51
 66
1
 10
0.0000
 20
0.0000
 30
0.0000
 40
0.0508
 41
0.0508
 70
0
  0
VERTEX
  8
51
 10
11.1389
 20
37.2905
 30
0.0000
 42
1.0000
  0
VERTEX
  8
51
 10
11.0881
 20
37.2905
 30
0.0000
  0
SEQEND
  8
0
  0
POLYLINE
  8
51
 66
1
 10
0.0000
 20
0.0000
 30
0.0000
 40
0.1016
 41
0.1016
 70
0
  0
VERTEX
  8
51
 10
8.0635
 20
32.9405
 30
0.0000
  0
VERTEX
  8
51
 10
8.0635
 20
37.2905
 30
0.0000
  0
SEQEND
  8
0
  0
POLYLINE
  8
51
 66
1
 10
0.0000
 20
0.0000
 30
0.0000
 40
0.0508
 41
0.0508
 70
0
  0
VERTEX
  8
51
 10
8.0889
 20
37.2905
 30
0.0000
 42
1.0000
  0
VERTEX
  8
51
 10
8.0381
 20
37.2905
 30
0.0000
  0
SEQEND
  8
0
  0
POLYLINE
  8
51
 66
1
 10
0.0000
 20
0.0000
 30
0.0000
 40
0.0508
 41
0.0508
 70
0
  0
VERTEX
  8
51
 10
8.0381
 20
32.9405
 30
0.0000
 42
1.0000
  0
VERTEX
  8
51
 10
8.0889
 20
32.9405
 30
0.0000
  0
SEQEND
  8
0
  0
INSERT
  8
51
  2
RECT
 10
9.5885
 20
37.0655
 30
0.0000
 41
0.6000
 42
3.2000
 43
1.0000
 50
270.0000
  0
INSERT
  8
51
  2
RECT
 10
9.5885
 20
33.1655
 30
0.0000
 41
0.6000
 42
3.2000
 43
1.0000
 50
270.0000
  0
POLYLINE
  8
51
 66
1
 10
0.0000
 20
0.0000
 30
0.0000
 40
0.1016
 41
0.1016
 70
0
  0
VERTEX
  8
51
 10
4.9403
 20
30.3507
 30
0.0000
  0
VERTEX
  8
51
 10
7.8867
 20
30.3507
 30
0.0000
  0
SEQEND
  8
0
  0
POLYLINE
  8
51
 66
1
 10
0.0000
 20
0.0000
 30
0.0000
 40
0.0508
 41
0.0508
 70
0
  0
VERTEX
  8
51
 10
7.8867
 20
30.3253
 30
0.0000
 42
1.0000
  0
VERTEX
  8
51
 10
7.8867
 20
30.3761
 30
0.0000
  0
SEQEND
  8
0
  0
POLYLINE
  8
51
 66
1
 10
0.0000
 20
0.0000
 30
0.0000
 40
0.0508
 41
0.0508
 70
0
  0
VERTEX
  8
51
 10
4.9403
 20
30.3761
 30
0.0000
 42
1.0000
  0
VERTEX
  8
51
 10
4.9403
 20
30.3253
 30
0.0000
  0
SEQEND
  8
0
  0
POLYLINE
  8
51
 66
1
 10
0.0000
 20
0.0000
 30
0.0000
 40
0.1016
 41
0.1016
 70
0
  0
VERTEX
  8
51
 10
4.9657
 20
28.4503
 30
0.0000
  0
VERTEX
  8
51
 10
7.8867
 20
28.4503
 30
0.0000
  0
SEQEND
  8
0
  0
POLYLINE
  8
51
 66
1
 10
0.0000
 20
0.0000
 30
0.0000
 40
0.0508
 41
0.0508
 70
0
  0
VERTEX
  8
51
 10
7.8867
 20
28.4249
 30
0.0000
 42
1.0000
  0
VERTEX
  8
51
 10
7.8867
 20
28.4757
 30
0.0000
  0
SEQEND
  8
0
  0
POLYLINE
  8
51
 66
1
 10
0.0000
 20
0.0000
 30
0.0000
 40
0.0508
 41
0.0508
 70
0
  0
VERTEX
  8
51
 10
4.9657
 20
28.4757
 30
0.0000
 42
1.0000
  0
VERTEX
  8
51
 10
4.9657
 20
28.4249
 30
0.0000
  0
SEQEND
  8
0
  0
INSERT
  8
51
  2
RECT
 10
4.6635
 20
29.4005
 30
0.0000
 41
1.0500
 42
2.0300
 43
1.0000
 50
0.0000
  0
INSERT
  8
51
  2
RECT
 10
8.1635
 20
29.4005
 30
0.0000
 41
1.0500
 42
2.0300
 43
1.0000
 50
0.0000
  0
POLYLINE
  8
51
 66
1
 10
0.0000
 20
0.0000
 30
0.0000
 40
0.1016
 41
0.1016
 70
0
  0
VERTEX
  8
51
 10
89.9920
 20
17.6780
 30
0.0000
  0
VERTEX
  8
51
 10
89.9920
 20
18.3900
 30
0.0000
  0
SEQEND
  8
0
  0
POLYLINE
  8
51
 66
1
 10
0.0000
 20
0.0000
 30
0.0000
 40
0.0508
 41
0.0508
 70
0
  0
VERTEX
  8
51
 10
90.0174
 20
18.3900
 30
0.0000
 42
1.0000
  0
VERTEX
  8
51
 10
89.9666
 20
18.3900
 30
0.0000
  0
SEQEND
  8
0
  0
POLYLINE
  8
51
 66
1
 10
0.0000
 20
0.0000
 30
0.0000
 40
0.0508
 41
0.0508
 70
0
  0
VERTEX
  8
51
 10
89.9666
 20
17.6780
 30
0.0000
 42
1.0000
  0
VERTEX
  8
51
 10
90.0174
 20
17.6780
 30
0.0000
  0
SEQEND
  8
0
  0
POLYLINE
  8
51
 66
1
 10
0.0000
 20
0.0000
 30
0.0000
 40
0.1016
 41
0.1016
 70
0
  0
VERTEX
  8
51
 10
90.8430
 20
17.6780
 30
0.0000
  0
VERTEX
  8
51
 10
90.8430
 20
18.3900
 30
0.0000
  0
SEQEND
  8
0
  0
POLYLINE
  8
51
 66
1
 10
0.0000
 20
0.0000
 30
0.0000
 40
0.0508
 41
0.0508
 70
0
  0
VERTEX
  8
51
 10
90.8684
 20
18.3900
 30
0.0000
 42
1.0000
  0
VERTEX
  8
51
 10
90.8176
 20
18.3900
 30
0.0000
  0
SEQEND
  8
0
  0
POLYLINE
  8
51
 66
1
 10
0.0000
 20
0.0000
 30
0.0000
 40
0.0508
 41
0.0508
 70
0
  0
VERTEX
  8
51
 10
90.8176
 20
17.6780
 30
0.0000
 42
1.0000
  0
VERTEX
  8
51
 10
90.8684
 20
17.6780
 30
0.0000
  0
SEQEND
  8
0
  0
INSERT
  8
51
  2
RECT
 10
90.4189
 20
17.4459
 30
0.0000
 41
0.5001
 42
0.9500
 43
1.0000
 50
90.0000
  0
INSERT
  8
51
  2
RECT
 10
90.4189
 20
18.6143
 30
0.0000
 41
0.5001
 42
0.9500
 43
1.0000
 50
90.0000
  0
POLYLINE
  8
51
 66
1
 10
0.0000
 20
0.0000
 30
0.0000
 40
0.1016
 41
0.1016
 70
0
  0
VERTEX
  8
51
 10
49.7490
 20
38.6440
 30
0.0000
  0
VERTEX
  8
51
 10
49.7490
 20
36.7940
 30
0.0000
  0
SEQEND
  8
0
  0
POLYLINE
  8
51
 66
1
 10
0.0000
 20
0.0000
 30
0.0000
 40
0.0508
 41
0.0508
 70
0
  0
VERTEX
  8
51
 10
49.7236
 20
36.7940
 30
0.0000
 42
1.0000
  0
VERTEX
  8
51
 10
49.7744
 20
36.7940
 30
0.0000
  0
SEQEND
  8
0
  0
POLYLINE
  8
51
 66
1
 10
0.0000
 20
0.0000
 30
0.0000
 40
0.0508
 41
0.0508
 70
0
  0
VERTEX
  8
51
 10
49.7744
 20
38.6440
 30
0.0000
 42
1.0000
  0
VERTEX
  8
51
 10
49.7236
 20
38.6440
 30
0.0000
  0
SEQEND
  8
0
  0
POLYLINE
  8
51
 66
1
 10
0.0000
 20
0.0000
 30
0.0000
 40
0.1016
 41
0.1016
 70
0
  0
VERTEX
  8
51
 10
48.5490
 20
36.7940
 30
0.0000
  0
VERTEX
  8
51
 10
48.5490
 20
38.6440
 30
0.0000
  0
SEQEND
  8
0
  0
POLYLINE
  8
51
 66
1
 10
0.0000
 20
0.0000
 30
0.0000
 40
0.0508
 41
0.0508
 70
0
  0
VERTEX
  8
51
 10
48.5744
 20
38.6440
 30
0.0000
 42
1.0000
  0
VERTEX
  8
51
 10
48.5236
 20
38.6440
 30
0.0000
  0
SEQEND
  8
0
  0
POLYLINE
  8
51
 66
1
 10
0.0000
 20
0.0000
 30
0.0000
 40
0.0508
 41
0.0508
 70
0
  0
VERTEX
  8
51
 10
48.5236
 20
36.7940
 30
0.0000
 42
1.0000
  0
VERTEX
  8
51
 10
48.5744
 20
36.7940
 30
0.0000
  0
SEQEND
  8
0
  0
INSERT
  8
51
  2
RECT
 10
49.1490
 20
38.4690
 30
0.0000
 41
0.5000
 42
1.3000
 43
1.0000
 50
270.0000
  0
INSERT
  8
51
  2
RECT
 10
49.1490
 20
36.9690
 30
0.0000
 41
0.5000
 42
1.3000
 43
1.0000
 50
270.0000
  0
POLYLINE
  8
51
 66
1
 10
0.0000
 20
0.0000
 30
0.0000
 40
0.1016
 41
0.1016
 70
0
  0
VERTEX
  8
51
 10
18.2245
 20
28.7405
 30
0.0000
  0
VERTEX
  8
51
 10
17.4625
 20
28.7405
 30
0.0000
  0
SEQEND
  8
0
  0
POLYLINE
  8
51
 66
1
 10
0.0000
 20
0.0000
 30
0.0000
 40
0.0508
 41
0.0508
 70
0
  0
VERTEX
  8
51
 10
17.4625
 20
28.7659
 30
0.0000
 42
1.0000
  0
VERTEX
  8
51
 10
17.4625
 20
28.7151
 30
0.0000
  0
SEQEND
  8
0
  0
POLYLINE
  8
51
 66
1
 10
0.0000
 20
0.0000
 30
0.0000
 40
0.0508
 41
0.0508
 70
0
  0
VERTEX
  8
51
 10
18.2245
 20
28.7151
 30
0.0000
 42
1.0000
  0
VERTEX
  8
51
 10
18.2245
 20
28.7659
 30
0.0000
  0
SEQEND
  8
0
  0
POLYLINE
  8
51
 66
1
 10
0.0000
 20
0.0000
 30
0.0000
 40
0.1016
 41
0.1016
 70
0
  0
VERTEX
  8
51
 10
18.1995
 20
30.0605
 30
0.0000
  0
VERTEX
  8
51
 10
17.4625
 20
30.0605
 30
0.0000
  0
SEQEND
  8
0
  0
POLYLINE
  8
51
 66
1
 10
0.0000
 20
0.0000
 30
0.0000
 40
0.0508
 41
0.0508
 70
0
  0
VERTEX
  8
51
 10
17.4625
 20
30.0859
 30
0.0000
 42
1.0000
  0
VERTEX
  8
51
 10
17.4625
 20
30.0351
 30
0.0000
  0
SEQEND
  8
0
  0
POLYLINE
  8
51
 66
1
 10
0.0000
 20
0.0000
 30
0.0000
 40
0.0508
 41
0.0508
 70
0
  0
VERTEX
  8
51
 10
18.1995
 20
30.0351
 30
0.0000
 42
1.0000
  0
VERTEX
  8
51
 10
18.1995
 20
30.0859
 30
0.0000
  0
SEQEND
  8
0
  0
INSERT
  8
51
  2
RECT
 10
18.5607
 20
29.3994
 30
0.0000
 41
0.7501
 42
1.4501
 43
1.0000
 50
180.0000
  0
INSERT
  8
51
  2
RECT
 10
17.1129
 20
29.3994
 30
0.0000
 41
0.7501
 42
1.4501
 43
1.0000
 50
180.0000
  0
POLYLINE
  8
51
 66
1
 10
0.0000
 20
0.0000
 30
0.0000
 40
0.1016
 41
0.1016
 70
0
  0
VERTEX
  8
51
 10
44.2210
 20
31.2420
 30
0.0000
  0
VERTEX
  8
51
 10
44.2210
 20
30.4800
 30
0.0000
  0
SEQEND
  8
0
  0
POLYLINE
  8
51
 66
1
 10
0.0000
 20
0.0000
 30
0.0000
 40
0.0508
 41
0.0508
 70
0
  0
VERTEX
  8
51
 10
44.1956
 20
30.4800
 30
0.0000
 42
1.0000
  0
VERTEX
  8
51
 10
44.2464
 20
30.4800
 30
0.0000
  0
SEQEND
  8
0
  0
POLYLINE
  8
51
 66
1
 10
0.0000
 20
0.0000
 30
0.0000
 40
0.0508
 41
0.0508
 70
0
  0
VERTEX
  8
51
 10
44.2464
 20
31.2420
 30
0.0000
 42
1.0000
  0
VERTEX
  8
51
 10
44.1956
 20
31.2420
 30
0.0000
  0
SEQEND
  8
0
  0
POLYLINE
  8
51
 66
1
 10
0.0000
 20
0.0000
 30
0.0000
 40
0.1016
 41
0.1016
 70
0
  0
VERTEX
  8
51
 10
42.9010
 20
31.2170
 30
0.0000
  0
VERTEX
  8
51
 10
42.9010
 20
30.4800
 30
0.0000
  0
SEQEND
  8
0
  0
POLYLINE
  8
51
 66
1
 10
0.0000
 20
0.0000
 30
0.0000
 40
0.0508
 41
0.0508
 70
0
  0
VERTEX
  8
51
 10
42.8756
 20
30.4800
 30
0.0000
 42
1.0000
  0
VERTEX
  8
51
 10
42.9264
 20
30.4800
 30
0.0000
  0
SEQEND
  8
0
  0
POLYLINE
  8
51
 66
1
 10
0.0000
 20
0.0000
 30
0.0000
 40
0.0508
 41
0.0508
 70
0
  0
VERTEX
  8
51
 10
42.9264
 20
31.2170
 30
0.0000
 42
1.0000
  0
VERTEX
  8
51
 10
42.8756
 20
31.2170
 30
0.0000
  0
SEQEND
  8
0
  0
INSERT
  8
51
  2
RECT
 10
43.5622
 20
31.5782
 30
0.0000
 41
0.7501
 42
1.4501
 43
1.0000
 50
270.0000
  0
INSERT
  8
51
  2
RECT
 10
43.5622
 20
30.1303
 30
0.0000
 41
0.7501
 42
1.4501
 43
1.0000
 50
270.0000
  0
POLYLINE
  8
51
 66
1
 10
0.0000
 20
0.0000
 30
0.0000
 40
0.1016
 41
0.1016
 70
0
  0
VERTEX
  8
51
 10
47.7774
 20
43.3578
 30
0.0000
  0
VERTEX
  8
51
 10
47.7774
 20
45.2882
 30
0.0000
  0
SEQEND
  8
0
  0
POLYLINE
  8
51
 66
1
 10
0.0000
 20
0.0000
 30
0.0000
 40
0.0508
 41
0.0508
 70
0
  0
VERTEX
  8
51
 10
47.8028
 20
45.2882
 30
0.0000
 42
1.0000
  0
VERTEX
  8
51
 10
47.7520
 20
45.2882
 30
0.0000
  0
SEQEND
  8
0
  0
POLYLINE
  8
51
 66
1
 10
0.0000
 20
0.0000
 30
0.0000
 40
0.0508
 41
0.0508
 70
0
  0
VERTEX
  8
51
 10
47.7520
 20
43.3578
 30
0.0000
 42
1.0000
  0
VERTEX
  8
51
 10
47.8028
 20
43.3578
 30
0.0000
  0
SEQEND
  8
0
  0
POLYLINE
  8
51
 66
1
 10
0.0000
 20
0.0000
 30
0.0000
 40
0.1016
 41
0.1016
 70
0
  0
VERTEX
  8
51
 10
50.2666
 20
43.3578
 30
0.0000
  0
VERTEX
  8
51
 10
50.2666
 20
45.2882
 30
0.0000
  0
SEQEND
  8
0
  0
POLYLINE
  8
51
 66
1
 10
0.0000
 20
0.0000
 30
0.0000
 40
0.0508
 41
0.0508
 70
0
  0
VERTEX
  8
51
 10
50.2920
 20
45.2882
 30
0.0000
 42
1.0000
  0
VERTEX
  8
51
 10
50.2412
 20
45.2882
 30
0.0000
  0
SEQEND
  8
0
  0
POLYLINE
  8
51
 66
1
 10
0.0000
 20
0.0000
 30
0.0000
 40
0.0508
 41
0.0508
 70
0
  0
VERTEX
  8
51
 10
50.2412
 20
43.3578
 30
0.0000
 42
1.0000
  0
VERTEX
  8
51
 10
50.2920
 20
43.3578
 30
0.0000
  0
SEQEND
  8
0
  0
INSERT
  8
51
  2
RECT
 10
49.0175
 20
42.9963
 30
0.0000
 41
0.7501
 42
2.5999
 43
1.0000
 50
90.0000
  0
INSERT
  8
51
  2
RECT
 10
49.0266
 20
45.6498
 30
0.0000
 41
0.7501
 42
2.5999
 43
1.0000
 50
90.0000
  0
POLYLINE
  8
51
 66
1
 10
0.0000
 20
0.0000
 30
0.0000
 40
0.1016
 41
0.1016
 70
0
  0
VERTEX
  8
51
 10
90.8560
 20
22.4540
 30
0.0000
  0
VERTEX
  8
51
 10
90.8560
 20
21.7420
 30
0.0000
  0
SEQEND
  8
0
  0
POLYLINE
  8
51
 66
1
 10
0.0000
 20
0.0000
 30
0.0000
 40
0.0508
 41
0.0508
 70
0
  0
VERTEX
  8
51
 10
90.8306
 20
21.7420
 30
0.0000
 42
1.0000
  0
VERTEX
  8
51
 10
90.8814
 20
21.7420
 30
0.0000
  0
SEQEND
  8
0
  0
POLYLINE
  8
51
 66
1
 10
0.0000
 20
0.0000
 30
0.0000
 40
0.0508
 41
0.0508
 70
0
  0
VERTEX
  8
51
 10
90.8814
 20
22.4540
 30
0.0000
 42
1.0000
  0
VERTEX
  8
51
 10
90.8306
 20
22.4540
 30
0.0000
  0
SEQEND
  8
0
  0
POLYLINE
  8
51
 66
1
 10
0.0000
 20
0.0000
 30
0.0000
 40
0.1016
 41
0.1016
 70
0
  0
VERTEX
  8
51
 10
90.0050
 20
22.4540
 30
0.0000
  0
VERTEX
  8
51
 10
90.0050
 20
21.7420
 30
0.0000
  0
SEQEND
  8
0
  0
POLYLINE
  8
51
 66
1
 10
0.0000
 20
0.0000
 30
0.0000
 40
0.0508
 41
0.0508
 70
0
  0
VERTEX
  8
51
 10
89.9796
 20
21.7420
 30
0.0000
 42
1.0000
  0
VERTEX
  8
51
 10
90.0304
 20
21.7420
 30
0.0000
  0
SEQEND
  8
0
  0
POLYLINE
  8
51
 66
1
 10
0.0000
 20
0.0000
 30
0.0000
 40
0.0508
 41
0.0508
 70
0
  0
VERTEX
  8
51
 10
90.0304
 20
22.4540
 30
0.0000
 42
1.0000
  0
VERTEX
  8
51
 10
89.9796
 20
22.4540
 30
0.0000
  0
SEQEND
  8
0
  0
INSERT
  8
51
  2
RECT
 10
90.4291
 20
22.6862
 30
0.0000
 41
0.5001
 42
0.9500
 43
1.0000
 50
270.0000
  0
INSERT
  8
51
  2
RECT
 10
90.4291
 20
21.5177
 30
0.0000
 41
0.5001
 42
0.9500
 43
1.0000
 50
270.0000
  0
POLYLINE
  8
51
 66
1
 10
0.0000
 20
0.0000
 30
0.0000
 40
0.1016
 41
0.1016
 70
0
  0
VERTEX
  8
51
 10
35.8525
 20
44.8945
 30
0.0000
  0
VERTEX
  8
51
 10
35.8525
 20
45.6565
 30
0.0000
  0
SEQEND
  8
0
  0
POLYLINE
  8
51
 66
1
 10
0.0000
 20
0.0000
 30
0.0000
 40
0.0508
 41
0.0508
 70
0
  0
VERTEX
  8
51
 10
35.8779
 20
45.6565
 30
0.0000
 42
1.0000
  0
VERTEX
  8
51
 10
35.8271
 20
45.6565
 30
0.0000
  0
SEQEND
  8
0
  0
POLYLINE
  8
51
 66
1
 10
0.0000
 20
0.0000
 30
0.0000
 40
0.0508
 41
0.0508
 70
0
  0
VERTEX
  8
51
 10
35.8271
 20
44.8945
 30
0.0000
 42
1.0000
  0
VERTEX
  8
51
 10
35.8779
 20
44.8945
 30
0.0000
  0
SEQEND
  8
0
  0
POLYLINE
  8
51
 66
1
 10
0.0000
 20
0.0000
 30
0.0000
 40
0.1016
 41
0.1016
 70
0
  0
VERTEX
  8
51
 10
37.1725
 20
44.9195
 30
0.0000
  0
VERTEX
  8
51
 10
37.1725
 20
45.6565
 30
0.0000
  0
SEQEND
  8
0
  0
POLYLINE
  8
51
 66
1
 10
0.0000
 20
0.0000
 30
0.0000
 40
0.0508
 41
0.0508
 70
0
  0
VERTEX
  8
51
 10
37.1979
 20
45.6565
 30
0.0000
 42
1.0000
  0
VERTEX
  8
51
 10
37.1471
 20
45.6565
 30
0.0000
  0
SEQEND
  8
0
  0
POLYLINE
  8
51
 66
1
 10
0.0000
 20
0.0000
 30
0.0000
 40
0.0508
 41
0.0508
 70
0
  0
VERTEX
  8
51
 10
37.1471
 20
44.9195
 30
0.0000
 42
1.0000
  0
VERTEX
  8
51
 10
37.1979
 20
44.9195
 30
0.0000
  0
SEQEND
  8
0
  0
INSERT
  8
51
  2
RECT
 10
36.5114
 20
44.5584
 30
0.0000
 41
0.7501
 42
1.4501
 43
1.0000
 50
90.0000
  0
INSERT
  8
51
  2
RECT
 10
36.5114
 20
46.0062
 30
0.0000
 41
0.7501
 42
1.4501
 43
1.0000
 50
90.0000
  0
POLYLINE
  8
51
 66
1
 10
0.0000
 20
0.0000
 30
0.0000
 40
0.1016
 41
0.1016
 70
0
  0
VERTEX
  8
51
 10
41.5540
 20
31.2420
 30
0.0000
  0
VERTEX
  8
51
 10
41.5540
 20
30.4800
 30
0.0000
  0
SEQEND
  8
0
  0
POLYLINE
  8
51
 66
1
 10
0.0000
 20
0.0000
 30
0.0000
 40
0.0508
 41
0.0508
 70
0
  0
VERTEX
  8
51
 10
41.5286
 20
30.4800
 30
0.0000
 42
1.0000
  0
VERTEX
  8
51
 10
41.5794
 20
30.4800
 30
0.0000
  0
SEQEND
  8
0
  0
POLYLINE
  8
51
 66
1
 10
0.0000
 20
0.0000
 30
0.0000
 40
0.0508
 41
0.0508
 70
0
  0
VERTEX
  8
51
 10
41.5794
 20
31.2420
 30
0.0000
 42
1.0000
  0
VERTEX
  8
51
 10
41.5286
 20
31.2420
 30
0.0000
  0
SEQEND
  8
0
  0
POLYLINE
  8
51
 66
1
 10
0.0000
 20
0.0000
 30
0.0000
 40
0.1016
 41
0.1016
 70
0
  0
VERTEX
  8
51
 10
40.2340
 20
31.2170
 30
0.0000
  0
VERTEX
  8
51
 10
40.2340
 20
30.4800
 30
0.0000
  0
SEQEND
  8
0
  0
POLYLINE
  8
51
 66
1
 10
0.0000
 20
0.0000
 30
0.0000
 40
0.0508
 41
0.0508
 70
0
  0
VERTEX
  8
51
 10
40.2086
 20
30.4800
 30
0.0000
 42
1.0000
  0
VERTEX
  8
51
 10
40.2594
 20
30.4800
 30
0.0000
  0
SEQEND
  8
0
  0
POLYLINE
  8
51
 66
1
 10
0.0000
 20
0.0000
 30
0.0000
 40
0.0508
 41
0.0508
 70
0
  0
VERTEX
  8
51
 10
40.2594
 20
31.2170
 30
0.0000
 42
1.0000
  0
VERTEX
  8
51
 10
40.2086
 20
31.2170
 30
0.0000
  0
SEQEND
  8
0
  0
INSERT
  8
51
  2
RECT
 10
40.8952
 20
31.5782
 30
0.0000
 41
0.7501
 42
1.4501
 43
1.0000
 50
270.0000
  0
INSERT
  8
51
  2
RECT
 10
40.8952
 20
30.1303
 30
0.0000
 41
0.7501
 42
1.4501
 43
1.0000
 50
270.0000
  0
POLYLINE
  8
51
 66
1
 10
0.0000
 20
0.0000
 30
0.0000
 40
0.1016
 41
0.1016
 70
0
  0
VERTEX
  8
51
 10
8.6383
 20
39.8653
 30
0.0000
  0
VERTEX
  8
51
 10
8.6383
 20
42.8117
 30
0.0000
  0
SEQEND
  8
0
  0
POLYLINE
  8
51
 66
1
 10
0.0000
 20
0.0000
 30
0.0000
 40
0.0508
 41
0.0508
 70
0
  0
VERTEX
  8
51
 10
8.6637
 20
42.8117
 30
0.0000
 42
1.0000
  0
VERTEX
  8
51
 10
8.6129
 20
42.8117
 30
0.0000
  0
SEQEND
  8
0
  0
POLYLINE
  8
51
 66
1
 10
0.0000
 20
0.0000
 30
0.0000
 40
0.0508
 41
0.0508
 70
0
  0
VERTEX
  8
51
 10
8.6129
 20
39.8653
 30
0.0000
 42
1.0000
  0
VERTEX
  8
51
 10
8.6637
 20
39.8653
 30
0.0000
  0
SEQEND
  8
0
  0
POLYLINE
  8
51
 66
1
 10
0.0000
 20
0.0000
 30
0.0000
 40
0.1016
 41
0.1016
 70
0
  0
VERTEX
  8
51
 10
10.5387
 20
39.8907
 30
0.0000
  0
VERTEX
  8
51
 10
10.5387
 20
42.8117
 30
0.0000
  0
SEQEND
  8
0
  0
POLYLINE
  8
51
 66
1
 10
0.0000
 20
0.0000
 30
0.0000
 40
0.0508
 41
0.0508
 70
0
  0
VERTEX
  8
51
 10
10.5641
 20
42.8117
 30
0.0000
 42
1.0000
  0
VERTEX
  8
51
 10
10.5133
 20
42.8117
 30
0.0000
  0
SEQEND
  8
0
  0
POLYLINE
  8
51
 66
1
 10
0.0000
 20
0.0000
 30
0.0000
 40
0.0508
 41
0.0508
 70
0
  0
VERTEX
  8
51
 10
10.5133
 20
39.8907
 30
0.0000
 42
1.0000
  0
VERTEX
  8
51
 10
10.5641
 20
39.8907
 30
0.0000
  0
SEQEND
  8
0
  0
INSERT
  8
51
  2
RECT
 10
9.5885
 20
39.5885
 30
0.0000
 41
1.0500
 42
2.0300
 43
1.0000
 50
90.0000
  0
INSERT
  8
51
  2
RECT
 10
9.5885
 20
43.0885
 30
0.0000
 41
1.0500
 42
2.0300
 43
1.0000
 50
90.0000
  0
POLYLINE
  8
51
 66
1
 10
0.0000
 20
0.0000
 30
0.0000
 40
0.1524
 41
0.1524
 70
0
  0
VERTEX
  8
51
 10
97.0580
 20
26.8060
 30
0.0000
  0
VERTEX
  8
51
 10
97.0580
 20
27.2960
 30
0.0000
  0
SEQEND
  8
0
  0
POLYLINE
  8
51
 66
1
 10
0.0000
 20
0.0000
 30
0.0000
 40
0.0762
 41
0.0762
 70
0
  0
VERTEX
  8
51
 10
97.0961
 20
27.2960
 30
0.0000
 42
1.0000
  0
VERTEX
  8
51
 10
97.0199
 20
27.2960
 30
0.0000
  0
SEQEND
  8
0
  0
POLYLINE
  8
51
 66
1
 10
0.0000
 20
0.0000
 30
0.0000
 40
0.0762
 41
0.0762
 70
0
  0
VERTEX
  8
51
 10
97.0199
 20
26.8060
 30
0.0000
 42
1.0000
  0
VERTEX
  8
51
 10
97.0961
 20
26.8060
 30
0.0000
  0
SEQEND
  8
0
  0
POLYLINE
  8
51
 66
1
 10
0.0000
 20
0.0000
 30
0.0000
 40
0.1524
 41
0.1524
 70
0
  0
VERTEX
  8
51
 10
97.5060
 20
27.2960
 30
0.0000
  0
VERTEX
  8
51
 10
97.5060
 20
26.8060
 30
0.0000
  0
SEQEND
  8
0
  0
POLYLINE
  8
51
 66
1
 10
0.0000
 20
0.0000
 30
0.0000
 40
0.0762
 41
0.0762
 70
0
  0
VERTEX
  8
51
 10
97.4679
 20
26.8060
 30
0.0000
 42
1.0000
  0
VERTEX
  8
51
 10
97.5441
 20
26.8060
 30
0.0000
  0
SEQEND
  8
0
  0
POLYLINE
  8
51
 66
1
 10
0.0000
 20
0.0000
 30
0.0000
 40
0.0762
 41
0.0762
 70
0
  0
VERTEX
  8
51
 10
97.5441
 20
27.2960
 30
0.0000
 42
1.0000
  0
VERTEX
  8
51
 10
97.4679
 20
27.2960
 30
0.0000
  0
SEQEND
  8
0
  0
INSERT
  8
51
  2
RECT
 10
97.2869
 20
26.6470
 30
0.0000
 41
0.3000
 42
0.5999
 43
1.0000
 50
90.0000
  0
INSERT
  8
51
  2
RECT
 10
97.2869
 20
27.4598
 30
0.0000
 41
0.3000
 42
0.5999
 43
1.0000
 50
90.0000
  0
POLYLINE
  8
51
 66
1
 10
0.0000
 20
0.0000
 30
0.0000
 40
0.1016
 41
0.1016
 70
0
  0
VERTEX
  8
51
 10
58.3311
 20
32.0802
 30
0.0000
  0
VERTEX
  8
51
 10
58.3311
 20
30.1498
 30
0.0000
  0
SEQEND
  8
0
  0
POLYLINE
  8
51
 66
1
 10
0.0000
 20
0.0000
 30
0.0000
 40
0.0508
 41
0.0508
 70
0
  0
VERTEX
  8
51
 10
58.3057
 20
30.1498
 30
0.0000
 42
1.0000
  0
VERTEX
  8
51
 10
58.3565
 20
30.1498
 30
0.0000
  0
SEQEND
  8
0
  0
POLYLINE
  8
51
 66
1
 10
0.0000
 20
0.0000
 30
0.0000
 40
0.0508
 41
0.0508
 70
0
  0
VERTEX
  8
51
 10
58.3565
 20
32.0802
 30
0.0000
 42
1.0000
  0
VERTEX
  8
51
 10
58.3057
 20
32.0802
 30
0.0000
  0
SEQEND
  8
0
  0
POLYLINE
  8
51
 66
1
 10
0.0000
 20
0.0000
 30
0.0000
 40
0.1016
 41
0.1016
 70
0
  0
VERTEX
  8
51
 10
55.8419
 20
32.0802
 30
0.0000
  0
VERTEX
  8
51
 10
55.8419
 20
30.1498
 30
0.0000
  0
SEQEND
  8
0
  0
POLYLINE
  8
51
 66
1
 10
0.0000
 20
0.0000
 30
0.0000
 40
0.0508
 41
0.0508
 70
0
  0
VERTEX
  8
51
 10
55.8165
 20
30.1498
 30
0.0000
 42
1.0000
  0
VERTEX
  8
51
 10
55.8673
 20
30.1498
 30
0.0000
  0
SEQEND
  8
0
  0
POLYLINE
  8
51
 66
1
 10
0.0000
 20
0.0000
 30
0.0000
 40
0.0508
 41
0.0508
 70
0
  0
VERTEX
  8
51
 10
55.8673
 20
32.0802
 30
0.0000
 42
1.0000
  0
VERTEX
  8
51
 10
55.8165
 20
32.0802
 30
0.0000
  0
SEQEND
  8
0
  0
INSERT
  8
51
  2
RECT
 10
57.0911
 20
32.4417
 30
0.0000
 41
0.7501
 42
2.5999
 43
1.0000
 50
270.0000
  0
INSERT
  8
51
  2
RECT
 10
57.0820
 20
29.7883
 30
0.0000
 41
0.7501
 42
2.5999
 43
1.0000
 50
270.0000
  0
POLYLINE
  8
51
 66
1
 10
0.0000
 20
0.0000
 30
0.0000
 40
0.1016
 41
0.1016
 70
0
  0
VERTEX
  8
51
 10
22.3270
 20
32.7785
 30
0.0000
  0
VERTEX
  8
51
 10
21.6150
 20
32.7785
 30
0.0000
  0
SEQEND
  8
0
  0
POLYLINE
  8
51
 66
1
 10
0.0000
 20
0.0000
 30
0.0000
 40
0.0508
 41
0.0508
 70
0
  0
VERTEX
  8
51
 10
21.6150
 20
32.8039
 30
0.0000
 42
1.0000
  0
VERTEX
  8
51
 10
21.6150
 20
32.7531
 30
0.0000
  0
SEQEND
  8
0
  0
POLYLINE
  8
51
 66
1
 10
0.0000
 20
0.0000
 30
0.0000
 40
0.0508
 41
0.0508
 70
0
  0
VERTEX
  8
51
 10
22.3270
 20
32.7531
 30
0.0000
 42
1.0000
  0
VERTEX
  8
51
 10
22.3270
 20
32.8039
 30
0.0000
  0
SEQEND
  8
0
  0
POLYLINE
  8
51
 66
1
 10
0.0000
 20
0.0000
 30
0.0000
 40
0.1016
 41
0.1016
 70
0
  0
VERTEX
  8
51
 10
22.3270
 20
33.6295
 30
0.0000
  0
VERTEX
  8
51
 10
21.6150
 20
33.6295
 30
0.0000
  0
SEQEND
  8
0
  0
POLYLINE
  8
51
 66
1
 10
0.0000
 20
0.0000
 30
0.0000
 40
0.0508
 41
0.0508
 70
0
  0
VERTEX
  8
51
 10
21.6150
 20
33.6549
 30
0.0000
 42
1.0000
  0
VERTEX
  8
51
 10
21.6150
 20
33.6041
 30
0.0000
  0
SEQEND
  8
0
  0
POLYLINE
  8
51
 66
1
 10
0.0000
 20
0.0000
 30
0.0000
 40
0.0508
 41
0.0508
 70
0
  0
VERTEX
  8
51
 10
22.3270
 20
33.6041
 30
0.0000
 42
1.0000
  0
VERTEX
  8
51
 10
22.3270
 20
33.6549
 30
0.0000
  0
SEQEND
  8
0
  0
INSERT
  8
51
  2
RECT
 10
22.5592
 20
33.2054
 30
0.0000
 41
0.5001
 42
0.9500
 43
1.0000
 50
180.0000
  0
INSERT
  8
51
  2
RECT
 10
21.3908
 20
33.2054
 30
0.0000
 41
0.5001
 42
0.9500
 43
1.0000
 50
180.0000
  0
POLYLINE
  8
51
 66
1
 10
0.0000
 20
0.0000
 30
0.0000
 40
0.1016
 41
0.1016
 70
0
  0
VERTEX
  8
51
 10
53.9369
 20
43.3578
 30
0.0000
  0
VERTEX
  8
51
 10
53.9369
 20
45.2882
 30
0.0000
  0
SEQEND
  8
0
  0
POLYLINE
  8
51
 66
1
 10
0.0000
 20
0.0000
 30
0.0000
 40
0.0508
 41
0.0508
 70
0
  0
VERTEX
  8
51
 10
53.9623
 20
45.2882
 30
0.0000
 42
1.0000
  0
VERTEX
  8
51
 10
53.9115
 20
45.2882
 30
0.0000
  0
SEQEND
  8
0
  0
POLYLINE
  8
51
 66
1
 10
0.0000
 20
0.0000
 30
0.0000
 40
0.0508
 41
0.0508
 70
0
  0
VERTEX
  8
51
 10
53.9115
 20
43.3578
 30
0.0000
 42
1.0000
  0
VERTEX
  8
51
 10
53.9623
 20
43.3578
 30
0.0000
  0
SEQEND
  8
0
  0
POLYLINE
  8
51
 66
1
 10
0.0000
 20
0.0000
 30
0.0000
 40
0.1016
 41
0.1016
 70
0
  0
VERTEX
  8
51
 10
56.4261
 20
43.3578
 30
0.0000
  0
VERTEX
  8
51
 10
56.4261
 20
45.2882
 30
0.0000
  0
SEQEND
  8
0
  0
POLYLINE
  8
51
 66
1
 10
0.0000
 20
0.0000
 30
0.0000
 40
0.0508
 41
0.0508
 70
0
  0
VERTEX
  8
51
 10
56.4515
 20
45.2882
 30
0.0000
 42
1.0000
  0
VERTEX
  8
51
 10
56.4007
 20
45.2882
 30
0.0000
  0
SEQEND
  8
0
  0
POLYLINE
  8
51
 66
1
 10
0.0000
 20
0.0000
 30
0.0000
 40
0.0508
 41
0.0508
 70
0
  0
VERTEX
  8
51
 10
56.4007
 20
43.3578
 30
0.0000
 42
1.0000
  0
VERTEX
  8
51
 10
56.4515
 20
43.3578
 30
0.0000
  0
SEQEND
  8
0
  0
INSERT
  8
51
  2
RECT
 10
55.1770
 20
42.9963
 30
0.0000
 41
0.7501
 42
2.5999
 43
1.0000
 50
90.0000
  0
INSERT
  8
51
  2
RECT
 10
55.1861
 20
45.6498
 30
0.0000
 41
0.7501
 42
2.5999
 43
1.0000
 50
90.0000
  0
POLYLINE
  8
51
 66
1
 10
0.0000
 20
0.0000
 30
0.0000
 40
0.1524
 41
0.1524
 70
0
  0
VERTEX
  8
51
 10
93.6290
 20
31.8860
 30
0.0000
  0
VERTEX
  8
51
 10
93.6290
 20
32.3760
 30
0.0000
  0
SEQEND
  8
0
  0
POLYLINE
  8
51
 66
1
 10
0.0000
 20
0.0000
 30
0.0000
 40
0.0762
 41
0.0762
 70
0
  0
VERTEX
  8
51
 10
93.6671
 20
32.3760
 30
0.0000
 42
1.0000
  0
VERTEX
  8
51
 10
93.5909
 20
32.3760
 30
0.0000
  0
SEQEND
  8
0
  0
POLYLINE
  8
51
 66
1
 10
0.0000
 20
0.0000
 30
0.0000
 40
0.0762
 41
0.0762
 70
0
  0
VERTEX
  8
51
 10
93.5909
 20
31.8860
 30
0.0000
 42
1.0000
  0
VERTEX
  8
51
 10
93.6671
 20
31.8860
 30
0.0000
  0
SEQEND
  8
0
  0
POLYLINE
  8
51
 66
1
 10
0.0000
 20
0.0000
 30
0.0000
 40
0.1524
 41
0.1524
 70
0
  0
VERTEX
  8
51
 10
94.0770
 20
32.3760
 30
0.0000
  0
VERTEX
  8
51
 10
94.0770
 20
31.8860
 30
0.0000
  0
SEQEND
  8
0
  0
POLYLINE
  8
51
 66
1
 10
0.0000
 20
0.0000
 30
0.0000
 40
0.0762
 41
0.0762
 70
0
  0
VERTEX
  8
51
 10
94.0389
 20
31.8860
 30
0.0000
 42
1.0000
  0
VERTEX
  8
51
 10
94.1151
 20
31.8860
 30
0.0000
  0
SEQEND
  8
0
  0
POLYLINE
  8
51
 66
1
 10
0.0000
 20
0.0000
 30
0.0000
 40
0.0762
 41
0.0762
 70
0
  0
VERTEX
  8
51
 10
94.1151
 20
32.3760
 30
0.0000
 42
1.0000
  0
VERTEX
  8
51
 10
94.0389
 20
32.3760
 30
0.0000
  0
SEQEND
  8
0
  0
INSERT
  8
51
  2
RECT
 10
93.8578
 20
31.7270
 30
0.0000
 41
0.3000
 42
0.5999
 43
1.0000
 50
90.0000
  0
INSERT
  8
51
  2
RECT
 10
93.8578
 20
32.5398
 30
0.0000
 41
0.3000
 42
0.5999
 43
1.0000
 50
90.0000
  0
POLYLINE
  8
51
 66
1
 10
0.0000
 20
0.0000
 30
0.0000
 40
0.1016
 41
0.1016
 70
0
  0
VERTEX
  8
51
 10
52.9205
 20
44.7675
 30
0.0000
  0
VERTEX
  8
51
 10
52.9205
 20
44.0055
 30
0.0000
  0
SEQEND
  8
0
  0
POLYLINE
  8
51
 66
1
 10
0.0000
 20
0.0000
 30
0.0000
 40
0.0508
 41
0.0508
 70
0
  0
VERTEX
  8
51
 10
52.8951
 20
44.0055
 30
0.0000
 42
1.0000
  0
VERTEX
  8
51
 10
52.9459
 20
44.0055
 30
0.0000
  0
SEQEND
  8
0
  0
POLYLINE
  8
51
 66
1
 10
0.0000
 20
0.0000
 30
0.0000
 40
0.0508
 41
0.0508
 70
0
  0
VERTEX
  8
51
 10
52.9459
 20
44.7675
 30
0.0000
 42
1.0000
  0
VERTEX
  8
51
 10
52.8951
 20
44.7675
 30
0.0000
  0
SEQEND
  8
0
  0
POLYLINE
  8
51
 66
1
 10
0.0000
 20
0.0000
 30
0.0000
 40
0.1016
 41
0.1016
 70
0
  0
VERTEX
  8
51
 10
51.6005
 20
44.7425
 30
0.0000
  0
VERTEX
  8
51
 10
51.6005
 20
44.0055
 30
0.0000
  0
SEQEND
  8
0
  0
POLYLINE
  8
51
 66
1
 10
0.0000
 20
0.0000
 30
0.0000
 40
0.0508
 41
0.0508
 70
0
  0
VERTEX
  8
51
 10
51.5751
 20
44.0055
 30
0.0000
 42
1.0000
  0
VERTEX
  8
51
 10
51.6259
 20
44.0055
 30
0.0000
  0
SEQEND
  8
0
  0
POLYLINE
  8
51
 66
1
 10
0.0000
 20
0.0000
 30
0.0000
 40
0.0508
 41
0.0508
 70
0
  0
VERTEX
  8
51
 10
51.6259
 20
44.7425
 30
0.0000
 42
1.0000
  0
VERTEX
  8
51
 10
51.5751
 20
44.7425
 30
0.0000
  0
SEQEND
  8
0
  0
INSERT
  8
51
  2
RECT
 10
52.2617
 20
45.1037
 30
0.0000
 41
0.7501
 42
1.4501
 43
1.0000
 50
270.0000
  0
INSERT
  8
51
  2
RECT
 10
52.2617
 20
43.6559
 30
0.0000
 41
0.7501
 42
1.4501
 43
1.0000
 50
270.0000
  0
POLYLINE
  8
51
 66
1
 10
0.0000
 20
0.0000
 30
0.0000
 40
0.1016
 41
0.1016
 70
0
  0
VERTEX
  8
51
 10
89.6370
 20
12.6240
 30
0.0000
  0
VERTEX
  8
51
 10
89.6370
 20
14.5540
 30
0.0000
  0
SEQEND
  8
0
  0
POLYLINE
  8
51
 66
1
 10
0.0000
 20
0.0000
 30
0.0000
 40
0.0508
 41
0.0508
 70
0
  0
VERTEX
  8
51
 10
89.6624
 20
14.5540
 30
0.0000
 42
1.0000
  0
VERTEX
  8
51
 10
89.6116
 20
14.5540
 30
0.0000
  0
SEQEND
  8
0
  0
POLYLINE
  8
51
 66
1
 10
0.0000
 20
0.0000
 30
0.0000
 40
0.0508
 41
0.0508
 70
0
  0
VERTEX
  8
51
 10
89.6116
 20
12.6240
 30
0.0000
 42
1.0000
  0
VERTEX
  8
51
 10
89.6624
 20
12.6240
 30
0.0000
  0
SEQEND
  8
0
  0
POLYLINE
  8
51
 66
1
 10
0.0000
 20
0.0000
 30
0.0000
 40
0.1016
 41
0.1016
 70
0
  0
VERTEX
  8
51
 10
91.2110
 20
12.6240
 30
0.0000
  0
VERTEX
  8
51
 10
91.2110
 20
14.5540
 30
0.0000
  0
SEQEND
  8
0
  0
POLYLINE
  8
51
 66
1
 10
0.0000
 20
0.0000
 30
0.0000
 40
0.0508
 41
0.0508
 70
0
  0
VERTEX
  8
51
 10
91.2364
 20
14.5540
 30
0.0000
 42
1.0000
  0
VERTEX
  8
51
 10
91.1856
 20
14.5540
 30
0.0000
  0
SEQEND
  8
0
  0
POLYLINE
  8
51
 66
1
 10
0.0000
 20
0.0000
 30
0.0000
 40
0.0508
 41
0.0508
 70
0
  0
VERTEX
  8
51
 10
91.1856
 20
12.6240
 30
0.0000
 42
1.0000
  0
VERTEX
  8
51
 10
91.2364
 20
12.6240
 30
0.0000
  0
SEQEND
  8
0
  0
INSERT
  8
51
  2
RECT
 10
90.4249
 20
12.2622
 30
0.0000
 41
0.7501
 42
1.7000
 43
1.0000
 50
90.0000
  0
INSERT
  8
51
  2
RECT
 10
90.4231
 20
14.9158
 30
0.0000
 41
0.7501
 42
1.7000
 43
1.0000
 50
90.0000
  0
POLYLINE
  8
51
 66
1
 10
0.0000
 20
0.0000
 30
0.0000
 40
0.1270
 41
0.1270
 70
0
  0
VERTEX
  8
51
 10
49.5935
 20
15.5575
 30
0.0000
  0
VERTEX
  8
51
 10
48.3235
 20
15.5575
 30
0.0000
  0
SEQEND
  8
0
  0
POLYLINE
  8
51
 66
1
 10
0.0000
 20
0.0000
 30
0.0000
 40
0.0635
 41
0.0635
 70
0
  0
VERTEX
  8
51
 10
48.3235
 20
15.5893
 30
0.0000
 42
1.0000
  0
VERTEX
  8
51
 10
48.3235
 20
15.5258
 30
0.0000
  0
SEQEND
  8
0
  0
POLYLINE
  8
51
 66
1
 10
0.0000
 20
0.0000
 30
0.0000
 40
0.0635
 41
0.0635
 70
0
  0
VERTEX
  8
51
 10
49.5935
 20
15.5258
 30
0.0000
 42
1.0000
  0
VERTEX
  8
51
 10
49.5935
 20
15.5893
 30
0.0000
  0
SEQEND
  8
0
  0
POLYLINE
  8
51
 66
1
 10
0.0000
 20
0.0000
 30
0.0000
 40
0.1270
 41
0.1270
 70
0
  0
VERTEX
  8
51
 10
48.3235
 20
15.5575
 30
0.0000
  0
VERTEX
  8
51
 10
48.3235
 20
17.5895
 30
0.0000
  0
SEQEND
  8
0
  0
POLYLINE
  8
51
 66
1
 10
0.0000
 20
0.0000
 30
0.0000
 40
0.0635
 41
0.0635
 70
0
  0
VERTEX
  8
51
 10
48.3553
 20
17.5895
 30
0.0000
 42
1.0000
  0
VERTEX
  8
51
 10
48.2918
 20
17.5895
 30
0.0000
  0
SEQEND
  8
0
  0
POLYLINE
  8
51
 66
1
 10
0.0000
 20
0.0000
 30
0.0000
 40
0.0635
 41
0.0635
 70
0
  0
VERTEX
  8
51
 10
48.2918
 20
15.5575
 30
0.0000
 42
1.0000
  0
VERTEX
  8
51
 10
48.3553
 20
15.5575
 30
0.0000
  0
SEQEND
  8
0
  0
POLYLINE
  8
51
 66
1
 10
0.0000
 20
0.0000
 30
0.0000
 40
0.1270
 41
0.1270
 70
0
  0
VERTEX
  8
51
 10
48.3235
 20
17.5895
 30
0.0000
  0
VERTEX
  8
51
 10
49.5935
 20
17.5895
 30
0.0000
  0
SEQEND
  8
0
  0
POLYLINE
  8
51
 66
1
 10
0.0000
 20
0.0000
 30
0.0000
 40
0.0635
 41
0.0635
 70
0
  0
VERTEX
  8
51
 10
49.5935
 20
17.5578
 30
0.0000
 42
1.0000
  0
VERTEX
  8
51
 10
49.5935
 20
17.6212
 30
0.0000
  0
SEQEND
  8
0
  0
POLYLINE
  8
51
 66
1
 10
0.0000
 20
0.0000
 30
0.0000
 40
0.0635
 41
0.0635
 70
0
  0
VERTEX
  8
51
 10
48.3235
 20
17.6212
 30
0.0000
 42
1.0000
  0
VERTEX
  8
51
 10
48.3235
 20
17.5578
 30
0.0000
  0
SEQEND
  8
0
  0
POLYLINE
  8
51
 66
1
 10
0.0000
 20
0.0000
 30
0.0000
 40
0.1270
 41
0.1270
 70
0
  0
VERTEX
  8
51
 10
49.5935
 20
17.5895
 30
0.0000
  0
VERTEX
  8
51
 10
49.5935
 20
15.5575
 30
0.0000
  0
SEQEND
  8
0
  0
POLYLINE
  8
51
 66
1
 10
0.0000
 20
0.0000
 30
0.0000
 40
0.0635
 41
0.0635
 70
0
  0
VERTEX
  8
51
 10
49.5618
 20
15.5575
 30
0.0000
 42
1.0000
  0
VERTEX
  8
51
 10
49.6253
 20
15.5575
 30
0.0000
  0
SEQEND
  8
0
  0
POLYLINE
  8
51
 66
1
 10
0.0000
 20
0.0000
 30
0.0000
 40
0.0635
 41
0.0635
 70
0
  0
VERTEX
  8
51
 10
49.6253
 20
17.5895
 30
0.0000
 42
1.0000
  0
VERTEX
  8
51
 10
49.5618
 20
17.5895
 30
0.0000
  0
SEQEND
  8
0
  0
POLYLINE
  8
51
 66
1
 10
0.0000
 20
0.0000
 30
0.0000
 40
0.2540
 41
0.2540
 70
0
  0
VERTEX
  8
51
 10
69.5960
 20
35.4965
 30
0.0000
  0
VERTEX
  8
51
 10
69.5960
 20
36.0045
 30
0.0000
  0
SEQEND
  8
0
  0
POLYLINE
  8
51
 66
1
 10
0.0000
 20
0.0000
 30
0.0000
 40
0.1270
 41
0.1270
 70
0
  0
VERTEX
  8
51
 10
69.6595
 20
36.0045
 30
0.0000
 42
1.0000
  0
VERTEX
  8
51
 10
69.5325
 20
36.0045
 30
0.0000
  0
SEQEND
  8
0
  0
POLYLINE
  8
51
 66
1
 10
0.0000
 20
0.0000
 30
0.0000
 40
0.1270
 41
0.1270
 70
0
  0
VERTEX
  8
51
 10
69.5325
 20
35.4965
 30
0.0000
 42
1.0000
  0
VERTEX
  8
51
 10
69.6595
 20
35.4965
 30
0.0000
  0
SEQEND
  8
0
  0
POLYLINE
  8
51
 66
1
 10
0.0000
 20
0.0000
 30
0.0000
 40
0.2540
 41
0.2540
 70
0
  0
VERTEX
  8
51
 10
69.3420
 20
35.7505
 30
0.0000
  0
VERTEX
  8
51
 10
69.8500
 20
35.7505
 30
0.0000
  0
SEQEND
  8
0
  0
POLYLINE
  8
51
 66
1
 10
0.0000
 20
0.0000
 30
0.0000
 40
0.1270
 41
0.1270
 70
0
  0
VERTEX
  8
51
 10
69.8500
 20
35.6870
 30
0.0000
 42
1.0000
  0
VERTEX
  8
51
 10
69.8500
 20
35.8140
 30
0.0000
  0
SEQEND
  8
0
  0
POLYLINE
  8
51
 66
1
 10
0.0000
 20
0.0000
 30
0.0000
 40
0.1270
 41
0.1270
 70
0
  0
VERTEX
  8
51
 10
69.3420
 20
35.8140
 30
0.0000
 42
1.0000
  0
VERTEX
  8
51
 10
69.3420
 20
35.6870
 30
0.0000
  0
SEQEND
  8
0
  0
INSERT
  8
17
  2
ROUNDP
 10
70.8660
 20
37.0205
 30
0.0000
 41
2.1844
 42
2.1844
 43
1.0000
 50
90.0000
  0
INSERT
  8
17
  2
ROUNDP
 10
70.8660
 20
37.0205
 30
0.0000
 41
2.1844
 42
2.1844
 43
1.0000
 50
90.0000
  0
INSERT
  8
17
  2
ROUNDP
 10
70.8660
 20
42.1005
 30
0.0000
 41
2.1844
 42
2.1844
 43
1.0000
 50
90.0000
  0
INSERT
  8
17
  2
ROUNDP
 10
70.8660
 20
42.1005
 30
0.0000
 41
2.1844
 42
2.1844
 43
1.0000
 50
90.0000
  0
POLYLINE
  8
51
 66
1
 10
0.0000
 20
0.0000
 30
0.0000
 40
0.1016
 41
0.1016
 70
0
  0
VERTEX
  8
51
 10
69.6210
 20
13.7670
 30
0.0000
  0
VERTEX
  8
51
 10
70.3330
 20
13.7670
 30
0.0000
  0
SEQEND
  8
0
  0
POLYLINE
  8
51
 66
1
 10
0.0000
 20
0.0000
 30
0.0000
 40
0.0508
 41
0.0508
 70
0
  0
VERTEX
  8
51
 10
70.3330
 20
13.7416
 30
0.0000
 42
1.0000
  0
VERTEX
  8
51
 10
70.3330
 20
13.7924
 30
0.0000
  0
SEQEND
  8
0
  0
POLYLINE
  8
51
 66
1
 10
0.0000
 20
0.0000
 30
0.0000
 40
0.0508
 41
0.0508
 70
0
  0
VERTEX
  8
51
 10
69.6210
 20
13.7924
 30
0.0000
 42
1.0000
  0
VERTEX
  8
51
 10
69.6210
 20
13.7416
 30
0.0000
  0
SEQEND
  8
0
  0
POLYLINE
  8
51
 66
1
 10
0.0000
 20
0.0000
 30
0.0000
 40
0.1016
 41
0.1016
 70
0
  0
VERTEX
  8
51
 10
69.6210
 20
12.9160
 30
0.0000
  0
VERTEX
  8
51
 10
70.3330
 20
12.9160
 30
0.0000
  0
SEQEND
  8
0
  0
POLYLINE
  8
51
 66
1
 10
0.0000
 20
0.0000
 30
0.0000
 40
0.0508
 41
0.0508
 70
0
  0
VERTEX
  8
51
 10
70.3330
 20
12.8906
 30
0.0000
 42
1.0000
  0
VERTEX
  8
51
 10
70.3330
 20
12.9414
 30
0.0000
  0
SEQEND
  8
0
  0
POLYLINE
  8
51
 66
1
 10
0.0000
 20
0.0000
 30
0.0000
 40
0.0508
 41
0.0508
 70
0
  0
VERTEX
  8
51
 10
69.6210
 20
12.9414
 30
0.0000
 42
1.0000
  0
VERTEX
  8
51
 10
69.6210
 20
12.8906
 30
0.0000
  0
SEQEND
  8
0
  0
INSERT
  8
51
  2
RECT
 10
69.3889
 20
13.3401
 30
0.0000
 41
0.5001
 42
0.9500
 43
1.0000
 50
0.0000
  0
INSERT
  8
51
  2
RECT
 10
70.5573
 20
13.3401
 30
0.0000
 41
0.5001
 42
0.9500
 43
1.0000
 50
0.0000
  0
POLYLINE
  8
51
 66
1
 10
0.0000
 20
0.0000
 30
0.0000
 40
0.1016
 41
0.1016
 70
0
  0
VERTEX
  8
51
 10
69.6210
 20
16.3070
 30
0.0000
  0
VERTEX
  8
51
 10
70.3330
 20
16.3070
 30
0.0000
  0
SEQEND
  8
0
  0
POLYLINE
  8
51
 66
1
 10
0.0000
 20
0.0000
 30
0.0000
 40
0.0508
 41
0.0508
 70
0
  0
VERTEX
  8
51
 10
70.3330
 20
16.2816
 30
0.0000
 42
1.0000
  0
VERTEX
  8
51
 10
70.3330
 20
16.3324
 30
0.0000
  0
SEQEND
  8
0
  0
POLYLINE
  8
51
 66
1
 10
0.0000
 20
0.0000
 30
0.0000
 40
0.0508
 41
0.0508
 70
0
  0
VERTEX
  8
51
 10
69.6210
 20
16.3324
 30
0.0000
 42
1.0000
  0
VERTEX
  8
51
 10
69.6210
 20
16.2816
 30
0.0000
  0
SEQEND
  8
0
  0
POLYLINE
  8
51
 66
1
 10
0.0000
 20
0.0000
 30
0.0000
 40
0.1016
 41
0.1016
 70
0
  0
VERTEX
  8
51
 10
69.6210
 20
15.4560
 30
0.0000
  0
VERTEX
  8
51
 10
70.3330
 20
15.4560
 30
0.0000
  0
SEQEND
  8
0
  0
POLYLINE
  8
51
 66
1
 10
0.0000
 20
0.0000
 30
0.0000
 40
0.0508
 41
0.0508
 70
0
  0
VERTEX
  8
51
 10
70.3330
 20
15.4306
 30
0.0000
 42
1.0000
  0
VERTEX
  8
51
 10
70.3330
 20
15.4814
 30
0.0000
  0
SEQEND
  8
0
  0
POLYLINE
  8
51
 66
1
 10
0.0000
 20
0.0000
 30
0.0000
 40
0.0508
 41
0.0508
 70
0
  0
VERTEX
  8
51
 10
69.6210
 20
15.4814
 30
0.0000
 42
1.0000
  0
VERTEX
  8
51
 10
69.6210
 20
15.4306
 30
0.0000
  0
SEQEND
  8
0
  0
INSERT
  8
51
  2
RECT
 10
69.3889
 20
15.8801
 30
0.0000
 41
0.5001
 42
0.9500
 43
1.0000
 50
0.0000
  0
INSERT
  8
51
  2
RECT
 10
70.5573
 20
15.8801
 30
0.0000
 41
0.5001
 42
0.9500
 43
1.0000
 50
0.0000
  0
POLYLINE
  8
51
 66
1
 10
0.0000
 20
0.0000
 30
0.0000
 40
0.1016
 41
0.1016
 70
0
  0
VERTEX
  8
51
 10
54.3945
 20
15.5065
 30
0.0000
  0
VERTEX
  8
51
 10
53.6825
 20
15.5065
 30
0.0000
  0
SEQEND
  8
0
  0
POLYLINE
  8
51
 66
1
 10
0.0000
 20
0.0000
 30
0.0000
 40
0.0508
 41
0.0508
 70
0
  0
VERTEX
  8
51
 10
53.6825
 20
15.5319
 30
0.0000
 42
1.0000
  0
VERTEX
  8
51
 10
53.6825
 20
15.4811
 30
0.0000
  0
SEQEND
  8
0
  0
POLYLINE
  8
51
 66
1
 10
0.0000
 20
0.0000
 30
0.0000
 40
0.0508
 41
0.0508
 70
0
  0
VERTEX
  8
51
 10
54.3945
 20
15.4811
 30
0.0000
 42
1.0000
  0
VERTEX
  8
51
 10
54.3945
 20
15.5319
 30
0.0000
  0
SEQEND
  8
0
  0
POLYLINE
  8
51
 66
1
 10
0.0000
 20
0.0000
 30
0.0000
 40
0.1016
 41
0.1016
 70
0
  0
VERTEX
  8
51
 10
54.3945
 20
16.3575
 30
0.0000
  0
VERTEX
  8
51
 10
53.6825
 20
16.3575
 30
0.0000
  0
SEQEND
  8
0
  0
POLYLINE
  8
51
 66
1
 10
0.0000
 20
0.0000
 30
0.0000
 40
0.0508
 41
0.0508
 70
0
  0
VERTEX
  8
51
 10
53.6825
 20
16.3829
 30
0.0000
 42
1.0000
  0
VERTEX
  8
51
 10
53.6825
 20
16.3321
 30
0.0000
  0
SEQEND
  8
0
  0
POLYLINE
  8
51
 66
1
 10
0.0000
 20
0.0000
 30
0.0000
 40
0.0508
 41
0.0508
 70
0
  0
VERTEX
  8
51
 10
54.3945
 20
16.3321
 30
0.0000
 42
1.0000
  0
VERTEX
  8
51
 10
54.3945
 20
16.3829
 30
0.0000
  0
SEQEND
  8
0
  0
INSERT
  8
51
  2
RECT
 10
54.6267
 20
15.9334
 30
0.0000
 41
0.5001
 42
0.9500
 43
1.0000
 50
180.0000
  0
INSERT
  8
51
  2
RECT
 10
53.4582
 20
15.9334
 30
0.0000
 41
0.5001
 42
0.9500
 43
1.0000
 50
180.0000
  0
POLYLINE
  8
51
 66
1
 10
0.0000
 20
0.0000
 30
0.0000
 40
0.1016
 41
0.1016
 70
0
  0
VERTEX
  8
51
 10
54.3945
 20
13.0935
 30
0.0000
  0
VERTEX
  8
51
 10
53.6825
 20
13.0935
 30
0.0000
  0
SEQEND
  8
0
  0
POLYLINE
  8
51
 66
1
 10
0.0000
 20
0.0000
 30
0.0000
 40
0.0508
 41
0.0508
 70
0
  0
VERTEX
  8
51
 10
53.6825
 20
13.1189
 30
0.0000
 42
1.0000
  0
VERTEX
  8
51
 10
53.6825
 20
13.0681
 30
0.0000
  0
SEQEND
  8
0
  0
POLYLINE
  8
51
 66
1
 10
0.0000
 20
0.0000
 30
0.0000
 40
0.0508
 41
0.0508
 70
0
  0
VERTEX
  8
51
 10
54.3945
 20
13.0681
 30
0.0000
 42
1.0000
  0
VERTEX
  8
51
 10
54.3945
 20
13.1189
 30
0.0000
  0
SEQEND
  8
0
  0
POLYLINE
  8
51
 66
1
 10
0.0000
 20
0.0000
 30
0.0000
 40
0.1016
 41
0.1016
 70
0
  0
VERTEX
  8
51
 10
54.3945
 20
13.9445
 30
0.0000
  0
VERTEX
  8
51
 10
53.6825
 20
13.9445
 30
0.0000
  0
SEQEND
  8
0
  0
POLYLINE
  8
51
 66
1
 10
0.0000
 20
0.0000
 30
0.0000
 40
0.0508
 41
0.0508
 70
0
  0
VERTEX
  8
51
 10
53.6825
 20
13.9699
 30
0.0000
 42
1.0000
  0
VERTEX
  8
51
 10
53.6825
 20
13.9191
 30
0.0000
  0
SEQEND
  8
0
  0
POLYLINE
  8
51
 66
1
 10
0.0000
 20
0.0000
 30
0.0000
 40
0.0508
 41
0.0508
 70
0
  0
VERTEX
  8
51
 10
54.3945
 20
13.9191
 30
0.0000
 42
1.0000
  0
VERTEX
  8
51
 10
54.3945
 20
13.9699
 30
0.0000
  0
SEQEND
  8
0
  0
INSERT
  8
51
  2
RECT
 10
54.6267
 20
13.5204
 30
0.0000
 41
0.5001
 42
0.9500
 43
1.0000
 50
180.0000
  0
INSERT
  8
51
  2
RECT
 10
53.4582
 20
13.5204
 30
0.0000
 41
0.5001
 42
0.9500
 43
1.0000
 50
180.0000
  0
POLYLINE
  8
51
 66
1
 10
0.0000
 20
0.0000
 30
0.0000
 40
0.1016
 41
0.1016
 70
0
  0
VERTEX
  8
51
 10
17.8435
 20
41.4274
 30
0.0000
  0
VERTEX
  8
51
 10
14.0335
 20
41.4274
 30
0.0000
  0
SEQEND
  8
0
  0
POLYLINE
  8
51
 66
1
 10
0.0000
 20
0.0000
 30
0.0000
 40
0.0508
 41
0.0508
 70
0
  0
VERTEX
  8
51
 10
14.0335
 20
41.4528
 30
0.0000
 42
1.0000
  0
VERTEX
  8
51
 10
14.0335
 20
41.4020
 30
0.0000
  0
SEQEND
  8
0
  0
POLYLINE
  8
51
 66
1
 10
0.0000
 20
0.0000
 30
0.0000
 40
0.0508
 41
0.0508
 70
0
  0
VERTEX
  8
51
 10
17.8435
 20
41.4020
 30
0.0000
 42
1.0000
  0
VERTEX
  8
51
 10
17.8435
 20
41.4528
 30
0.0000
  0
SEQEND
  8
0
  0
POLYLINE
  8
51
 66
1
 10
0.0000
 20
0.0000
 30
0.0000
 40
0.1016
 41
0.1016
 70
0
  0
VERTEX
  8
51
 10
17.8435
 20
45.9486
 30
0.0000
  0
VERTEX
  8
51
 10
14.0335
 20
45.9486
 30
0.0000
  0
SEQEND
  8
0
  0
POLYLINE
  8
51
 66
1
 10
0.0000
 20
0.0000
 30
0.0000
 40
0.0508
 41
0.0508
 70
0
  0
VERTEX
  8
51
 10
14.0335
 20
45.9740
 30
0.0000
 42
1.0000
  0
VERTEX
  8
51
 10
14.0335
 20
45.9232
 30
0.0000
  0
SEQEND
  8
0
  0
POLYLINE
  8
51
 66
1
 10
0.0000
 20
0.0000
 30
0.0000
 40
0.0508
 41
0.0508
 70
0
  0
VERTEX
  8
51
 10
17.8435
 20
45.9232
 30
0.0000
 42
1.0000
  0
VERTEX
  8
51
 10
17.8435
 20
45.9740
 30
0.0000
  0
SEQEND
  8
0
  0
INSERT
  8
51
  2
RECT
 10
15.9385
 20
41.1607
 30
0.0000
 41
0.5334
 42
2.1844
 43
1.0000
 50
90.0000
  0
INSERT
  8
51
  2
RECT
 10
15.9385
 20
46.2153
 30
0.0000
 41
0.5334
 42
2.1844
 43
1.0000
 50
90.0000
  0
INSERT
  8
51
  2
RECT
 10
15.9385
 20
42.6130
 30
0.0000
 41
0.5500
 42
3.8000
 43
1.0000
 50
90.0000
  0
POLYLINE
  8
51
 66
1
 10
0.0000
 20
0.0000
 30
0.0000
 40
0.1524
 41
0.1524
 70
0
  0
VERTEX
  8
51
 10
52.2260
 20
36.8690
 30
0.0000
  0
VERTEX
  8
51
 10
51.4060
 20
36.8690
 30
0.0000
  0
SEQEND
  8
0
  0
POLYLINE
  8
51
 66
1
 10
0.0000
 20
0.0000
 30
0.0000
 40
0.0762
 41
0.0762
 70
0
  0
VERTEX
  8
51
 10
51.4060
 20
36.9071
 30
0.0000
 42
1.0000
  0
VERTEX
  8
51
 10
51.4060
 20
36.8309
 30
0.0000
  0
SEQEND
  8
0
  0
POLYLINE
  8
51
 66
1
 10
0.0000
 20
0.0000
 30
0.0000
 40
0.0762
 41
0.0762
 70
0
  0
VERTEX
  8
51
 10
52.2260
 20
36.8309
 30
0.0000
 42
1.0000
  0
VERTEX
  8
51
 10
52.2260
 20
36.9071
 30
0.0000
  0
SEQEND
  8
0
  0
POLYLINE
  8
51
 66
1
 10
0.0000
 20
0.0000
 30
0.0000
 40
0.1524
 41
0.1524
 70
0
  0
VERTEX
  8
51
 10
52.2260
 20
38.5690
 30
0.0000
  0
VERTEX
  8
51
 10
51.4060
 20
38.5690
 30
0.0000
  0
SEQEND
  8
0
  0
POLYLINE
  8
51
 66
1
 10
0.0000
 20
0.0000
 30
0.0000
 40
0.0762
 41
0.0762
 70
0
  0
VERTEX
  8
51
 10
51.4060
 20
38.6071
 30
0.0000
 42
1.0000
  0
VERTEX
  8
51
 10
51.4060
 20
38.5309
 30
0.0000
  0
SEQEND
  8
0
  0
POLYLINE
  8
51
 66
1
 10
0.0000
 20
0.0000
 30
0.0000
 40
0.0762
 41
0.0762
 70
0
  0
VERTEX
  8
51
 10
52.2260
 20
38.5309
 30
0.0000
 42
1.0000
  0
VERTEX
  8
51
 10
52.2260
 20
38.6071
 30
0.0000
  0
SEQEND
  8
0
  0
INSERT
  8
51
  2
RECT
 10
51.8160
 20
36.6690
 30
0.0000
 41
0.4000
 42
0.3000
 43
1.0000
 50
90.0000
  0
INSERT
  8
51
  2
RECT
 10
51.8160
 20
38.7690
 30
0.0000
 41
0.4000
 42
0.3000
 43
1.0000
 50
90.0000
  0
POLYLINE
  8
51
 66
1
 10
0.0000
 20
0.0000
 30
0.0000
 40
0.0500
 41
0.0500
 70
0
  0
VERTEX
  8
51
 10
96.7270
 20
16.0490
 30
0.0000
  0
VERTEX
  8
51
 10
96.7270
 20
12.3990
 30
0.0000
  0
SEQEND
  8
0
  0
POLYLINE
  8
51
 66
1
 10
0.0000
 20
0.0000
 30
0.0000
 40
0.0250
 41
0.0250
 70
0
  0
VERTEX
  8
51
 10
96.7145
 20
12.3990
 30
0.0000
 42
1.0000
  0
VERTEX
  8
51
 10
96.7395
 20
12.3990
 30
0.0000
  0
SEQEND
  8
0
  0
POLYLINE
  8
51
 66
1
 10
0.0000
 20
0.0000
 30
0.0000
 40
0.0250
 41
0.0250
 70
0
  0
VERTEX
  8
51
 10
96.7395
 20
16.0490
 30
0.0000
 42
1.0000
  0
VERTEX
  8
51
 10
96.7145
 20
16.0490
 30
0.0000
  0
SEQEND
  8
0
  0
POLYLINE
  8
51
 66
1
 10
0.0000
 20
0.0000
 30
0.0000
 40
0.0500
 41
0.0500
 70
0
  0
VERTEX
  8
51
 10
96.7270
 20
12.3990
 30
0.0000
  0
VERTEX
  8
51
 10
94.0270
 20
12.3990
 30
0.0000
  0
SEQEND
  8
0
  0
POLYLINE
  8
51
 66
1
 10
0.0000
 20
0.0000
 30
0.0000
 40
0.0250
 41
0.0250
 70
0
  0
VERTEX
  8
51
 10
94.0270
 20
12.4115
 30
0.0000
 42
1.0000
  0
VERTEX
  8
51
 10
94.0270
 20
12.3865
 30
0.0000
  0
SEQEND
  8
0
  0
POLYLINE
  8
51
 66
1
 10
0.0000
 20
0.0000
 30
0.0000
 40
0.0250
 41
0.0250
 70
0
  0
VERTEX
  8
51
 10
96.7270
 20
12.3865
 30
0.0000
 42
1.0000
  0
VERTEX
  8
51
 10
96.7270
 20
12.4115
 30
0.0000
  0
SEQEND
  8
0
  0
POLYLINE
  8
51
 66
1
 10
0.0000
 20
0.0000
 30
0.0000
 40
0.0500
 41
0.0500
 70
0
  0
VERTEX
  8
51
 10
94.0270
 20
12.3990
 30
0.0000
  0
VERTEX
  8
51
 10
94.0270
 20
16.0490
 30
0.0000
  0
SEQEND
  8
0
  0
POLYLINE
  8
51
 66
1
 10
0.0000
 20
0.0000
 30
0.0000
 40
0.0250
 41
0.0250
 70
0
  0
VERTEX
  8
51
 10
94.0395
 20
16.0490
 30
0.0000
 42
1.0000
  0
VERTEX
  8
51
 10
94.0145
 20
16.0490
 30
0.0000
  0
SEQEND
  8
0
  0
POLYLINE
  8
51
 66
1
 10
0.0000
 20
0.0000
 30
0.0000
 40
0.0250
 41
0.0250
 70
0
  0
VERTEX
  8
51
 10
94.0145
 20
12.3990
 30
0.0000
 42
1.0000
  0
VERTEX
  8
51
 10
94.0395
 20
12.3990
 30
0.0000
  0
SEQEND
  8
0
  0
POLYLINE
  8
51
 66
1
 10
0.0000
 20
0.0000
 30
0.0000
 40
0.0500
 41
0.0500
 70
0
  0
VERTEX
  8
51
 10
94.0270
 20
16.0490
 30
0.0000
  0
VERTEX
  8
51
 10
96.7270
 20
16.0490
 30
0.0000
  0
SEQEND
  8
0
  0
POLYLINE
  8
51
 66
1
 10
0.0000
 20
0.0000
 30
0.0000
 40
0.0250
 41
0.0250
 70
0
  0
VERTEX
  8
51
 10
96.7270
 20
16.0365
 30
0.0000
 42
1.0000
  0
VERTEX
  8
51
 10
96.7270
 20
16.0615
 30
0.0000
  0
SEQEND
  8
0
  0
POLYLINE
  8
51
 66
1
 10
0.0000
 20
0.0000
 30
0.0000
 40
0.0250
 41
0.0250
 70
0
  0
VERTEX
  8
51
 10
94.0270
 20
16.0615
 30
0.0000
 42
1.0000
  0
VERTEX
  8
51
 10
94.0270
 20
16.0365
 30
0.0000
  0
SEQEND
  8
0
  0
POLYLINE
  8
51
 66
1
 10
0.0000
 20
0.0000
 30
0.0000
 40
0.1000
 41
0.1000
 70
0
  0
VERTEX
  8
51
 10
96.3770
 20
14.8490
 30
0.0000
  0
VERTEX
  8
51
 10
96.3770
 20
13.5990
 30
0.0000
  0
SEQEND
  8
0
  0
POLYLINE
  8
51
 66
1
 10
0.0000
 20
0.0000
 30
0.0000
 40
0.0500
 41
0.0500
 70
0
  0
VERTEX
  8
51
 10
96.3520
 20
13.5990
 30
0.0000
 42
1.0000
  0
VERTEX
  8
51
 10
96.4020
 20
13.5990
 30
0.0000
  0
SEQEND
  8
0
  0
POLYLINE
  8
51
 66
1
 10
0.0000
 20
0.0000
 30
0.0000
 40
0.0500
 41
0.0500
 70
0
  0
VERTEX
  8
51
 10
96.4020
 20
14.8490
 30
0.0000
 42
1.0000
  0
VERTEX
  8
51
 10
96.3520
 20
14.8490
 30
0.0000
  0
SEQEND
  8
0
  0
POLYLINE
  8
51
 66
1
 10
0.0000
 20
0.0000
 30
0.0000
 40
0.1000
 41
0.1000
 70
0
  0
VERTEX
  8
51
 10
96.3770
 20
13.5990
 30
0.0000
  0
VERTEX
  8
51
 10
94.3770
 20
13.5990
 30
0.0000
  0
SEQEND
  8
0
  0
POLYLINE
  8
51
 66
1
 10
0.0000
 20
0.0000
 30
0.0000
 40
0.0500
 41
0.0500
 70
0
  0
VERTEX
  8
51
 10
94.3770
 20
13.6240
 30
0.0000
 42
1.0000
  0
VERTEX
  8
51
 10
94.3770
 20
13.5740
 30
0.0000
  0
SEQEND
  8
0
  0
POLYLINE
  8
51
 66
1
 10
0.0000
 20
0.0000
 30
0.0000
 40
0.0500
 41
0.0500
 70
0
  0
VERTEX
  8
51
 10
96.3770
 20
13.5740
 30
0.0000
 42
1.0000
  0
VERTEX
  8
51
 10
96.3770
 20
13.6240
 30
0.0000
  0
SEQEND
  8
0
  0
POLYLINE
  8
51
 66
1
 10
0.0000
 20
0.0000
 30
0.0000
 40
0.1000
 41
0.1000
 70
0
  0
VERTEX
  8
51
 10
94.3770
 20
13.5990
 30
0.0000
  0
VERTEX
  8
51
 10
94.3770
 20
14.8490
 30
0.0000
  0
SEQEND
  8
0
  0
POLYLINE
  8
51
 66
1
 10
0.0000
 20
0.0000
 30
0.0000
 40
0.0500
 41
0.0500
 70
0
  0
VERTEX
  8
51
 10
94.4020
 20
14.8490
 30
0.0000
 42
1.0000
  0
VERTEX
  8
51
 10
94.3520
 20
14.8490
 30
0.0000
  0
SEQEND
  8
0
  0
POLYLINE
  8
51
 66
1
 10
0.0000
 20
0.0000
 30
0.0000
 40
0.0500
 41
0.0500
 70
0
  0
VERTEX
  8
51
 10
94.3520
 20
13.5990
 30
0.0000
 42
1.0000
  0
VERTEX
  8
51
 10
94.4020
 20
13.5990
 30
0.0000
  0
SEQEND
  8
0
  0
POLYLINE
  8
51
 66
1
 10
0.0000
 20
0.0000
 30
0.0000
 40
0.1000
 41
0.1000
 70
0
  0
VERTEX
  8
51
 10
94.3770
 20
14.8490
 30
0.0000
  0
VERTEX
  8
51
 10
96.3770
 20
14.8490
 30
0.0000
  0
SEQEND
  8
0
  0
POLYLINE
  8
51
 66
1
 10
0.0000
 20
0.0000
 30
0.0000
 40
0.0500
 41
0.0500
 70
0
  0
VERTEX
  8
51
 10
96.3770
 20
14.8240
 30
0.0000
 42
1.0000
  0
VERTEX
  8
51
 10
96.3770
 20
14.8740
 30
0.0000
  0
SEQEND
  8
0
  0
POLYLINE
  8
51
 66
1
 10
0.0000
 20
0.0000
 30
0.0000
 40
0.0500
 41
0.0500
 70
0
  0
VERTEX
  8
51
 10
94.3770
 20
14.8740
 30
0.0000
 42
1.0000
  0
VERTEX
  8
51
 10
94.3770
 20
14.8240
 30
0.0000
  0
SEQEND
  8
0
  0
POLYLINE
  8
51
 66
1
 10
0.0000
 20
0.0000
 30
0.0000
 40
0.1000
 41
0.1000
 70
0
  0
VERTEX
  8
51
 10
95.7270
 20
14.8490
 30
0.0000
  0
VERTEX
  8
51
 10
96.3770
 20
14.1990
 30
0.0000
  0
SEQEND
  8
0
  0
POLYLINE
  8
51
 66
1
 10
0.0000
 20
0.0000
 30
0.0000
 40
0.0500
 41
0.0500
 70
0
  0
VERTEX
  8
51
 10
96.3593
 20
14.1813
 30
0.0000
 42
1.0000
  0
VERTEX
  8
51
 10
96.3947
 20
14.2167
 30
0.0000
  0
SEQEND
  8
0
  0
POLYLINE
  8
51
 66
1
 10
0.0000
 20
0.0000
 30
0.0000
 40
0.0500
 41
0.0500
 70
0
  0
VERTEX
  8
51
 10
95.7447
 20
14.8667
 30
0.0000
 42
1.0000
  0
VERTEX
  8
51
 10
95.7093
 20
14.8313
 30
0.0000
  0
SEQEND
  8
0
  0
POLYLINE
  8
51
 66
1
 10
0.0000
 20
0.0000
 30
0.0000
 40
0.2000
 41
0.2000
 70
0
  0
VERTEX
  8
51
 10
99.5760
 20
13.1700
 30
0.0000
  0
VERTEX
  8
51
 10
99.5760
 20
14.7700
 30
0.0000
  0
SEQEND
  8
0
  0
POLYLINE
  8
51
 66
1
 10
0.0000
 20
0.0000
 30
0.0000
 40
0.1000
 41
0.1000
 70
0
  0
VERTEX
  8
51
 10
99.6260
 20
14.7700
 30
0.0000
 42
1.0000
  0
VERTEX
  8
51
 10
99.5260
 20
14.7700
 30
0.0000
  0
SEQEND
  8
0
  0
POLYLINE
  8
51
 66
1
 10
0.0000
 20
0.0000
 30
0.0000
 40
0.1000
 41
0.1000
 70
0
  0
VERTEX
  8
51
 10
99.5260
 20
13.1700
 30
0.0000
 42
1.0000
  0
VERTEX
  8
51
 10
99.6260
 20
13.1700
 30
0.0000
  0
SEQEND
  8
0
  0
POLYLINE
  8
51
 66
1
 10
0.0000
 20
0.0000
 30
0.0000
 40
0.2000
 41
0.2000
 70
0
  0
VERTEX
  8
51
 10
99.5760
 20
14.7700
 30
0.0000
  0
VERTEX
  8
51
 10
100.5760
 20
14.7700
 30
0.0000
  0
SEQEND
  8
0
  0
POLYLINE
  8
51
 66
1
 10
0.0000
 20
0.0000
 30
0.0000
 40
0.1000
 41
0.1000
 70
0
  0
VERTEX
  8
51
 10
100.5760
 20
14.7200
 30
0.0000
 42
1.0000
  0
VERTEX
  8
51
 10
100.5760
 20
14.8200
 30
0.0000
  0
SEQEND
  8
0
  0
POLYLINE
  8
51
 66
1
 10
0.0000
 20
0.0000
 30
0.0000
 40
0.1000
 41
0.1000
 70
0
  0
VERTEX
  8
51
 10
99.5760
 20
14.8200
 30
0.0000
 42
1.0000
  0
VERTEX
  8
51
 10
99.5760
 20
14.7200
 30
0.0000
  0
SEQEND
  8
0
  0
POLYLINE
  8
51
 66
1
 10
0.0000
 20
0.0000
 30
0.0000
 40
0.2000
 41
0.2000
 70
0
  0
VERTEX
  8
51
 10
100.5760
 20
14.7700
 30
0.0000
  0
VERTEX
  8
51
 10
100.5760
 20
13.1700
 30
0.0000
  0
SEQEND
  8
0
  0
POLYLINE
  8
51
 66
1
 10
0.0000
 20
0.0000
 30
0.0000
 40
0.1000
 41
0.1000
 70
0
  0
VERTEX
  8
51
 10
100.5260
 20
13.1700
 30
0.0000
 42
1.0000
  0
VERTEX
  8
51
 10
100.6260
 20
13.1700
 30
0.0000
  0
SEQEND
  8
0
  0
POLYLINE
  8
51
 66
1
 10
0.0000
 20
0.0000
 30
0.0000
 40
0.1000
 41
0.1000
 70
0
  0
VERTEX
  8
51
 10
100.6260
 20
14.7700
 30
0.0000
 42
1.0000
  0
VERTEX
  8
51
 10
100.5260
 20
14.7700
 30
0.0000
  0
SEQEND
  8
0
  0
POLYLINE
  8
51
 66
1
 10
0.0000
 20
0.0000
 30
0.0000
 40
0.2000
 41
0.2000
 70
0
  0
VERTEX
  8
51
 10
100.5760
 20
13.1700
 30
0.0000
  0
VERTEX
  8
51
 10
99.5760
 20
13.1700
 30
0.0000
  0
SEQEND
  8
0
  0
POLYLINE
  8
51
 66
1
 10
0.0000
 20
0.0000
 30
0.0000
 40
0.1000
 41
0.1000
 70
0
  0
VERTEX
  8
51
 10
99.5760
 20
13.2200
 30
0.0000
 42
1.0000
  0
VERTEX
  8
51
 10
99.5760
 20
13.1200
 30
0.0000
  0
SEQEND
  8
0
  0
POLYLINE
  8
51
 66
1
 10
0.0000
 20
0.0000
 30
0.0000
 40
0.1000
 41
0.1000
 70
0
  0
VERTEX
  8
51
 10
100.5760
 20
13.1200
 30
0.0000
 42
1.0000
  0
VERTEX
  8
51
 10
100.5760
 20
13.2200
 30
0.0000
  0
SEQEND
  8
0
  0
POLYLINE
  8
51
 66
1
 10
0.0000
 20
0.0000
 30
0.0000
 40
0.1000
 41
0.1000
 70
0
  0
VERTEX
  8
51
 10
99.1760
 20
12.2700
 30
0.0000
  0
VERTEX
  8
51
 10
99.1760
 20
15.2700
 30
0.0000
  0
SEQEND
  8
0
  0
POLYLINE
  8
51
 66
1
 10
0.0000
 20
0.0000
 30
0.0000
 40
0.0500
 41
0.0500
 70
0
  0
VERTEX
  8
51
 10
99.2010
 20
15.2700
 30
0.0000
 42
1.0000
  0
VERTEX
  8
51
 10
99.1510
 20
15.2700
 30
0.0000
  0
SEQEND
  8
0
  0
POLYLINE
  8
51
 66
1
 10
0.0000
 20
0.0000
 30
0.0000
 40
0.0500
 41
0.0500
 70
0
  0
VERTEX
  8
51
 10
99.1510
 20
12.2700
 30
0.0000
 42
1.0000
  0
VERTEX
  8
51
 10
99.2010
 20
12.2700
 30
0.0000
  0
SEQEND
  8
0
  0
POLYLINE
  8
51
 66
1
 10
0.0000
 20
0.0000
 30
0.0000
 40
0.1000
 41
0.1000
 70
0
  0
VERTEX
  8
51
 10
99.1760
 20
15.2700
 30
0.0000
  0
VERTEX
  8
51
 10
100.9760
 20
15.2700
 30
0.0000
  0
SEQEND
  8
0
  0
POLYLINE
  8
51
 66
1
 10
0.0000
 20
0.0000
 30
0.0000
 40
0.0500
 41
0.0500
 70
0
  0
VERTEX
  8
51
 10
100.9760
 20
15.2450
 30
0.0000
 42
1.0000
  0
VERTEX
  8
51
 10
100.9760
 20
15.2950
 30
0.0000
  0
SEQEND
  8
0
  0
POLYLINE
  8
51
 66
1
 10
0.0000
 20
0.0000
 30
0.0000
 40
0.0500
 41
0.0500
 70
0
  0
VERTEX
  8
51
 10
99.1760
 20
15.2950
 30
0.0000
 42
1.0000
  0
VERTEX
  8
51
 10
99.1760
 20
15.2450
 30
0.0000
  0
SEQEND
  8
0
  0
POLYLINE
  8
51
 66
1
 10
0.0000
 20
0.0000
 30
0.0000
 40
0.1000
 41
0.1000
 70
0
  0
VERTEX
  8
51
 10
100.9760
 20
15.2700
 30
0.0000
  0
VERTEX
  8
51
 10
100.9760
 20
12.2700
 30
0.0000
  0
SEQEND
  8
0
  0
POLYLINE
  8
51
 66
1
 10
0.0000
 20
0.0000
 30
0.0000
 40
0.0500
 41
0.0500
 70
0
  0
VERTEX
  8
51
 10
100.9510
 20
12.2700
 30
0.0000
 42
1.0000
  0
VERTEX
  8
51
 10
101.0010
 20
12.2700
 30
0.0000
  0
SEQEND
  8
0
  0
POLYLINE
  8
51
 66
1
 10
0.0000
 20
0.0000
 30
0.0000
 40
0.0500
 41
0.0500
 70
0
  0
VERTEX
  8
51
 10
101.0010
 20
15.2700
 30
0.0000
 42
1.0000
  0
VERTEX
  8
51
 10
100.9510
 20
15.2700
 30
0.0000
  0
SEQEND
  8
0
  0
POLYLINE
  8
51
 66
1
 10
0.0000
 20
0.0000
 30
0.0000
 40
0.1000
 41
0.1000
 70
0
  0
VERTEX
  8
51
 10
100.9760
 20
12.2700
 30
0.0000
  0
VERTEX
  8
51
 10
99.1760
 20
12.2700
 30
0.0000
  0
SEQEND
  8
0
  0
POLYLINE
  8
51
 66
1
 10
0.0000
 20
0.0000
 30
0.0000
 40
0.0500
 41
0.0500
 70
0
  0
VERTEX
  8
51
 10
99.1760
 20
12.2950
 30
0.0000
 42
1.0000
  0
VERTEX
  8
51
 10
99.1760
 20
12.2450
 30
0.0000
  0
SEQEND
  8
0
  0
POLYLINE
  8
51
 66
1
 10
0.0000
 20
0.0000
 30
0.0000
 40
0.0500
 41
0.0500
 70
0
  0
VERTEX
  8
51
 10
100.9760
 20
12.2450
 30
0.0000
 42
1.0000
  0
VERTEX
  8
51
 10
100.9760
 20
12.2950
 30
0.0000
  0
SEQEND
  8
0
  0
POLYLINE
  8
51
 66
1
 10
0.0000
 20
0.0000
 30
0.0000
 40
0.2000
 41
0.2000
 70
0
  0
VERTEX
  8
51
 10
101.4810
 20
39.4590
 30
0.0000
  0
VERTEX
  8
51
 10
101.4810
 20
41.0590
 30
0.0000
  0
SEQEND
  8
0
  0
POLYLINE
  8
51
 66
1
 10
0.0000
 20
0.0000
 30
0.0000
 40
0.1000
 41
0.1000
 70
0
  0
VERTEX
  8
51
 10
101.5310
 20
41.0590
 30
0.0000
 42
1.0000
  0
VERTEX
  8
51
 10
101.4310
 20
41.0590
 30
0.0000
  0
SEQEND
  8
0
  0
POLYLINE
  8
51
 66
1
 10
0.0000
 20
0.0000
 30
0.0000
 40
0.1000
 41
0.1000
 70
0
  0
VERTEX
  8
51
 10
101.4310
 20
39.4590
 30
0.0000
 42
1.0000
  0
VERTEX
  8
51
 10
101.5310
 20
39.4590
 30
0.0000
  0
SEQEND
  8
0
  0
POLYLINE
  8
51
 66
1
 10
0.0000
 20
0.0000
 30
0.0000
 40
0.2000
 41
0.2000
 70
0
  0
VERTEX
  8
51
 10
101.4810
 20
41.0590
 30
0.0000
  0
VERTEX
  8
51
 10
102.4810
 20
41.0590
 30
0.0000
  0
SEQEND
  8
0
  0
POLYLINE
  8
51
 66
1
 10
0.0000
 20
0.0000
 30
0.0000
 40
0.1000
 41
0.1000
 70
0
  0
VERTEX
  8
51
 10
102.4810
 20
41.0090
 30
0.0000
 42
1.0000
  0
VERTEX
  8
51
 10
102.4810
 20
41.1090
 30
0.0000
  0
SEQEND
  8
0
  0
POLYLINE
  8
51
 66
1
 10
0.0000
 20
0.0000
 30
0.0000
 40
0.1000
 41
0.1000
 70
0
  0
VERTEX
  8
51
 10
101.4810
 20
41.1090
 30
0.0000
 42
1.0000
  0
VERTEX
  8
51
 10
101.4810
 20
41.0090
 30
0.0000
  0
SEQEND
  8
0
  0
POLYLINE
  8
51
 66
1
 10
0.0000
 20
0.0000
 30
0.0000
 40
0.2000
 41
0.2000
 70
0
  0
VERTEX
  8
51
 10
102.4810
 20
41.0590
 30
0.0000
  0
VERTEX
  8
51
 10
102.4810
 20
39.4590
 30
0.0000
  0
SEQEND
  8
0
  0
POLYLINE
  8
51
 66
1
 10
0.0000
 20
0.0000
 30
0.0000
 40
0.1000
 41
0.1000
 70
0
  0
VERTEX
  8
51
 10
102.4310
 20
39.4590
 30
0.0000
 42
1.0000
  0
VERTEX
  8
51
 10
102.5310
 20
39.4590
 30
0.0000
  0
SEQEND
  8
0
  0
POLYLINE
  8
51
 66
1
 10
0.0000
 20
0.0000
 30
0.0000
 40
0.1000
 41
0.1000
 70
0
  0
VERTEX
  8
51
 10
102.5310
 20
41.0590
 30
0.0000
 42
1.0000
  0
VERTEX
  8
51
 10
102.4310
 20
41.0590
 30
0.0000
  0
SEQEND
  8
0
  0
POLYLINE
  8
51
 66
1
 10
0.0000
 20
0.0000
 30
0.0000
 40
0.2000
 41
0.2000
 70
0
  0
VERTEX
  8
51
 10
102.4810
 20
39.4590
 30
0.0000
  0
VERTEX
  8
51
 10
101.4810
 20
39.4590
 30
0.0000
  0
SEQEND
  8
0
  0
POLYLINE
  8
51
 66
1
 10
0.0000
 20
0.0000
 30
0.0000
 40
0.1000
 41
0.1000
 70
0
  0
VERTEX
  8
51
 10
101.4810
 20
39.5090
 30
0.0000
 42
1.0000
  0
VERTEX
  8
51
 10
101.4810
 20
39.4090
 30
0.0000
  0
SEQEND
  8
0
  0
POLYLINE
  8
51
 66
1
 10
0.0000
 20
0.0000
 30
0.0000
 40
0.1000
 41
0.1000
 70
0
  0
VERTEX
  8
51
 10
102.4810
 20
39.4090
 30
0.0000
 42
1.0000
  0
VERTEX
  8
51
 10
102.4810
 20
39.5090
 30
0.0000
  0
SEQEND
  8
0
  0
POLYLINE
  8
51
 66
1
 10
0.0000
 20
0.0000
 30
0.0000
 40
0.1000
 41
0.1000
 70
0
  0
VERTEX
  8
51
 10
101.0810
 20
38.5590
 30
0.0000
  0
VERTEX
  8
51
 10
101.0810
 20
41.5590
 30
0.0000
  0
SEQEND
  8
0
  0
POLYLINE
  8
51
 66
1
 10
0.0000
 20
0.0000
 30
0.0000
 40
0.0500
 41
0.0500
 70
0
  0
VERTEX
  8
51
 10
101.1060
 20
41.5590
 30
0.0000
 42
1.0000
  0
VERTEX
  8
51
 10
101.0560
 20
41.5590
 30
0.0000
  0
SEQEND
  8
0
  0
POLYLINE
  8
51
 66
1
 10
0.0000
 20
0.0000
 30
0.0000
 40
0.0500
 41
0.0500
 70
0
  0
VERTEX
  8
51
 10
101.0560
 20
38.5590
 30
0.0000
 42
1.0000
  0
VERTEX
  8
51
 10
101.1060
 20
38.5590
 30
0.0000
  0
SEQEND
  8
0
  0
POLYLINE
  8
51
 66
1
 10
0.0000
 20
0.0000
 30
0.0000
 40
0.1000
 41
0.1000
 70
0
  0
VERTEX
  8
51
 10
101.0810
 20
41.5590
 30
0.0000
  0
VERTEX
  8
51
 10
102.8810
 20
41.5590
 30
0.0000
  0
SEQEND
  8
0
  0
POLYLINE
  8
51
 66
1
 10
0.0000
 20
0.0000
 30
0.0000
 40
0.0500
 41
0.0500
 70
0
  0
VERTEX
  8
51
 10
102.8810
 20
41.5340
 30
0.0000
 42
1.0000
  0
VERTEX
  8
51
 10
102.8810
 20
41.5840
 30
0.0000
  0
SEQEND
  8
0
  0
POLYLINE
  8
51
 66
1
 10
0.0000
 20
0.0000
 30
0.0000
 40
0.0500
 41
0.0500
 70
0
  0
VERTEX
  8
51
 10
101.0810
 20
41.5840
 30
0.0000
 42
1.0000
  0
VERTEX
  8
51
 10
101.0810
 20
41.5340
 30
0.0000
  0
SEQEND
  8
0
  0
POLYLINE
  8
51
 66
1
 10
0.0000
 20
0.0000
 30
0.0000
 40
0.1000
 41
0.1000
 70
0
  0
VERTEX
  8
51
 10
102.8810
 20
41.5590
 30
0.0000
  0
VERTEX
  8
51
 10
102.8810
 20
38.5590
 30
0.0000
  0
SEQEND
  8
0
  0
POLYLINE
  8
51
 66
1
 10
0.0000
 20
0.0000
 30
0.0000
 40
0.0500
 41
0.0500
 70
0
  0
VERTEX
  8
51
 10
102.8560
 20
38.5590
 30
0.0000
 42
1.0000
  0
VERTEX
  8
51
 10
102.9060
 20
38.5590
 30
0.0000
  0
SEQEND
  8
0
  0
POLYLINE
  8
51
 66
1
 10
0.0000
 20
0.0000
 30
0.0000
 40
0.0500
 41
0.0500
 70
0
  0
VERTEX
  8
51
 10
102.9060
 20
41.5590
 30
0.0000
 42
1.0000
  0
VERTEX
  8
51
 10
102.8560
 20
41.5590
 30
0.0000
  0
SEQEND
  8
0
  0
POLYLINE
  8
51
 66
1
 10
0.0000
 20
0.0000
 30
0.0000
 40
0.1000
 41
0.1000
 70
0
  0
VERTEX
  8
51
 10
102.8810
 20
38.5590
 30
0.0000
  0
VERTEX
  8
51
 10
101.0810
 20
38.5590
 30
0.0000
  0
SEQEND
  8
0
  0
POLYLINE
  8
51
 66
1
 10
0.0000
 20
0.0000
 30
0.0000
 40
0.0500
 41
0.0500
 70
0
  0
VERTEX
  8
51
 10
101.0810
 20
38.5840
 30
0.0000
 42
1.0000
  0
VERTEX
  8
51
 10
101.0810
 20
38.5340
 30
0.0000
  0
SEQEND
  8
0
  0
POLYLINE
  8
51
 66
1
 10
0.0000
 20
0.0000
 30
0.0000
 40
0.0500
 41
0.0500
 70
0
  0
VERTEX
  8
51
 10
102.8810
 20
38.5340
 30
0.0000
 42
1.0000
  0
VERTEX
  8
51
 10
102.8810
 20
38.5840
 30
0.0000
  0
SEQEND
  8
0
  0
POLYLINE
  8
51
 66
1
 10
0.0000
 20
0.0000
 30
0.0000
 40
0.1270
 41
0.1270
 70
0
  0
VERTEX
  8
51
 10
80.2330
 20
31.6325
 30
0.0000
  0
VERTEX
  8
51
 10
83.9780
 20
31.6325
 30
0.0000
  0
SEQEND
  8
0
  0
POLYLINE
  8
51
 66
1
 10
0.0000
 20
0.0000
 30
0.0000
 40
0.0635
 41
0.0635
 70
0
  0
VERTEX
  8
51
 10
83.9780
 20
31.6008
 30
0.0000
 42
1.0000
  0
VERTEX
  8
51
 10
83.9780
 20
31.6642
 30
0.0000
  0
SEQEND
  8
0
  0
POLYLINE
  8
51
 66
1
 10
0.0000
 20
0.0000
 30
0.0000
 40
0.0635
 41
0.0635
 70
0
  0
VERTEX
  8
51
 10
80.2330
 20
31.6642
 30
0.0000
 42
1.0000
  0
VERTEX
  8
51
 10
80.2330
 20
31.6008
 30
0.0000
  0
SEQEND
  8
0
  0
POLYLINE
  8
51
 66
1
 10
0.0000
 20
0.0000
 30
0.0000
 40
0.1270
 41
0.1270
 70
0
  0
VERTEX
  8
51
 10
80.2330
 20
29.9625
 30
0.0000
  0
VERTEX
  8
51
 10
83.9780
 20
29.9625
 30
0.0000
  0
SEQEND
  8
0
  0
POLYLINE
  8
51
 66
1
 10
0.0000
 20
0.0000
 30
0.0000
 40
0.0635
 41
0.0635
 70
0
  0
VERTEX
  8
51
 10
83.9780
 20
29.9308
 30
0.0000
 42
1.0000
  0
VERTEX
  8
51
 10
83.9780
 20
29.9943
 30
0.0000
  0
SEQEND
  8
0
  0
POLYLINE
  8
51
 66
1
 10
0.0000
 20
0.0000
 30
0.0000
 40
0.0635
 41
0.0635
 70
0
  0
VERTEX
  8
51
 10
80.2330
 20
29.9943
 30
0.0000
 42
1.0000
  0
VERTEX
  8
51
 10
80.2330
 20
29.9308
 30
0.0000
  0
SEQEND
  8
0
  0
INSERT
  8
51
  2
RECT
 10
80.3368
 20
30.7975
 30
0.0000
 41
0.3625
 42
1.8000
 43
1.0000
 50
0.0000
  0
INSERT
  8
51
  2
RECT
 10
83.8743
 20
30.7975
 30
0.0000
 41
0.3625
 42
1.8000
 43
1.0000
 50
0.0000
  0
INSERT
  8
51
  2
RECT
 10
81.2618
 20
30.7975
 30
0.0000
 41
0.3624
 42
1.8000
 43
1.0000
 50
0.0000
  0
POLYLINE
  8
51
 66
1
 10
0.0000
 20
0.0000
 30
0.0000
 40
0.1524
 41
0.1524
 70
0
  0
VERTEX
  8
51
 10
97.9295
 20
38.5955
 30
0.0000
  0
VERTEX
  8
51
 10
93.1805
 20
38.5955
 30
0.0000
  0
SEQEND
  8
0
  0
POLYLINE
  8
51
 66
1
 10
0.0000
 20
0.0000
 30
0.0000
 40
0.0762
 41
0.0762
 70
0
  0
VERTEX
  8
51
 10
93.1805
 20
38.6336
 30
0.0000
 42
1.0000
  0
VERTEX
  8
51
 10
93.1805
 20
38.5574
 30
0.0000
  0
SEQEND
  8
0
  0
POLYLINE
  8
51
 66
1
 10
0.0000
 20
0.0000
 30
0.0000
 40
0.0762
 41
0.0762
 70
0
  0
VERTEX
  8
51
 10
97.9295
 20
38.5574
 30
0.0000
 42
1.0000
  0
VERTEX
  8
51
 10
97.9295
 20
38.6336
 30
0.0000
  0
SEQEND
  8
0
  0
POLYLINE
  8
51
 66
1
 10
0.0000
 20
0.0000
 30
0.0000
 40
0.1524
 41
0.1524
 70
0
  0
VERTEX
  8
51
 10
97.9295
 20
41.5415
 30
0.0000
  0
VERTEX
  8
51
 10
93.1805
 20
41.5415
 30
0.0000
  0
SEQEND
  8
0
  0
POLYLINE
  8
51
 66
1
 10
0.0000
 20
0.0000
 30
0.0000
 40
0.0762
 41
0.0762
 70
0
  0
VERTEX
  8
51
 10
93.1805
 20
41.5796
 30
0.0000
 42
1.0000
  0
VERTEX
  8
51
 10
93.1805
 20
41.5034
 30
0.0000
  0
SEQEND
  8
0
  0
POLYLINE
  8
51
 66
1
 10
0.0000
 20
0.0000
 30
0.0000
 40
0.0762
 41
0.0762
 70
0
  0
VERTEX
  8
51
 10
97.9295
 20
41.5034
 30
0.0000
 42
1.0000
  0
VERTEX
  8
51
 10
97.9295
 20
41.5796
 30
0.0000
  0
SEQEND
  8
0
  0
INSERT
  8
51
  2
RECT
 10
98.3430
 20
40.0678
 30
0.0000
 41
0.8499
 42
3.1001
 43
1.0000
 50
180.0000
  0
INSERT
  8
51
  2
RECT
 10
92.7803
 20
40.0678
 30
0.0000
 41
0.8499
 42
3.1001
 43
1.0000
 50
180.0000
  0
POLYLINE
  8
51
 66
1
 10
0.0000
 20
0.0000
 30
0.0000
 40
2.2860
 41
2.2860
 70
0
  0
VERTEX
  8
51
 10
8.3820
 20
48.0060
 30
0.0000
 42
0.4142
  0
VERTEX
  8
51
 10
10.1600
 20
46.2280
 30
0.0000
  0
SEQEND
  8
0
  0
POLYLINE
  8
51
 66
1
 10
0.0000
 20
0.0000
 30
0.0000
 40
2.2860
 41
2.2860
 70
0
  0
VERTEX
  8
51
 10
11.9380
 20
48.0060
 30
0.0000
 42
0.4142
  0
VERTEX
  8
51
 10
10.1600
 20
49.7840
 30
0.0000
  0
SEQEND
  8
0
  0
POLYLINE
  8
51
 66
1
 10
0.0000
 20
0.0000
 30
0.0000
 40
0.4572
 41
0.4572
 70
0
  0
VERTEX
  8
51
 10
10.1600
 20
47.3710
 30
0.0000
 42
1.0000
  0
VERTEX
  8
51
 10
10.1600
 20
48.6410
 30
0.0000
 42
1.0000
  0
VERTEX
  8
51
 10
10.1600
 20
47.3710
 30
0.0000
  0
SEQEND
  8
0
  0
CIRCLE
  8
20
 10
10.1600
 20
48.0060
 30
0.0000
 40
1.4000
  0
POLYLINE
  8
51
 66
1
 10
0.0000
 20
0.0000
 30
0.0000
 40
2.2860
 41
2.2860
 70
0
  0
VERTEX
  8
51
 10
8.3820
 20
7.3660
 30
0.0000
 42
0.4142
  0
VERTEX
  8
51
 10
10.1600
 20
5.5880
 30
0.0000
  0
SEQEND
  8
0
  0
POLYLINE
  8
51
 66
1
 10
0.0000
 20
0.0000
 30
0.0000
 40
2.2860
 41
2.2860
 70
0
  0
VERTEX
  8
51
 10
11.9380
 20
7.3660
 30
0.0000
 42
0.4142
  0
VERTEX
  8
51
 10
10.1600
 20
9.1440
 30
0.0000
  0
SEQEND
  8
0
  0
POLYLINE
  8
51
 66
1
 10
0.0000
 20
0.0000
 30
0.0000
 40
0.4572
 41
0.4572
 70
0
  0
VERTEX
  8
51
 10
10.1600
 20
6.7310
 30
0.0000
 42
1.0000
  0
VERTEX
  8
51
 10
10.1600
 20
8.0010
 30
0.0000
 42
1.0000
  0
VERTEX
  8
51
 10
10.1600
 20
6.7310
 30
0.0000
  0
SEQEND
  8
0
  0
CIRCLE
  8
20
 10
10.1600
 20
7.3660
 30
0.0000
 40
1.4000
  0
POLYLINE
  8
51
 66
1
 10
0.0000
 20
0.0000
 30
0.0000
 40
2.2860
 41
2.2860
 70
0
  0
VERTEX
  8
51
 10
88.1380
 20
7.3660
 30
0.0000
 42
0.4142
  0
VERTEX
  8
51
 10
89.9160
 20
5.5880
 30
0.0000
  0
SEQEND
  8
0
  0
POLYLINE
  8
51
 66
1
 10
0.0000
 20
0.0000
 30
0.0000
 40
2.2860
 41
2.2860
 70
0
  0
VERTEX
  8
51
 10
91.6940
 20
7.3660
 30
0.0000
 42
0.4142
  0
VERTEX
  8
51
 10
89.9160
 20
9.1440
 30
0.0000
  0
SEQEND
  8
0
  0
POLYLINE
  8
51
 66
1
 10
0.0000
 20
0.0000
 30
0.0000
 40
0.4572
 41
0.4572
 70
0
  0
VERTEX
  8
51
 10
89.9160
 20
6.7310
 30
0.0000
 42
1.0000
  0
VERTEX
  8
51
 10
89.9160
 20
8.0010
 30
0.0000
 42
1.0000
  0
VERTEX
  8
51
 10
89.9160
 20
6.7310
 30
0.0000
  0
SEQEND
  8
0
  0
CIRCLE
  8
20
 10
89.9160
 20
7.3660
 30
0.0000
 40
1.4000
  0
POLYLINE
  8
51
 66
1
 10
0.0000
 20
0.0000
 30
0.0000
 40
2.2860
 41
2.2860
 70
0
  0
VERTEX
  8
51
 10
88.2650
 20
48.1330
 30
0.0000
 42
0.4142
  0
VERTEX
  8
51
 10
90.0430
 20
46.3550
 30
0.0000
  0
SEQEND
  8
0
  0
POLYLINE
  8
51
 66
1
 10
0.0000
 20
0.0000
 30
0.0000
 40
2.2860
 41
2.2860
 70
0
  0
VERTEX
  8
51
 10
91.8210
 20
48.1330
 30
0.0000
 42
0.4142
  0
VERTEX
  8
51
 10
90.0430
 20
49.9110
 30
0.0000
  0
SEQEND
  8
0
  0
POLYLINE
  8
51
 66
1
 10
0.0000
 20
0.0000
 30
0.0000
 40
0.4572
 41
0.4572
 70
0
  0
VERTEX
  8
51
 10
90.0430
 20
47.4980
 30
0.0000
 42
1.0000
  0
VERTEX
  8
51
 10
90.0430
 20
48.7680
 30
0.0000
 42
1.0000
  0
VERTEX
  8
51
 10
90.0430
 20
47.4980
 30
0.0000
  0
SEQEND
  8
0
  0
CIRCLE
  8
20
 10
90.0430
 20
48.1330
 30
0.0000
 40
1.4000
  0
POLYLINE
  8
51
 66
1
 10
0.0000
 20
0.0000
 30
0.0000
 40
0.0500
 41
0.0500
 70
0
  0
VERTEX
  8
51
 10
93.0060
 20
17.8220
 30
0.0000
  0
VERTEX
  8
51
 10
93.0060
 20
23.0720
 30
0.0000
  0
SEQEND
  8
0
  0
POLYLINE
  8
51
 66
1
 10
0.0000
 20
0.0000
 30
0.0000
 40
0.0250
 41
0.0250
 70
0
  0
VERTEX
  8
51
 10
93.0185
 20
23.0720
 30
0.0000
 42
1.0000
  0
VERTEX
  8
51
 10
92.9935
 20
23.0720
 30
0.0000
  0
SEQEND
  8
0
  0
POLYLINE
  8
51
 66
1
 10
0.0000
 20
0.0000
 30
0.0000
 40
0.0250
 41
0.0250
 70
0
  0
VERTEX
  8
51
 10
92.9935
 20
17.8220
 30
0.0000
 42
1.0000
  0
VERTEX
  8
51
 10
93.0185
 20
17.8220
 30
0.0000
  0
SEQEND
  8
0
  0
POLYLINE
  8
51
 66
1
 10
0.0000
 20
0.0000
 30
0.0000
 40
0.0500
 41
0.0500
 70
0
  0
VERTEX
  8
51
 10
93.0060
 20
23.0720
 30
0.0000
  0
VERTEX
  8
51
 10
98.2560
 20
23.0720
 30
0.0000
  0
SEQEND
  8
0
  0
POLYLINE
  8
51
 66
1
 10
0.0000
 20
0.0000
 30
0.0000
 40
0.0250
 41
0.0250
 70
0
  0
VERTEX
  8
51
 10
98.2560
 20
23.0595
 30
0.0000
 42
1.0000
  0
VERTEX
  8
51
 10
98.2560
 20
23.0845
 30
0.0000
  0
SEQEND
  8
0
  0
POLYLINE
  8
51
 66
1
 10
0.0000
 20
0.0000
 30
0.0000
 40
0.0250
 41
0.0250
 70
0
  0
VERTEX
  8
51
 10
93.0060
 20
23.0845
 30
0.0000
 42
1.0000
  0
VERTEX
  8
51
 10
93.0060
 20
23.0595
 30
0.0000
  0
SEQEND
  8
0
  0
POLYLINE
  8
51
 66
1
 10
0.0000
 20
0.0000
 30
0.0000
 40
0.0500
 41
0.0500
 70
0
  0
VERTEX
  8
51
 10
98.2560
 20
23.0720
 30
0.0000
  0
VERTEX
  8
51
 10
98.2560
 20
17.8220
 30
0.0000
  0
SEQEND
  8
0
  0
POLYLINE
  8
51
 66
1
 10
0.0000
 20
0.0000
 30
0.0000
 40
0.0250
 41
0.0250
 70
0
  0
VERTEX
  8
51
 10
98.2435
 20
17.8220
 30
0.0000
 42
1.0000
  0
VERTEX
  8
51
 10
98.2685
 20
17.8220
 30
0.0000
  0
SEQEND
  8
0
  0
POLYLINE
  8
51
 66
1
 10
0.0000
 20
0.0000
 30
0.0000
 40
0.0250
 41
0.0250
 70
0
  0
VERTEX
  8
51
 10
98.2685
 20
23.0720
 30
0.0000
 42
1.0000
  0
VERTEX
  8
51
 10
98.2435
 20
23.0720
 30
0.0000
  0
SEQEND
  8
0
  0
POLYLINE
  8
51
 66
1
 10
0.0000
 20
0.0000
 30
0.0000
 40
0.0500
 41
0.0500
 70
0
  0
VERTEX
  8
51
 10
98.2560
 20
17.8220
 30
0.0000
  0
VERTEX
  8
51
 10
93.0060
 20
17.8220
 30
0.0000
  0
SEQEND
  8
0
  0
POLYLINE
  8
51
 66
1
 10
0.0000
 20
0.0000
 30
0.0000
 40
0.0250
 41
0.0250
 70
0
  0
VERTEX
  8
51
 10
93.0060
 20
17.8345
 30
0.0000
 42
1.0000
  0
VERTEX
  8
51
 10
93.0060
 20
17.8095
 30
0.0000
  0
SEQEND
  8
0
  0
POLYLINE
  8
51
 66
1
 10
0.0000
 20
0.0000
 30
0.0000
 40
0.0250
 41
0.0250
 70
0
  0
VERTEX
  8
51
 10
98.2560
 20
17.8095
 30
0.0000
 42
1.0000
  0
VERTEX
  8
51
 10
98.2560
 20
17.8345
 30
0.0000
  0
SEQEND
  8
0
  0
POLYLINE
  8
51
 66
1
 10
0.0000
 20
0.0000
 30
0.0000
 40
0.1000
 41
0.1000
 70
0
  0
VERTEX
  8
51
 10
93.6310
 20
18.4470
 30
0.0000
  0
VERTEX
  8
51
 10
93.6310
 20
22.4470
 30
0.0000
  0
SEQEND
  8
0
  0
POLYLINE
  8
51
 66
1
 10
0.0000
 20
0.0000
 30
0.0000
 40
0.0500
 41
0.0500
 70
0
  0
VERTEX
  8
51
 10
93.6560
 20
22.4470
 30
0.0000
 42
1.0000
  0
VERTEX
  8
51
 10
93.6060
 20
22.4470
 30
0.0000
  0
SEQEND
  8
0
  0
POLYLINE
  8
51
 66
1
 10
0.0000
 20
0.0000
 30
0.0000
 40
0.0500
 41
0.0500
 70
0
  0
VERTEX
  8
51
 10
93.6060
 20
18.4470
 30
0.0000
 42
1.0000
  0
VERTEX
  8
51
 10
93.6560
 20
18.4470
 30
0.0000
  0
SEQEND
  8
0
  0
POLYLINE
  8
51
 66
1
 10
0.0000
 20
0.0000
 30
0.0000
 40
0.1000
 41
0.1000
 70
0
  0
VERTEX
  8
51
 10
93.6310
 20
22.4470
 30
0.0000
  0
VERTEX
  8
51
 10
97.6310
 20
22.4470
 30
0.0000
  0
SEQEND
  8
0
  0
POLYLINE
  8
51
 66
1
 10
0.0000
 20
0.0000
 30
0.0000
 40
0.0500
 41
0.0500
 70
0
  0
VERTEX
  8
51
 10
97.6310
 20
22.4220
 30
0.0000
 42
1.0000
  0
VERTEX
  8
51
 10
97.6310
 20
22.4720
 30
0.0000
  0
SEQEND
  8
0
  0
POLYLINE
  8
51
 66
1
 10
0.0000
 20
0.0000
 30
0.0000
 40
0.0500
 41
0.0500
 70
0
  0
VERTEX
  8
51
 10
93.6310
 20
22.4720
 30
0.0000
 42
1.0000
  0
VERTEX
  8
51
 10
93.6310
 20
22.4220
 30
0.0000
  0
SEQEND
  8
0
  0
POLYLINE
  8
51
 66
1
 10
0.0000
 20
0.0000
 30
0.0000
 40
0.1000
 41
0.1000
 70
0
  0
VERTEX
  8
51
 10
97.6310
 20
22.4470
 30
0.0000
  0
VERTEX
  8
51
 10
97.6310
 20
18.4470
 30
0.0000
  0
SEQEND
  8
0
  0
POLYLINE
  8
51
 66
1
 10
0.0000
 20
0.0000
 30
0.0000
 40
0.0500
 41
0.0500
 70
0
  0
VERTEX
  8
51
 10
97.6060
 20
18.4470
 30
0.0000
 42
1.0000
  0
VERTEX
  8
51
 10
97.6560
 20
18.4470
 30
0.0000
  0
SEQEND
  8
0
  0
POLYLINE
  8
51
 66
1
 10
0.0000
 20
0.0000
 30
0.0000
 40
0.0500
 41
0.0500
 70
0
  0
VERTEX
  8
51
 10
97.6560
 20
22.4470
 30
0.0000
 42
1.0000
  0
VERTEX
  8
51
 10
97.6060
 20
22.4470
 30
0.0000
  0
SEQEND
  8
0
  0
POLYLINE
  8
51
 66
1
 10
0.0000
 20
0.0000
 30
0.0000
 40
0.1000
 41
0.1000
 70
0
  0
VERTEX
  8
51
 10
97.6310
 20
18.4470
 30
0.0000
  0
VERTEX
  8
51
 10
93.6310
 20
18.4470
 30
0.0000
  0
SEQEND
  8
0
  0
POLYLINE
  8
51
 66
1
 10
0.0000
 20
0.0000
 30
0.0000
 40
0.0500
 41
0.0500
 70
0
  0
VERTEX
  8
51
 10
93.6310
 20
18.4720
 30
0.0000
 42
1.0000
  0
VERTEX
  8
51
 10
93.6310
 20
18.4220
 30
0.0000
  0
SEQEND
  8
0
  0
POLYLINE
  8
51
 66
1
 10
0.0000
 20
0.0000
 30
0.0000
 40
0.0500
 41
0.0500
 70
0
  0
VERTEX
  8
51
 10
97.6310
 20
18.4220
 30
0.0000
 42
1.0000
  0
VERTEX
  8
51
 10
97.6310
 20
18.4720
 30
0.0000
  0
SEQEND
  8
0
  0
POLYLINE
  8
51
 66
1
 10
0.0000
 20
0.0000
 30
0.0000
 40
0.1000
 41
0.1000
 70
0
  0
VERTEX
  8
51
 10
94.1310
 20
18.4470
 30
0.0000
  0
VERTEX
  8
51
 10
93.6310
 20
18.9470
 30
0.0000
  0
SEQEND
  8
0
  0
POLYLINE
  8
51
 66
1
 10
0.0000
 20
0.0000
 30
0.0000
 40
0.0500
 41
0.0500
 70
0
  0
VERTEX
  8
51
 10
93.6487
 20
18.9647
 30
0.0000
 42
1.0000
  0
VERTEX
  8
51
 10
93.6133
 20
18.9293
 30
0.0000
  0
SEQEND
  8
0
  0
POLYLINE
  8
51
 66
1
 10
0.0000
 20
0.0000
 30
0.0000
 40
0.0500
 41
0.0500
 70
0
  0
VERTEX
  8
51
 10
94.1133
 20
18.4293
 30
0.0000
 42
1.0000
  0
VERTEX
  8
51
 10
94.1487
 20
18.4647
 30
0.0000
  0
SEQEND
  8
0
  0
POLYLINE
  8
51
 66
1
 10
0.0000
 20
0.0000
 30
0.0000
 40
0.2032
 41
0.2032
 70
0
  0
VERTEX
  8
51
 10
47.4810
 20
12.6830
 30
0.0000
  0
VERTEX
  8
51
 10
37.1010
 20
12.6830
 30
0.0000
  0
SEQEND
  8
0
  0
POLYLINE
  8
51
 66
1
 10
0.0000
 20
0.0000
 30
0.0000
 40
0.1016
 41
0.1016
 70
0
  0
VERTEX
  8
51
 10
37.1010
 20
12.7338
 30
0.0000
 42
1.0000
  0
VERTEX
  8
51
 10
37.1010
 20
12.6322
 30
0.0000
  0
SEQEND
  8
0
  0
POLYLINE
  8
51
 66
1
 10
0.0000
 20
0.0000
 30
0.0000
 40
0.1016
 41
0.1016
 70
0
  0
VERTEX
  8
51
 10
47.4810
 20
12.6322
 30
0.0000
 42
1.0000
  0
VERTEX
  8
51
 10
47.4810
 20
12.7338
 30
0.0000
  0
SEQEND
  8
0
  0
POLYLINE
  8
51
 66
1
 10
0.0000
 20
0.0000
 30
0.0000
 40
0.2032
 41
0.2032
 70
0
  0
VERTEX
  8
51
 10
37.1010
 20
12.6830
 30
0.0000
  0
VERTEX
  8
51
 10
37.1010
 20
13.1830
 30
0.0000
  0
SEQEND
  8
0
  0
POLYLINE
  8
51
 66
1
 10
0.0000
 20
0.0000
 30
0.0000
 40
0.1016
 41
0.1016
 70
0
  0
VERTEX
  8
51
 10
37.1518
 20
13.1830
 30
0.0000
 42
1.0000
  0
VERTEX
  8
51
 10
37.0502
 20
13.1830
 30
0.0000
  0
SEQEND
  8
0
  0
POLYLINE
  8
51
 66
1
 10
0.0000
 20
0.0000
 30
0.0000
 40
0.1016
 41
0.1016
 70
0
  0
VERTEX
  8
51
 10
37.0502
 20
12.6830
 30
0.0000
 42
1.0000
  0
VERTEX
  8
51
 10
37.1518
 20
12.6830
 30
0.0000
  0
SEQEND
  8
0
  0
POLYLINE
  8
51
 66
1
 10
0.0000
 20
0.0000
 30
0.0000
 40
0.2032
 41
0.2032
 70
0
  0
VERTEX
  8
51
 10
37.1010
 20
13.1830
 30
0.0000
  0
VERTEX
  8
51
 10
37.1010
 20
20.0830
 30
0.0000
  0
SEQEND
  8
0
  0
POLYLINE
  8
51
 66
1
 10
0.0000
 20
0.0000
 30
0.0000
 40
0.1016
 41
0.1016
 70
0
  0
VERTEX
  8
51
 10
37.1518
 20
20.0830
 30
0.0000
 42
1.0000
  0
VERTEX
  8
51
 10
37.0502
 20
20.0830
 30
0.0000
  0
SEQEND
  8
0
  0
POLYLINE
  8
51
 66
1
 10
0.0000
 20
0.0000
 30
0.0000
 40
0.1016
 41
0.1016
 70
0
  0
VERTEX
  8
51
 10
37.0502
 20
13.1830
 30
0.0000
 42
1.0000
  0
VERTEX
  8
51
 10
37.1518
 20
13.1830
 30
0.0000
  0
SEQEND
  8
0
  0
POLYLINE
  8
51
 66
1
 10
0.0000
 20
0.0000
 30
0.0000
 40
0.2032
 41
0.2032
 70
0
  0
VERTEX
  8
51
 10
37.1010
 20
20.0830
 30
0.0000
  0
VERTEX
  8
51
 10
47.4810
 20
20.0830
 30
0.0000
  0
SEQEND
  8
0
  0
POLYLINE
  8
51
 66
1
 10
0.0000
 20
0.0000
 30
0.0000
 40
0.1016
 41
0.1016
 70
0
  0
VERTEX
  8
51
 10
47.4810
 20
20.0322
 30
0.0000
 42
1.0000
  0
VERTEX
  8
51
 10
47.4810
 20
20.1338
 30
0.0000
  0
SEQEND
  8
0
  0
POLYLINE
  8
51
 66
1
 10
0.0000
 20
0.0000
 30
0.0000
 40
0.1016
 41
0.1016
 70
0
  0
VERTEX
  8
51
 10
37.1010
 20
20.1338
 30
0.0000
 42
1.0000
  0
VERTEX
  8
51
 10
37.1010
 20
20.0322
 30
0.0000
  0
SEQEND
  8
0
  0
POLYLINE
  8
51
 66
1
 10
0.0000
 20
0.0000
 30
0.0000
 40
0.2032
 41
0.2032
 70
0
  0
VERTEX
  8
51
 10
47.4810
 20
13.1830
 30
0.0000
  0
VERTEX
  8
51
 10
37.1010
 20
13.1830
 30
0.0000
  0
SEQEND
  8
0
  0
POLYLINE
  8
51
 66
1
 10
0.0000
 20
0.0000
 30
0.0000
 40
0.1016
 41
0.1016
 70
0
  0
VERTEX
  8
51
 10
37.1010
 20
13.2338
 30
0.0000
 42
1.0000
  0
VERTEX
  8
51
 10
37.1010
 20
13.1322
 30
0.0000
  0
SEQEND
  8
0
  0
POLYLINE
  8
51
 66
1
 10
0.0000
 20
0.0000
 30
0.0000
 40
0.1016
 41
0.1016
 70
0
  0
VERTEX
  8
51
 10
47.4810
 20
13.1322
 30
0.0000
 42
1.0000
  0
VERTEX
  8
51
 10
47.4810
 20
13.2338
 30
0.0000
  0
SEQEND
  8
0
  0
POLYLINE
  8
51
 66
1
 10
0.0000
 20
0.0000
 30
0.0000
 40
0.2032
 41
0.2032
 70
0
  0
VERTEX
  8
51
 10
47.4810
 20
20.0830
 30
0.0000
  0
VERTEX
  8
51
 10
47.4810
 20
13.1830
 30
0.0000
  0
SEQEND
  8
0
  0
POLYLINE
  8
51
 66
1
 10
0.0000
 20
0.0000
 30
0.0000
 40
0.1016
 41
0.1016
 70
0
  0
VERTEX
  8
51
 10
47.4302
 20
13.1830
 30
0.0000
 42
1.0000
  0
VERTEX
  8
51
 10
47.5318
 20
13.1830
 30
0.0000
  0
SEQEND
  8
0
  0
POLYLINE
  8
51
 66
1
 10
0.0000
 20
0.0000
 30
0.0000
 40
0.1016
 41
0.1016
 70
0
  0
VERTEX
  8
51
 10
47.5318
 20
20.0830
 30
0.0000
 42
1.0000
  0
VERTEX
  8
51
 10
47.4302
 20
20.0830
 30
0.0000
  0
SEQEND
  8
0
  0
POLYLINE
  8
51
 66
1
 10
0.0000
 20
0.0000
 30
0.0000
 40
0.2032
 41
0.2032
 70
0
  0
VERTEX
  8
51
 10
47.4810
 20
13.1830
 30
0.0000
  0
VERTEX
  8
51
 10
47.4810
 20
12.6830
 30
0.0000
  0
SEQEND
  8
0
  0
POLYLINE
  8
51
 66
1
 10
0.0000
 20
0.0000
 30
0.0000
 40
0.1016
 41
0.1016
 70
0
  0
VERTEX
  8
51
 10
47.4302
 20
12.6830
 30
0.0000
 42
1.0000
  0
VERTEX
  8
51
 10
47.5318
 20
12.6830
 30
0.0000
  0
SEQEND
  8
0
  0
POLYLINE
  8
51
 66
1
 10
0.0000
 20
0.0000
 30
0.0000
 40
0.1016
 41
0.1016
 70
0
  0
VERTEX
  8
51
 10
47.5318
 20
13.1830
 30
0.0000
 42
1.0000
  0
VERTEX
  8
51
 10
47.4302
 20
13.1830
 30
0.0000
  0
SEQEND
  8
0
  0
INSERT
  8
51
  2
RECT
 10
37.8460
 20
11.8230
 30
0.0000
 41
0.4902
 42
1.5199
 43
1.0000
 50
0.0000
  0
INSERT
  8
51
  2
RECT
 10
39.1160
 20
11.8230
 30
0.0000
 41
0.4902
 42
1.5199
 43
1.0000
 50
0.0000
  0
INSERT
  8
51
  2
RECT
 10
40.3860
 20
11.8230
 30
0.0000
 41
0.4902
 42
1.5199
 43
1.0000
 50
0.0000
  0
INSERT
  8
51
  2
RECT
 10
41.6560
 20
11.8230
 30
0.0000
 41
0.4902
 42
1.5199
 43
1.0000
 50
0.0000
  0
INSERT
  8
51
  2
RECT
 10
42.9260
 20
11.8230
 30
0.0000
 41
0.4902
 42
1.5199
 43
1.0000
 50
0.0000
  0
INSERT
  8
51
  2
RECT
 10
44.1960
 20
11.8230
 30
0.0000
 41
0.4902
 42
1.5199
 43
1.0000
 50
0.0000
  0
INSERT
  8
51
  2
RECT
 10
45.4660
 20
11.8230
 30
0.0000
 41
0.4902
 42
1.5199
 43
1.0000
 50
0.0000
  0
INSERT
  8
51
  2
RECT
 10
46.7360
 20
11.8230
 30
0.0000
 41
0.4902
 42
1.5199
 43
1.0000
 50
0.0000
  0
INSERT
  8
51
  2
RECT
 10
46.7360
 20
20.9430
 30
0.0000
 41
0.4902
 42
1.5199
 43
1.0000
 50
0.0000
  0
INSERT
  8
51
  2
RECT
 10
45.4660
 20
20.9430
 30
0.0000
 41
0.4902
 42
1.5199
 43
1.0000
 50
0.0000
  0
INSERT
  8
51
  2
RECT
 10
44.1960
 20
20.9430
 30
0.0000
 41
0.4902
 42
1.5199
 43
1.0000
 50
0.0000
  0
INSERT
  8
51
  2
RECT
 10
42.9260
 20
20.9430
 30
0.0000
 41
0.4902
 42
1.5199
 43
1.0000
 50
0.0000
  0
INSERT
  8
51
  2
RECT
 10
41.6560
 20
20.9430
 30
0.0000
 41
0.4902
 42
1.5199
 43
1.0000
 50
0.0000
  0
INSERT
  8
51
  2
RECT
 10
40.3860
 20
20.9430
 30
0.0000
 41
0.4902
 42
1.5199
 43
1.0000
 50
0.0000
  0
INSERT
  8
51
  2
RECT
 10
39.1160
 20
20.9430
 30
0.0000
 41
0.4902
 42
1.5199
 43
1.0000
 50
0.0000
  0
INSERT
  8
51
  2
RECT
 10
37.8460
 20
20.9430
 30
0.0000
 41
0.4902
 42
1.5199
 43
1.0000
 50
0.0000
  0
INSERT
  8
51
  2
RECT
 10
85.9790
 20
42.6720
 30
0.0000
 41
3.0480
 42
1.5240
 43
1.0000
 50
0.0000
  0
INSERT
  8
51
  2
RECT
 10
83.6930
 20
37.5920
 30
0.0000
 41
0.7620
 42
1.5240
 43
1.0000
 50
0.0000
  0
INSERT
  8
51
  2
RECT
 10
88.2650
 20
37.5920
 30
0.0000
 41
0.7620
 42
1.5240
 43
1.0000
 50
0.0000
  0
INSERT
  8
51
  2
RECT
 10
85.9790
 20
37.5920
 30
0.0000
 41
0.7620
 42
1.5240
 43
1.0000
 50
0.0000
  0
POLYLINE
  8
51
 66
1
 10
0.0000
 20
0.0000
 30
0.0000
 40
0.1270
 41
0.1270
 70
0
  0
VERTEX
  8
51
 10
65.4050
 20
10.5918
 30
0.0000
  0
VERTEX
  8
51
 10
57.4040
 20
10.5918
 30
0.0000
  0
SEQEND
  8
0
  0
POLYLINE
  8
51
 66
1
 10
0.0000
 20
0.0000
 30
0.0000
 40
0.0635
 41
0.0635
 70
0
  0
VERTEX
  8
51
 10
57.4040
 20
10.6236
 30
0.0000
 42
1.0000
  0
VERTEX
  8
51
 10
57.4040
 20
10.5601
 30
0.0000
  0
SEQEND
  8
0
  0
POLYLINE
  8
51
 66
1
 10
0.0000
 20
0.0000
 30
0.0000
 40
0.0635
 41
0.0635
 70
0
  0
VERTEX
  8
51
 10
65.4050
 20
10.5601
 30
0.0000
 42
1.0000
  0
VERTEX
  8
51
 10
65.4050
 20
10.6236
 30
0.0000
  0
SEQEND
  8
0
  0
POLYLINE
  8
51
 66
1
 10
0.0000
 20
0.0000
 30
0.0000
 40
0.1270
 41
0.1270
 70
0
  0
VERTEX
  8
51
 10
57.4040
 20
10.5918
 30
0.0000
  0
VERTEX
  8
51
 10
57.4040
 20
18.6436
 30
0.0000
  0
SEQEND
  8
0
  0
POLYLINE
  8
51
 66
1
 10
0.0000
 20
0.0000
 30
0.0000
 40
0.0635
 41
0.0635
 70
0
  0
VERTEX
  8
51
 10
57.4358
 20
18.6436
 30
0.0000
 42
1.0000
  0
VERTEX
  8
51
 10
57.3723
 20
18.6436
 30
0.0000
  0
SEQEND
  8
0
  0
POLYLINE
  8
51
 66
1
 10
0.0000
 20
0.0000
 30
0.0000
 40
0.0635
 41
0.0635
 70
0
  0
VERTEX
  8
51
 10
57.3723
 20
10.5918
 30
0.0000
 42
1.0000
  0
VERTEX
  8
51
 10
57.4358
 20
10.5918
 30
0.0000
  0
SEQEND
  8
0
  0
POLYLINE
  8
51
 66
1
 10
0.0000
 20
0.0000
 30
0.0000
 40
0.1270
 41
0.1270
 70
0
  0
VERTEX
  8
51
 10
57.4040
 20
18.6436
 30
0.0000
  0
VERTEX
  8
51
 10
65.4050
 20
18.6436
 30
0.0000
  0
SEQEND
  8
0
  0
POLYLINE
  8
51
 66
1
 10
0.0000
 20
0.0000
 30
0.0000
 40
0.0635
 41
0.0635
 70
0
  0
VERTEX
  8
51
 10
65.4050
 20
18.6119
 30
0.0000
 42
1.0000
  0
VERTEX
  8
51
 10
65.4050
 20
18.6753
 30
0.0000
  0
SEQEND
  8
0
  0
POLYLINE
  8
51
 66
1
 10
0.0000
 20
0.0000
 30
0.0000
 40
0.0635
 41
0.0635
 70
0
  0
VERTEX
  8
51
 10
57.4040
 20
18.6753
 30
0.0000
 42
1.0000
  0
VERTEX
  8
51
 10
57.4040
 20
18.6119
 30
0.0000
  0
SEQEND
  8
0
  0
POLYLINE
  8
51
 66
1
 10
0.0000
 20
0.0000
 30
0.0000
 40
0.1270
 41
0.1270
 70
0
  0
VERTEX
  8
51
 10
65.4050
 20
18.6436
 30
0.0000
  0
VERTEX
  8
51
 10
65.4050
 20
10.5918
 30
0.0000
  0
SEQEND
  8
0
  0
POLYLINE
  8
51
 66
1
 10
0.0000
 20
0.0000
 30
0.0000
 40
0.0635
 41
0.0635
 70
0
  0
VERTEX
  8
51
 10
65.3732
 20
10.5918
 30
0.0000
 42
1.0000
  0
VERTEX
  8
51
 10
65.4368
 20
10.5918
 30
0.0000
  0
SEQEND
  8
0
  0
POLYLINE
  8
51
 66
1
 10
0.0000
 20
0.0000
 30
0.0000
 40
0.0635
 41
0.0635
 70
0
  0
VERTEX
  8
51
 10
65.4368
 20
18.6436
 30
0.0000
 42
1.0000
  0
VERTEX
  8
51
 10
65.3732
 20
18.6436
 30
0.0000
  0
SEQEND
  8
0
  0
POLYLINE
  8
51
 66
1
 10
0.0000
 20
0.0000
 30
0.0000
 40
0.1524
 41
0.1524
 70
0
  0
VERTEX
  8
51
 10
97.9420
 20
31.8580
 30
0.0000
  0
VERTEX
  8
51
 10
95.0970
 20
31.8580
 30
0.0000
  0
SEQEND
  8
0
  0
POLYLINE
  8
51
 66
1
 10
0.0000
 20
0.0000
 30
0.0000
 40
0.0762
 41
0.0762
 70
0
  0
VERTEX
  8
51
 10
95.0970
 20
31.8961
 30
0.0000
 42
1.0000
  0
VERTEX
  8
51
 10
95.0970
 20
31.8199
 30
0.0000
  0
SEQEND
  8
0
  0
POLYLINE
  8
51
 66
1
 10
0.0000
 20
0.0000
 30
0.0000
 40
0.0762
 41
0.0762
 70
0
  0
VERTEX
  8
51
 10
97.9420
 20
31.8199
 30
0.0000
 42
1.0000
  0
VERTEX
  8
51
 10
97.9420
 20
31.8961
 30
0.0000
  0
SEQEND
  8
0
  0
POLYLINE
  8
51
 66
1
 10
0.0000
 20
0.0000
 30
0.0000
 40
0.1524
 41
0.1524
 70
0
  0
VERTEX
  8
51
 10
95.0970
 20
33.4200
 30
0.0000
  0
VERTEX
  8
51
 10
97.9420
 20
33.4200
 30
0.0000
  0
SEQEND
  8
0
  0
POLYLINE
  8
51
 66
1
 10
0.0000
 20
0.0000
 30
0.0000
 40
0.0762
 41
0.0762
 70
0
  0
VERTEX
  8
51
 10
97.9420
 20
33.3819
 30
0.0000
 42
1.0000
  0
VERTEX
  8
51
 10
97.9420
 20
33.4581
 30
0.0000
  0
SEQEND
  8
0
  0
POLYLINE
  8
51
 66
1
 10
0.0000
 20
0.0000
 30
0.0000
 40
0.0762
 41
0.0762
 70
0
  0
VERTEX
  8
51
 10
95.0970
 20
33.4581
 30
0.0000
 42
1.0000
  0
VERTEX
  8
51
 10
95.0970
 20
33.3819
 30
0.0000
  0
SEQEND
  8
0
  0
INSERT
  8
51
  2
RECT
 10
95.5700
 20
31.5390
 30
0.0000
 41
0.5000
 42
0.6000
 43
1.0000
 50
0.0000
  0
INSERT
  8
51
  2
RECT
 10
96.5200
 20
31.5390
 30
0.0000
 41
0.5000
 42
0.6000
 43
1.0000
 50
0.0000
  0
INSERT
  8
51
  2
RECT
 10
97.4700
 20
31.5390
 30
0.0000
 41
0.5000
 42
0.6000
 43
1.0000
 50
0.0000
  0
INSERT
  8
51
  2
RECT
 10
97.4700
 20
33.7390
 30
0.0000
 41
0.5000
 42
0.6000
 43
1.0000
 50
0.0000
  0
INSERT
  8
51
  2
RECT
 10
96.5200
 20
33.7390
 30
0.0000
 41
0.5000
 42
0.6000
 43
1.0000
 50
0.0000
  0
INSERT
  8
51
  2
RECT
 10
95.5700
 20
33.7390
 30
0.0000
 41
0.5000
 42
0.6000
 43
1.0000
 50
0.0000
  0
POLYLINE
  8
51
 66
1
 10
0.0000
 20
0.0000
 30
0.0000
 40
0.0500
 41
0.0500
 70
0
  0
VERTEX
  8
51
 10
41.3190
 20
37.7405
 30
0.0000
  0
VERTEX
  8
51
 10
41.3190
 20
45.1905
 30
0.0000
  0
SEQEND
  8
0
  0
POLYLINE
  8
51
 66
1
 10
0.0000
 20
0.0000
 30
0.0000
 40
0.0250
 41
0.0250
 70
0
  0
VERTEX
  8
51
 10
41.3315
 20
45.1905
 30
0.0000
 42
1.0000
  0
VERTEX
  8
51
 10
41.3065
 20
45.1905
 30
0.0000
  0
SEQEND
  8
0
  0
POLYLINE
  8
51
 66
1
 10
0.0000
 20
0.0000
 30
0.0000
 40
0.0250
 41
0.0250
 70
0
  0
VERTEX
  8
51
 10
41.3065
 20
37.7405
 30
0.0000
 42
1.0000
  0
VERTEX
  8
51
 10
41.3315
 20
37.7405
 30
0.0000
  0
SEQEND
  8
0
  0
POLYLINE
  8
51
 66
1
 10
0.0000
 20
0.0000
 30
0.0000
 40
0.0500
 41
0.0500
 70
0
  0
VERTEX
  8
51
 10
41.3190
 20
45.1905
 30
0.0000
  0
VERTEX
  8
51
 10
46.8190
 20
45.1905
 30
0.0000
  0
SEQEND
  8
0
  0
POLYLINE
  8
51
 66
1
 10
0.0000
 20
0.0000
 30
0.0000
 40
0.0250
 41
0.0250
 70
0
  0
VERTEX
  8
51
 10
46.8190
 20
45.1780
 30
0.0000
 42
1.0000
  0
VERTEX
  8
51
 10
46.8190
 20
45.2030
 30
0.0000
  0
SEQEND
  8
0
  0
POLYLINE
  8
51
 66
1
 10
0.0000
 20
0.0000
 30
0.0000
 40
0.0250
 41
0.0250
 70
0
  0
VERTEX
  8
51
 10
41.3190
 20
45.2030
 30
0.0000
 42
1.0000
  0
VERTEX
  8
51
 10
41.3190
 20
45.1780
 30
0.0000
  0
SEQEND
  8
0
  0
POLYLINE
  8
51
 66
1
 10
0.0000
 20
0.0000
 30
0.0000
 40
0.0500
 41
0.0500
 70
0
  0
VERTEX
  8
51
 10
46.8190
 20
45.1905
 30
0.0000
  0
VERTEX
  8
51
 10
46.8190
 20
37.7405
 30
0.0000
  0
SEQEND
  8
0
  0
POLYLINE
  8
51
 66
1
 10
0.0000
 20
0.0000
 30
0.0000
 40
0.0250
 41
0.0250
 70
0
  0
VERTEX
  8
51
 10
46.8065
 20
37.7405
 30
0.0000
 42
1.0000
  0
VERTEX
  8
51
 10
46.8315
 20
37.7405
 30
0.0000
  0
SEQEND
  8
0
  0
POLYLINE
  8
51
 66
1
 10
0.0000
 20
0.0000
 30
0.0000
 40
0.0250
 41
0.0250
 70
0
  0
VERTEX
  8
51
 10
46.8315
 20
45.1905
 30
0.0000
 42
1.0000
  0
VERTEX
  8
51
 10
46.8065
 20
45.1905
 30
0.0000
  0
SEQEND
  8
0
  0
POLYLINE
  8
51
 66
1
 10
0.0000
 20
0.0000
 30
0.0000
 40
0.0500
 41
0.0500
 70
0
  0
VERTEX
  8
51
 10
46.8190
 20
37.7405
 30
0.0000
  0
VERTEX
  8
51
 10
41.3190
 20
37.7405
 30
0.0000
  0
SEQEND
  8
0
  0
POLYLINE
  8
51
 66
1
 10
0.0000
 20
0.0000
 30
0.0000
 40
0.0250
 41
0.0250
 70
0
  0
VERTEX
  8
51
 10
41.3190
 20
37.7530
 30
0.0000
 42
1.0000
  0
VERTEX
  8
51
 10
41.3190
 20
37.7280
 30
0.0000
  0
SEQEND
  8
0
  0
POLYLINE
  8
51
 66
1
 10
0.0000
 20
0.0000
 30
0.0000
 40
0.0250
 41
0.0250
 70
0
  0
VERTEX
  8
51
 10
46.8190
 20
37.7280
 30
0.0000
 42
1.0000
  0
VERTEX
  8
51
 10
46.8190
 20
37.7530
 30
0.0000
  0
SEQEND
  8
0
  0
POLYLINE
  8
51
 66
1
 10
0.0000
 20
0.0000
 30
0.0000
 40
0.1000
 41
0.1000
 70
0
  0
VERTEX
  8
51
 10
41.6190
 20
39.5155
 30
0.0000
  0
VERTEX
  8
51
 10
41.6190
 20
43.4155
 30
0.0000
  0
SEQEND
  8
0
  0
POLYLINE
  8
51
 66
1
 10
0.0000
 20
0.0000
 30
0.0000
 40
0.0500
 41
0.0500
 70
0
  0
VERTEX
  8
51
 10
41.6440
 20
43.4155
 30
0.0000
 42
1.0000
  0
VERTEX
  8
51
 10
41.5940
 20
43.4155
 30
0.0000
  0
SEQEND
  8
0
  0
POLYLINE
  8
51
 66
1
 10
0.0000
 20
0.0000
 30
0.0000
 40
0.0500
 41
0.0500
 70
0
  0
VERTEX
  8
51
 10
41.5940
 20
39.5155
 30
0.0000
 42
1.0000
  0
VERTEX
  8
51
 10
41.6440
 20
39.5155
 30
0.0000
  0
SEQEND
  8
0
  0
POLYLINE
  8
51
 66
1
 10
0.0000
 20
0.0000
 30
0.0000
 40
0.1000
 41
0.1000
 70
0
  0
VERTEX
  8
51
 10
41.6190
 20
43.4155
 30
0.0000
  0
VERTEX
  8
51
 10
46.5190
 20
43.4155
 30
0.0000
  0
SEQEND
  8
0
  0
POLYLINE
  8
51
 66
1
 10
0.0000
 20
0.0000
 30
0.0000
 40
0.0500
 41
0.0500
 70
0
  0
VERTEX
  8
51
 10
46.5190
 20
43.3905
 30
0.0000
 42
1.0000
  0
VERTEX
  8
51
 10
46.5190
 20
43.4405
 30
0.0000
  0
SEQEND
  8
0
  0
POLYLINE
  8
51
 66
1
 10
0.0000
 20
0.0000
 30
0.0000
 40
0.0500
 41
0.0500
 70
0
  0
VERTEX
  8
51
 10
41.6190
 20
43.4405
 30
0.0000
 42
1.0000
  0
VERTEX
  8
51
 10
41.6190
 20
43.3905
 30
0.0000
  0
SEQEND
  8
0
  0
POLYLINE
  8
51
 66
1
 10
0.0000
 20
0.0000
 30
0.0000
 40
0.1000
 41
0.1000
 70
0
  0
VERTEX
  8
51
 10
46.5190
 20
43.4155
 30
0.0000
  0
VERTEX
  8
51
 10
46.5190
 20
39.5155
 30
0.0000
  0
SEQEND
  8
0
  0
POLYLINE
  8
51
 66
1
 10
0.0000
 20
0.0000
 30
0.0000
 40
0.0500
 41
0.0500
 70
0
  0
VERTEX
  8
51
 10
46.4940
 20
39.5155
 30
0.0000
 42
1.0000
  0
VERTEX
  8
51
 10
46.5440
 20
39.5155
 30
0.0000
  0
SEQEND
  8
0
  0
POLYLINE
  8
51
 66
1
 10
0.0000
 20
0.0000
 30
0.0000
 40
0.0500
 41
0.0500
 70
0
  0
VERTEX
  8
51
 10
46.5440
 20
43.4155
 30
0.0000
 42
1.0000
  0
VERTEX
  8
51
 10
46.4940
 20
43.4155
 30
0.0000
  0
SEQEND
  8
0
  0
POLYLINE
  8
51
 66
1
 10
0.0000
 20
0.0000
 30
0.0000
 40
0.1000
 41
0.1000
 70
0
  0
VERTEX
  8
51
 10
46.5190
 20
39.5155
 30
0.0000
  0
VERTEX
  8
51
 10
41.6190
 20
39.5155
 30
0.0000
  0
SEQEND
  8
0
  0
POLYLINE
  8
51
 66
1
 10
0.0000
 20
0.0000
 30
0.0000
 40
0.0500
 41
0.0500
 70
0
  0
VERTEX
  8
51
 10
41.6190
 20
39.5405
 30
0.0000
 42
1.0000
  0
VERTEX
  8
51
 10
41.6190
 20
39.4905
 30
0.0000
  0
SEQEND
  8
0
  0
POLYLINE
  8
51
 66
1
 10
0.0000
 20
0.0000
 30
0.0000
 40
0.0500
 41
0.0500
 70
0
  0
VERTEX
  8
51
 10
46.5190
 20
39.4905
 30
0.0000
 42
1.0000
  0
VERTEX
  8
51
 10
46.5190
 20
39.5405
 30
0.0000
  0
SEQEND
  8
0
  0
POLYLINE
  8
51
 66
1
 10
0.0000
 20
0.0000
 30
0.0000
 40
0.1000
 41
0.1000
 70
0
  0
VERTEX
  8
51
 10
42.8890
 20
39.5155
 30
0.0000
  0
VERTEX
  8
51
 10
41.6190
 20
40.7855
 30
0.0000
  0
SEQEND
  8
0
  0
POLYLINE
  8
51
 66
1
 10
0.0000
 20
0.0000
 30
0.0000
 40
0.0500
 41
0.0500
 70
0
  0
VERTEX
  8
51
 10
41.6367
 20
40.8032
 30
0.0000
 42
1.0000
  0
VERTEX
  8
51
 10
41.6013
 20
40.7678
 30
0.0000
  0
SEQEND
  8
0
  0
POLYLINE
  8
51
 66
1
 10
0.0000
 20
0.0000
 30
0.0000
 40
0.0500
 41
0.0500
 70
0
  0
VERTEX
  8
51
 10
42.8713
 20
39.4978
 30
0.0000
 42
1.0000
  0
VERTEX
  8
51
 10
42.9067
 20
39.5332
 30
0.0000
  0
SEQEND
  8
0
  0
POLYLINE
  8
51
 66
1
 10
0.0000
 20
0.0000
 30
0.0000
 40
0.0500
 41
0.0500
 70
0
  0
VERTEX
  8
51
 10
25.8885
 20
27.2630
 30
0.0000
  0
VERTEX
  8
51
 10
25.8885
 20
34.7130
 30
0.0000
  0
SEQEND
  8
0
  0
POLYLINE
  8
51
 66
1
 10
0.0000
 20
0.0000
 30
0.0000
 40
0.0250
 41
0.0250
 70
0
  0
VERTEX
  8
51
 10
25.9010
 20
34.7130
 30
0.0000
 42
1.0000
  0
VERTEX
  8
51
 10
25.8760
 20
34.7130
 30
0.0000
  0
SEQEND
  8
0
  0
POLYLINE
  8
51
 66
1
 10
0.0000
 20
0.0000
 30
0.0000
 40
0.0250
 41
0.0250
 70
0
  0
VERTEX
  8
51
 10
25.8760
 20
27.2630
 30
0.0000
 42
1.0000
  0
VERTEX
  8
51
 10
25.9010
 20
27.2630
 30
0.0000
  0
SEQEND
  8
0
  0
POLYLINE
  8
51
 66
1
 10
0.0000
 20
0.0000
 30
0.0000
 40
0.0500
 41
0.0500
 70
0
  0
VERTEX
  8
51
 10
25.8885
 20
34.7130
 30
0.0000
  0
VERTEX
  8
51
 10
31.3885
 20
34.7130
 30
0.0000
  0
SEQEND
  8
0
  0
POLYLINE
  8
51
 66
1
 10
0.0000
 20
0.0000
 30
0.0000
 40
0.0250
 41
0.0250
 70
0
  0
VERTEX
  8
51
 10
31.3885
 20
34.7005
 30
0.0000
 42
1.0000
  0
VERTEX
  8
51
 10
31.3885
 20
34.7255
 30
0.0000
  0
SEQEND
  8
0
  0
POLYLINE
  8
51
 66
1
 10
0.0000
 20
0.0000
 30
0.0000
 40
0.0250
 41
0.0250
 70
0
  0
VERTEX
  8
51
 10
25.8885
 20
34.7255
 30
0.0000
 42
1.0000
  0
VERTEX
  8
51
 10
25.8885
 20
34.7005
 30
0.0000
  0
SEQEND
  8
0
  0
POLYLINE
  8
51
 66
1
 10
0.0000
 20
0.0000
 30
0.0000
 40
0.0500
 41
0.0500
 70
0
  0
VERTEX
  8
51
 10
31.3885
 20
34.7130
 30
0.0000
  0
VERTEX
  8
51
 10
31.3885
 20
27.2630
 30
0.0000
  0
SEQEND
  8
0
  0
POLYLINE
  8
51
 66
1
 10
0.0000
 20
0.0000
 30
0.0000
 40
0.0250
 41
0.0250
 70
0
  0
VERTEX
  8
51
 10
31.3760
 20
27.2630
 30
0.0000
 42
1.0000
  0
VERTEX
  8
51
 10
31.4010
 20
27.2630
 30
0.0000
  0
SEQEND
  8
0
  0
POLYLINE
  8
51
 66
1
 10
0.0000
 20
0.0000
 30
0.0000
 40
0.0250
 41
0.0250
 70
0
  0
VERTEX
  8
51
 10
31.4010
 20
34.7130
 30
0.0000
 42
1.0000
  0
VERTEX
  8
51
 10
31.3760
 20
34.7130
 30
0.0000
  0
SEQEND
  8
0
  0
POLYLINE
  8
51
 66
1
 10
0.0000
 20
0.0000
 30
0.0000
 40
0.0500
 41
0.0500
 70
0
  0
VERTEX
  8
51
 10
31.3885
 20
27.2630
 30
0.0000
  0
VERTEX
  8
51
 10
25.8885
 20
27.2630
 30
0.0000
  0
SEQEND
  8
0
  0
POLYLINE
  8
51
 66
1
 10
0.0000
 20
0.0000
 30
0.0000
 40
0.0250
 41
0.0250
 70
0
  0
VERTEX
  8
51
 10
25.8885
 20
27.2755
 30
0.0000
 42
1.0000
  0
VERTEX
  8
51
 10
25.8885
 20
27.2505
 30
0.0000
  0
SEQEND
  8
0
  0
POLYLINE
  8
51
 66
1
 10
0.0000
 20
0.0000
 30
0.0000
 40
0.0250
 41
0.0250
 70
0
  0
VERTEX
  8
51
 10
31.3885
 20
27.2505
 30
0.0000
 42
1.0000
  0
VERTEX
  8
51
 10
31.3885
 20
27.2755
 30
0.0000
  0
SEQEND
  8
0
  0
POLYLINE
  8
51
 66
1
 10
0.0000
 20
0.0000
 30
0.0000
 40
0.1000
 41
0.1000
 70
0
  0
VERTEX
  8
51
 10
26.1885
 20
29.0380
 30
0.0000
  0
VERTEX
  8
51
 10
26.1885
 20
32.9380
 30
0.0000
  0
SEQEND
  8
0
  0
POLYLINE
  8
51
 66
1
 10
0.0000
 20
0.0000
 30
0.0000
 40
0.0500
 41
0.0500
 70
0
  0
VERTEX
  8
51
 10
26.2135
 20
32.9380
 30
0.0000
 42
1.0000
  0
VERTEX
  8
51
 10
26.1635
 20
32.9380
 30
0.0000
  0
SEQEND
  8
0
  0
POLYLINE
  8
51
 66
1
 10
0.0000
 20
0.0000
 30
0.0000
 40
0.0500
 41
0.0500
 70
0
  0
VERTEX
  8
51
 10
26.1635
 20
29.0380
 30
0.0000
 42
1.0000
  0
VERTEX
  8
51
 10
26.2135
 20
29.0380
 30
0.0000
  0
SEQEND
  8
0
  0
POLYLINE
  8
51
 66
1
 10
0.0000
 20
0.0000
 30
0.0000
 40
0.1000
 41
0.1000
 70
0
  0
VERTEX
  8
51
 10
26.1885
 20
32.9380
 30
0.0000
  0
VERTEX
  8
51
 10
31.0885
 20
32.9380
 30
0.0000
  0
SEQEND
  8
0
  0
POLYLINE
  8
51
 66
1
 10
0.0000
 20
0.0000
 30
0.0000
 40
0.0500
 41
0.0500
 70
0
  0
VERTEX
  8
51
 10
31.0885
 20
32.9130
 30
0.0000
 42
1.0000
  0
VERTEX
  8
51
 10
31.0885
 20
32.9630
 30
0.0000
  0
SEQEND
  8
0
  0
POLYLINE
  8
51
 66
1
 10
0.0000
 20
0.0000
 30
0.0000
 40
0.0500
 41
0.0500
 70
0
  0
VERTEX
  8
51
 10
26.1885
 20
32.9630
 30
0.0000
 42
1.0000
  0
VERTEX
  8
51
 10
26.1885
 20
32.9130
 30
0.0000
  0
SEQEND
  8
0
  0
POLYLINE
  8
51
 66
1
 10
0.0000
 20
0.0000
 30
0.0000
 40
0.1000
 41
0.1000
 70
0
  0
VERTEX
  8
51
 10
31.0885
 20
32.9380
 30
0.0000
  0
VERTEX
  8
51
 10
31.0885
 20
29.0380
 30
0.0000
  0
SEQEND
  8
0
  0
POLYLINE
  8
51
 66
1
 10
0.0000
 20
0.0000
 30
0.0000
 40
0.0500
 41
0.0500
 70
0
  0
VERTEX
  8
51
 10
31.0635
 20
29.0380
 30
0.0000
 42
1.0000
  0
VERTEX
  8
51
 10
31.1135
 20
29.0380
 30
0.0000
  0
SEQEND
  8
0
  0
POLYLINE
  8
51
 66
1
 10
0.0000
 20
0.0000
 30
0.0000
 40
0.0500
 41
0.0500
 70
0
  0
VERTEX
  8
51
 10
31.1135
 20
32.9380
 30
0.0000
 42
1.0000
  0
VERTEX
  8
51
 10
31.0635
 20
32.9380
 30
0.0000
  0
SEQEND
  8
0
  0
POLYLINE
  8
51
 66
1
 10
0.0000
 20
0.0000
 30
0.0000
 40
0.1000
 41
0.1000
 70
0
  0
VERTEX
  8
51
 10
31.0885
 20
29.0380
 30
0.0000
  0
VERTEX
  8
51
 10
26.1885
 20
29.0380
 30
0.0000
  0
SEQEND
  8
0
  0
POLYLINE
  8
51
 66
1
 10
0.0000
 20
0.0000
 30
0.0000
 40
0.0500
 41
0.0500
 70
0
  0
VERTEX
  8
51
 10
26.1885
 20
29.0630
 30
0.0000
 42
1.0000
  0
VERTEX
  8
51
 10
26.1885
 20
29.0130
 30
0.0000
  0
SEQEND
  8
0
  0
POLYLINE
  8
51
 66
1
 10
0.0000
 20
0.0000
 30
0.0000
 40
0.0500
 41
0.0500
 70
0
  0
VERTEX
  8
51
 10
31.0885
 20
29.0130
 30
0.0000
 42
1.0000
  0
VERTEX
  8
51
 10
31.0885
 20
29.0630
 30
0.0000
  0
SEQEND
  8
0
  0
POLYLINE
  8
51
 66
1
 10
0.0000
 20
0.0000
 30
0.0000
 40
0.1000
 41
0.1000
 70
0
  0
VERTEX
  8
51
 10
27.4585
 20
29.0380
 30
0.0000
  0
VERTEX
  8
51
 10
26.1885
 20
30.3080
 30
0.0000
  0
SEQEND
  8
0
  0
POLYLINE
  8
51
 66
1
 10
0.0000
 20
0.0000
 30
0.0000
 40
0.0500
 41
0.0500
 70
0
  0
VERTEX
  8
51
 10
26.2062
 20
30.3257
 30
0.0000
 42
1.0000
  0
VERTEX
  8
51
 10
26.1708
 20
30.2903
 30
0.0000
  0
SEQEND
  8
0
  0
POLYLINE
  8
51
 66
1
 10
0.0000
 20
0.0000
 30
0.0000
 40
0.0500
 41
0.0500
 70
0
  0
VERTEX
  8
51
 10
27.4408
 20
29.0203
 30
0.0000
 42
1.0000
  0
VERTEX
  8
51
 10
27.4762
 20
29.0557
 30
0.0000
  0
SEQEND
  8
0
  0
POLYLINE
  8
51
 66
1
 10
0.0000
 20
0.0000
 30
0.0000
 40
0.1016
 41
0.1016
 70
0
  0
VERTEX
  8
51
 10
41.5040
 20
47.9740
 30
0.0000
  0
VERTEX
  8
51
 10
39.7760
 20
47.9740
 30
0.0000
  0
SEQEND
  8
0
  0
POLYLINE
  8
51
 66
1
 10
0.0000
 20
0.0000
 30
0.0000
 40
0.0508
 41
0.0508
 70
0
  0
VERTEX
  8
51
 10
39.7760
 20
47.9994
 30
0.0000
 42
1.0000
  0
VERTEX
  8
51
 10
39.7760
 20
47.9486
 30
0.0000
  0
SEQEND
  8
0
  0
POLYLINE
  8
51
 66
1
 10
0.0000
 20
0.0000
 30
0.0000
 40
0.0508
 41
0.0508
 70
0
  0
VERTEX
  8
51
 10
41.5040
 20
47.9486
 30
0.0000
 42
1.0000
  0
VERTEX
  8
51
 10
41.5040
 20
47.9994
 30
0.0000
  0
SEQEND
  8
0
  0
POLYLINE
  8
51
 66
1
 10
0.0000
 20
0.0000
 30
0.0000
 40
0.1016
 41
0.1016
 70
0
  0
VERTEX
  8
51
 10
41.5040
 20
49.0670
 30
0.0000
  0
VERTEX
  8
51
 10
39.7760
 20
49.0670
 30
0.0000
  0
SEQEND
  8
0
  0
POLYLINE
  8
51
 66
1
 10
0.0000
 20
0.0000
 30
0.0000
 40
0.0508
 41
0.0508
 70
0
  0
VERTEX
  8
51
 10
39.7760
 20
49.0924
 30
0.0000
 42
1.0000
  0
VERTEX
  8
51
 10
39.7760
 20
49.0416
 30
0.0000
  0
SEQEND
  8
0
  0
POLYLINE
  8
51
 66
1
 10
0.0000
 20
0.0000
 30
0.0000
 40
0.0508
 41
0.0508
 70
0
  0
VERTEX
  8
51
 10
41.5040
 20
49.0416
 30
0.0000
 42
1.0000
  0
VERTEX
  8
51
 10
41.5040
 20
49.0924
 30
0.0000
  0
SEQEND
  8
0
  0
INSERT
  8
51
  2
RECT
 10
41.6330
 20
48.5237
 30
0.0000
 41
0.3000
 42
1.1999
 43
1.0000
 50
180.0000
  0
INSERT
  8
51
  2
RECT
 10
39.6518
 20
48.5237
 30
0.0000
 41
0.3000
 42
1.1999
 43
1.0000
 50
180.0000
  0
POLYLINE
  8
51
 66
1
 10
0.0000
 20
0.0000
 30
0.0000
 40
0.2032
 41
0.2032
 70
0
  0
VERTEX
  8
51
 10
21.6535
 20
35.7505
 30
0.0000
  0
VERTEX
  8
51
 10
21.6535
 20
47.1805
 30
0.0000
  0
SEQEND
  8
0
  0
POLYLINE
  8
51
 66
1
 10
0.0000
 20
0.0000
 30
0.0000
 40
0.1016
 41
0.1016
 70
0
  0
VERTEX
  8
51
 10
21.7043
 20
47.1805
 30
0.0000
 42
1.0000
  0
VERTEX
  8
51
 10
21.6027
 20
47.1805
 30
0.0000
  0
SEQEND
  8
0
  0
POLYLINE
  8
51
 66
1
 10
0.0000
 20
0.0000
 30
0.0000
 40
0.1016
 41
0.1016
 70
0
  0
VERTEX
  8
51
 10
21.6027
 20
35.7505
 30
0.0000
 42
1.0000
  0
VERTEX
  8
51
 10
21.7043
 20
35.7505
 30
0.0000
  0
SEQEND
  8
0
  0
POLYLINE
  8
51
 66
1
 10
0.0000
 20
0.0000
 30
0.0000
 40
0.2032
 41
0.2032
 70
0
  0
VERTEX
  8
51
 10
21.6535
 20
47.1805
 30
0.0000
  0
VERTEX
  8
51
 10
22.9235
 20
48.4505
 30
0.0000
  0
SEQEND
  8
0
  0
POLYLINE
  8
51
 66
1
 10
0.0000
 20
0.0000
 30
0.0000
 40
0.1016
 41
0.1016
 70
0
  0
VERTEX
  8
51
 10
22.9594
 20
48.4146
 30
0.0000
 42
1.0000
  0
VERTEX
  8
51
 10
22.8876
 20
48.4864
 30
0.0000
  0
SEQEND
  8
0
  0
POLYLINE
  8
51
 66
1
 10
0.0000
 20
0.0000
 30
0.0000
 40
0.1016
 41
0.1016
 70
0
  0
VERTEX
  8
51
 10
21.6176
 20
47.2164
 30
0.0000
 42
1.0000
  0
VERTEX
  8
51
 10
21.6894
 20
47.1446
 30
0.0000
  0
SEQEND
  8
0
  0
POLYLINE
  8
51
 66
1
 10
0.0000
 20
0.0000
 30
0.0000
 40
0.2032
 41
0.2032
 70
0
  0
VERTEX
  8
51
 10
22.9235
 20
48.4505
 30
0.0000
  0
VERTEX
  8
51
 10
34.3535
 20
48.4505
 30
0.0000
  0
SEQEND
  8
0
  0
POLYLINE
  8
51
 66
1
 10
0.0000
 20
0.0000
 30
0.0000
 40
0.1016
 41
0.1016
 70
0
  0
VERTEX
  8
51
 10
34.3535
 20
48.3997
 30
0.0000
 42
1.0000
  0
VERTEX
  8
51
 10
34.3535
 20
48.5013
 30
0.0000
  0
SEQEND
  8
0
  0
POLYLINE
  8
51
 66
1
 10
0.0000
 20
0.0000
 30
0.0000
 40
0.1016
 41
0.1016
 70
0
  0
VERTEX
  8
51
 10
22.9235
 20
48.5013
 30
0.0000
 42
1.0000
  0
VERTEX
  8
51
 10
22.9235
 20
48.3997
 30
0.0000
  0
SEQEND
  8
0
  0
POLYLINE
  8
51
 66
1
 10
0.0000
 20
0.0000
 30
0.0000
 40
0.2032
 41
0.2032
 70
0
  0
VERTEX
  8
51
 10
34.3535
 20
48.4505
 30
0.0000
  0
VERTEX
  8
51
 10
34.3535
 20
37.0205
 30
0.0000
  0
SEQEND
  8
0
  0
POLYLINE
  8
51
 66
1
 10
0.0000
 20
0.0000
 30
0.0000
 40
0.1016
 41
0.1016
 70
0
  0
VERTEX
  8
51
 10
34.3027
 20
37.0205
 30
0.0000
 42
1.0000
  0
VERTEX
  8
51
 10
34.4043
 20
37.0205
 30
0.0000
  0
SEQEND
  8
0
  0
POLYLINE
  8
51
 66
1
 10
0.0000
 20
0.0000
 30
0.0000
 40
0.1016
 41
0.1016
 70
0
  0
VERTEX
  8
51
 10
34.4043
 20
48.4505
 30
0.0000
 42
1.0000
  0
VERTEX
  8
51
 10
34.3027
 20
48.4505
 30
0.0000
  0
SEQEND
  8
0
  0
POLYLINE
  8
51
 66
1
 10
0.0000
 20
0.0000
 30
0.0000
 40
0.2032
 41
0.2032
 70
0
  0
VERTEX
  8
51
 10
33.0835
 20
35.7505
 30
0.0000
  0
VERTEX
  8
51
 10
21.6535
 20
35.7505
 30
0.0000
  0
SEQEND
  8
0
  0
POLYLINE
  8
51
 66
1
 10
0.0000
 20
0.0000
 30
0.0000
 40
0.1016
 41
0.1016
 70
0
  0
VERTEX
  8
51
 10
21.6535
 20
35.8013
 30
0.0000
 42
1.0000
  0
VERTEX
  8
51
 10
21.6535
 20
35.6997
 30
0.0000
  0
SEQEND
  8
0
  0
POLYLINE
  8
51
 66
1
 10
0.0000
 20
0.0000
 30
0.0000
 40
0.1016
 41
0.1016
 70
0
  0
VERTEX
  8
51
 10
33.0835
 20
35.6997
 30
0.0000
 42
1.0000
  0
VERTEX
  8
51
 10
33.0835
 20
35.8013
 30
0.0000
  0
SEQEND
  8
0
  0
POLYLINE
  8
51
 66
1
 10
0.0000
 20
0.0000
 30
0.0000
 40
0.2032
 41
0.2032
 70
0
  0
VERTEX
  8
51
 10
34.3535
 20
37.0205
 30
0.0000
  0
VERTEX
  8
51
 10
33.0835
 20
35.7505
 30
0.0000
  0
SEQEND
  8
0
  0
POLYLINE
  8
51
 66
1
 10
0.0000
 20
0.0000
 30
0.0000
 40
0.1016
 41
0.1016
 70
0
  0
VERTEX
  8
51
 10
33.0476
 20
35.7864
 30
0.0000
 42
1.0000
  0
VERTEX
  8
51
 10
33.1194
 20
35.7146
 30
0.0000
  0
SEQEND
  8
0
  0
POLYLINE
  8
51
 66
1
 10
0.0000
 20
0.0000
 30
0.0000
 40
0.1016
 41
0.1016
 70
0
  0
VERTEX
  8
51
 10
34.3894
 20
36.9846
 30
0.0000
 42
1.0000
  0
VERTEX
  8
51
 10
34.3176
 20
37.0564
 30
0.0000
  0
SEQEND
  8
0
  0
POLYLINE
  8
51
 66
1
 10
0.0000
 20
0.0000
 30
0.0000
 40
0.1016
 41
0.1016
 70
0
  0
VERTEX
  8
51
 10
5.1115
 20
34.1880
 30
0.0000
  0
VERTEX
  8
51
 10
5.1115
 20
35.9160
 30
0.0000
  0
SEQEND
  8
0
  0
POLYLINE
  8
51
 66
1
 10
0.0000
 20
0.0000
 30
0.0000
 40
0.0508
 41
0.0508
 70
0
  0
VERTEX
  8
51
 10
5.1369
 20
35.9160
 30
0.0000
 42
1.0000
  0
VERTEX
  8
51
 10
5.0861
 20
35.9160
 30
0.0000
  0
SEQEND
  8
0
  0
POLYLINE
  8
51
 66
1
 10
0.0000
 20
0.0000
 30
0.0000
 40
0.0508
 41
0.0508
 70
0
  0
VERTEX
  8
51
 10
5.0861
 20
34.1880
 30
0.0000
 42
1.0000
  0
VERTEX
  8
51
 10
5.1369
 20
34.1880
 30
0.0000
  0
SEQEND
  8
0
  0
POLYLINE
  8
51
 66
1
 10
0.0000
 20
0.0000
 30
0.0000
 40
0.1016
 41
0.1016
 70
0
  0
VERTEX
  8
51
 10
6.2045
 20
34.1880
 30
0.0000
  0
VERTEX
  8
51
 10
6.2045
 20
35.9160
 30
0.0000
  0
SEQEND
  8
0
  0
POLYLINE
  8
51
 66
1
 10
0.0000
 20
0.0000
 30
0.0000
 40
0.0508
 41
0.0508
 70
0
  0
VERTEX
  8
51
 10
6.2299
 20
35.9160
 30
0.0000
 42
1.0000
  0
VERTEX
  8
51
 10
6.1791
 20
35.9160
 30
0.0000
  0
SEQEND
  8
0
  0
POLYLINE
  8
51
 66
1
 10
0.0000
 20
0.0000
 30
0.0000
 40
0.0508
 41
0.0508
 70
0
  0
VERTEX
  8
51
 10
6.1791
 20
34.1880
 30
0.0000
 42
1.0000
  0
VERTEX
  8
51
 10
6.2299
 20
34.1880
 30
0.0000
  0
SEQEND
  8
0
  0
INSERT
  8
51
  2
RECT
 10
5.6612
 20
34.0590
 30
0.0000
 41
0.3000
 42
1.1999
 43
1.0000
 50
90.0000
  0
INSERT
  8
51
  2
RECT
 10
5.6612
 20
36.0402
 30
0.0000
 41
0.3000
 42
1.1999
 43
1.0000
 50
90.0000
  0
POLYLINE
  8
51
 66
1
 10
0.0000
 20
0.0000
 30
0.0000
 40
0.2000
 41
0.2000
 70
0
  0
VERTEX
  8
51
 10
33.0595
 20
15.2005
 30
0.0000
  0
VERTEX
  8
51
 10
26.2495
 20
15.2005
 30
0.0000
  0
SEQEND
  8
0
  0
POLYLINE
  8
51
 66
1
 10
0.0000
 20
0.0000
 30
0.0000
 40
0.1000
 41
0.1000
 70
0
  0
VERTEX
  8
51
 10
26.2495
 20
15.2505
 30
0.0000
 42
1.0000
  0
VERTEX
  8
51
 10
26.2495
 20
15.1505
 30
0.0000
  0
SEQEND
  8
0
  0
POLYLINE
  8
51
 66
1
 10
0.0000
 20
0.0000
 30
0.0000
 40
0.1000
 41
0.1000
 70
0
  0
VERTEX
  8
51
 10
33.0595
 20
15.1505
 30
0.0000
 42
1.0000
  0
VERTEX
  8
51
 10
33.0595
 20
15.2505
 30
0.0000
  0
SEQEND
  8
0
  0
POLYLINE
  8
51
 66
1
 10
0.0000
 20
0.0000
 30
0.0000
 40
0.2000
 41
0.2000
 70
0
  0
VERTEX
  8
51
 10
26.2495
 20
15.2005
 30
0.0000
  0
VERTEX
  8
51
 10
26.2495
 20
18.2005
 30
0.0000
  0
SEQEND
  8
0
  0
POLYLINE
  8
51
 66
1
 10
0.0000
 20
0.0000
 30
0.0000
 40
0.1000
 41
0.1000
 70
0
  0
VERTEX
  8
51
 10
26.2995
 20
18.2005
 30
0.0000
 42
1.0000
  0
VERTEX
  8
51
 10
26.1995
 20
18.2005
 30
0.0000
  0
SEQEND
  8
0
  0
POLYLINE
  8
51
 66
1
 10
0.0000
 20
0.0000
 30
0.0000
 40
0.1000
 41
0.1000
 70
0
  0
VERTEX
  8
51
 10
26.1995
 20
15.2005
 30
0.0000
 42
1.0000
  0
VERTEX
  8
51
 10
26.2995
 20
15.2005
 30
0.0000
  0
SEQEND
  8
0
  0
POLYLINE
  8
51
 66
1
 10
0.0000
 20
0.0000
 30
0.0000
 40
0.2000
 41
0.2000
 70
0
  0
VERTEX
  8
51
 10
26.2495
 20
18.2005
 30
0.0000
  0
VERTEX
  8
51
 10
33.0595
 20
18.2005
 30
0.0000
  0
SEQEND
  8
0
  0
POLYLINE
  8
51
 66
1
 10
0.0000
 20
0.0000
 30
0.0000
 40
0.1000
 41
0.1000
 70
0
  0
VERTEX
  8
51
 10
33.0595
 20
18.1505
 30
0.0000
 42
1.0000
  0
VERTEX
  8
51
 10
33.0595
 20
18.2505
 30
0.0000
  0
SEQEND
  8
0
  0
POLYLINE
  8
51
 66
1
 10
0.0000
 20
0.0000
 30
0.0000
 40
0.1000
 41
0.1000
 70
0
  0
VERTEX
  8
51
 10
26.2495
 20
18.2505
 30
0.0000
 42
1.0000
  0
VERTEX
  8
51
 10
26.2495
 20
18.1505
 30
0.0000
  0
SEQEND
  8
0
  0
POLYLINE
  8
51
 66
1
 10
0.0000
 20
0.0000
 30
0.0000
 40
0.2000
 41
0.2000
 70
0
  0
VERTEX
  8
51
 10
33.0595
 20
18.2005
 30
0.0000
  0
VERTEX
  8
51
 10
33.0595
 20
15.2005
 30
0.0000
  0
SEQEND
  8
0
  0
POLYLINE
  8
51
 66
1
 10
0.0000
 20
0.0000
 30
0.0000
 40
0.1000
 41
0.1000
 70
0
  0
VERTEX
  8
51
 10
33.0095
 20
15.2005
 30
0.0000
 42
1.0000
  0
VERTEX
  8
51
 10
33.1095
 20
15.2005
 30
0.0000
  0
SEQEND
  8
0
  0
POLYLINE
  8
51
 66
1
 10
0.0000
 20
0.0000
 30
0.0000
 40
0.1000
 41
0.1000
 70
0
  0
VERTEX
  8
51
 10
33.1095
 20
18.2005
 30
0.0000
 42
1.0000
  0
VERTEX
  8
51
 10
33.0095
 20
18.2005
 30
0.0000
  0
SEQEND
  8
0
  0
POLYLINE
  8
51
 66
1
 10
0.0000
 20
0.0000
 30
0.0000
 40
0.1000
 41
0.1000
 70
0
  0
VERTEX
  8
51
 10
34.0595
 20
12.9005
 30
0.0000
  0
VERTEX
  8
51
 10
24.7545
 20
12.9005
 30
0.0000
  0
SEQEND
  8
0
  0
POLYLINE
  8
51
 66
1
 10
0.0000
 20
0.0000
 30
0.0000
 40
0.0500
 41
0.0500
 70
0
  0
VERTEX
  8
51
 10
24.7545
 20
12.9255
 30
0.0000
 42
1.0000
  0
VERTEX
  8
51
 10
24.7545
 20
12.8755
 30
0.0000
  0
SEQEND
  8
0
  0
POLYLINE
  8
51
 66
1
 10
0.0000
 20
0.0000
 30
0.0000
 40
0.0500
 41
0.0500
 70
0
  0
VERTEX
  8
51
 10
34.0595
 20
12.8755
 30
0.0000
 42
1.0000
  0
VERTEX
  8
51
 10
34.0595
 20
12.9255
 30
0.0000
  0
SEQEND
  8
0
  0
POLYLINE
  8
51
 66
1
 10
0.0000
 20
0.0000
 30
0.0000
 40
0.1000
 41
0.1000
 70
0
  0
VERTEX
  8
51
 10
24.7545
 20
12.9005
 30
0.0000
  0
VERTEX
  8
51
 10
24.7545
 20
20.5005
 30
0.0000
  0
SEQEND
  8
0
  0
POLYLINE
  8
51
 66
1
 10
0.0000
 20
0.0000
 30
0.0000
 40
0.0500
 41
0.0500
 70
0
  0
VERTEX
  8
51
 10
24.7795
 20
20.5005
 30
0.0000
 42
1.0000
  0
VERTEX
  8
51
 10
24.7295
 20
20.5005
 30
0.0000
  0
SEQEND
  8
0
  0
POLYLINE
  8
51
 66
1
 10
0.0000
 20
0.0000
 30
0.0000
 40
0.0500
 41
0.0500
 70
0
  0
VERTEX
  8
51
 10
24.7295
 20
12.9005
 30
0.0000
 42
1.0000
  0
VERTEX
  8
51
 10
24.7795
 20
12.9005
 30
0.0000
  0
SEQEND
  8
0
  0
POLYLINE
  8
51
 66
1
 10
0.0000
 20
0.0000
 30
0.0000
 40
0.1000
 41
0.1000
 70
0
  0
VERTEX
  8
51
 10
24.7545
 20
20.5005
 30
0.0000
  0
VERTEX
  8
51
 10
34.0595
 20
20.5005
 30
0.0000
  0
SEQEND
  8
0
  0
POLYLINE
  8
51
 66
1
 10
0.0000
 20
0.0000
 30
0.0000
 40
0.0500
 41
0.0500
 70
0
  0
VERTEX
  8
51
 10
34.0595
 20
20.4755
 30
0.0000
 42
1.0000
  0
VERTEX
  8
51
 10
34.0595
 20
20.5255
 30
0.0000
  0
SEQEND
  8
0
  0
POLYLINE
  8
51
 66
1
 10
0.0000
 20
0.0000
 30
0.0000
 40
0.0500
 41
0.0500
 70
0
  0
VERTEX
  8
51
 10
24.7545
 20
20.5255
 30
0.0000
 42
1.0000
  0
VERTEX
  8
51
 10
24.7545
 20
20.4755
 30
0.0000
  0
SEQEND
  8
0
  0
POLYLINE
  8
51
 66
1
 10
0.0000
 20
0.0000
 30
0.0000
 40
0.1000
 41
0.1000
 70
0
  0
VERTEX
  8
51
 10
34.0595
 20
20.5005
 30
0.0000
  0
VERTEX
  8
51
 10
34.0595
 20
12.9005
 30
0.0000
  0
SEQEND
  8
0
  0
POLYLINE
  8
51
 66
1
 10
0.0000
 20
0.0000
 30
0.0000
 40
0.0500
 41
0.0500
 70
0
  0
VERTEX
  8
51
 10
34.0345
 20
12.9005
 30
0.0000
 42
1.0000
  0
VERTEX
  8
51
 10
34.0845
 20
12.9005
 30
0.0000
  0
SEQEND
  8
0
  0
POLYLINE
  8
51
 66
1
 10
0.0000
 20
0.0000
 30
0.0000
 40
0.0500
 41
0.0500
 70
0
  0
VERTEX
  8
51
 10
34.0845
 20
20.5005
 30
0.0000
 42
1.0000
  0
VERTEX
  8
51
 10
34.0345
 20
20.5005
 30
0.0000
  0
SEQEND
  8
0
  0
POLYLINE
  8
51
 66
1
 10
0.0000
 20
0.0000
 30
0.0000
 40
0.1524
 41
0.1524
 70
0
  0
VERTEX
  8
51
 10
46.7360
 20
31.2710
 30
0.0000
  0
VERTEX
  8
51
 10
46.7360
 20
30.4510
 30
0.0000
  0
SEQEND
  8
0
  0
POLYLINE
  8
51
 66
1
 10
0.0000
 20
0.0000
 30
0.0000
 40
0.0762
 41
0.0762
 70
0
  0
VERTEX
  8
51
 10
46.6979
 20
30.4510
 30
0.0000
 42
1.0000
  0
VERTEX
  8
51
 10
46.7741
 20
30.4510
 30
0.0000
  0
SEQEND
  8
0
  0
POLYLINE
  8
51
 66
1
 10
0.0000
 20
0.0000
 30
0.0000
 40
0.0762
 41
0.0762
 70
0
  0
VERTEX
  8
51
 10
46.7741
 20
31.2710
 30
0.0000
 42
1.0000
  0
VERTEX
  8
51
 10
46.6979
 20
31.2710
 30
0.0000
  0
SEQEND
  8
0
  0
POLYLINE
  8
51
 66
1
 10
0.0000
 20
0.0000
 30
0.0000
 40
0.1524
 41
0.1524
 70
0
  0
VERTEX
  8
51
 10
45.4660
 20
31.2710
 30
0.0000
  0
VERTEX
  8
51
 10
45.4660
 20
30.4510
 30
0.0000
  0
SEQEND
  8
0
  0
POLYLINE
  8
51
 66
1
 10
0.0000
 20
0.0000
 30
0.0000
 40
0.0762
 41
0.0762
 70
0
  0
VERTEX
  8
51
 10
45.4279
 20
30.4510
 30
0.0000
 42
1.0000
  0
VERTEX
  8
51
 10
45.5041
 20
30.4510
 30
0.0000
  0
SEQEND
  8
0
  0
POLYLINE
  8
51
 66
1
 10
0.0000
 20
0.0000
 30
0.0000
 40
0.0762
 41
0.0762
 70
0
  0
VERTEX
  8
51
 10
45.5041
 20
31.2710
 30
0.0000
 42
1.0000
  0
VERTEX
  8
51
 10
45.4279
 20
31.2710
 30
0.0000
  0
SEQEND
  8
0
  0
POLYLINE
  8
51
 66
1
 10
0.0000
 20
0.0000
 30
0.0000
 40
0.1524
 41
0.1524
 70
0
  0
VERTEX
  8
51
 10
38.9890
 20
38.4520
 30
0.0000
  0
VERTEX
  8
51
 10
38.9890
 20
39.2720
 30
0.0000
  0
SEQEND
  8
0
  0
POLYLINE
  8
51
 66
1
 10
0.0000
 20
0.0000
 30
0.0000
 40
0.0762
 41
0.0762
 70
0
  0
VERTEX
  8
51
 10
39.0271
 20
39.2720
 30
0.0000
 42
1.0000
  0
VERTEX
  8
51
 10
38.9509
 20
39.2720
 30
0.0000
  0
SEQEND
  8
0
  0
POLYLINE
  8
51
 66
1
 10
0.0000
 20
0.0000
 30
0.0000
 40
0.0762
 41
0.0762
 70
0
  0
VERTEX
  8
51
 10
38.9509
 20
38.4520
 30
0.0000
 42
1.0000
  0
VERTEX
  8
51
 10
39.0271
 20
38.4520
 30
0.0000
  0
SEQEND
  8
0
  0
POLYLINE
  8
51
 66
1
 10
0.0000
 20
0.0000
 30
0.0000
 40
0.1524
 41
0.1524
 70
0
  0
VERTEX
  8
51
 10
40.2590
 20
38.4520
 30
0.0000
  0
VERTEX
  8
51
 10
40.2590
 20
39.2720
 30
0.0000
  0
SEQEND
  8
0
  0
POLYLINE
  8
51
 66
1
 10
0.0000
 20
0.0000
 30
0.0000
 40
0.0762
 41
0.0762
 70
0
  0
VERTEX
  8
51
 10
40.2971
 20
39.2720
 30
0.0000
 42
1.0000
  0
VERTEX
  8
51
 10
40.2209
 20
39.2720
 30
0.0000
  0
SEQEND
  8
0
  0
POLYLINE
  8
51
 66
1
 10
0.0000
 20
0.0000
 30
0.0000
 40
0.0762
 41
0.0762
 70
0
  0
VERTEX
  8
51
 10
40.2209
 20
38.4520
 30
0.0000
 42
1.0000
  0
VERTEX
  8
51
 10
40.2971
 20
38.4520
 30
0.0000
  0
SEQEND
  8
0
  0
INSERT
  8
51
  2
RECT
 10
39.6225
 20
39.5934
 30
0.0000
 41
0.6500
 42
1.4000
 43
1.0000
 50
90.0000
  0
INSERT
  8
51
  2
RECT
 10
39.6225
 20
38.1202
 30
0.0000
 41
0.6500
 42
1.4000
 43
1.0000
 50
90.0000
  0
POLYLINE
  8
51
 66
1
 10
0.0000
 20
0.0000
 30
0.0000
 40
0.1524
 41
0.1524
 70
0
  0
VERTEX
  8
51
 10
89.4715
 20
31.7210
 30
0.0000
  0
VERTEX
  8
51
 10
89.4715
 20
32.5410
 30
0.0000
  0
SEQEND
  8
0
  0
POLYLINE
  8
51
 66
1
 10
0.0000
 20
0.0000
 30
0.0000
 40
0.0762
 41
0.0762
 70
0
  0
VERTEX
  8
51
 10
89.5096
 20
32.5410
 30
0.0000
 42
1.0000
  0
VERTEX
  8
51
 10
89.4334
 20
32.5410
 30
0.0000
  0
SEQEND
  8
0
  0
POLYLINE
  8
51
 66
1
 10
0.0000
 20
0.0000
 30
0.0000
 40
0.0762
 41
0.0762
 70
0
  0
VERTEX
  8
51
 10
89.4334
 20
31.7210
 30
0.0000
 42
1.0000
  0
VERTEX
  8
51
 10
89.5096
 20
31.7210
 30
0.0000
  0
SEQEND
  8
0
  0
POLYLINE
  8
51
 66
1
 10
0.0000
 20
0.0000
 30
0.0000
 40
0.1524
 41
0.1524
 70
0
  0
VERTEX
  8
51
 10
90.7415
 20
31.7210
 30
0.0000
  0
VERTEX
  8
51
 10
90.7415
 20
32.5410
 30
0.0000
  0
SEQEND
  8
0
  0
POLYLINE
  8
51
 66
1
 10
0.0000
 20
0.0000
 30
0.0000
 40
0.0762
 41
0.0762
 70
0
  0
VERTEX
  8
51
 10
90.7796
 20
32.5410
 30
0.0000
 42
1.0000
  0
VERTEX
  8
51
 10
90.7034
 20
32.5410
 30
0.0000
  0
SEQEND
  8
0
  0
POLYLINE
  8
51
 66
1
 10
0.0000
 20
0.0000
 30
0.0000
 40
0.0762
 41
0.0762
 70
0
  0
VERTEX
  8
51
 10
90.7034
 20
31.7210
 30
0.0000
 42
1.0000
  0
VERTEX
  8
51
 10
90.7796
 20
31.7210
 30
0.0000
  0
SEQEND
  8
0
  0
INSERT
  8
51
  2
RECT
 10
90.1050
 20
32.8624
 30
0.0000
 41
0.6500
 42
1.4000
 43
1.0000
 50
90.0000
  0
INSERT
  8
51
  2
RECT
 10
90.1050
 20
31.3892
 30
0.0000
 41
0.6500
 42
1.4000
 43
1.0000
 50
90.0000
  0
POLYLINE
  8
51
 66
1
 10
0.0000
 20
0.0000
 30
0.0000
 40
0.1524
 41
0.1524
 70
0
  0
VERTEX
  8
51
 10
49.5300
 20
31.2710
 30
0.0000
  0
VERTEX
  8
51
 10
49.5300
 20
30.4510
 30
0.0000
  0
SEQEND
  8
0
  0
POLYLINE
  8
51
 66
1
 10
0.0000
 20
0.0000
 30
0.0000
 40
0.0762
 41
0.0762
 70
0
  0
VERTEX
  8
51
 10
49.4919
 20
30.4510
 30
0.0000
 42
1.0000
  0
VERTEX
  8
51
 10
49.5681
 20
30.4510
 30
0.0000
  0
SEQEND
  8
0
  0
POLYLINE
  8
51
 66
1
 10
0.0000
 20
0.0000
 30
0.0000
 40
0.0762
 41
0.0762
 70
0
  0
VERTEX
  8
51
 10
49.5681
 20
31.2710
 30
0.0000
 42
1.0000
  0
VERTEX
  8
51
 10
49.4919
 20
31.2710
 30
0.0000
  0
SEQEND
  8
0
  0
POLYLINE
  8
51
 66
1
 10
0.0000
 20
0.0000
 30
0.0000
 40
0.1524
 41
0.1524
 70
0
  0
VERTEX
  8
51
 10
48.2600
 20
31.2710
 30
0.0000
  0
VERTEX
  8
51
 10
48.2600
 20
30.4510
 30
0.0000
  0
SEQEND
  8
0
  0
POLYLINE
  8
51
 66
1
 10
0.0000
 20
0.0000
 30
0.0000
 40
0.0762
 41
0.0762
 70
0
  0
VERTEX
  8
51
 10
48.2219
 20
30.4510
 30
0.0000
 42
1.0000
  0
VERTEX
  8
51
 10
48.2981
 20
30.4510
 30
0.0000
  0
SEQEND
  8
0
  0
POLYLINE
  8
51
 66
1
 10
0.0000
 20
0.0000
 30
0.0000
 40
0.0762
 41
0.0762
 70
0
  0
VERTEX
  8
51
 10
48.2981
 20
31.2710
 30
0.0000
 42
1.0000
  0
VERTEX
  8
51
 10
48.2219
 20
31.2710
 30
0.0000
  0
SEQEND
  8
0
  0
POLYLINE
  8
51
 66
1
 10
0.0000
 20
0.0000
 30
0.0000
 40
0.1524
 41
0.1524
 70
0
  0
VERTEX
  8
51
 10
89.4715
 20
26.6410
 30
0.0000
  0
VERTEX
  8
51
 10
89.4715
 20
27.4610
 30
0.0000
  0
SEQEND
  8
0
  0
POLYLINE
  8
51
 66
1
 10
0.0000
 20
0.0000
 30
0.0000
 40
0.0762
 41
0.0762
 70
0
  0
VERTEX
  8
51
 10
89.5096
 20
27.4610
 30
0.0000
 42
1.0000
  0
VERTEX
  8
51
 10
89.4334
 20
27.4610
 30
0.0000
  0
SEQEND
  8
0
  0
POLYLINE
  8
51
 66
1
 10
0.0000
 20
0.0000
 30
0.0000
 40
0.0762
 41
0.0762
 70
0
  0
VERTEX
  8
51
 10
89.4334
 20
26.6410
 30
0.0000
 42
1.0000
  0
VERTEX
  8
51
 10
89.5096
 20
26.6410
 30
0.0000
  0
SEQEND
  8
0
  0
POLYLINE
  8
51
 66
1
 10
0.0000
 20
0.0000
 30
0.0000
 40
0.1524
 41
0.1524
 70
0
  0
VERTEX
  8
51
 10
90.7415
 20
26.6410
 30
0.0000
  0
VERTEX
  8
51
 10
90.7415
 20
27.4610
 30
0.0000
  0
SEQEND
  8
0
  0
POLYLINE
  8
51
 66
1
 10
0.0000
 20
0.0000
 30
0.0000
 40
0.0762
 41
0.0762
 70
0
  0
VERTEX
  8
51
 10
90.7796
 20
27.4610
 30
0.0000
 42
1.0000
  0
VERTEX
  8
51
 10
90.7034
 20
27.4610
 30
0.0000
  0
SEQEND
  8
0
  0
POLYLINE
  8
51
 66
1
 10
0.0000
 20
0.0000
 30
0.0000
 40
0.0762
 41
0.0762
 70
0
  0
VERTEX
  8
51
 10
90.7034
 20
26.6410
 30
0.0000
 42
1.0000
  0
VERTEX
  8
51
 10
90.7796
 20
26.6410
 30
0.0000
  0
SEQEND
  8
0
  0
INSERT
  8
51
  2
RECT
 10
90.1050
 20
27.7824
 30
0.0000
 41
0.6500
 42
1.4000
 43
1.0000
 50
90.0000
  0
INSERT
  8
51
  2
RECT
 10
90.1050
 20
26.3092
 30
0.0000
 41
0.6500
 42
1.4000
 43
1.0000
 50
90.0000
  0
POLYLINE
  8
51
 66
1
 10
0.0000
 20
0.0000
 30
0.0000
 40
0.1524
 41
0.1524
 70
0
  0
VERTEX
  8
51
 10
93.1545
 20
26.6410
 30
0.0000
  0
VERTEX
  8
51
 10
93.1545
 20
27.4610
 30
0.0000
  0
SEQEND
  8
0
  0
POLYLINE
  8
51
 66
1
 10
0.0000
 20
0.0000
 30
0.0000
 40
0.0762
 41
0.0762
 70
0
  0
VERTEX
  8
51
 10
93.1926
 20
27.4610
 30
0.0000
 42
1.0000
  0
VERTEX
  8
51
 10
93.1164
 20
27.4610
 30
0.0000
  0
SEQEND
  8
0
  0
POLYLINE
  8
51
 66
1
 10
0.0000
 20
0.0000
 30
0.0000
 40
0.0762
 41
0.0762
 70
0
  0
VERTEX
  8
51
 10
93.1164
 20
26.6410
 30
0.0000
 42
1.0000
  0
VERTEX
  8
51
 10
93.1926
 20
26.6410
 30
0.0000
  0
SEQEND
  8
0
  0
POLYLINE
  8
51
 66
1
 10
0.0000
 20
0.0000
 30
0.0000
 40
0.1524
 41
0.1524
 70
0
  0
VERTEX
  8
51
 10
94.4245
 20
26.6410
 30
0.0000
  0
VERTEX
  8
51
 10
94.4245
 20
27.4610
 30
0.0000
  0
SEQEND
  8
0
  0
POLYLINE
  8
51
 66
1
 10
0.0000
 20
0.0000
 30
0.0000
 40
0.0762
 41
0.0762
 70
0
  0
VERTEX
  8
51
 10
94.4626
 20
27.4610
 30
0.0000
 42
1.0000
  0
VERTEX
  8
51
 10
94.3864
 20
27.4610
 30
0.0000
  0
SEQEND
  8
0
  0
POLYLINE
  8
51
 66
1
 10
0.0000
 20
0.0000
 30
0.0000
 40
0.0762
 41
0.0762
 70
0
  0
VERTEX
  8
51
 10
94.3864
 20
26.6410
 30
0.0000
 42
1.0000
  0
VERTEX
  8
51
 10
94.4626
 20
26.6410
 30
0.0000
  0
SEQEND
  8
0
  0
INSERT
  8
51
  2
RECT
 10
93.7880
 20
27.7824
 30
0.0000
 41
0.6500
 42
1.4000
 43
1.0000
 50
90.0000
  0
INSERT
  8
51
  2
RECT
 10
93.7880
 20
26.3092
 30
0.0000
 41
0.6500
 42
1.4000
 43
1.0000
 50
90.0000
  0
POLYLINE
  8
51
 66
1
 10
0.0000
 20
0.0000
 30
0.0000
 40
0.1524
 41
0.1524
 70
0
  0
VERTEX
  8
51
 10
54.4195
 20
37.1820
 30
0.0000
  0
VERTEX
  8
51
 10
54.4195
 20
38.0020
 30
0.0000
  0
SEQEND
  8
0
  0
POLYLINE
  8
51
 66
1
 10
0.0000
 20
0.0000
 30
0.0000
 40
0.0762
 41
0.0762
 70
0
  0
VERTEX
  8
51
 10
54.4576
 20
38.0020
 30
0.0000
 42
1.0000
  0
VERTEX
  8
51
 10
54.3814
 20
38.0020
 30
0.0000
  0
SEQEND
  8
0
  0
POLYLINE
  8
51
 66
1
 10
0.0000
 20
0.0000
 30
0.0000
 40
0.0762
 41
0.0762
 70
0
  0
VERTEX
  8
51
 10
54.3814
 20
37.1820
 30
0.0000
 42
1.0000
  0
VERTEX
  8
51
 10
54.4576
 20
37.1820
 30
0.0000
  0
SEQEND
  8
0
  0
POLYLINE
  8
51
 66
1
 10
0.0000
 20
0.0000
 30
0.0000
 40
0.1524
 41
0.1524
 70
0
  0
VERTEX
  8
51
 10
55.6895
 20
37.1820
 30
0.0000
  0
VERTEX
  8
51
 10
55.6895
 20
38.0020
 30
0.0000
  0
SEQEND
  8
0
  0
POLYLINE
  8
51
 66
1
 10
0.0000
 20
0.0000
 30
0.0000
 40
0.0762
 41
0.0762
 70
0
  0
VERTEX
  8
51
 10
55.7276
 20
38.0020
 30
0.0000
 42
1.0000
  0
VERTEX
  8
51
 10
55.6514
 20
38.0020
 30
0.0000
  0
SEQEND
  8
0
  0
POLYLINE
  8
51
 66
1
 10
0.0000
 20
0.0000
 30
0.0000
 40
0.0762
 41
0.0762
 70
0
  0
VERTEX
  8
51
 10
55.6514
 20
37.1820
 30
0.0000
 42
1.0000
  0
VERTEX
  8
51
 10
55.7276
 20
37.1820
 30
0.0000
  0
SEQEND
  8
0
  0
INSERT
  8
51
  2
RECT
 10
55.0530
 20
38.3234
 30
0.0000
 41
0.6500
 42
1.4000
 43
1.0000
 50
90.0000
  0
INSERT
  8
51
  2
RECT
 10
55.0530
 20
36.8502
 30
0.0000
 41
0.6500
 42
1.4000
 43
1.0000
 50
90.0000
  0
POLYLINE
  8
51
 66
1
 10
0.0000
 20
0.0000
 30
0.0000
 40
0.1524
 41
0.1524
 70
0
  0
VERTEX
  8
51
 10
37.5285
 20
30.4510
 30
0.0000
  0
VERTEX
  8
51
 10
37.5285
 20
31.2710
 30
0.0000
  0
SEQEND
  8
0
  0
POLYLINE
  8
51
 66
1
 10
0.0000
 20
0.0000
 30
0.0000
 40
0.0762
 41
0.0762
 70
0
  0
VERTEX
  8
51
 10
37.5666
 20
31.2710
 30
0.0000
 42
1.0000
  0
VERTEX
  8
51
 10
37.4904
 20
31.2710
 30
0.0000
  0
SEQEND
  8
0
  0
POLYLINE
  8
51
 66
1
 10
0.0000
 20
0.0000
 30
0.0000
 40
0.0762
 41
0.0762
 70
0
  0
VERTEX
  8
51
 10
37.4904
 20
30.4510
 30
0.0000
 42
1.0000
  0
VERTEX
  8
51
 10
37.5666
 20
30.4510
 30
0.0000
  0
SEQEND
  8
0
  0
POLYLINE
  8
51
 66
1
 10
0.0000
 20
0.0000
 30
0.0000
 40
0.1524
 41
0.1524
 70
0
  0
VERTEX
  8
51
 10
38.7985
 20
30.4510
 30
0.0000
  0
VERTEX
  8
51
 10
38.7985
 20
31.2710
 30
0.0000
  0
SEQEND
  8
0
  0
POLYLINE
  8
51
 66
1
 10
0.0000
 20
0.0000
 30
0.0000
 40
0.0762
 41
0.0762
 70
0
  0
VERTEX
  8
51
 10
38.8366
 20
31.2710
 30
0.0000
 42
1.0000
  0
VERTEX
  8
51
 10
38.7604
 20
31.2710
 30
0.0000
  0
SEQEND
  8
0
  0
POLYLINE
  8
51
 66
1
 10
0.0000
 20
0.0000
 30
0.0000
 40
0.0762
 41
0.0762
 70
0
  0
VERTEX
  8
51
 10
38.7604
 20
30.4510
 30
0.0000
 42
1.0000
  0
VERTEX
  8
51
 10
38.8366
 20
30.4510
 30
0.0000
  0
SEQEND
  8
0
  0
INSERT
  8
51
  2
RECT
 10
38.1620
 20
31.5924
 30
0.0000
 41
0.6500
 42
1.4000
 43
1.0000
 50
90.0000
  0
INSERT
  8
51
  2
RECT
 10
38.1620
 20
30.1192
 30
0.0000
 41
0.6500
 42
1.4000
 43
1.0000
 50
90.0000
  0
POLYLINE
  8
51
 66
1
 10
0.0000
 20
0.0000
 30
0.0000
 40
0.1524
 41
0.1524
 70
0
  0
VERTEX
  8
51
 10
58.7375
 20
38.0020
 30
0.0000
  0
VERTEX
  8
51
 10
58.7375
 20
37.1820
 30
0.0000
  0
SEQEND
  8
0
  0
POLYLINE
  8
51
 66
1
 10
0.0000
 20
0.0000
 30
0.0000
 40
0.0762
 41
0.0762
 70
0
  0
VERTEX
  8
51
 10
58.6994
 20
37.1820
 30
0.0000
 42
1.0000
  0
VERTEX
  8
51
 10
58.7756
 20
37.1820
 30
0.0000
  0
SEQEND
  8
0
  0
POLYLINE
  8
51
 66
1
 10
0.0000
 20
0.0000
 30
0.0000
 40
0.0762
 41
0.0762
 70
0
  0
VERTEX
  8
51
 10
58.7756
 20
38.0020
 30
0.0000
 42
1.0000
  0
VERTEX
  8
51
 10
58.6994
 20
38.0020
 30
0.0000
  0
SEQEND
  8
0
  0
POLYLINE
  8
51
 66
1
 10
0.0000
 20
0.0000
 30
0.0000
 40
0.1524
 41
0.1524
 70
0
  0
VERTEX
  8
51
 10
57.4675
 20
38.0020
 30
0.0000
  0
VERTEX
  8
51
 10
57.4675
 20
37.1820
 30
0.0000
  0
SEQEND
  8
0
  0
POLYLINE
  8
51
 66
1
 10
0.0000
 20
0.0000
 30
0.0000
 40
0.0762
 41
0.0762
 70
0
  0
VERTEX
  8
51
 10
57.4294
 20
37.1820
 30
0.0000
 42
1.0000
  0
VERTEX
  8
51
 10
57.5056
 20
37.1820
 30
0.0000
  0
SEQEND
  8
0
  0
POLYLINE
  8
51
 66
1
 10
0.0000
 20
0.0000
 30
0.0000
 40
0.0762
 41
0.0762
 70
0
  0
VERTEX
  8
51
 10
57.5056
 20
38.0020
 30
0.0000
 42
1.0000
  0
VERTEX
  8
51
 10
57.4294
 20
38.0020
 30
0.0000
  0
SEQEND
  8
0
  0
INSERT
  8
51
  2
RECT
 10
58.1040
 20
36.8606
 30
0.0000
 41
0.6500
 42
1.4000
 43
1.0000
 50
270.0000
  0
INSERT
  8
51
  2
RECT
 10
58.1040
 20
38.3338
 30
0.0000
 41
0.6500
 42
1.4000
 43
1.0000
 50
270.0000
  0
POLYLINE
  8
51
 66
1
 10
0.0000
 20
0.0000
 30
0.0000
 40
0.1524
 41
0.1524
 70
0
  0
VERTEX
  8
51
 10
33.7435
 20
29.3260
 30
0.0000
  0
VERTEX
  8
51
 10
33.7435
 20
32.6500
 30
0.0000
  0
SEQEND
  8
0
  0
POLYLINE
  8
51
 66
1
 10
0.0000
 20
0.0000
 30
0.0000
 40
0.0762
 41
0.0762
 70
0
  0
VERTEX
  8
51
 10
33.7816
 20
32.6500
 30
0.0000
 42
1.0000
  0
VERTEX
  8
51
 10
33.7054
 20
32.6500
 30
0.0000
  0
SEQEND
  8
0
  0
POLYLINE
  8
51
 66
1
 10
0.0000
 20
0.0000
 30
0.0000
 40
0.0762
 41
0.0762
 70
0
  0
VERTEX
  8
51
 10
33.7054
 20
29.3260
 30
0.0000
 42
1.0000
  0
VERTEX
  8
51
 10
33.7816
 20
29.3260
 30
0.0000
  0
SEQEND
  8
0
  0
POLYLINE
  8
51
 66
1
 10
0.0000
 20
0.0000
 30
0.0000
 40
0.1524
 41
0.1524
 70
0
  0
VERTEX
  8
51
 10
36.2335
 20
29.3510
 30
0.0000
  0
VERTEX
  8
51
 10
36.2335
 20
32.6750
 30
0.0000
  0
SEQEND
  8
0
  0
POLYLINE
  8
51
 66
1
 10
0.0000
 20
0.0000
 30
0.0000
 40
0.0762
 41
0.0762
 70
0
  0
VERTEX
  8
51
 10
36.2716
 20
32.6750
 30
0.0000
 42
1.0000
  0
VERTEX
  8
51
 10
36.1954
 20
32.6750
 30
0.0000
  0
SEQEND
  8
0
  0
POLYLINE
  8
51
 66
1
 10
0.0000
 20
0.0000
 30
0.0000
 40
0.0762
 41
0.0762
 70
0
  0
VERTEX
  8
51
 10
36.1954
 20
29.3510
 30
0.0000
 42
1.0000
  0
VERTEX
  8
51
 10
36.2716
 20
29.3510
 30
0.0000
  0
SEQEND
  8
0
  0
INSERT
  8
51
  2
RECT
 10
34.9843
 20
28.9238
 30
0.0000
 41
0.8499
 42
2.6500
 43
1.0000
 50
90.0000
  0
INSERT
  8
51
  2
RECT
 10
34.9843
 20
33.0639
 30
0.0000
 41
0.8499
 42
2.6500
 43
1.0000
 50
90.0000
  0
POLYLINE
  8
51
 66
1
 10
0.0000
 20
0.0000
 30
0.0000
 40
0.1524
 41
0.1524
 70
0
  0
VERTEX
  8
51
 10
101.6000
 20
27.5245
 30
0.0000
  0
VERTEX
  8
51
 10
101.6000
 20
26.7045
 30
0.0000
  0
SEQEND
  8
0
  0
POLYLINE
  8
51
 66
1
 10
0.0000
 20
0.0000
 30
0.0000
 40
0.0762
 41
0.0762
 70
0
  0
VERTEX
  8
51
 10
101.5619
 20
26.7045
 30
0.0000
 42
1.0000
  0
VERTEX
  8
51
 10
101.6381
 20
26.7045
 30
0.0000
  0
SEQEND
  8
0
  0
POLYLINE
  8
51
 66
1
 10
0.0000
 20
0.0000
 30
0.0000
 40
0.0762
 41
0.0762
 70
0
  0
VERTEX
  8
51
 10
101.6381
 20
27.5245
 30
0.0000
 42
1.0000
  0
VERTEX
  8
51
 10
101.5619
 20
27.5245
 30
0.0000
  0
SEQEND
  8
0
  0
POLYLINE
  8
51
 66
1
 10
0.0000
 20
0.0000
 30
0.0000
 40
0.1524
 41
0.1524
 70
0
  0
VERTEX
  8
51
 10
100.3300
 20
27.5245
 30
0.0000
  0
VERTEX
  8
51
 10
100.3300
 20
26.7045
 30
0.0000
  0
SEQEND
  8
0
  0
POLYLINE
  8
51
 66
1
 10
0.0000
 20
0.0000
 30
0.0000
 40
0.0762
 41
0.0762
 70
0
  0
VERTEX
  8
51
 10
100.2919
 20
26.7045
 30
0.0000
 42
1.0000
  0
VERTEX
  8
51
 10
100.3681
 20
26.7045
 30
0.0000
  0
SEQEND
  8
0
  0
POLYLINE
  8
51
 66
1
 10
0.0000
 20
0.0000
 30
0.0000
 40
0.0762
 41
0.0762
 70
0
  0
VERTEX
  8
51
 10
100.3681
 20
27.5245
 30
0.0000
 42
1.0000
  0
VERTEX
  8
51
 10
100.2919
 20
27.5245
 30
0.0000
  0
SEQEND
  8
0
  0
INSERT
  8
51
  2
RECT
 10
100.9665
 20
26.3831
 30
0.0000
 41
0.6500
 42
1.4000
 43
1.0000
 50
270.0000
  0
INSERT
  8
51
  2
RECT
 10
100.9665
 20
27.8563
 30
0.0000
 41
0.6500
 42
1.4000
 43
1.0000
 50
270.0000
  0
POLYLINE
  8
51
 66
1
 10
0.0000
 20
0.0000
 30
0.0000
 40
0.1524
 41
0.1524
 70
0
  0
VERTEX
  8
51
 10
35.8140
 20
38.4520
 30
0.0000
  0
VERTEX
  8
51
 10
35.8140
 20
39.2720
 30
0.0000
  0
SEQEND
  8
0
  0
POLYLINE
  8
51
 66
1
 10
0.0000
 20
0.0000
 30
0.0000
 40
0.0762
 41
0.0762
 70
0
  0
VERTEX
  8
51
 10
35.8521
 20
39.2720
 30
0.0000
 42
1.0000
  0
VERTEX
  8
51
 10
35.7759
 20
39.2720
 30
0.0000
  0
SEQEND
  8
0
  0
POLYLINE
  8
51
 66
1
 10
0.0000
 20
0.0000
 30
0.0000
 40
0.0762
 41
0.0762
 70
0
  0
VERTEX
  8
51
 10
35.7759
 20
38.4520
 30
0.0000
 42
1.0000
  0
VERTEX
  8
51
 10
35.8521
 20
38.4520
 30
0.0000
  0
SEQEND
  8
0
  0
POLYLINE
  8
51
 66
1
 10
0.0000
 20
0.0000
 30
0.0000
 40
0.1524
 41
0.1524
 70
0
  0
VERTEX
  8
51
 10
37.0840
 20
38.4520
 30
0.0000
  0
VERTEX
  8
51
 10
37.0840
 20
39.2720
 30
0.0000
  0
SEQEND
  8
0
  0
POLYLINE
  8
51
 66
1
 10
0.0000
 20
0.0000
 30
0.0000
 40
0.0762
 41
0.0762
 70
0
  0
VERTEX
  8
51
 10
37.1221
 20
39.2720
 30
0.0000
 42
1.0000
  0
VERTEX
  8
51
 10
37.0459
 20
39.2720
 30
0.0000
  0
SEQEND
  8
0
  0
POLYLINE
  8
51
 66
1
 10
0.0000
 20
0.0000
 30
0.0000
 40
0.0762
 41
0.0762
 70
0
  0
VERTEX
  8
51
 10
37.0459
 20
38.4520
 30
0.0000
 42
1.0000
  0
VERTEX
  8
51
 10
37.1221
 20
38.4520
 30
0.0000
  0
SEQEND
  8
0
  0
INSERT
  8
51
  2
RECT
 10
36.4475
 20
39.5934
 30
0.0000
 41
0.6500
 42
1.4000
 43
1.0000
 50
90.0000
  0
INSERT
  8
51
  2
RECT
 10
36.4475
 20
38.1202
 30
0.0000
 41
0.6500
 42
1.4000
 43
1.0000
 50
90.0000
  0
POLYLINE
  8
51
 66
1
 10
0.0000
 20
0.0000
 30
0.0000
 40
0.1524
 41
0.1524
 70
0
  0
VERTEX
  8
51
 10
101.5365
 20
32.9855
 30
0.0000
  0
VERTEX
  8
51
 10
101.5365
 20
32.1655
 30
0.0000
  0
SEQEND
  8
0
  0
POLYLINE
  8
51
 66
1
 10
0.0000
 20
0.0000
 30
0.0000
 40
0.0762
 41
0.0762
 70
0
  0
VERTEX
  8
51
 10
101.4984
 20
32.1655
 30
0.0000
 42
1.0000
  0
VERTEX
  8
51
 10
101.5746
 20
32.1655
 30
0.0000
  0
SEQEND
  8
0
  0
POLYLINE
  8
51
 66
1
 10
0.0000
 20
0.0000
 30
0.0000
 40
0.0762
 41
0.0762
 70
0
  0
VERTEX
  8
51
 10
101.5746
 20
32.9855
 30
0.0000
 42
1.0000
  0
VERTEX
  8
51
 10
101.4984
 20
32.9855
 30
0.0000
  0
SEQEND
  8
0
  0
POLYLINE
  8
51
 66
1
 10
0.0000
 20
0.0000
 30
0.0000
 40
0.1524
 41
0.1524
 70
0
  0
VERTEX
  8
51
 10
100.2665
 20
32.9855
 30
0.0000
  0
VERTEX
  8
51
 10
100.2665
 20
32.1655
 30
0.0000
  0
SEQEND
  8
0
  0
POLYLINE
  8
51
 66
1
 10
0.0000
 20
0.0000
 30
0.0000
 40
0.0762
 41
0.0762
 70
0
  0
VERTEX
  8
51
 10
100.2284
 20
32.1655
 30
0.0000
 42
1.0000
  0
VERTEX
  8
51
 10
100.3046
 20
32.1655
 30
0.0000
  0
SEQEND
  8
0
  0
POLYLINE
  8
51
 66
1
 10
0.0000
 20
0.0000
 30
0.0000
 40
0.0762
 41
0.0762
 70
0
  0
VERTEX
  8
51
 10
100.3046
 20
32.9855
 30
0.0000
 42
1.0000
  0
VERTEX
  8
51
 10
100.2284
 20
32.9855
 30
0.0000
  0
SEQEND
  8
0
  0
INSERT
  8
51
  2
RECT
 10
100.9030
 20
31.8441
 30
0.0000
 41
0.6500
 42
1.4000
 43
1.0000
 50
270.0000
  0
INSERT
  8
51
  2
RECT
 10
100.9030
 20
33.3173
 30
0.0000
 41
0.6500
 42
1.4000
 43
1.0000
 50
270.0000
  0
POLYLINE
  8
51
 66
1
 10
0.0000
 20
0.0000
 30
0.0000
 40
0.1524
 41
0.1524
 70
0
  0
VERTEX
  8
51
 10
34.4932
 20
11.5570
 30
0.0000
  0
VERTEX
  8
51
 10
33.0708
 20
11.5570
 30
0.0000
  0
SEQEND
  8
0
  0
POLYLINE
  8
51
 66
1
 10
0.0000
 20
0.0000
 30
0.0000
 40
0.0762
 41
0.0762
 70
0
  0
VERTEX
  8
51
 10
33.0708
 20
11.5951
 30
0.0000
 42
1.0000
  0
VERTEX
  8
51
 10
33.0708
 20
11.5189
 30
0.0000
  0
SEQEND
  8
0
  0
POLYLINE
  8
51
 66
1
 10
0.0000
 20
0.0000
 30
0.0000
 40
0.0762
 41
0.0762
 70
0
  0
VERTEX
  8
51
 10
34.4932
 20
11.5189
 30
0.0000
 42
1.0000
  0
VERTEX
  8
51
 10
34.4932
 20
11.5951
 30
0.0000
  0
SEQEND
  8
0
  0
POLYLINE
  8
51
 66
1
 10
0.0000
 20
0.0000
 30
0.0000
 40
0.1524
 41
0.1524
 70
0
  0
VERTEX
  8
51
 10
34.4932
 20
10.2870
 30
0.0000
  0
VERTEX
  8
51
 10
33.0708
 20
10.2870
 30
0.0000
  0
SEQEND
  8
0
  0
POLYLINE
  8
51
 66
1
 10
0.0000
 20
0.0000
 30
0.0000
 40
0.0762
 41
0.0762
 70
0
  0
VERTEX
  8
51
 10
33.0708
 20
10.3251
 30
0.0000
 42
1.0000
  0
VERTEX
  8
51
 10
33.0708
 20
10.2489
 30
0.0000
  0
SEQEND
  8
0
  0
POLYLINE
  8
51
 66
1
 10
0.0000
 20
0.0000
 30
0.0000
 40
0.0762
 41
0.0762
 70
0
  0
VERTEX
  8
51
 10
34.4932
 20
10.2489
 30
0.0000
 42
1.0000
  0
VERTEX
  8
51
 10
34.4932
 20
10.3251
 30
0.0000
  0
SEQEND
  8
0
  0
INSERT
  8
51
  2
RECT
 10
32.9184
 20
10.9220
 30
0.0000
 41
0.3556
 42
1.4224
 43
1.0000
 50
0.0000
  0
INSERT
  8
51
  2
RECT
 10
34.6456
 20
10.9220
 30
0.0000
 41
0.3556
 42
1.4224
 43
1.0000
 50
0.0000
  0
POLYLINE
  8
51
 66
1
 10
0.0000
 20
0.0000
 30
0.0000
 40
0.1524
 41
0.1524
 70
0
  0
VERTEX
  8
51
 10
13.1735
 20
28.7655
 30
0.0000
  0
VERTEX
  8
51
 10
12.3535
 20
28.7655
 30
0.0000
  0
SEQEND
  8
0
  0
POLYLINE
  8
51
 66
1
 10
0.0000
 20
0.0000
 30
0.0000
 40
0.0762
 41
0.0762
 70
0
  0
VERTEX
  8
51
 10
12.3535
 20
28.8036
 30
0.0000
 42
1.0000
  0
VERTEX
  8
51
 10
12.3535
 20
28.7274
 30
0.0000
  0
SEQEND
  8
0
  0
POLYLINE
  8
51
 66
1
 10
0.0000
 20
0.0000
 30
0.0000
 40
0.0762
 41
0.0762
 70
0
  0
VERTEX
  8
51
 10
13.1735
 20
28.7274
 30
0.0000
 42
1.0000
  0
VERTEX
  8
51
 10
13.1735
 20
28.8036
 30
0.0000
  0
SEQEND
  8
0
  0
POLYLINE
  8
51
 66
1
 10
0.0000
 20
0.0000
 30
0.0000
 40
0.1524
 41
0.1524
 70
0
  0
VERTEX
  8
51
 10
13.1735
 20
30.0355
 30
0.0000
  0
VERTEX
  8
51
 10
12.3535
 20
30.0355
 30
0.0000
  0
SEQEND
  8
0
  0
POLYLINE
  8
51
 66
1
 10
0.0000
 20
0.0000
 30
0.0000
 40
0.0762
 41
0.0762
 70
0
  0
VERTEX
  8
51
 10
12.3535
 20
30.0736
 30
0.0000
 42
1.0000
  0
VERTEX
  8
51
 10
12.3535
 20
29.9974
 30
0.0000
  0
SEQEND
  8
0
  0
POLYLINE
  8
51
 66
1
 10
0.0000
 20
0.0000
 30
0.0000
 40
0.0762
 41
0.0762
 70
0
  0
VERTEX
  8
51
 10
13.1735
 20
29.9974
 30
0.0000
 42
1.0000
  0
VERTEX
  8
51
 10
13.1735
 20
30.0736
 30
0.0000
  0
SEQEND
  8
0
  0
INSERT
  8
51
  2
RECT
 10
12.0321
 20
29.3990
 30
0.0000
 41
0.6500
 42
1.4000
 43
1.0000
 50
180.0000
  0
INSERT
  8
51
  2
RECT
 10
13.5053
 20
29.3990
 30
0.0000
 41
0.6500
 42
1.4000
 43
1.0000
 50
180.0000
  0
POLYLINE
  8
51
 66
1
 10
0.0000
 20
0.0000
 30
0.0000
 40
0.1524
 41
0.1524
 70
0
  0
VERTEX
  8
51
 10
23.0160
 20
28.7655
 30
0.0000
  0
VERTEX
  8
51
 10
22.1960
 20
28.7655
 30
0.0000
  0
SEQEND
  8
0
  0
POLYLINE
  8
51
 66
1
 10
0.0000
 20
0.0000
 30
0.0000
 40
0.0762
 41
0.0762
 70
0
  0
VERTEX
  8
51
 10
22.1960
 20
28.8036
 30
0.0000
 42
1.0000
  0
VERTEX
  8
51
 10
22.1960
 20
28.7274
 30
0.0000
  0
SEQEND
  8
0
  0
POLYLINE
  8
51
 66
1
 10
0.0000
 20
0.0000
 30
0.0000
 40
0.0762
 41
0.0762
 70
0
  0
VERTEX
  8
51
 10
23.0160
 20
28.7274
 30
0.0000
 42
1.0000
  0
VERTEX
  8
51
 10
23.0160
 20
28.8036
 30
0.0000
  0
SEQEND
  8
0
  0
POLYLINE
  8
51
 66
1
 10
0.0000
 20
0.0000
 30
0.0000
 40
0.1524
 41
0.1524
 70
0
  0
VERTEX
  8
51
 10
23.0160
 20
30.0355
 30
0.0000
  0
VERTEX
  8
51
 10
22.1960
 20
30.0355
 30
0.0000
  0
SEQEND
  8
0
  0
POLYLINE
  8
51
 66
1
 10
0.0000
 20
0.0000
 30
0.0000
 40
0.0762
 41
0.0762
 70
0
  0
VERTEX
  8
51
 10
22.1960
 20
30.0736
 30
0.0000
 42
1.0000
  0
VERTEX
  8
51
 10
22.1960
 20
29.9974
 30
0.0000
  0
SEQEND
  8
0
  0
POLYLINE
  8
51
 66
1
 10
0.0000
 20
0.0000
 30
0.0000
 40
0.0762
 41
0.0762
 70
0
  0
VERTEX
  8
51
 10
23.0160
 20
29.9974
 30
0.0000
 42
1.0000
  0
VERTEX
  8
51
 10
23.0160
 20
30.0736
 30
0.0000
  0
SEQEND
  8
0
  0
INSERT
  8
51
  2
RECT
 10
21.8746
 20
29.3990
 30
0.0000
 41
0.6500
 42
1.4000
 43
1.0000
 50
180.0000
  0
INSERT
  8
51
  2
RECT
 10
23.3478
 20
29.3990
 30
0.0000
 41
0.6500
 42
1.4000
 43
1.0000
 50
180.0000
  0
POLYLINE
  8
51
 66
1
 10
0.0000
 20
0.0000
 30
0.0000
 40
0.1524
 41
0.1524
 70
0
  0
VERTEX
  8
51
 10
21.2435
 20
11.6205
 30
0.0000
  0
VERTEX
  8
51
 10
22.0635
 20
11.6205
 30
0.0000
  0
SEQEND
  8
0
  0
POLYLINE
  8
51
 66
1
 10
0.0000
 20
0.0000
 30
0.0000
 40
0.0762
 41
0.0762
 70
0
  0
VERTEX
  8
51
 10
22.0635
 20
11.5824
 30
0.0000
 42
1.0000
  0
VERTEX
  8
51
 10
22.0635
 20
11.6586
 30
0.0000
  0
SEQEND
  8
0
  0
POLYLINE
  8
51
 66
1
 10
0.0000
 20
0.0000
 30
0.0000
 40
0.0762
 41
0.0762
 70
0
  0
VERTEX
  8
51
 10
21.2435
 20
11.6586
 30
0.0000
 42
1.0000
  0
VERTEX
  8
51
 10
21.2435
 20
11.5824
 30
0.0000
  0
SEQEND
  8
0
  0
POLYLINE
  8
51
 66
1
 10
0.0000
 20
0.0000
 30
0.0000
 40
0.1524
 41
0.1524
 70
0
  0
VERTEX
  8
51
 10
21.2435
 20
10.3505
 30
0.0000
  0
VERTEX
  8
51
 10
22.0635
 20
10.3505
 30
0.0000
  0
SEQEND
  8
0
  0
POLYLINE
  8
51
 66
1
 10
0.0000
 20
0.0000
 30
0.0000
 40
0.0762
 41
0.0762
 70
0
  0
VERTEX
  8
51
 10
22.0635
 20
10.3124
 30
0.0000
 42
1.0000
  0
VERTEX
  8
51
 10
22.0635
 20
10.3886
 30
0.0000
  0
SEQEND
  8
0
  0
POLYLINE
  8
51
 66
1
 10
0.0000
 20
0.0000
 30
0.0000
 40
0.0762
 41
0.0762
 70
0
  0
VERTEX
  8
51
 10
21.2435
 20
10.3886
 30
0.0000
 42
1.0000
  0
VERTEX
  8
51
 10
21.2435
 20
10.3124
 30
0.0000
  0
SEQEND
  8
0
  0
INSERT
  8
51
  2
RECT
 10
22.3849
 20
10.9870
 30
0.0000
 41
0.6500
 42
1.4000
 43
1.0000
 50
0.0000
  0
INSERT
  8
51
  2
RECT
 10
20.9117
 20
10.9870
 30
0.0000
 41
0.6500
 42
1.4000
 43
1.0000
 50
0.0000
  0
POLYLINE
  8
51
 66
1
 10
0.0000
 20
0.0000
 30
0.0000
 40
0.1524
 41
0.1524
 70
0
  0
VERTEX
  8
51
 10
16.7985
 20
11.6205
 30
0.0000
  0
VERTEX
  8
51
 10
17.6185
 20
11.6205
 30
0.0000
  0
SEQEND
  8
0
  0
POLYLINE
  8
51
 66
1
 10
0.0000
 20
0.0000
 30
0.0000
 40
0.0762
 41
0.0762
 70
0
  0
VERTEX
  8
51
 10
17.6185
 20
11.5824
 30
0.0000
 42
1.0000
  0
VERTEX
  8
51
 10
17.6185
 20
11.6586
 30
0.0000
  0
SEQEND
  8
0
  0
POLYLINE
  8
51
 66
1
 10
0.0000
 20
0.0000
 30
0.0000
 40
0.0762
 41
0.0762
 70
0
  0
VERTEX
  8
51
 10
16.7985
 20
11.6586
 30
0.0000
 42
1.0000
  0
VERTEX
  8
51
 10
16.7985
 20
11.5824
 30
0.0000
  0
SEQEND
  8
0
  0
POLYLINE
  8
51
 66
1
 10
0.0000
 20
0.0000
 30
0.0000
 40
0.1524
 41
0.1524
 70
0
  0
VERTEX
  8
51
 10
16.7985
 20
10.3505
 30
0.0000
  0
VERTEX
  8
51
 10
17.6185
 20
10.3505
 30
0.0000
  0
SEQEND
  8
0
  0
POLYLINE
  8
51
 66
1
 10
0.0000
 20
0.0000
 30
0.0000
 40
0.0762
 41
0.0762
 70
0
  0
VERTEX
  8
51
 10
17.6185
 20
10.3124
 30
0.0000
 42
1.0000
  0
VERTEX
  8
51
 10
17.6185
 20
10.3886
 30
0.0000
  0
SEQEND
  8
0
  0
POLYLINE
  8
51
 66
1
 10
0.0000
 20
0.0000
 30
0.0000
 40
0.0762
 41
0.0762
 70
0
  0
VERTEX
  8
51
 10
16.7985
 20
10.3886
 30
0.0000
 42
1.0000
  0
VERTEX
  8
51
 10
16.7985
 20
10.3124
 30
0.0000
  0
SEQEND
  8
0
  0
INSERT
  8
51
  2
RECT
 10
17.9399
 20
10.9870
 30
0.0000
 41
0.6500
 42
1.4000
 43
1.0000
 50
0.0000
  0
INSERT
  8
51
  2
RECT
 10
16.4667
 20
10.9870
 30
0.0000
 41
0.6500
 42
1.4000
 43
1.0000
 50
0.0000
  0
POLYLINE
  8
51
 66
1
 10
0.0000
 20
0.0000
 30
0.0000
 40
0.1524
 41
0.1524
 70
0
  0
VERTEX
  8
51
 10
81.3308
 20
26.9875
 30
0.0000
  0
VERTEX
  8
51
 10
82.7532
 20
26.9875
 30
0.0000
  0
SEQEND
  8
0
  0
POLYLINE
  8
51
 66
1
 10
0.0000
 20
0.0000
 30
0.0000
 40
0.0762
 41
0.0762
 70
0
  0
VERTEX
  8
51
 10
82.7532
 20
26.9494
 30
0.0000
 42
1.0000
  0
VERTEX
  8
51
 10
82.7532
 20
27.0256
 30
0.0000
  0
SEQEND
  8
0
  0
POLYLINE
  8
51
 66
1
 10
0.0000
 20
0.0000
 30
0.0000
 40
0.0762
 41
0.0762
 70
0
  0
VERTEX
  8
51
 10
81.3308
 20
27.0256
 30
0.0000
 42
1.0000
  0
VERTEX
  8
51
 10
81.3308
 20
26.9494
 30
0.0000
  0
SEQEND
  8
0
  0
POLYLINE
  8
51
 66
1
 10
0.0000
 20
0.0000
 30
0.0000
 40
0.1524
 41
0.1524
 70
0
  0
VERTEX
  8
51
 10
81.3308
 20
28.2575
 30
0.0000
  0
VERTEX
  8
51
 10
82.7532
 20
28.2575
 30
0.0000
  0
SEQEND
  8
0
  0
POLYLINE
  8
51
 66
1
 10
0.0000
 20
0.0000
 30
0.0000
 40
0.0762
 41
0.0762
 70
0
  0
VERTEX
  8
51
 10
82.7532
 20
28.2194
 30
0.0000
 42
1.0000
  0
VERTEX
  8
51
 10
82.7532
 20
28.2956
 30
0.0000
  0
SEQEND
  8
0
  0
POLYLINE
  8
51
 66
1
 10
0.0000
 20
0.0000
 30
0.0000
 40
0.0762
 41
0.0762
 70
0
  0
VERTEX
  8
51
 10
81.3308
 20
28.2956
 30
0.0000
 42
1.0000
  0
VERTEX
  8
51
 10
81.3308
 20
28.2194
 30
0.0000
  0
SEQEND
  8
0
  0
INSERT
  8
51
  2
RECT
 10
82.9056
 20
27.6225
 30
0.0000
 41
0.3556
 42
1.4224
 43
1.0000
 50
180.0000
  0
INSERT
  8
51
  2
RECT
 10
81.1784
 20
27.6225
 30
0.0000
 41
0.3556
 42
1.4224
 43
1.0000
 50
180.0000
  0
POLYLINE
  8
51
 66
1
 10
0.0000
 20
0.0000
 30
0.0000
 40
0.1524
 41
0.1524
 70
0
  0
VERTEX
  8
51
 10
26.4668
 20
10.2870
 30
0.0000
  0
VERTEX
  8
51
 10
27.8892
 20
10.2870
 30
0.0000
  0
SEQEND
  8
0
  0
POLYLINE
  8
51
 66
1
 10
0.0000
 20
0.0000
 30
0.0000
 40
0.0762
 41
0.0762
 70
0
  0
VERTEX
  8
51
 10
27.8892
 20
10.2489
 30
0.0000
 42
1.0000
  0
VERTEX
  8
51
 10
27.8892
 20
10.3251
 30
0.0000
  0
SEQEND
  8
0
  0
POLYLINE
  8
51
 66
1
 10
0.0000
 20
0.0000
 30
0.0000
 40
0.0762
 41
0.0762
 70
0
  0
VERTEX
  8
51
 10
26.4668
 20
10.3251
 30
0.0000
 42
1.0000
  0
VERTEX
  8
51
 10
26.4668
 20
10.2489
 30
0.0000
  0
SEQEND
  8
0
  0
POLYLINE
  8
51
 66
1
 10
0.0000
 20
0.0000
 30
0.0000
 40
0.1524
 41
0.1524
 70
0
  0
VERTEX
  8
51
 10
26.4668
 20
11.5570
 30
0.0000
  0
VERTEX
  8
51
 10
27.8892
 20
11.5570
 30
0.0000
  0
SEQEND
  8
0
  0
POLYLINE
  8
51
 66
1
 10
0.0000
 20
0.0000
 30
0.0000
 40
0.0762
 41
0.0762
 70
0
  0
VERTEX
  8
51
 10
27.8892
 20
11.5189
 30
0.0000
 42
1.0000
  0
VERTEX
  8
51
 10
27.8892
 20
11.5951
 30
0.0000
  0
SEQEND
  8
0
  0
POLYLINE
  8
51
 66
1
 10
0.0000
 20
0.0000
 30
0.0000
 40
0.0762
 41
0.0762
 70
0
  0
VERTEX
  8
51
 10
26.4668
 20
11.5951
 30
0.0000
 42
1.0000
  0
VERTEX
  8
51
 10
26.4668
 20
11.5189
 30
0.0000
  0
SEQEND
  8
0
  0
INSERT
  8
51
  2
RECT
 10
28.0416
 20
10.9220
 30
0.0000
 41
0.3556
 42
1.4224
 43
1.0000
 50
180.0000
  0
INSERT
  8
51
  2
RECT
 10
26.3144
 20
10.9220
 30
0.0000
 41
0.3556
 42
1.4224
 43
1.0000
 50
180.0000
  0
POLYLINE
  8
51
 66
1
 10
0.0000
 20
0.0000
 30
0.0000
 40
0.1524
 41
0.1524
 70
0
  0
VERTEX
  8
51
 10
20.9423
 20
21.1455
 30
0.0000
  0
VERTEX
  8
51
 10
22.3647
 20
21.1455
 30
0.0000
  0
SEQEND
  8
0
  0
POLYLINE
  8
51
 66
1
 10
0.0000
 20
0.0000
 30
0.0000
 40
0.0762
 41
0.0762
 70
0
  0
VERTEX
  8
51
 10
22.3647
 20
21.1074
 30
0.0000
 42
1.0000
  0
VERTEX
  8
51
 10
22.3647
 20
21.1836
 30
0.0000
  0
SEQEND
  8
0
  0
POLYLINE
  8
51
 66
1
 10
0.0000
 20
0.0000
 30
0.0000
 40
0.0762
 41
0.0762
 70
0
  0
VERTEX
  8
51
 10
20.9423
 20
21.1836
 30
0.0000
 42
1.0000
  0
VERTEX
  8
51
 10
20.9423
 20
21.1074
 30
0.0000
  0
SEQEND
  8
0
  0
POLYLINE
  8
51
 66
1
 10
0.0000
 20
0.0000
 30
0.0000
 40
0.1524
 41
0.1524
 70
0
  0
VERTEX
  8
51
 10
20.9423
 20
22.4155
 30
0.0000
  0
VERTEX
  8
51
 10
22.3647
 20
22.4155
 30
0.0000
  0
SEQEND
  8
0
  0
POLYLINE
  8
51
 66
1
 10
0.0000
 20
0.0000
 30
0.0000
 40
0.0762
 41
0.0762
 70
0
  0
VERTEX
  8
51
 10
22.3647
 20
22.3774
 30
0.0000
 42
1.0000
  0
VERTEX
  8
51
 10
22.3647
 20
22.4536
 30
0.0000
  0
SEQEND
  8
0
  0
POLYLINE
  8
51
 66
1
 10
0.0000
 20
0.0000
 30
0.0000
 40
0.0762
 41
0.0762
 70
0
  0
VERTEX
  8
51
 10
20.9423
 20
22.4536
 30
0.0000
 42
1.0000
  0
VERTEX
  8
51
 10
20.9423
 20
22.3774
 30
0.0000
  0
SEQEND
  8
0
  0
INSERT
  8
51
  2
RECT
 10
22.5171
 20
21.7805
 30
0.0000
 41
0.3556
 42
1.4224
 43
1.0000
 50
180.0000
  0
INSERT
  8
51
  2
RECT
 10
20.7899
 20
21.7805
 30
0.0000
 41
0.3556
 42
1.4224
 43
1.0000
 50
180.0000
  0
POLYLINE
  8
51
 66
1
 10
0.0000
 20
0.0000
 30
0.0000
 40
0.1524
 41
0.1524
 70
0
  0
VERTEX
  8
51
 10
17.9197
 20
22.4155
 30
0.0000
  0
VERTEX
  8
51
 10
16.4973
 20
22.4155
 30
0.0000
  0
SEQEND
  8
0
  0
POLYLINE
  8
51
 66
1
 10
0.0000
 20
0.0000
 30
0.0000
 40
0.0762
 41
0.0762
 70
0
  0
VERTEX
  8
51
 10
16.4973
 20
22.4536
 30
0.0000
 42
1.0000
  0
VERTEX
  8
51
 10
16.4973
 20
22.3774
 30
0.0000
  0
SEQEND
  8
0
  0
POLYLINE
  8
51
 66
1
 10
0.0000
 20
0.0000
 30
0.0000
 40
0.0762
 41
0.0762
 70
0
  0
VERTEX
  8
51
 10
17.9197
 20
22.3774
 30
0.0000
 42
1.0000
  0
VERTEX
  8
51
 10
17.9197
 20
22.4536
 30
0.0000
  0
SEQEND
  8
0
  0
POLYLINE
  8
51
 66
1
 10
0.0000
 20
0.0000
 30
0.0000
 40
0.1524
 41
0.1524
 70
0
  0
VERTEX
  8
51
 10
17.9197
 20
21.1455
 30
0.0000
  0
VERTEX
  8
51
 10
16.4973
 20
21.1455
 30
0.0000
  0
SEQEND
  8
0
  0
POLYLINE
  8
51
 66
1
 10
0.0000
 20
0.0000
 30
0.0000
 40
0.0762
 41
0.0762
 70
0
  0
VERTEX
  8
51
 10
16.4973
 20
21.1836
 30
0.0000
 42
1.0000
  0
VERTEX
  8
51
 10
16.4973
 20
21.1074
 30
0.0000
  0
SEQEND
  8
0
  0
POLYLINE
  8
51
 66
1
 10
0.0000
 20
0.0000
 30
0.0000
 40
0.0762
 41
0.0762
 70
0
  0
VERTEX
  8
51
 10
17.9197
 20
21.1074
 30
0.0000
 42
1.0000
  0
VERTEX
  8
51
 10
17.9197
 20
21.1836
 30
0.0000
  0
SEQEND
  8
0
  0
INSERT
  8
51
  2
RECT
 10
16.3449
 20
21.7805
 30
0.0000
 41
0.3556
 42
1.4224
 43
1.0000
 50
0.0000
  0
INSERT
  8
51
  2
RECT
 10
18.0721
 20
21.7805
 30
0.0000
 41
0.3556
 42
1.4224
 43
1.0000
 50
0.0000
  0
POLYLINE
  8
51
 66
1
 10
0.0000
 20
0.0000
 30
0.0000
 40
0.1524
 41
0.1524
 70
0
  0
VERTEX
  8
51
 10
69.8500
 20
22.6822
 30
0.0000
  0
VERTEX
  8
51
 10
69.8500
 20
21.2598
 30
0.0000
  0
SEQEND
  8
0
  0
POLYLINE
  8
51
 66
1
 10
0.0000
 20
0.0000
 30
0.0000
 40
0.0762
 41
0.0762
 70
0
  0
VERTEX
  8
51
 10
69.8119
 20
21.2598
 30
0.0000
 42
1.0000
  0
VERTEX
  8
51
 10
69.8881
 20
21.2598
 30
0.0000
  0
SEQEND
  8
0
  0
POLYLINE
  8
51
 66
1
 10
0.0000
 20
0.0000
 30
0.0000
 40
0.0762
 41
0.0762
 70
0
  0
VERTEX
  8
51
 10
69.8881
 20
22.6822
 30
0.0000
 42
1.0000
  0
VERTEX
  8
51
 10
69.8119
 20
22.6822
 30
0.0000
  0
SEQEND
  8
0
  0
POLYLINE
  8
51
 66
1
 10
0.0000
 20
0.0000
 30
0.0000
 40
0.1524
 41
0.1524
 70
0
  0
VERTEX
  8
51
 10
71.1200
 20
22.6822
 30
0.0000
  0
VERTEX
  8
51
 10
71.1200
 20
21.2598
 30
0.0000
  0
SEQEND
  8
0
  0
POLYLINE
  8
51
 66
1
 10
0.0000
 20
0.0000
 30
0.0000
 40
0.0762
 41
0.0762
 70
0
  0
VERTEX
  8
51
 10
71.0819
 20
21.2598
 30
0.0000
 42
1.0000
  0
VERTEX
  8
51
 10
71.1581
 20
21.2598
 30
0.0000
  0
SEQEND
  8
0
  0
POLYLINE
  8
51
 66
1
 10
0.0000
 20
0.0000
 30
0.0000
 40
0.0762
 41
0.0762
 70
0
  0
VERTEX
  8
51
 10
71.1581
 20
22.6822
 30
0.0000
 42
1.0000
  0
VERTEX
  8
51
 10
71.0819
 20
22.6822
 30
0.0000
  0
SEQEND
  8
0
  0
INSERT
  8
51
  2
RECT
 10
70.4850
 20
21.1074
 30
0.0000
 41
0.3556
 42
1.4224
 43
1.0000
 50
90.0000
  0
INSERT
  8
51
  2
RECT
 10
70.4850
 20
22.8346
 30
0.0000
 41
0.3556
 42
1.4224
 43
1.0000
 50
90.0000
  0
INSERT
  8
17
  2
OCTAGONP
 10
80.2005
 20
21.2725
 30
0.0000
 41
2.5400
 42
2.5400
 43
1.0000
 50
90.0000
  0
INSERT
  8
17
  2
OCTAGONP
 10
80.2005
 20
21.2725
 30
0.0000
 41
2.5400
 42
2.5400
 43
1.0000
 50
90.0000
  0
INSERT
  8
17
  2
OCTAGONP
 10
80.2005
 20
13.6525
 30
0.0000
 41
2.5400
 42
2.5400
 43
1.0000
 50
90.0000
  0
INSERT
  8
17
  2
OCTAGONP
 10
80.2005
 20
13.6525
 30
0.0000
 41
2.5400
 42
2.5400
 43
1.0000
 50
90.0000
  0
INSERT
  8
51
  2
RECT
 10
36.4490
 20
6.8580
 30
0.0000
 41
0.5080
 42
0.5080
 43
1.0000
 50
0.0000
  0
INSERT
  8
51
  2
RECT
 10
33.9090
 20
6.8580
 30
0.0000
 41
0.5080
 42
0.5080
 43
1.0000
 50
0.0000
  0
INSERT
  8
51
  2
RECT
 10
38.9890
 20
6.8580
 30
0.0000
 41
0.5080
 42
0.5080
 43
1.0000
 50
0.0000
  0
INSERT
  8
51
  2
RECT
 10
41.5290
 20
6.8580
 30
0.0000
 41
0.5080
 42
0.5080
 43
1.0000
 50
0.0000
  0
INSERT
  8
51
  2
RECT
 10
46.6090
 20
6.8580
 30
0.0000
 41
0.5080
 42
0.5080
 43
1.0000
 50
0.0000
  0
INSERT
  8
51
  2
RECT
 10
44.0690
 20
6.8580
 30
0.0000
 41
0.5080
 42
0.5080
 43
1.0000
 50
0.0000
  0
INSERT
  8
51
  2
RECT
 10
49.1490
 20
6.8580
 30
0.0000
 41
0.5080
 42
0.5080
 43
1.0000
 50
0.0000
  0
INSERT
  8
51
  2
RECT
 10
51.6890
 20
6.8580
 30
0.0000
 41
0.5080
 42
0.5080
 43
1.0000
 50
0.0000
  0
INSERT
  8
17
  2
LONGP100
 10
33.9090
 20
6.8580
 30
0.0000
 41
1.1176
 42
1.1176
 43
1.0000
 50
90.0000
  0
INSERT
  8
17
  2
LONGP100
 10
33.9090
 20
6.8580
 30
0.0000
 41
1.1176
 42
1.1176
 43
1.0000
 50
90.0000
  0
INSERT
  8
17
  2
LONGP100
 10
36.4490
 20
6.8580
 30
0.0000
 41
1.1176
 42
1.1176
 43
1.0000
 50
90.0000
  0
INSERT
  8
17
  2
LONGP100
 10
36.4490
 20
6.8580
 30
0.0000
 41
1.1176
 42
1.1176
 43
1.0000
 50
90.0000
  0
INSERT
  8
17
  2
LONGP100
 10
38.9890
 20
6.8580
 30
0.0000
 41
1.1176
 42
1.1176
 43
1.0000
 50
90.0000
  0
INSERT
  8
17
  2
LONGP100
 10
38.9890
 20
6.8580
 30
0.0000
 41
1.1176
 42
1.1176
 43
1.0000
 50
90.0000
  0
INSERT
  8
17
  2
LONGP100
 10
41.5290
 20
6.8580
 30
0.0000
 41
1.1176
 42
1.1176
 43
1.0000
 50
90.0000
  0
INSERT
  8
17
  2
LONGP100
 10
41.5290
 20
6.8580
 30
0.0000
 41
1.1176
 42
1.1176
 43
1.0000
 50
90.0000
  0
INSERT
  8
17
  2
LONGP100
 10
44.0690
 20
6.8580
 30
0.0000
 41
1.1176
 42
1.1176
 43
1.0000
 50
90.0000
  0
INSERT
  8
17
  2
LONGP100
 10
44.0690
 20
6.8580
 30
0.0000
 41
1.1176
 42
1.1176
 43
1.0000
 50
90.0000
  0
INSERT
  8
17
  2
LONGP100
 10
46.6090
 20
6.8580
 30
0.0000
 41
1.1176
 42
1.1176
 43
1.0000
 50
90.0000
  0
INSERT
  8
17
  2
LONGP100
 10
46.6090
 20
6.8580
 30
0.0000
 41
1.1176
 42
1.1176
 43
1.0000
 50
90.0000
  0
INSERT
  8
17
  2
LONGP100
 10
49.1490
 20
6.8580
 30
0.0000
 41
1.1176
 42
1.1176
 43
1.0000
 50
90.0000
  0
INSERT
  8
17
  2
LONGP100
 10
49.1490
 20
6.8580
 30
0.0000
 41
1.1176
 42
1.1176
 43
1.0000
 50
90.0000
  0
INSERT
  8
17
  2
LONGP100
 10
51.6890
 20
6.8580
 30
0.0000
 41
1.1176
 42
1.1176
 43
1.0000
 50
90.0000
  0
INSERT
  8
17
  2
LONGP100
 10
51.6890
 20
6.8580
 30
0.0000
 41
1.1176
 42
1.1176
 43
1.0000
 50
90.0000
  0
POLYLINE
  8
51
 66
1
 10
0.0000
 20
0.0000
 30
0.0000
 40
0.1524
 41
0.1524
 70
0
  0
VERTEX
  8
51
 10
53.2384
 20
29.4386
 30
0.0000
  0
VERTEX
  8
51
 10
51.9176
 20
29.4386
 30
0.0000
  0
SEQEND
  8
0
  0
POLYLINE
  8
51
 66
1
 10
0.0000
 20
0.0000
 30
0.0000
 40
0.0762
 41
0.0762
 70
0
  0
VERTEX
  8
51
 10
51.9176
 20
29.4767
 30
0.0000
 42
1.0000
  0
VERTEX
  8
51
 10
51.9176
 20
29.4005
 30
0.0000
  0
SEQEND
  8
0
  0
POLYLINE
  8
51
 66
1
 10
0.0000
 20
0.0000
 30
0.0000
 40
0.0762
 41
0.0762
 70
0
  0
VERTEX
  8
51
 10
53.2384
 20
29.4005
 30
0.0000
 42
1.0000
  0
VERTEX
  8
51
 10
53.2384
 20
29.4767
 30
0.0000
  0
SEQEND
  8
0
  0
POLYLINE
  8
51
 66
1
 10
0.0000
 20
0.0000
 30
0.0000
 40
0.1524
 41
0.1524
 70
0
  0
VERTEX
  8
51
 10
51.9176
 20
29.4386
 30
0.0000
  0
VERTEX
  8
51
 10
51.9176
 20
32.2834
 30
0.0000
  0
SEQEND
  8
0
  0
POLYLINE
  8
51
 66
1
 10
0.0000
 20
0.0000
 30
0.0000
 40
0.0762
 41
0.0762
 70
0
  0
VERTEX
  8
51
 10
51.9557
 20
32.2834
 30
0.0000
 42
1.0000
  0
VERTEX
  8
51
 10
51.8795
 20
32.2834
 30
0.0000
  0
SEQEND
  8
0
  0
POLYLINE
  8
51
 66
1
 10
0.0000
 20
0.0000
 30
0.0000
 40
0.0762
 41
0.0762
 70
0
  0
VERTEX
  8
51
 10
51.8795
 20
29.4386
 30
0.0000
 42
1.0000
  0
VERTEX
  8
51
 10
51.9557
 20
29.4386
 30
0.0000
  0
SEQEND
  8
0
  0
POLYLINE
  8
51
 66
1
 10
0.0000
 20
0.0000
 30
0.0000
 40
0.1524
 41
0.1524
 70
0
  0
VERTEX
  8
51
 10
51.9176
 20
32.2834
 30
0.0000
  0
VERTEX
  8
51
 10
53.2384
 20
32.2834
 30
0.0000
  0
SEQEND
  8
0
  0
POLYLINE
  8
51
 66
1
 10
0.0000
 20
0.0000
 30
0.0000
 40
0.0762
 41
0.0762
 70
0
  0
VERTEX
  8
51
 10
53.2384
 20
32.2453
 30
0.0000
 42
1.0000
  0
VERTEX
  8
51
 10
53.2384
 20
32.3215
 30
0.0000
  0
SEQEND
  8
0
  0
POLYLINE
  8
51
 66
1
 10
0.0000
 20
0.0000
 30
0.0000
 40
0.0762
 41
0.0762
 70
0
  0
VERTEX
  8
51
 10
51.9176
 20
32.3215
 30
0.0000
 42
1.0000
  0
VERTEX
  8
51
 10
51.9176
 20
32.2453
 30
0.0000
  0
SEQEND
  8
0
  0
POLYLINE
  8
51
 66
1
 10
0.0000
 20
0.0000
 30
0.0000
 40
0.1524
 41
0.1524
 70
0
  0
VERTEX
  8
51
 10
53.2384
 20
32.2834
 30
0.0000
  0
VERTEX
  8
51
 10
53.2384
 20
29.4386
 30
0.0000
  0
SEQEND
  8
0
  0
POLYLINE
  8
51
 66
1
 10
0.0000
 20
0.0000
 30
0.0000
 40
0.0762
 41
0.0762
 70
0
  0
VERTEX
  8
51
 10
53.2003
 20
29.4386
 30
0.0000
 42
1.0000
  0
VERTEX
  8
51
 10
53.2765
 20
29.4386
 30
0.0000
  0
SEQEND
  8
0
  0
POLYLINE
  8
51
 66
1
 10
0.0000
 20
0.0000
 30
0.0000
 40
0.0762
 41
0.0762
 70
0
  0
VERTEX
  8
51
 10
53.2765
 20
32.2834
 30
0.0000
 42
1.0000
  0
VERTEX
  8
51
 10
53.2003
 20
32.2834
 30
0.0000
  0
SEQEND
  8
0
  0
INSERT
  8
51
  2
RECT
 10
53.5813
 20
30.8610
 30
0.0000
 41
0.4572
 42
0.5842
 43
1.0000
 50
270.0000
  0
INSERT
  8
51
  2
RECT
 10
51.5747
 20
29.9212
 30
0.0000
 41
0.4572
 42
0.5842
 43
1.0000
 50
270.0000
  0
INSERT
  8
51
  2
RECT
 10
51.5747
 20
31.8008
 30
0.0000
 41
0.4572
 42
0.5842
 43
1.0000
 50
270.0000
  0
POLYLINE
  8
51
 66
1
 10
0.0000
 20
0.0000
 30
0.0000
 40
0.1524
 41
0.1524
 70
0
  0
VERTEX
  8
51
 10
23.0759
 20
16.0909
 30
0.0000
  0
VERTEX
  8
51
 10
23.0759
 20
14.7701
 30
0.0000
  0
SEQEND
  8
0
  0
POLYLINE
  8
51
 66
1
 10
0.0000
 20
0.0000
 30
0.0000
 40
0.0762
 41
0.0762
 70
0
  0
VERTEX
  8
51
 10
23.0378
 20
14.7701
 30
0.0000
 42
1.0000
  0
VERTEX
  8
51
 10
23.1140
 20
14.7701
 30
0.0000
  0
SEQEND
  8
0
  0
POLYLINE
  8
51
 66
1
 10
0.0000
 20
0.0000
 30
0.0000
 40
0.0762
 41
0.0762
 70
0
  0
VERTEX
  8
51
 10
23.1140
 20
16.0909
 30
0.0000
 42
1.0000
  0
VERTEX
  8
51
 10
23.0378
 20
16.0909
 30
0.0000
  0
SEQEND
  8
0
  0
POLYLINE
  8
51
 66
1
 10
0.0000
 20
0.0000
 30
0.0000
 40
0.1524
 41
0.1524
 70
0
  0
VERTEX
  8
51
 10
23.0759
 20
14.7701
 30
0.0000
  0
VERTEX
  8
51
 10
20.2311
 20
14.7701
 30
0.0000
  0
SEQEND
  8
0
  0
POLYLINE
  8
51
 66
1
 10
0.0000
 20
0.0000
 30
0.0000
 40
0.0762
 41
0.0762
 70
0
  0
VERTEX
  8
51
 10
20.2311
 20
14.8082
 30
0.0000
 42
1.0000
  0
VERTEX
  8
51
 10
20.2311
 20
14.7320
 30
0.0000
  0
SEQEND
  8
0
  0
POLYLINE
  8
51
 66
1
 10
0.0000
 20
0.0000
 30
0.0000
 40
0.0762
 41
0.0762
 70
0
  0
VERTEX
  8
51
 10
23.0759
 20
14.7320
 30
0.0000
 42
1.0000
  0
VERTEX
  8
51
 10
23.0759
 20
14.8082
 30
0.0000
  0
SEQEND
  8
0
  0
POLYLINE
  8
51
 66
1
 10
0.0000
 20
0.0000
 30
0.0000
 40
0.1524
 41
0.1524
 70
0
  0
VERTEX
  8
51
 10
20.2311
 20
14.7701
 30
0.0000
  0
VERTEX
  8
51
 10
20.2311
 20
16.0909
 30
0.0000
  0
SEQEND
  8
0
  0
POLYLINE
  8
51
 66
1
 10
0.0000
 20
0.0000
 30
0.0000
 40
0.0762
 41
0.0762
 70
0
  0
VERTEX
  8
51
 10
20.2692
 20
16.0909
 30
0.0000
 42
1.0000
  0
VERTEX
  8
51
 10
20.1930
 20
16.0909
 30
0.0000
  0
SEQEND
  8
0
  0
POLYLINE
  8
51
 66
1
 10
0.0000
 20
0.0000
 30
0.0000
 40
0.0762
 41
0.0762
 70
0
  0
VERTEX
  8
51
 10
20.1930
 20
14.7701
 30
0.0000
 42
1.0000
  0
VERTEX
  8
51
 10
20.2692
 20
14.7701
 30
0.0000
  0
SEQEND
  8
0
  0
POLYLINE
  8
51
 66
1
 10
0.0000
 20
0.0000
 30
0.0000
 40
0.1524
 41
0.1524
 70
0
  0
VERTEX
  8
51
 10
20.2311
 20
16.0909
 30
0.0000
  0
VERTEX
  8
51
 10
23.0759
 20
16.0909
 30
0.0000
  0
SEQEND
  8
0
  0
POLYLINE
  8
51
 66
1
 10
0.0000
 20
0.0000
 30
0.0000
 40
0.0762
 41
0.0762
 70
0
  0
VERTEX
  8
51
 10
23.0759
 20
16.0528
 30
0.0000
 42
1.0000
  0
VERTEX
  8
51
 10
23.0759
 20
16.1290
 30
0.0000
  0
SEQEND
  8
0
  0
POLYLINE
  8
51
 66
1
 10
0.0000
 20
0.0000
 30
0.0000
 40
0.0762
 41
0.0762
 70
0
  0
VERTEX
  8
51
 10
20.2311
 20
16.1290
 30
0.0000
 42
1.0000
  0
VERTEX
  8
51
 10
20.2311
 20
16.0528
 30
0.0000
  0
SEQEND
  8
0
  0
INSERT
  8
51
  2
RECT
 10
21.6535
 20
16.4338
 30
0.0000
 41
0.4572
 42
0.5842
 43
1.0000
 50
0.0000
  0
INSERT
  8
51
  2
RECT
 10
22.5933
 20
14.4272
 30
0.0000
 41
0.4572
 42
0.5842
 43
1.0000
 50
0.0000
  0
INSERT
  8
51
  2
RECT
 10
20.7137
 20
14.4272
 30
0.0000
 41
0.4572
 42
0.5842
 43
1.0000
 50
0.0000
  0
POLYLINE
  8
51
 66
1
 10
0.0000
 20
0.0000
 30
0.0000
 40
0.1524
 41
0.1524
 70
0
  0
VERTEX
  8
51
 10
18.6309
 20
16.0909
 30
0.0000
  0
VERTEX
  8
51
 10
18.6309
 20
14.7701
 30
0.0000
  0
SEQEND
  8
0
  0
POLYLINE
  8
51
 66
1
 10
0.0000
 20
0.0000
 30
0.0000
 40
0.0762
 41
0.0762
 70
0
  0
VERTEX
  8
51
 10
18.5928
 20
14.7701
 30
0.0000
 42
1.0000
  0
VERTEX
  8
51
 10
18.6690
 20
14.7701
 30
0.0000
  0
SEQEND
  8
0
  0
POLYLINE
  8
51
 66
1
 10
0.0000
 20
0.0000
 30
0.0000
 40
0.0762
 41
0.0762
 70
0
  0
VERTEX
  8
51
 10
18.6690
 20
16.0909
 30
0.0000
 42
1.0000
  0
VERTEX
  8
51
 10
18.5928
 20
16.0909
 30
0.0000
  0
SEQEND
  8
0
  0
POLYLINE
  8
51
 66
1
 10
0.0000
 20
0.0000
 30
0.0000
 40
0.1524
 41
0.1524
 70
0
  0
VERTEX
  8
51
 10
18.6309
 20
14.7701
 30
0.0000
  0
VERTEX
  8
51
 10
15.7861
 20
14.7701
 30
0.0000
  0
SEQEND
  8
0
  0
POLYLINE
  8
51
 66
1
 10
0.0000
 20
0.0000
 30
0.0000
 40
0.0762
 41
0.0762
 70
0
  0
VERTEX
  8
51
 10
15.7861
 20
14.8082
 30
0.0000
 42
1.0000
  0
VERTEX
  8
51
 10
15.7861
 20
14.7320
 30
0.0000
  0
SEQEND
  8
0
  0
POLYLINE
  8
51
 66
1
 10
0.0000
 20
0.0000
 30
0.0000
 40
0.0762
 41
0.0762
 70
0
  0
VERTEX
  8
51
 10
18.6309
 20
14.7320
 30
0.0000
 42
1.0000
  0
VERTEX
  8
51
 10
18.6309
 20
14.8082
 30
0.0000
  0
SEQEND
  8
0
  0
POLYLINE
  8
51
 66
1
 10
0.0000
 20
0.0000
 30
0.0000
 40
0.1524
 41
0.1524
 70
0
  0
VERTEX
  8
51
 10
15.7861
 20
14.7701
 30
0.0000
  0
VERTEX
  8
51
 10
15.7861
 20
16.0909
 30
0.0000
  0
SEQEND
  8
0
  0
POLYLINE
  8
51
 66
1
 10
0.0000
 20
0.0000
 30
0.0000
 40
0.0762
 41
0.0762
 70
0
  0
VERTEX
  8
51
 10
15.8242
 20
16.0909
 30
0.0000
 42
1.0000
  0
VERTEX
  8
51
 10
15.7480
 20
16.0909
 30
0.0000
  0
SEQEND
  8
0
  0
POLYLINE
  8
51
 66
1
 10
0.0000
 20
0.0000
 30
0.0000
 40
0.0762
 41
0.0762
 70
0
  0
VERTEX
  8
51
 10
15.7480
 20
14.7701
 30
0.0000
 42
1.0000
  0
VERTEX
  8
51
 10
15.8242
 20
14.7701
 30
0.0000
  0
SEQEND
  8
0
  0
POLYLINE
  8
51
 66
1
 10
0.0000
 20
0.0000
 30
0.0000
 40
0.1524
 41
0.1524
 70
0
  0
VERTEX
  8
51
 10
15.7861
 20
16.0909
 30
0.0000
  0
VERTEX
  8
51
 10
18.6309
 20
16.0909
 30
0.0000
  0
SEQEND
  8
0
  0
POLYLINE
  8
51
 66
1
 10
0.0000
 20
0.0000
 30
0.0000
 40
0.0762
 41
0.0762
 70
0
  0
VERTEX
  8
51
 10
18.6309
 20
16.0528
 30
0.0000
 42
1.0000
  0
VERTEX
  8
51
 10
18.6309
 20
16.1290
 30
0.0000
  0
SEQEND
  8
0
  0
POLYLINE
  8
51
 66
1
 10
0.0000
 20
0.0000
 30
0.0000
 40
0.0762
 41
0.0762
 70
0
  0
VERTEX
  8
51
 10
15.7861
 20
16.1290
 30
0.0000
 42
1.0000
  0
VERTEX
  8
51
 10
15.7861
 20
16.0528
 30
0.0000
  0
SEQEND
  8
0
  0
INSERT
  8
51
  2
RECT
 10
17.2085
 20
16.4338
 30
0.0000
 41
0.4572
 42
0.5842
 43
1.0000
 50
0.0000
  0
INSERT
  8
51
  2
RECT
 10
18.1483
 20
14.4272
 30
0.0000
 41
0.4572
 42
0.5842
 43
1.0000
 50
0.0000
  0
INSERT
  8
51
  2
RECT
 10
16.2687
 20
14.4272
 30
0.0000
 41
0.4572
 42
0.5842
 43
1.0000
 50
0.0000
  0
POLYLINE
  8
51
 66
1
 10
0.0000
 20
0.0000
 30
0.0000
 40
0.1524
 41
0.1524
 70
0
  0
VERTEX
  8
51
 10
65.0621
 20
21.5011
 30
0.0000
  0
VERTEX
  8
51
 10
65.0621
 20
22.8219
 30
0.0000
  0
SEQEND
  8
0
  0
POLYLINE
  8
51
 66
1
 10
0.0000
 20
0.0000
 30
0.0000
 40
0.0762
 41
0.0762
 70
0
  0
VERTEX
  8
51
 10
65.1002
 20
22.8219
 30
0.0000
 42
1.0000
  0
VERTEX
  8
51
 10
65.0240
 20
22.8219
 30
0.0000
  0
SEQEND
  8
0
  0
POLYLINE
  8
51
 66
1
 10
0.0000
 20
0.0000
 30
0.0000
 40
0.0762
 41
0.0762
 70
0
  0
VERTEX
  8
51
 10
65.0240
 20
21.5011
 30
0.0000
 42
1.0000
  0
VERTEX
  8
51
 10
65.1002
 20
21.5011
 30
0.0000
  0
SEQEND
  8
0
  0
POLYLINE
  8
51
 66
1
 10
0.0000
 20
0.0000
 30
0.0000
 40
0.1524
 41
0.1524
 70
0
  0
VERTEX
  8
51
 10
65.0621
 20
22.8219
 30
0.0000
  0
VERTEX
  8
51
 10
67.9069
 20
22.8219
 30
0.0000
  0
SEQEND
  8
0
  0
POLYLINE
  8
51
 66
1
 10
0.0000
 20
0.0000
 30
0.0000
 40
0.0762
 41
0.0762
 70
0
  0
VERTEX
  8
51
 10
67.9069
 20
22.7838
 30
0.0000
 42
1.0000
  0
VERTEX
  8
51
 10
67.9069
 20
22.8600
 30
0.0000
  0
SEQEND
  8
0
  0
POLYLINE
  8
51
 66
1
 10
0.0000
 20
0.0000
 30
0.0000
 40
0.0762
 41
0.0762
 70
0
  0
VERTEX
  8
51
 10
65.0621
 20
22.8600
 30
0.0000
 42
1.0000
  0
VERTEX
  8
51
 10
65.0621
 20
22.7838
 30
0.0000
  0
SEQEND
  8
0
  0
POLYLINE
  8
51
 66
1
 10
0.0000
 20
0.0000
 30
0.0000
 40
0.1524
 41
0.1524
 70
0
  0
VERTEX
  8
51
 10
67.9069
 20
22.8219
 30
0.0000
  0
VERTEX
  8
51
 10
67.9069
 20
21.5011
 30
0.0000
  0
SEQEND
  8
0
  0
POLYLINE
  8
51
 66
1
 10
0.0000
 20
0.0000
 30
0.0000
 40
0.0762
 41
0.0762
 70
0
  0
VERTEX
  8
51
 10
67.8688
 20
21.5011
 30
0.0000
 42
1.0000
  0
VERTEX
  8
51
 10
67.9450
 20
21.5011
 30
0.0000
  0
SEQEND
  8
0
  0
POLYLINE
  8
51
 66
1
 10
0.0000
 20
0.0000
 30
0.0000
 40
0.0762
 41
0.0762
 70
0
  0
VERTEX
  8
51
 10
67.9450
 20
22.8219
 30
0.0000
 42
1.0000
  0
VERTEX
  8
51
 10
67.8688
 20
22.8219
 30
0.0000
  0
SEQEND
  8
0
  0
POLYLINE
  8
51
 66
1
 10
0.0000
 20
0.0000
 30
0.0000
 40
0.1524
 41
0.1524
 70
0
  0
VERTEX
  8
51
 10
67.9069
 20
21.5011
 30
0.0000
  0
VERTEX
  8
51
 10
65.0621
 20
21.5011
 30
0.0000
  0
SEQEND
  8
0
  0
POLYLINE
  8
51
 66
1
 10
0.0000
 20
0.0000
 30
0.0000
 40
0.0762
 41
0.0762
 70
0
  0
VERTEX
  8
51
 10
65.0621
 20
21.5392
 30
0.0000
 42
1.0000
  0
VERTEX
  8
51
 10
65.0621
 20
21.4630
 30
0.0000
  0
SEQEND
  8
0
  0
POLYLINE
  8
51
 66
1
 10
0.0000
 20
0.0000
 30
0.0000
 40
0.0762
 41
0.0762
 70
0
  0
VERTEX
  8
51
 10
67.9069
 20
21.4630
 30
0.0000
 42
1.0000
  0
VERTEX
  8
51
 10
67.9069
 20
21.5392
 30
0.0000
  0
SEQEND
  8
0
  0
INSERT
  8
51
  2
RECT
 10
66.4845
 20
21.1582
 30
0.0000
 41
0.4572
 42
0.5842
 43
1.0000
 50
180.0000
  0
INSERT
  8
51
  2
RECT
 10
65.5447
 20
23.1648
 30
0.0000
 41
0.4572
 42
0.5842
 43
1.0000
 50
180.0000
  0
INSERT
  8
51
  2
RECT
 10
67.4243
 20
23.1648
 30
0.0000
 41
0.4572
 42
0.5842
 43
1.0000
 50
180.0000
  0
INSERT
  8
51
  2
RECT
 10
5.4610
 20
22.7330
 30
0.0000
 41
0.5080
 42
0.5080
 43
1.0000
 50
270.0000
  0
INSERT
  8
51
  2
RECT
 10
5.4610
 20
25.2730
 30
0.0000
 41
0.5080
 42
0.5080
 43
1.0000
 50
270.0000
  0
INSERT
  8
51
  2
RECT
 10
5.4610
 20
20.1930
 30
0.0000
 41
0.5080
 42
0.5080
 43
1.0000
 50
270.0000
  0
INSERT
  8
51
  2
RECT
 10
5.4610
 20
15.1130
 30
0.0000
 41
0.5080
 42
0.5080
 43
1.0000
 50
270.0000
  0
INSERT
  8
51
  2
RECT
 10
5.4610
 20
17.6530
 30
0.0000
 41
0.5080
 42
0.5080
 43
1.0000
 50
270.0000
  0
INSERT
  8
51
  2
RECT
 10
5.4610
 20
12.5730
 30
0.0000
 41
0.5080
 42
0.5080
 43
1.0000
 50
270.0000
  0
INSERT
  8
51
  2
RECT
 10
5.4610
 20
10.0330
 30
0.0000
 41
0.5080
 42
0.5080
 43
1.0000
 50
270.0000
  0
INSERT
  8
17
  2
LONGP100
 10
5.4610
 20
25.2730
 30
0.0000
 41
1.1176
 42
1.1176
 43
1.0000
 50
0.0000
  0
INSERT
  8
17
  2
LONGP100
 10
5.4610
 20
25.2730
 30
0.0000
 41
1.1176
 42
1.1176
 43
1.0000
 50
0.0000
  0
INSERT
  8
17
  2
LONGP100
 10
5.4610
 20
22.7330
 30
0.0000
 41
1.1176
 42
1.1176
 43
1.0000
 50
0.0000
  0
INSERT
  8
17
  2
LONGP100
 10
5.4610
 20
22.7330
 30
0.0000
 41
1.1176
 42
1.1176
 43
1.0000
 50
0.0000
  0
INSERT
  8
17
  2
LONGP100
 10
5.4610
 20
20.1930
 30
0.0000
 41
1.1176
 42
1.1176
 43
1.0000
 50
0.0000
  0
INSERT
  8
17
  2
LONGP100
 10
5.4610
 20
20.1930
 30
0.0000
 41
1.1176
 42
1.1176
 43
1.0000
 50
0.0000
  0
INSERT
  8
17
  2
LONGP100
 10
5.4610
 20
17.6530
 30
0.0000
 41
1.1176
 42
1.1176
 43
1.0000
 50
0.0000
  0
INSERT
  8
17
  2
LONGP100
 10
5.4610
 20
17.6530
 30
0.0000
 41
1.1176
 42
1.1176
 43
1.0000
 50
0.0000
  0
INSERT
  8
17
  2
LONGP100
 10
5.4610
 20
15.1130
 30
0.0000
 41
1.1176
 42
1.1176
 43
1.0000
 50
0.0000
  0
INSERT
  8
17
  2
LONGP100
 10
5.4610
 20
15.1130
 30
0.0000
 41
1.1176
 42
1.1176
 43
1.0000
 50
0.0000
  0
INSERT
  8
17
  2
LONGP100
 10
5.4610
 20
12.5730
 30
0.0000
 41
1.1176
 42
1.1176
 43
1.0000
 50
0.0000
  0
INSERT
  8
17
  2
LONGP100
 10
5.4610
 20
12.5730
 30
0.0000
 41
1.1176
 42
1.1176
 43
1.0000
 50
0.0000
  0
INSERT
  8
17
  2
LONGP100
 10
5.4610
 20
10.0330
 30
0.0000
 41
1.1176
 42
1.1176
 43
1.0000
 50
0.0000
  0
INSERT
  8
17
  2
LONGP100
 10
5.4610
 20
10.0330
 30
0.0000
 41
1.1176
 42
1.1176
 43
1.0000
 50
0.0000
  0
ENDSEC
  0
EOF
