G75*
%MOIN*%
%OFA0B0*%
%FSLAX25Y25*%
%IPPOS*%
%LPD*%
%AMOC8*
5,1,8,0,0,1.08239X$1,22.5*
%
%ADD10R,0.06800X0.06800*%
%ADD11C,0.06800*%
%ADD12OC8,0.06000*%
%ADD13C,0.07400*%
%ADD14C,0.13800*%
%ADD15OC8,0.07100*%
%ADD16C,0.07100*%
%ADD17C,0.11824*%
%ADD18R,0.07800X0.05200*%
%ADD19R,0.08700X0.06700*%
%ADD20R,0.08700X0.15800*%
%ADD21OC8,0.06800*%
%ADD22C,0.08674*%
%ADD23C,0.05950*%
%ADD24C,0.13595*%
%ADD25R,0.09855X0.17729*%
%ADD26R,0.09855X0.15209*%
%ADD27C,0.06000*%
%ADD28C,0.04762*%
D10*
X0203845Y0068880D03*
X0203845Y0077880D03*
D11*
X0195895Y0081530D02*
X0189895Y0081530D01*
X0170295Y0081530D02*
X0164295Y0081530D01*
X0164295Y0063730D02*
X0170295Y0063730D01*
X0189895Y0063730D02*
X0195895Y0063730D01*
X0234295Y0062480D02*
X0240295Y0062480D01*
X0259895Y0062480D02*
X0265895Y0062480D01*
X0265895Y0080280D02*
X0259895Y0080280D01*
X0240295Y0080280D02*
X0234295Y0080280D01*
X0076845Y0083880D02*
X0070845Y0083880D01*
X0070845Y0093880D02*
X0076845Y0093880D01*
X0076845Y0103880D02*
X0070845Y0103880D01*
X0070845Y0113880D02*
X0076845Y0113880D01*
X0076845Y0123880D02*
X0070845Y0123880D01*
X0070845Y0133880D02*
X0076845Y0133880D01*
X0076845Y0143880D02*
X0070845Y0143880D01*
X0072595Y0168380D02*
X0072595Y0174380D01*
X0072595Y0208380D02*
X0072595Y0214380D01*
X0408845Y0249630D02*
X0408845Y0255630D01*
X0418845Y0255630D02*
X0418845Y0249630D01*
X0428845Y0249630D02*
X0428845Y0255630D01*
D12*
X0200095Y0242630D03*
X0190095Y0252630D03*
X0190095Y0232630D03*
X0095095Y0217630D03*
X0087595Y0212630D03*
X0095095Y0207630D03*
X0136345Y0136380D03*
X0136345Y0126380D03*
X0335095Y0073880D03*
X0335095Y0063880D03*
D13*
X0160895Y0162630D02*
X0154295Y0162630D01*
X0154295Y0172630D02*
X0160895Y0172630D01*
X0160895Y0182630D02*
X0154295Y0182630D01*
D14*
X0226595Y0172630D03*
D15*
X0292595Y0248380D03*
X0081345Y0250880D03*
D16*
X0081345Y0236880D03*
X0292595Y0234380D03*
D17*
X0122595Y0060130D03*
X0366345Y0061380D03*
X0366345Y0243880D03*
X0121345Y0243880D03*
D18*
X0391345Y0086380D03*
X0391345Y0075380D03*
D19*
X0407695Y0076230D03*
X0407695Y0085230D03*
X0407695Y0094230D03*
D20*
X0432495Y0085130D03*
D21*
X0427595Y0198880D03*
X0417595Y0198880D03*
X0407595Y0198880D03*
X0397595Y0198880D03*
X0397595Y0208880D03*
X0407595Y0208880D03*
X0417595Y0208880D03*
X0427595Y0208880D03*
X0437595Y0208880D03*
X0437595Y0198880D03*
D22*
X0173156Y0129067D02*
X0173156Y0121193D01*
X0149140Y0121193D02*
X0149140Y0129067D01*
X0157408Y0106232D02*
X0165282Y0106232D01*
D23*
X0438770Y0137630D02*
X0443920Y0137630D01*
X0443920Y0147630D02*
X0438770Y0147630D01*
X0438770Y0157630D02*
X0443920Y0157630D01*
X0443920Y0167630D02*
X0438770Y0167630D01*
D24*
X0537802Y0152630D03*
D25*
X0336345Y0237072D03*
D26*
X0336345Y0157342D03*
D27*
X0181445Y0217630D02*
X0176245Y0217630D01*
X0141445Y0217630D02*
X0136245Y0217630D01*
D28*
X0171345Y0208880D03*
X0171345Y0190130D03*
X0105095Y0162630D03*
X0101345Y0168880D03*
X0197595Y0125130D03*
X0200095Y0132630D03*
X0252595Y0108880D03*
X0248845Y0100130D03*
X0253845Y0120130D03*
X0253845Y0126380D03*
X0280095Y0133880D03*
X0261345Y0140130D03*
X0275095Y0145130D03*
X0285095Y0145130D03*
X0301345Y0150130D03*
X0303845Y0143880D03*
X0313845Y0143880D03*
X0312595Y0150130D03*
X0307595Y0155130D03*
X0345095Y0135130D03*
X0351345Y0135130D03*
X0338845Y0130130D03*
X0327595Y0126380D03*
X0332595Y0117630D03*
X0351345Y0118880D03*
X0355095Y0113880D03*
X0366345Y0117630D03*
X0370095Y0108880D03*
X0355095Y0103880D03*
X0355095Y0090130D03*
X0333845Y0088880D03*
X0326345Y0093880D03*
X0317595Y0096380D03*
X0298845Y0083880D03*
X0291345Y0087630D03*
X0291345Y0092630D03*
X0317595Y0081380D03*
X0326345Y0076380D03*
X0355095Y0075130D03*
X0363845Y0077630D03*
X0390095Y0063880D03*
X0431345Y0068880D03*
X0445095Y0066380D03*
X0398845Y0093880D03*
X0390095Y0103880D03*
X0370095Y0130130D03*
X0363845Y0130130D03*
X0400095Y0145130D03*
X0411345Y0150130D03*
X0366345Y0182630D03*
X0261345Y0153880D03*
X0255095Y0163880D03*
X0250095Y0163880D03*
X0297595Y0110130D03*
X0302595Y0107630D03*
X0203845Y0087630D03*
X0167595Y0095130D03*
X0148845Y0098880D03*
X0133845Y0106380D03*
X0133845Y0088880D03*
X0152595Y0083880D03*
X0158845Y0068880D03*
X0087595Y0070130D03*
X0087595Y0077630D03*
X0245095Y0227630D03*
X0142595Y0248880D03*
X0142595Y0261380D03*
M02*
