G75*
%MOIN*%
%OFA0B0*%
%FSLAX25Y25*%
%IPPOS*%
%LPD*%
%AMOC8*
5,1,8,0,0,1.08239X$1,22.5*
%
%ADD10C,0.02500*%
%ADD11R,0.06800X0.06800*%
%ADD12R,0.07800X0.05200*%
%ADD13R,0.03300X0.05800*%
%ADD14R,0.05918X0.07099*%
%ADD15C,0.06800*%
%ADD16R,0.07099X0.05918*%
%ADD17OC8,0.06000*%
%ADD18R,0.09461X0.03162*%
%ADD19R,0.05918X0.06706*%
%ADD20C,0.07400*%
%ADD21C,0.13800*%
%ADD22OC8,0.07100*%
%ADD23C,0.07100*%
%ADD24C,0.11824*%
%ADD25R,0.04737X0.06312*%
%ADD26R,0.06706X0.05918*%
%ADD27OC8,0.06800*%
%ADD28C,0.08674*%
%ADD29R,0.06700X0.08700*%
%ADD30R,0.15800X0.08700*%
%ADD31R,0.05524X0.08674*%
%ADD32C,0.05950*%
%ADD33C,0.13595*%
%ADD34R,0.07887X0.11430*%
%ADD35C,0.06000*%
%ADD36R,0.13600X0.26200*%
%ADD37C,0.04762*%
D10*
X0278462Y0105130D02*
X0283762Y0105130D01*
X0283762Y0108275D02*
X0278462Y0108275D01*
X0278462Y0111427D02*
X0283762Y0111427D01*
X0283762Y0114575D02*
X0278462Y0114575D01*
X0278462Y0117723D02*
X0283762Y0117723D01*
X0283762Y0120872D02*
X0278462Y0120872D01*
X0278462Y0124020D02*
X0283762Y0124020D01*
X0283745Y0127130D02*
X0278445Y0127130D01*
X0285812Y0129313D02*
X0285812Y0134613D01*
X0288995Y0134580D02*
X0288995Y0129280D01*
X0292195Y0129280D02*
X0292195Y0134580D01*
X0295295Y0134580D02*
X0295295Y0129280D01*
X0298395Y0129280D02*
X0298395Y0134580D01*
X0301595Y0134580D02*
X0301595Y0129280D01*
X0304695Y0129280D02*
X0304695Y0134580D01*
X0307895Y0134580D02*
X0307895Y0129280D01*
X0309945Y0127168D02*
X0315245Y0127168D01*
X0315245Y0124020D02*
X0309945Y0124020D01*
X0309945Y0120872D02*
X0315245Y0120872D01*
X0315245Y0117723D02*
X0309945Y0117723D01*
X0309945Y0114575D02*
X0315245Y0114575D01*
X0315245Y0111427D02*
X0309945Y0111427D01*
X0309945Y0108278D02*
X0315245Y0108278D01*
X0315245Y0105130D02*
X0309945Y0105130D01*
X0307895Y0103080D02*
X0307895Y0097780D01*
X0304695Y0097780D02*
X0304695Y0103080D01*
X0301595Y0103080D02*
X0301595Y0097780D01*
X0298395Y0097780D02*
X0298395Y0103080D01*
X0295295Y0103080D02*
X0295295Y0097780D01*
X0292195Y0097780D02*
X0292195Y0103080D01*
X0288995Y0103080D02*
X0288995Y0097780D01*
X0285795Y0097780D02*
X0285795Y0103080D01*
D11*
X0266345Y0113630D03*
X0266345Y0122630D03*
X0226345Y0122630D03*
X0226345Y0113630D03*
X0212595Y0077880D03*
X0212595Y0068880D03*
X0152595Y0068630D03*
X0152595Y0077630D03*
X0255095Y0238630D03*
X0255095Y0247630D03*
X0420095Y0238880D03*
X0429095Y0238880D03*
D12*
X0245095Y0123880D03*
X0245095Y0112880D03*
D13*
X0375095Y0130130D03*
X0380095Y0130130D03*
X0385095Y0130130D03*
X0390095Y0130130D03*
X0395095Y0130130D03*
X0400095Y0130130D03*
X0405095Y0130130D03*
X0410095Y0130130D03*
X0410095Y0170130D03*
X0405095Y0170130D03*
X0400095Y0170130D03*
X0395095Y0170130D03*
X0390095Y0170130D03*
X0385095Y0170130D03*
X0380095Y0170130D03*
X0375095Y0170130D03*
D14*
X0268835Y0102630D03*
X0261355Y0102630D03*
X0183835Y0092630D03*
X0176355Y0092630D03*
D15*
X0170295Y0081530D02*
X0164295Y0081530D01*
X0189895Y0081530D02*
X0195895Y0081530D01*
X0195895Y0063730D02*
X0189895Y0063730D01*
X0170295Y0063730D02*
X0164295Y0063730D01*
X0234295Y0062480D02*
X0240295Y0062480D01*
X0259895Y0062480D02*
X0265895Y0062480D01*
X0265895Y0080280D02*
X0259895Y0080280D01*
X0240295Y0080280D02*
X0234295Y0080280D01*
X0076845Y0083880D02*
X0070845Y0083880D01*
X0070845Y0093880D02*
X0076845Y0093880D01*
X0076845Y0103880D02*
X0070845Y0103880D01*
X0070845Y0113880D02*
X0076845Y0113880D01*
X0076845Y0123880D02*
X0070845Y0123880D01*
X0070845Y0133880D02*
X0076845Y0133880D01*
X0076845Y0143880D02*
X0070845Y0143880D01*
X0072595Y0168380D02*
X0072595Y0174380D01*
X0072595Y0208380D02*
X0072595Y0214380D01*
X0408845Y0249630D02*
X0408845Y0255630D01*
X0418845Y0255630D02*
X0418845Y0249630D01*
X0428845Y0249630D02*
X0428845Y0255630D01*
D16*
X0428845Y0161370D03*
X0428845Y0153890D03*
X0333845Y0102620D03*
X0333845Y0095140D03*
X0223845Y0070120D03*
X0223845Y0062640D03*
X0091345Y0116390D03*
X0091345Y0123870D03*
X0091345Y0135140D03*
X0091345Y0142620D03*
D17*
X0136345Y0136380D03*
X0136345Y0126380D03*
X0095095Y0207630D03*
X0087595Y0212630D03*
X0095095Y0217630D03*
X0190095Y0232630D03*
X0200095Y0242630D03*
X0190095Y0252630D03*
X0335095Y0073880D03*
X0335095Y0063880D03*
D18*
X0239081Y0235130D03*
X0239081Y0240130D03*
X0239081Y0245130D03*
X0239081Y0250130D03*
X0218609Y0250130D03*
X0218609Y0245130D03*
X0218609Y0240130D03*
X0218609Y0235130D03*
D19*
X0198442Y0217630D03*
X0191749Y0217630D03*
X0164692Y0232630D03*
X0157999Y0232630D03*
X0157999Y0252630D03*
X0164692Y0252630D03*
D20*
X0160895Y0182630D02*
X0154295Y0182630D01*
X0154295Y0172630D02*
X0160895Y0172630D01*
X0160895Y0162630D02*
X0154295Y0162630D01*
D21*
X0226595Y0172630D03*
D22*
X0292595Y0248380D03*
X0081345Y0250880D03*
D23*
X0081345Y0236880D03*
X0292595Y0234380D03*
D24*
X0122595Y0060130D03*
X0366345Y0061380D03*
X0366345Y0243880D03*
X0121345Y0243880D03*
D25*
X0123845Y0103211D03*
X0120105Y0094549D03*
X0127585Y0094549D03*
X0100085Y0103211D03*
X0092605Y0103211D03*
X0096345Y0094549D03*
D26*
X0110095Y0094283D03*
X0110095Y0100976D03*
D27*
X0397595Y0198880D03*
X0407595Y0198880D03*
X0417595Y0198880D03*
X0427595Y0198880D03*
X0437595Y0198880D03*
X0437595Y0208880D03*
X0427595Y0208880D03*
X0417595Y0208880D03*
X0407595Y0208880D03*
X0397595Y0208880D03*
D28*
X0173156Y0129067D02*
X0173156Y0121193D01*
X0149140Y0121193D02*
X0149140Y0129067D01*
X0157408Y0106232D02*
X0165282Y0106232D01*
D29*
X0259945Y0165230D03*
X0268945Y0165230D03*
X0277945Y0165230D03*
D30*
X0268845Y0190030D03*
D31*
X0390469Y0116380D03*
X0398343Y0116380D03*
X0406217Y0116380D03*
X0414091Y0116380D03*
X0421965Y0116380D03*
X0429839Y0116380D03*
X0437713Y0116380D03*
X0445587Y0116380D03*
X0445587Y0052600D03*
X0437713Y0052600D03*
X0429839Y0052600D03*
X0421965Y0052600D03*
X0414091Y0052600D03*
X0406217Y0052600D03*
X0398343Y0052600D03*
X0390469Y0052600D03*
D32*
X0438770Y0137630D02*
X0443920Y0137630D01*
X0443920Y0147630D02*
X0438770Y0147630D01*
X0438770Y0157630D02*
X0443920Y0157630D01*
X0443920Y0167630D02*
X0438770Y0167630D01*
D33*
X0537802Y0152630D03*
D34*
X0236257Y0210130D03*
X0218934Y0210130D03*
X0218934Y0223880D03*
X0236257Y0223880D03*
D35*
X0181445Y0217630D02*
X0176245Y0217630D01*
X0141445Y0217630D02*
X0136245Y0217630D01*
D36*
X0116345Y0196380D03*
X0116345Y0148380D03*
D37*
X0105095Y0162630D03*
X0101345Y0168880D03*
X0171345Y0190130D03*
X0171345Y0208880D03*
X0245095Y0227630D03*
X0142595Y0248880D03*
X0142595Y0261380D03*
X0250095Y0163880D03*
X0255095Y0163880D03*
X0261345Y0153880D03*
X0275095Y0145130D03*
X0285095Y0145130D03*
X0301345Y0150130D03*
X0303845Y0143880D03*
X0313845Y0143880D03*
X0312595Y0150130D03*
X0307595Y0155130D03*
X0345095Y0135130D03*
X0351345Y0135130D03*
X0338845Y0130130D03*
X0327595Y0126380D03*
X0332595Y0117630D03*
X0351345Y0118880D03*
X0355095Y0113880D03*
X0366345Y0117630D03*
X0370095Y0108880D03*
X0355095Y0103880D03*
X0355095Y0090130D03*
X0333845Y0088880D03*
X0326345Y0093880D03*
X0317595Y0096380D03*
X0298845Y0083880D03*
X0291345Y0087630D03*
X0291345Y0092630D03*
X0317595Y0081380D03*
X0326345Y0076380D03*
X0355095Y0075130D03*
X0363845Y0077630D03*
X0390095Y0063880D03*
X0431345Y0068880D03*
X0445095Y0066380D03*
X0398845Y0093880D03*
X0390095Y0103880D03*
X0370095Y0130130D03*
X0363845Y0130130D03*
X0400095Y0145130D03*
X0411345Y0150130D03*
X0366345Y0182630D03*
X0280095Y0133880D03*
X0261345Y0140130D03*
X0253845Y0126380D03*
X0253845Y0120130D03*
X0252595Y0108880D03*
X0248845Y0100130D03*
X0203845Y0087630D03*
X0167595Y0095130D03*
X0148845Y0098880D03*
X0133845Y0106380D03*
X0133845Y0088880D03*
X0152595Y0083880D03*
X0158845Y0068880D03*
X0087595Y0070130D03*
X0087595Y0077630D03*
X0197595Y0125130D03*
X0200095Y0132630D03*
X0297595Y0110130D03*
X0302595Y0107630D03*
M02*
