%
M48
M72
T01C0.02362
T02C0.03150
T03C0.03200
T04C0.03937
T05C0.04000
T06C0.04400
T07C0.11024
T08C0.12795
T09C0.13000
%
T01
X87595Y70130
X87595Y77630
X133845Y88880
X148845Y98880
X133845Y106380
X167595Y95130
X152595Y83880
X158845Y68880
X203845Y87630
X248845Y100130
X252595Y108880
X253845Y120130
X253845Y126380
X280095Y133880
X261345Y140130
X275095Y145130
X285095Y145130
X301345Y150130
X303845Y143880
X313845Y143880
X312595Y150130
X307595Y155130
X345095Y135130
X351345Y135130
X338845Y130130
X327595Y126380
X332595Y117630
X351345Y118880
X355095Y113880
X366345Y117630
X370095Y108880
X355095Y103880
X355095Y90130
X333845Y88880
X326345Y93880
X317595Y96380
X298845Y83880
X291345Y87630
X291345Y92630
X317595Y81380
X326345Y76380
X355095Y75130
X363845Y77630
X390095Y63880
X431345Y68880
X445095Y66380
X398845Y93880
X390095Y103880
X370095Y130130
X363845Y130130
X400095Y145130
X411345Y150130
X366345Y182630
X261345Y153880
X255095Y163880
X250095Y163880
X200095Y132630
X197595Y125130
X105095Y162630
X101345Y168880
X171345Y190130
X171345Y208880
X245095Y227630
X142595Y248880
X142595Y261380
X297595Y110130
X302595Y107630
T02
X441345Y137630
X441345Y147630
X441345Y157630
X441345Y167630
T03
X292595Y234380
X292595Y248380
X200095Y242630
X190095Y252630
X190095Y232630
X178845Y217630
X138845Y217630
X95095Y217630
X87595Y212630
X95095Y207630
X81345Y236880
X81345Y250880
X136345Y136380
X136345Y126380
X335095Y73880
X335095Y63880
T04
X173156Y125130
X149140Y125130
X161345Y106232
T05
X167295Y81530
X192895Y81530
X192895Y63730
X167295Y63730
X237295Y62480
X262895Y62480
X262895Y80280
X237295Y80280
X73845Y83880
X73845Y93880
X73845Y103880
X73845Y113880
X73845Y123880
X73845Y133880
X73845Y143880
X72595Y171380
X72595Y211380
X397595Y208880
X407595Y208880
X417595Y208880
X427595Y208880
X437595Y208880
X437595Y198880
X427595Y198880
X417595Y198880
X407595Y198880
X397595Y198880
X408845Y252630
X418845Y252630
X428845Y252630
T06
X157595Y182630
X157595Y172630
X157595Y162630
T07
X122595Y60130
X366345Y61380
X366345Y243880
X121345Y243880
T08
X537802Y152630
T09
X226595Y172630
M30
