  0
SECTION
  2
HEADER
  9
$ACADVER
  1
AC1009
  9
$FILLMODE
 70
1
  9
$EXTMIN
 10
-1.6948
 20
-9.9441
 30
0.0000
  9
$EXTMAX
 10
129.8321
 20
63.1825
 30
0.0000
  0
ENDSEC
  0
SECTION
  2
TABLES
  0
TABLE
  2
LTYPE
 70
1
  0
LTYPE
  2
CONTINUOUS
 70
64
  3
Solid line
 72
65
 73
0
 40
0
  0
ENDTAB
  0
TABLE
  2
LAYER
 70
255
  0
LAYER
  2
17
 70
64
 62
110
  6
CONTINUOUS
  0
LAYER
  2
20
 70
64
 62
53
  6
CONTINUOUS
  0
LAYER
  2
23
 70
64
 62
53
  6
CONTINUOUS
  0
LAYER
  2
24
 70
64
 62
53
  6
CONTINUOUS
  0
ENDTAB
  0
ENDSEC
  0
SECTION
  2
BLOCKS
  0
BLOCK
  8
0
  2
RECT
 70
64
 10
0.0000
 20
0.0000
 30
0.0000
  3
RECT
  0
SOLID
  8
0
 10
-0.5000
 20
-0.5000
 30
0.0000
 11
0.5000
 21
-0.5000
 31
0.0000
 12
-0.5000
 22
0.5000
 32
0.0000
 13
0.5000
 23
0.5000
 33
0.0000
  0
ENDBLK
  8
0
  0
BLOCK
  8
0
  2
PIE
 70
64
 10
0.0000
 20
0.0000
 30
0.0000
  3
PIE
  0
POLYLINE
  8
0
 66
1
 10
0.0000
 20
0.0000
 30
0.0000
 40
0.5000
 41
0.5000
 70
0
  0
VERTEX
  8
0
 10
0.0000
 20
-0.2500
 30
0.0000
 42
1.0000
  0
VERTEX
  8
0
 10
0.0000
 20
0.2500
 30
0.0000
 42
1.0000
  0
VERTEX
  8
0
 10
0.0000
 20
-0.2500
 30
0.0000
  0
SEQEND
  8
0
  0
ENDBLK
  8
0
  0
BLOCK
  8
0
  2
OCTAGONP
 70
64
 10
0.0000
 20
0.0000
 30
0.0000
  3
OCTAGONP
  0
POLYLINE
  8
0
 66
1
 10
0.0000
 20
0.0000
 30
0.0000
 40
0.5000
 41
0.5000
 70
0
  0
VERTEX
  8
0
 10
-0.2500
 20
-0.1036
 30
0.0000
  0
VERTEX
  8
0
 10
-0.2500
 20
0.1036
 30
0.0000
  0
VERTEX
  8
0
 10
-0.1036
 20
0.2500
 30
0.0000
  0
VERTEX
  8
0
 10
0.1036
 20
0.2500
 30
0.0000
  0
VERTEX
  8
0
 10
0.2500
 20
0.1036
 30
0.0000
  0
VERTEX
  8
0
 10
0.2500
 20
-0.1036
 30
0.0000
  0
VERTEX
  8
0
 10
0.1036
 20
-0.2500
 30
0.0000
  0
VERTEX
  8
0
 10
-0.1036
 20
-0.2500
 30
0.0000
  0
VERTEX
  8
0
 10
-0.2500
 20
-0.1036
 30
0.0000
  0
VERTEX
  8
0
 10
-0.2500
 20
0.1036
 30
0.0000
  0
SEQEND
  8
0
  0
ENDBLK
  8
0
  0
BLOCK
  8
0
  2
SQUAREP
 70
64
 10
0.0000
 20
0.0000
 30
0.0000
  3
SQUAREP
  0
SOLID
  8
0
 10
-0.5000
 20
-0.5000
 30
0.0000
 11
0.5000
 21
-0.5000
 31
0.0000
 12
-0.5000
 22
0.5000
 32
0.0000
 13
0.5000
 23
0.5000
 33
0.0000
  0
ENDBLK
  8
0
  0
BLOCK
  8
0
  2
ROUNDP
 70
64
 10
0.0000
 20
0.0000
 30
0.0000
  3
ROUNDP
  0
POLYLINE
  8
0
 66
1
 10
0.0000
 20
0.0000
 30
0.0000
 40
0.5000
 41
0.5000
 70
0
  0
VERTEX
  8
0
 10
0.0000
 20
-0.2500
 30
0.0000
 42
1.0000
  0
VERTEX
  8
0
 10
0.0000
 20
0.2500
 30
0.0000
 42
1.0000
  0
VERTEX
  8
0
 10
0.0000
 20
-0.2500
 30
0.0000
  0
SEQEND
  8
0
  0
ENDBLK
  8
0
  0
BLOCK
  8
0
  2
ANNULUSP
 70
64
 10
0.0000
 20
0.0000
 30
0.0000
  3
ANNULUSP
  0
POLYLINE
  8
0
 66
1
 10
0.0000
 20
0.0000
 30
0.0000
 40
0.5000
 41
0.5000
 70
0
  0
VERTEX
  8
0
 10
0.0000
 20
-0.2500
 30
0.0000
 42
1.0000
  0
VERTEX
  8
0
 10
0.0000
 20
0.2500
 30
0.0000
 42
1.0000
  0
VERTEX
  8
0
 10
0.0000
 20
-0.2500
 30
0.0000
  0
SEQEND
  8
0
  0
ENDBLK
  8
0
  0
BLOCK
  8
0
  2
THERMALP
 70
64
 10
0.0000
 20
0.0000
 30
0.0000
  3
THERMALP
  0
POLYLINE
  8
0
 66
1
 10
0.0000
 20
0.0000
 30
0.0000
 40
0.1000
 41
0.1000
 70
0
  0
VERTEX
  8
0
 10
-0.2379
 20
0.4500
 30
0.0000
  0
VERTEX
  8
0
 10
0.2379
 20
0.4500
 30
0.0000
  0
SEQEND
  8
0
  0
POLYLINE
  8
0
 66
1
 10
0.0000
 20
0.0000
 30
0.0000
 40
0.0500
 41
0.0500
 70
0
  0
VERTEX
  8
0
 10
0.2379
 20
0.4250
 30
0.0000
 42
1.0000
  0
VERTEX
  8
0
 10
0.2379
 20
0.4750
 30
0.0000
  0
SEQEND
  8
0
  0
POLYLINE
  8
0
 66
1
 10
0.0000
 20
0.0000
 30
0.0000
 40
0.0500
 41
0.0500
 70
0
  0
VERTEX
  8
0
 10
-0.2379
 20
0.4750
 30
0.0000
 42
1.0000
  0
VERTEX
  8
0
 10
-0.2379
 20
0.4250
 30
0.0000
  0
SEQEND
  8
0
  0
POLYLINE
  8
0
 66
1
 10
0.0000
 20
0.0000
 30
0.0000
 40
0.1000
 41
0.1000
 70
0
  0
VERTEX
  8
0
 10
0.4500
 20
0.2379
 30
0.0000
  0
VERTEX
  8
0
 10
0.4500
 20
-0.2379
 30
0.0000
  0
SEQEND
  8
0
  0
POLYLINE
  8
0
 66
1
 10
0.0000
 20
0.0000
 30
0.0000
 40
0.0500
 41
0.0500
 70
0
  0
VERTEX
  8
0
 10
0.4250
 20
-0.2379
 30
0.0000
 42
1.0000
  0
VERTEX
  8
0
 10
0.4750
 20
-0.2379
 30
0.0000
  0
SEQEND
  8
0
  0
POLYLINE
  8
0
 66
1
 10
0.0000
 20
0.0000
 30
0.0000
 40
0.0500
 41
0.0500
 70
0
  0
VERTEX
  8
0
 10
0.4750
 20
0.2379
 30
0.0000
 42
1.0000
  0
VERTEX
  8
0
 10
0.4250
 20
0.2379
 30
0.0000
  0
SEQEND
  8
0
  0
POLYLINE
  8
0
 66
1
 10
0.0000
 20
0.0000
 30
0.0000
 40
0.1000
 41
0.1000
 70
0
  0
VERTEX
  8
0
 10
0.2379
 20
-0.4500
 30
0.0000
  0
VERTEX
  8
0
 10
-0.2379
 20
-0.4500
 30
0.0000
  0
SEQEND
  8
0
  0
POLYLINE
  8
0
 66
1
 10
0.0000
 20
0.0000
 30
0.0000
 40
0.0500
 41
0.0500
 70
0
  0
VERTEX
  8
0
 10
-0.2379
 20
-0.4250
 30
0.0000
 42
1.0000
  0
VERTEX
  8
0
 10
-0.2379
 20
-0.4750
 30
0.0000
  0
SEQEND
  8
0
  0
POLYLINE
  8
0
 66
1
 10
0.0000
 20
0.0000
 30
0.0000
 40
0.0500
 41
0.0500
 70
0
  0
VERTEX
  8
0
 10
0.2379
 20
-0.4750
 30
0.0000
 42
1.0000
  0
VERTEX
  8
0
 10
0.2379
 20
-0.4250
 30
0.0000
  0
SEQEND
  8
0
  0
POLYLINE
  8
0
 66
1
 10
0.0000
 20
0.0000
 30
0.0000
 40
0.1000
 41
0.1000
 70
0
  0
VERTEX
  8
0
 10
-0.4500
 20
-0.2379
 30
0.0000
  0
VERTEX
  8
0
 10
-0.4500
 20
0.2379
 30
0.0000
  0
SEQEND
  8
0
  0
POLYLINE
  8
0
 66
1
 10
0.0000
 20
0.0000
 30
0.0000
 40
0.0500
 41
0.0500
 70
0
  0
VERTEX
  8
0
 10
-0.4250
 20
0.2379
 30
0.0000
 42
1.0000
  0
VERTEX
  8
0
 10
-0.4750
 20
0.2379
 30
0.0000
  0
SEQEND
  8
0
  0
POLYLINE
  8
0
 66
1
 10
0.0000
 20
0.0000
 30
0.0000
 40
0.0500
 41
0.0500
 70
0
  0
VERTEX
  8
0
 10
-0.4750
 20
-0.2379
 30
0.0000
 42
1.0000
  0
VERTEX
  8
0
 10
-0.4250
 20
-0.2379
 30
0.0000
  0
SEQEND
  8
0
  0
ENDBLK
  8
0
  0
BLOCK
  8
0
  2
OCTAGONV
 70
64
 10
0.0000
 20
0.0000
 30
0.0000
  3
OCTAGONV
  0
POLYLINE
  8
0
 66
1
 10
0.0000
 20
0.0000
 30
0.0000
 40
0.5000
 41
0.5000
 70
0
  0
VERTEX
  8
0
 10
-0.2500
 20
-0.1036
 30
0.0000
  0
VERTEX
  8
0
 10
-0.2500
 20
0.1036
 30
0.0000
  0
VERTEX
  8
0
 10
-0.1036
 20
0.2500
 30
0.0000
  0
VERTEX
  8
0
 10
0.1036
 20
0.2500
 30
0.0000
  0
VERTEX
  8
0
 10
0.2500
 20
0.1036
 30
0.0000
  0
VERTEX
  8
0
 10
0.2500
 20
-0.1036
 30
0.0000
  0
VERTEX
  8
0
 10
0.1036
 20
-0.2500
 30
0.0000
  0
VERTEX
  8
0
 10
-0.1036
 20
-0.2500
 30
0.0000
  0
VERTEX
  8
0
 10
-0.2500
 20
-0.1036
 30
0.0000
  0
VERTEX
  8
0
 10
-0.2500
 20
0.1036
 30
0.0000
  0
SEQEND
  8
0
  0
ENDBLK
  8
0
  0
BLOCK
  8
0
  2
SQUAREV
 70
64
 10
0.0000
 20
0.0000
 30
0.0000
  3
SQUAREV
  0
SOLID
  8
0
 10
-0.5000
 20
-0.5000
 30
0.0000
 11
0.5000
 21
-0.5000
 31
0.0000
 12
-0.5000
 22
0.5000
 32
0.0000
 13
0.5000
 23
0.5000
 33
0.0000
  0
ENDBLK
  8
0
  0
BLOCK
  8
0
  2
ROUNDV
 70
64
 10
0.0000
 20
0.0000
 30
0.0000
  3
ROUNDV
  0
POLYLINE
  8
0
 66
1
 10
0.0000
 20
0.0000
 30
0.0000
 40
0.5000
 41
0.5000
 70
0
  0
VERTEX
  8
0
 10
0.0000
 20
-0.2500
 30
0.0000
 42
1.0000
  0
VERTEX
  8
0
 10
0.0000
 20
0.2500
 30
0.0000
 42
1.0000
  0
VERTEX
  8
0
 10
0.0000
 20
-0.2500
 30
0.0000
  0
SEQEND
  8
0
  0
ENDBLK
  8
0
  0
BLOCK
  8
0
  2
ANNULUSV
 70
64
 10
0.0000
 20
0.0000
 30
0.0000
  3
ANNULUSV
  0
POLYLINE
  8
0
 66
1
 10
0.0000
 20
0.0000
 30
0.0000
 40
0.5000
 41
0.5000
 70
0
  0
VERTEX
  8
0
 10
0.0000
 20
-0.2500
 30
0.0000
 42
1.0000
  0
VERTEX
  8
0
 10
0.0000
 20
0.2500
 30
0.0000
 42
1.0000
  0
VERTEX
  8
0
 10
0.0000
 20
-0.2500
 30
0.0000
  0
SEQEND
  8
0
  0
ENDBLK
  8
0
  0
BLOCK
  8
0
  2
THERMALV
 70
64
 10
0.0000
 20
0.0000
 30
0.0000
  3
THERMALV
  0
POLYLINE
  8
0
 66
1
 10
0.0000
 20
0.0000
 30
0.0000
 40
0.1000
 41
0.1000
 70
0
  0
VERTEX
  8
0
 10
-0.2379
 20
0.4500
 30
0.0000
  0
VERTEX
  8
0
 10
0.2379
 20
0.4500
 30
0.0000
  0
SEQEND
  8
0
  0
POLYLINE
  8
0
 66
1
 10
0.0000
 20
0.0000
 30
0.0000
 40
0.0500
 41
0.0500
 70
0
  0
VERTEX
  8
0
 10
0.2379
 20
0.4250
 30
0.0000
 42
1.0000
  0
VERTEX
  8
0
 10
0.2379
 20
0.4750
 30
0.0000
  0
SEQEND
  8
0
  0
POLYLINE
  8
0
 66
1
 10
0.0000
 20
0.0000
 30
0.0000
 40
0.0500
 41
0.0500
 70
0
  0
VERTEX
  8
0
 10
-0.2379
 20
0.4750
 30
0.0000
 42
1.0000
  0
VERTEX
  8
0
 10
-0.2379
 20
0.4250
 30
0.0000
  0
SEQEND
  8
0
  0
POLYLINE
  8
0
 66
1
 10
0.0000
 20
0.0000
 30
0.0000
 40
0.1000
 41
0.1000
 70
0
  0
VERTEX
  8
0
 10
0.4500
 20
0.2379
 30
0.0000
  0
VERTEX
  8
0
 10
0.4500
 20
-0.2379
 30
0.0000
  0
SEQEND
  8
0
  0
POLYLINE
  8
0
 66
1
 10
0.0000
 20
0.0000
 30
0.0000
 40
0.0500
 41
0.0500
 70
0
  0
VERTEX
  8
0
 10
0.4250
 20
-0.2379
 30
0.0000
 42
1.0000
  0
VERTEX
  8
0
 10
0.4750
 20
-0.2379
 30
0.0000
  0
SEQEND
  8
0
  0
POLYLINE
  8
0
 66
1
 10
0.0000
 20
0.0000
 30
0.0000
 40
0.0500
 41
0.0500
 70
0
  0
VERTEX
  8
0
 10
0.4750
 20
0.2379
 30
0.0000
 42
1.0000
  0
VERTEX
  8
0
 10
0.4250
 20
0.2379
 30
0.0000
  0
SEQEND
  8
0
  0
POLYLINE
  8
0
 66
1
 10
0.0000
 20
0.0000
 30
0.0000
 40
0.1000
 41
0.1000
 70
0
  0
VERTEX
  8
0
 10
0.2379
 20
-0.4500
 30
0.0000
  0
VERTEX
  8
0
 10
-0.2379
 20
-0.4500
 30
0.0000
  0
SEQEND
  8
0
  0
POLYLINE
  8
0
 66
1
 10
0.0000
 20
0.0000
 30
0.0000
 40
0.0500
 41
0.0500
 70
0
  0
VERTEX
  8
0
 10
-0.2379
 20
-0.4250
 30
0.0000
 42
1.0000
  0
VERTEX
  8
0
 10
-0.2379
 20
-0.4750
 30
0.0000
  0
SEQEND
  8
0
  0
POLYLINE
  8
0
 66
1
 10
0.0000
 20
0.0000
 30
0.0000
 40
0.0500
 41
0.0500
 70
0
  0
VERTEX
  8
0
 10
0.2379
 20
-0.4750
 30
0.0000
 42
1.0000
  0
VERTEX
  8
0
 10
0.2379
 20
-0.4250
 30
0.0000
  0
SEQEND
  8
0
  0
POLYLINE
  8
0
 66
1
 10
0.0000
 20
0.0000
 30
0.0000
 40
0.1000
 41
0.1000
 70
0
  0
VERTEX
  8
0
 10
-0.4500
 20
-0.2379
 30
0.0000
  0
VERTEX
  8
0
 10
-0.4500
 20
0.2379
 30
0.0000
  0
SEQEND
  8
0
  0
POLYLINE
  8
0
 66
1
 10
0.0000
 20
0.0000
 30
0.0000
 40
0.0500
 41
0.0500
 70
0
  0
VERTEX
  8
0
 10
-0.4250
 20
0.2379
 30
0.0000
 42
1.0000
  0
VERTEX
  8
0
 10
-0.4750
 20
0.2379
 30
0.0000
  0
SEQEND
  8
0
  0
POLYLINE
  8
0
 66
1
 10
0.0000
 20
0.0000
 30
0.0000
 40
0.0500
 41
0.0500
 70
0
  0
VERTEX
  8
0
 10
-0.4750
 20
-0.2379
 30
0.0000
 42
1.0000
  0
VERTEX
  8
0
 10
-0.4250
 20
-0.2379
 30
0.0000
  0
SEQEND
  8
0
  0
ENDBLK
  8
0
  0
BLOCK
  8
0
  2
LONGP100
 70
64
 10
0.0000
 20
0.0000
 30
0.0000
  3
LONGP100
  0
POLYLINE
  8
0
 66
1
 10
0.0000
 20
0.0000
 30
0.0000
 40
1.0000
 41
1.0000
 70
0
  0
VERTEX
  8
0
 10
-0.5000
 20
0.0000
 30
0.0000
  0
VERTEX
  8
0
 10
0.5000
 20
0.0000
 30
0.0000
  0
SEQEND
  8
0
  0
POLYLINE
  8
0
 66
1
 10
0.0000
 20
0.0000
 30
0.0000
 40
0.5000
 41
0.5000
 70
0
  0
VERTEX
  8
0
 10
0.5000
 20
-0.2500
 30
0.0000
 42
1.0000
  0
VERTEX
  8
0
 10
0.5000
 20
0.2500
 30
0.0000
  0
SEQEND
  8
0
  0
POLYLINE
  8
0
 66
1
 10
0.0000
 20
0.0000
 30
0.0000
 40
0.5000
 41
0.5000
 70
0
  0
VERTEX
  8
0
 10
-0.5000
 20
0.2500
 30
0.0000
 42
1.0000
  0
VERTEX
  8
0
 10
-0.5000
 20
-0.2500
 30
0.0000
  0
SEQEND
  8
0
  0
ENDBLK
  8
0
  0
ENDSEC
  0
SECTION
  2
ENTITIES
  0
LINE
  8
20
 10
3.5560
 20
52.0700
 30
0.0000
 11
92.4560
 21
52.0700
 31
0.0000
  0
LINE
  8
20
 10
110.9980
 20
52.0700
 30
0.0000
 11
121.9200
 21
52.0700
 31
0.0000
  0
LINE
  8
20
 10
2.0320
 20
1.0160
 30
0.0000
 11
2.0320
 21
50.5460
 31
0.0000
  0
LINE
  8
20
 10
65.0240
 20
0.0000
 30
0.0000
 11
65.5320
 21
-0.5080
 31
0.0000
  0
LINE
  8
20
 10
65.5320
 20
-0.5080
 30
0.0000
 11
65.5320
 21
-1.7780
 31
0.0000
  0
LINE
  8
20
 10
95.2500
 20
-4.3180
 30
0.0000
 11
107.4420
 21
-4.3180
 31
0.0000
  0
LINE
  8
20
 10
65.0240
 20
0.0000
 30
0.0000
 11
3.3020
 21
0.0000
 31
0.0000
  0
LINE
  8
20
 10
122.9360
 20
51.5620
 30
0.0000
 11
122.9360
 21
1.7780
 31
0.0000
  0
LINE
  8
20
 10
65.5320
 20
-1.7780
 30
0.0000
 11
66.0400
 21
-2.2860
 31
0.0000
  0
LINE
  8
20
 10
66.0400
 20
-2.2860
 30
0.0000
 11
94.2340
 21
-2.2860
 31
0.0000
  0
LINE
  8
20
 10
94.2340
 20
-2.2860
 30
0.0000
 11
94.7420
 21
-2.7940
 31
0.0000
  0
LINE
  8
20
 10
94.7420
 20
-2.7940
 30
0.0000
 11
94.7420
 21
-3.8100
 31
0.0000
  0
LINE
  8
20
 10
94.7420
 20
-3.8100
 30
0.0000
 11
95.2500
 21
-4.3180
 31
0.0000
  0
LINE
  8
20
 10
121.9200
 20
52.0700
 30
0.0000
 11
122.9360
 21
51.5620
 31
0.0000
  0
LINE
  8
20
 10
3.5560
 20
52.0700
 30
0.0000
 11
2.0320
 21
50.5460
 31
0.0000
  0
LINE
  8
20
 10
2.0320
 20
1.0160
 30
0.0000
 11
3.3020
 21
0.0000
 31
0.0000
  0
LINE
  8
20
 10
92.4560
 20
52.0700
 30
0.0000
 11
93.7260
 21
50.8000
 31
0.0000
  0
LINE
  8
20
 10
93.7260
 20
50.8000
 30
0.0000
 11
93.7260
 21
45.2120
 31
0.0000
  0
LINE
  8
20
 10
93.7260
 20
45.2120
 30
0.0000
 11
109.7280
 21
45.2120
 31
0.0000
  0
LINE
  8
20
 10
109.7280
 20
45.2120
 30
0.0000
 11
109.7280
 21
50.8000
 31
0.0000
  0
LINE
  8
20
 10
109.7280
 20
50.8000
 30
0.0000
 11
110.9980
 21
52.0700
 31
0.0000
  0
LINE
  8
20
 10
107.4420
 20
-4.3180
 30
0.0000
 11
107.9500
 21
-3.8100
 31
0.0000
  0
LINE
  8
20
 10
107.9500
 20
-3.8100
 30
0.0000
 11
107.9500
 21
0.5080
 31
0.0000
  0
LINE
  8
20
 10
107.9500
 20
0.5080
 30
0.0000
 11
108.4580
 21
1.2700
 31
0.0000
  0
LINE
  8
20
 10
108.4580
 20
1.2700
 30
0.0000
 11
122.4280
 21
1.2700
 31
0.0000
  0
LINE
  8
20
 10
122.4280
 20
1.2700
 30
0.0000
 11
122.9360
 21
1.7780
 31
0.0000
  0
POINT
  8
23
 10
15.9385
 20
35.1155
 30
0.0000
  0
POINT
  8
23
 10
9.5885
 20
35.1155
 30
0.0000
  0
POINT
  8
23
 10
6.4135
 20
29.4005
 30
0.0000
  0
POINT
  8
23
 10
102.1080
 20
22.3520
 30
0.0000
  0
POINT
  8
23
 10
49.1490
 20
37.7190
 30
0.0000
  0
POINT
  8
23
 10
17.8435
 20
29.4005
 30
0.0000
  0
POINT
  8
23
 10
43.5610
 20
30.8610
 30
0.0000
  0
POINT
  8
23
 10
49.0220
 20
44.3230
 30
0.0000
  0
POINT
  8
23
 10
36.5125
 20
45.2755
 30
0.0000
  0
POINT
  8
23
 10
40.8940
 20
30.8610
 30
0.0000
  0
POINT
  8
23
 10
9.5885
 20
41.3385
 30
0.0000
  0
POINT
  8
23
 10
57.0865
 20
31.1150
 30
0.0000
  0
POINT
  8
23
 10
21.9710
 20
33.2105
 30
0.0000
  0
POINT
  8
23
 10
55.1815
 20
44.3230
 30
0.0000
  0
POINT
  8
23
 10
52.2605
 20
44.3865
 30
0.0000
  0
POINT
  8
23
 10
48.9585
 20
16.7005
 30
0.0000
  0
POINT
  8
23
 10
72.3900
 20
40.8305
 30
0.0000
  0
INSERT
  8
17
  2
ROUNDP
 10
72.3900
 20
38.2905
 30
0.0000
 41
2.1844
 42
2.1844
 43
1.0000
 50
90.0000
  0
INSERT
  8
17
  2
ROUNDP
 10
72.3900
 20
38.2905
 30
0.0000
 41
2.1844
 42
2.1844
 43
1.0000
 50
90.0000
  0
INSERT
  8
17
  2
ROUNDP
 10
72.3900
 20
43.3705
 30
0.0000
 41
2.1844
 42
2.1844
 43
1.0000
 50
90.0000
  0
INSERT
  8
17
  2
ROUNDP
 10
72.3900
 20
43.3705
 30
0.0000
 41
2.1844
 42
2.1844
 43
1.0000
 50
90.0000
  0
POINT
  8
23
 10
69.9770
 20
13.0810
 30
0.0000
  0
POINT
  8
23
 10
69.9770
 20
16.1290
 30
0.0000
  0
POINT
  8
23
 10
54.0385
 20
15.9385
 30
0.0000
  0
POINT
  8
23
 10
54.0385
 20
13.5255
 30
0.0000
  0
POINT
  8
23
 10
15.9385
 20
43.6880
 30
0.0000
  0
POINT
  8
23
 10
51.8160
 20
37.7190
 30
0.0000
  0
POINT
  8
23
 10
82.1055
 20
30.7975
 30
0.0000
  0
POINT
  8
23
 10
67.1830
 20
18.0975
 30
0.0000
  0
POINT
  8
23
 10
42.9260
 20
14.7320
 30
0.0000
  0
POINT
  8
23
 10
113.4110
 20
48.1330
 30
0.0000
  0
CIRCLE
  8
20
 10
113.4110
 20
48.1330
 30
0.0000
 40
1.4000
  0
POINT
  8
23
 10
113.4110
 20
7.3660
 30
0.0000
  0
CIRCLE
  8
20
 10
113.4110
 20
7.3660
 30
0.0000
 40
1.4000
  0
POINT
  8
23
 10
10.1600
 20
48.0060
 30
0.0000
  0
CIRCLE
  8
20
 10
10.1600
 20
48.0060
 30
0.0000
 40
1.4000
  0
POINT
  8
23
 10
10.1600
 20
7.3660
 30
0.0000
  0
CIRCLE
  8
20
 10
10.1600
 20
7.3660
 30
0.0000
 40
1.4000
  0
POINT
  8
23
 10
89.9160
 20
7.3660
 30
0.0000
  0
CIRCLE
  8
20
 10
89.9160
 20
7.3660
 30
0.0000
 40
1.4000
  0
POINT
  8
23
 10
90.0430
 20
48.1330
 30
0.0000
  0
CIRCLE
  8
20
 10
90.0430
 20
48.1330
 30
0.0000
 40
1.4000
  0
POINT
  8
24
 10
5.5880
 20
39.1160
 30
0.0000
  0
POINT
  8
23
 10
101.8540
 20
37.5920
 30
0.0000
  0
POINT
  8
23
 10
42.2910
 20
16.3830
 30
0.0000
  0
POINT
  8
23
 10
65.4050
 20
11.8110
 30
0.0000
  0
POINT
  8
23
 10
92.7100
 20
20.3200
 30
0.0000
  0
POINT
  8
23
 10
44.0690
 20
41.4655
 30
0.0000
  0
POINT
  8
23
 10
28.6385
 20
30.9880
 30
0.0000
  0
POINT
  8
23
 10
101.6000
 20
-0.7620
 30
0.0000
  0
INSERT
  8
17
  2
ROUNDP
 10
99.3400
 20
1.8880
 30
0.0000
 41
1.0500
 42
1.0500
 43
1.0000
 50
90.0000
  0
INSERT
  8
17
  2
ROUNDP
 10
99.3400
 20
1.8880
 30
0.0000
 41
1.0500
 42
1.0500
 43
1.0000
 50
90.0000
  0
INSERT
  8
17
  2
ROUNDP
 10
103.8600
 20
1.8880
 30
0.0000
 41
1.0500
 42
1.0500
 43
1.0000
 50
90.0000
  0
INSERT
  8
17
  2
ROUNDP
 10
103.8600
 20
1.8880
 30
0.0000
 41
1.0500
 42
1.0500
 43
1.0000
 50
90.0000
  0
INSERT
  8
17
  2
LONGP100
 10
97.4250
 20
-1.2320
 30
0.0000
 41
0.9500
 42
0.9500
 43
1.0000
 50
90.0000
  0
INSERT
  8
17
  2
LONGP100
 10
97.4250
 20
-1.2320
 30
0.0000
 41
0.9500
 42
0.9500
 43
1.0000
 50
90.0000
  0
INSERT
  8
17
  2
LONGP100
 10
105.7750
 20
-1.2320
 30
0.0000
 41
0.9500
 42
0.9500
 43
1.0000
 50
90.0000
  0
INSERT
  8
17
  2
LONGP100
 10
105.7750
 20
-1.2320
 30
0.0000
 41
0.9500
 42
0.9500
 43
1.0000
 50
90.0000
  0
POINT
  8
23
 10
40.6400
 20
48.5140
 30
0.0000
  0
POINT
  8
23
 10
28.0035
 20
42.1005
 30
0.0000
  0
POINT
  8
23
 10
5.6515
 20
35.0520
 30
0.0000
  0
POINT
  8
23
 10
90.6780
 20
-0.2540
 30
0.0000
  0
POINT
  8
23
 10
80.5180
 20
17.2720
 30
0.0000
  0
INSERT
  8
17
  2
ROUNDP
 10
80.5180
 20
19.7720
 30
0.0000
 41
1.2000
 42
1.2000
 43
1.0000
 50
270.0000
  0
INSERT
  8
17
  2
ROUNDP
 10
80.5180
 20
19.7720
 30
0.0000
 41
1.2000
 42
1.2000
 43
1.0000
 50
270.0000
  0
INSERT
  8
17
  2
ROUNDP
 10
80.5180
 20
14.7720
 30
0.0000
 41
1.2000
 42
1.2000
 43
1.0000
 50
270.0000
  0
INSERT
  8
17
  2
ROUNDP
 10
80.5180
 20
14.7720
 30
0.0000
 41
1.2000
 42
1.2000
 43
1.0000
 50
270.0000
  0
POINT
  8
23
 10
115.5700
 20
27.9400
 30
0.0000
  0
POINT
  8
23
 10
26.1620
 20
5.3340
 30
0.0000
  0
INSERT
  8
17
  2
LONGP100
 10
22.3520
 20
5.3340
 30
0.0000
 41
1.1176
 42
1.1176
 43
1.0000
 50
90.0000
  0
INSERT
  8
17
  2
LONGP100
 10
22.3520
 20
5.3340
 30
0.0000
 41
1.1176
 42
1.1176
 43
1.0000
 50
90.0000
  0
INSERT
  8
17
  2
LONGP100
 10
24.8920
 20
5.3340
 30
0.0000
 41
1.1176
 42
1.1176
 43
1.0000
 50
90.0000
  0
INSERT
  8
17
  2
LONGP100
 10
24.8920
 20
5.3340
 30
0.0000
 41
1.1176
 42
1.1176
 43
1.0000
 50
90.0000
  0
INSERT
  8
17
  2
LONGP100
 10
27.4320
 20
5.3340
 30
0.0000
 41
1.1176
 42
1.1176
 43
1.0000
 50
90.0000
  0
INSERT
  8
17
  2
LONGP100
 10
27.4320
 20
5.3340
 30
0.0000
 41
1.1176
 42
1.1176
 43
1.0000
 50
90.0000
  0
INSERT
  8
17
  2
LONGP100
 10
29.9720
 20
5.3340
 30
0.0000
 41
1.1176
 42
1.1176
 43
1.0000
 50
90.0000
  0
INSERT
  8
17
  2
LONGP100
 10
29.9720
 20
5.3340
 30
0.0000
 41
1.1176
 42
1.1176
 43
1.0000
 50
90.0000
  0
POINT
  8
23
 10
48.5140
 20
24.3840
 30
0.0000
  0
INSERT
  8
17
  2
LONGP100
 10
45.9740
 20
24.3840
 30
0.0000
 41
1.1176
 42
1.1176
 43
1.0000
 50
90.0000
  0
INSERT
  8
17
  2
LONGP100
 10
45.9740
 20
24.3840
 30
0.0000
 41
1.1176
 42
1.1176
 43
1.0000
 50
90.0000
  0
INSERT
  8
17
  2
LONGP100
 10
48.5140
 20
24.3840
 30
0.0000
 41
1.1176
 42
1.1176
 43
1.0000
 50
90.0000
  0
INSERT
  8
17
  2
LONGP100
 10
48.5140
 20
24.3840
 30
0.0000
 41
1.1176
 42
1.1176
 43
1.0000
 50
90.0000
  0
INSERT
  8
17
  2
LONGP100
 10
51.0540
 20
24.3840
 30
0.0000
 41
1.1176
 42
1.1176
 43
1.0000
 50
90.0000
  0
INSERT
  8
17
  2
LONGP100
 10
51.0540
 20
24.3840
 30
0.0000
 41
1.1176
 42
1.1176
 43
1.0000
 50
90.0000
  0
POINT
  8
23
 10
47.2440
 20
7.8740
 30
0.0000
  0
INSERT
  8
17
  2
LONGP100
 10
42.1640
 20
7.8740
 30
0.0000
 41
1.1176
 42
1.1176
 43
1.0000
 50
90.0000
  0
INSERT
  8
17
  2
LONGP100
 10
42.1640
 20
7.8740
 30
0.0000
 41
1.1176
 42
1.1176
 43
1.0000
 50
90.0000
  0
INSERT
  8
17
  2
LONGP100
 10
44.7040
 20
7.8740
 30
0.0000
 41
1.1176
 42
1.1176
 43
1.0000
 50
90.0000
  0
INSERT
  8
17
  2
LONGP100
 10
44.7040
 20
7.8740
 30
0.0000
 41
1.1176
 42
1.1176
 43
1.0000
 50
90.0000
  0
INSERT
  8
17
  2
LONGP100
 10
47.2440
 20
7.8740
 30
0.0000
 41
1.1176
 42
1.1176
 43
1.0000
 50
90.0000
  0
INSERT
  8
17
  2
LONGP100
 10
47.2440
 20
7.8740
 30
0.0000
 41
1.1176
 42
1.1176
 43
1.0000
 50
90.0000
  0
INSERT
  8
17
  2
LONGP100
 10
49.7840
 20
7.8740
 30
0.0000
 41
1.1176
 42
1.1176
 43
1.0000
 50
90.0000
  0
INSERT
  8
17
  2
LONGP100
 10
49.7840
 20
7.8740
 30
0.0000
 41
1.1176
 42
1.1176
 43
1.0000
 50
90.0000
  0
INSERT
  8
17
  2
LONGP100
 10
52.3240
 20
7.8740
 30
0.0000
 41
1.1176
 42
1.1176
 43
1.0000
 50
90.0000
  0
INSERT
  8
17
  2
LONGP100
 10
52.3240
 20
7.8740
 30
0.0000
 41
1.1176
 42
1.1176
 43
1.0000
 50
90.0000
  0
POINT
  8
23
 10
102.3620
 20
8.6360
 30
0.0000
  0
INSERT
  8
17
  2
LONGP100
 10
107.4420
 20
8.6360
 30
0.0000
 41
1.1176
 42
1.1176
 43
1.0000
 50
270.0000
  0
INSERT
  8
17
  2
LONGP100
 10
107.4420
 20
8.6360
 30
0.0000
 41
1.1176
 42
1.1176
 43
1.0000
 50
270.0000
  0
INSERT
  8
17
  2
LONGP100
 10
104.9020
 20
8.6360
 30
0.0000
 41
1.1176
 42
1.1176
 43
1.0000
 50
270.0000
  0
INSERT
  8
17
  2
LONGP100
 10
104.9020
 20
8.6360
 30
0.0000
 41
1.1176
 42
1.1176
 43
1.0000
 50
270.0000
  0
INSERT
  8
17
  2
LONGP100
 10
102.3620
 20
8.6360
 30
0.0000
 41
1.1176
 42
1.1176
 43
1.0000
 50
270.0000
  0
INSERT
  8
17
  2
LONGP100
 10
102.3620
 20
8.6360
 30
0.0000
 41
1.1176
 42
1.1176
 43
1.0000
 50
270.0000
  0
INSERT
  8
17
  2
LONGP100
 10
99.8220
 20
8.6360
 30
0.0000
 41
1.1176
 42
1.1176
 43
1.0000
 50
270.0000
  0
INSERT
  8
17
  2
LONGP100
 10
99.8220
 20
8.6360
 30
0.0000
 41
1.1176
 42
1.1176
 43
1.0000
 50
270.0000
  0
INSERT
  8
17
  2
LONGP100
 10
97.2820
 20
8.6360
 30
0.0000
 41
1.1176
 42
1.1176
 43
1.0000
 50
270.0000
  0
INSERT
  8
17
  2
LONGP100
 10
97.2820
 20
8.6360
 30
0.0000
 41
1.1176
 42
1.1176
 43
1.0000
 50
270.0000
  0
POINT
  8
23
 10
29.6545
 20
16.7005
 30
0.0000
  0
POINT
  8
24
 10
24.6380
 20
12.1920
 30
0.0000
  0
POINT
  8
23
 10
46.1010
 20
30.8610
 30
0.0000
  0
POINT
  8
23
 10
39.6240
 20
38.8620
 30
0.0000
  0
POINT
  8
23
 10
70.6120
 20
2.5400
 30
0.0000
  0
POINT
  8
23
 10
48.8950
 20
30.8610
 30
0.0000
  0
POINT
  8
23
 10
70.8660
 20
6.6040
 30
0.0000
  0
INSERT
  8
17
  2
OCTAGONP
 10
72.1360
 20
6.6040
 30
0.0000
 41
0.8941
 42
0.8941
 43
1.0000
 50
180.0000
  0
INSERT
  8
17
  2
OCTAGONP
 10
72.1360
 20
6.6040
 30
0.0000
 41
0.8941
 42
0.8941
 43
1.0000
 50
180.0000
  0
INSERT
  8
17
  2
OCTAGONP
 10
69.5960
 20
6.6040
 30
0.0000
 41
0.8941
 42
0.8941
 43
1.0000
 50
180.0000
  0
INSERT
  8
17
  2
OCTAGONP
 10
69.5960
 20
6.6040
 30
0.0000
 41
0.8941
 42
0.8941
 43
1.0000
 50
180.0000
  0
POINT
  8
23
 10
64.0080
 20
6.0960
 30
0.0000
  0
POINT
  8
23
 10
55.0545
 20
37.5920
 30
0.0000
  0
POINT
  8
23
 10
38.1635
 20
30.8610
 30
0.0000
  0
POINT
  8
23
 10
58.1025
 20
37.5920
 30
0.0000
  0
POINT
  8
23
 10
34.9885
 20
30.9880
 30
0.0000
  0
POINT
  8
23
 10
101.8540
 20
14.4780
 30
0.0000
  0
POINT
  8
23
 10
36.4490
 20
38.8620
 30
0.0000
  0
POINT
  8
23
 10
99.0600
 20
14.4780
 30
0.0000
  0
POINT
  8
23
 10
33.7820
 20
10.9220
 30
0.0000
  0
POINT
  8
23
 10
12.7635
 20
29.4005
 30
0.0000
  0
POINT
  8
23
 10
22.6060
 20
29.4005
 30
0.0000
  0
POINT
  8
23
 10
92.2020
 20
12.1920
 30
0.0000
  0
POINT
  8
23
 10
104.6480
 20
14.4780
 30
0.0000
  0
POINT
  8
23
 10
107.4420
 20
14.4780
 30
0.0000
  0
POINT
  8
23
 10
21.6535
 20
10.9855
 30
0.0000
  0
POINT
  8
23
 10
17.2085
 20
10.9855
 30
0.0000
  0
POINT
  8
23
 10
82.0420
 20
27.6225
 30
0.0000
  0
POINT
  8
23
 10
27.1780
 20
10.9220
 30
0.0000
  0
POINT
  8
23
 10
21.6535
 20
21.7805
 30
0.0000
  0
POINT
  8
23
 10
17.2085
 20
21.7805
 30
0.0000
  0
POINT
  8
23
 10
69.9770
 20
21.9710
 30
0.0000
  0
POINT
  8
23
 10
81.0260
 20
4.0640
 30
0.0000
  0
POINT
  8
23
 10
52.5780
 20
30.8610
 30
0.0000
  0
POINT
  8
23
 10
21.6535
 20
15.4305
 30
0.0000
  0
POINT
  8
23
 10
17.2085
 20
15.4305
 30
0.0000
  0
POINT
  8
23
 10
65.9765
 20
21.3995
 30
0.0000
  0
POINT
  8
23
 10
5.4610
 20
17.6530
 30
0.0000
  0
INSERT
  8
17
  2
LONGP100
 10
5.4610
 20
25.2730
 30
0.0000
 41
1.1176
 42
1.1176
 43
1.0000
 50
0.0000
  0
INSERT
  8
17
  2
LONGP100
 10
5.4610
 20
25.2730
 30
0.0000
 41
1.1176
 42
1.1176
 43
1.0000
 50
0.0000
  0
INSERT
  8
17
  2
LONGP100
 10
5.4610
 20
22.7330
 30
0.0000
 41
1.1176
 42
1.1176
 43
1.0000
 50
0.0000
  0
INSERT
  8
17
  2
LONGP100
 10
5.4610
 20
22.7330
 30
0.0000
 41
1.1176
 42
1.1176
 43
1.0000
 50
0.0000
  0
INSERT
  8
17
  2
LONGP100
 10
5.4610
 20
20.1930
 30
0.0000
 41
1.1176
 42
1.1176
 43
1.0000
 50
0.0000
  0
INSERT
  8
17
  2
LONGP100
 10
5.4610
 20
20.1930
 30
0.0000
 41
1.1176
 42
1.1176
 43
1.0000
 50
0.0000
  0
INSERT
  8
17
  2
LONGP100
 10
5.4610
 20
17.6530
 30
0.0000
 41
1.1176
 42
1.1176
 43
1.0000
 50
0.0000
  0
INSERT
  8
17
  2
LONGP100
 10
5.4610
 20
17.6530
 30
0.0000
 41
1.1176
 42
1.1176
 43
1.0000
 50
0.0000
  0
INSERT
  8
17
  2
LONGP100
 10
5.4610
 20
15.1130
 30
0.0000
 41
1.1176
 42
1.1176
 43
1.0000
 50
0.0000
  0
INSERT
  8
17
  2
LONGP100
 10
5.4610
 20
15.1130
 30
0.0000
 41
1.1176
 42
1.1176
 43
1.0000
 50
0.0000
  0
INSERT
  8
17
  2
LONGP100
 10
5.4610
 20
12.5730
 30
0.0000
 41
1.1176
 42
1.1176
 43
1.0000
 50
0.0000
  0
INSERT
  8
17
  2
LONGP100
 10
5.4610
 20
12.5730
 30
0.0000
 41
1.1176
 42
1.1176
 43
1.0000
 50
0.0000
  0
INSERT
  8
17
  2
LONGP100
 10
5.4610
 20
10.0330
 30
0.0000
 41
1.1176
 42
1.1176
 43
1.0000
 50
0.0000
  0
INSERT
  8
17
  2
LONGP100
 10
5.4610
 20
10.0330
 30
0.0000
 41
1.1176
 42
1.1176
 43
1.0000
 50
0.0000
  0
POINT
  8
23
 10
119.3800
 20
20.0660
 30
0.0000
  0
INSERT
  8
17
  2
LONGP100
 10
119.3800
 20
27.6860
 30
0.0000
 41
1.1176
 42
1.1176
 43
1.0000
 50
0.0000
  0
INSERT
  8
17
  2
LONGP100
 10
119.3800
 20
27.6860
 30
0.0000
 41
1.1176
 42
1.1176
 43
1.0000
 50
0.0000
  0
INSERT
  8
17
  2
LONGP100
 10
119.3800
 20
25.1460
 30
0.0000
 41
1.1176
 42
1.1176
 43
1.0000
 50
0.0000
  0
INSERT
  8
17
  2
LONGP100
 10
119.3800
 20
25.1460
 30
0.0000
 41
1.1176
 42
1.1176
 43
1.0000
 50
0.0000
  0
INSERT
  8
17
  2
LONGP100
 10
119.3800
 20
22.6060
 30
0.0000
 41
1.1176
 42
1.1176
 43
1.0000
 50
0.0000
  0
INSERT
  8
17
  2
LONGP100
 10
119.3800
 20
22.6060
 30
0.0000
 41
1.1176
 42
1.1176
 43
1.0000
 50
0.0000
  0
INSERT
  8
17
  2
LONGP100
 10
119.3800
 20
20.0660
 30
0.0000
 41
1.1176
 42
1.1176
 43
1.0000
 50
0.0000
  0
INSERT
  8
17
  2
LONGP100
 10
119.3800
 20
20.0660
 30
0.0000
 41
1.1176
 42
1.1176
 43
1.0000
 50
0.0000
  0
INSERT
  8
17
  2
LONGP100
 10
119.3800
 20
17.5260
 30
0.0000
 41
1.1176
 42
1.1176
 43
1.0000
 50
0.0000
  0
INSERT
  8
17
  2
LONGP100
 10
119.3800
 20
17.5260
 30
0.0000
 41
1.1176
 42
1.1176
 43
1.0000
 50
0.0000
  0
INSERT
  8
17
  2
LONGP100
 10
119.3800
 20
14.9860
 30
0.0000
 41
1.1176
 42
1.1176
 43
1.0000
 50
0.0000
  0
INSERT
  8
17
  2
LONGP100
 10
119.3800
 20
14.9860
 30
0.0000
 41
1.1176
 42
1.1176
 43
1.0000
 50
0.0000
  0
INSERT
  8
17
  2
LONGP100
 10
119.3800
 20
12.4460
 30
0.0000
 41
1.1176
 42
1.1176
 43
1.0000
 50
0.0000
  0
INSERT
  8
17
  2
LONGP100
 10
119.3800
 20
12.4460
 30
0.0000
 41
1.1176
 42
1.1176
 43
1.0000
 50
0.0000
  0
POINT
  8
23
 10
5.5880
 20
4.0640
 30
0.0000
  0
POINT
  8
23
 10
75.6920
 20
17.2720
 30
0.0000
  0
POINT
  8
23
 10
66.2940
 20
39.6240
 30
0.0000
  0
POINT
  8
23
 10
120.6500
 20
49.5300
 30
0.0000
  0
POINT
  8
23
 10
43.4340
 20
17.0180
 30
0.0000
  0
ENDSEC
  0
EOF
