  0
SECTION
  2
HEADER
  9
$ACADVER
  1
AC1009
  9
$FILLMODE
 70
1
  9
$EXTMIN
 10
-8.2260
 20
-0.3937
 30
0.0000
  9
$EXTMAX
 10
114.0816
 20
63.1825
 30
0.0000
  0
ENDSEC
  0
SECTION
  2
TABLES
  0
TABLE
  2
LTYPE
 70
1
  0
LTYPE
  2
CONTINUOUS
 70
64
  3
Solid line
 72
65
 73
0
 40
0
  0
ENDTAB
  0
TABLE
  2
LAYER
 70
255
  0
LAYER
  2
17
 70
64
 62
110
  6
CONTINUOUS
  0
LAYER
  2
20
 70
64
 62
53
  6
CONTINUOUS
  0
LAYER
  2
21
 70
64
 62
253
  6
CONTINUOUS
  0
ENDTAB
  0
ENDSEC
  0
SECTION
  2
BLOCKS
  0
BLOCK
  8
0
  2
RECT
 70
64
 10
0.0000
 20
0.0000
 30
0.0000
  3
RECT
  0
SOLID
  8
0
 10
-0.5000
 20
-0.5000
 30
0.0000
 11
0.5000
 21
-0.5000
 31
0.0000
 12
-0.5000
 22
0.5000
 32
0.0000
 13
0.5000
 23
0.5000
 33
0.0000
  0
ENDBLK
  8
0
  0
BLOCK
  8
0
  2
PIE
 70
64
 10
0.0000
 20
0.0000
 30
0.0000
  3
PIE
  0
POLYLINE
  8
0
 66
1
 10
0.0000
 20
0.0000
 30
0.0000
 40
0.5000
 41
0.5000
 70
0
  0
VERTEX
  8
0
 10
0.0000
 20
-0.2500
 30
0.0000
 42
1.0000
  0
VERTEX
  8
0
 10
0.0000
 20
0.2500
 30
0.0000
 42
1.0000
  0
VERTEX
  8
0
 10
0.0000
 20
-0.2500
 30
0.0000
  0
SEQEND
  8
0
  0
ENDBLK
  8
0
  0
BLOCK
  8
0
  2
OCTAGONP
 70
64
 10
0.0000
 20
0.0000
 30
0.0000
  3
OCTAGONP
  0
POLYLINE
  8
0
 66
1
 10
0.0000
 20
0.0000
 30
0.0000
 40
0.5000
 41
0.5000
 70
0
  0
VERTEX
  8
0
 10
-0.2500
 20
-0.1036
 30
0.0000
  0
VERTEX
  8
0
 10
-0.2500
 20
0.1036
 30
0.0000
  0
VERTEX
  8
0
 10
-0.1036
 20
0.2500
 30
0.0000
  0
VERTEX
  8
0
 10
0.1036
 20
0.2500
 30
0.0000
  0
VERTEX
  8
0
 10
0.2500
 20
0.1036
 30
0.0000
  0
VERTEX
  8
0
 10
0.2500
 20
-0.1036
 30
0.0000
  0
VERTEX
  8
0
 10
0.1036
 20
-0.2500
 30
0.0000
  0
VERTEX
  8
0
 10
-0.1036
 20
-0.2500
 30
0.0000
  0
VERTEX
  8
0
 10
-0.2500
 20
-0.1036
 30
0.0000
  0
VERTEX
  8
0
 10
-0.2500
 20
0.1036
 30
0.0000
  0
SEQEND
  8
0
  0
ENDBLK
  8
0
  0
BLOCK
  8
0
  2
SQUAREP
 70
64
 10
0.0000
 20
0.0000
 30
0.0000
  3
SQUAREP
  0
SOLID
  8
0
 10
-0.5000
 20
-0.5000
 30
0.0000
 11
0.5000
 21
-0.5000
 31
0.0000
 12
-0.5000
 22
0.5000
 32
0.0000
 13
0.5000
 23
0.5000
 33
0.0000
  0
ENDBLK
  8
0
  0
BLOCK
  8
0
  2
ROUNDP
 70
64
 10
0.0000
 20
0.0000
 30
0.0000
  3
ROUNDP
  0
POLYLINE
  8
0
 66
1
 10
0.0000
 20
0.0000
 30
0.0000
 40
0.5000
 41
0.5000
 70
0
  0
VERTEX
  8
0
 10
0.0000
 20
-0.2500
 30
0.0000
 42
1.0000
  0
VERTEX
  8
0
 10
0.0000
 20
0.2500
 30
0.0000
 42
1.0000
  0
VERTEX
  8
0
 10
0.0000
 20
-0.2500
 30
0.0000
  0
SEQEND
  8
0
  0
ENDBLK
  8
0
  0
BLOCK
  8
0
  2
ANNULUSP
 70
64
 10
0.0000
 20
0.0000
 30
0.0000
  3
ANNULUSP
  0
POLYLINE
  8
0
 66
1
 10
0.0000
 20
0.0000
 30
0.0000
 40
0.5000
 41
0.5000
 70
0
  0
VERTEX
  8
0
 10
0.0000
 20
-0.2500
 30
0.0000
 42
1.0000
  0
VERTEX
  8
0
 10
0.0000
 20
0.2500
 30
0.0000
 42
1.0000
  0
VERTEX
  8
0
 10
0.0000
 20
-0.2500
 30
0.0000
  0
SEQEND
  8
0
  0
ENDBLK
  8
0
  0
BLOCK
  8
0
  2
THERMALP
 70
64
 10
0.0000
 20
0.0000
 30
0.0000
  3
THERMALP
  0
POLYLINE
  8
0
 66
1
 10
0.0000
 20
0.0000
 30
0.0000
 40
0.1000
 41
0.1000
 70
0
  0
VERTEX
  8
0
 10
-0.2379
 20
0.4500
 30
0.0000
  0
VERTEX
  8
0
 10
0.2379
 20
0.4500
 30
0.0000
  0
SEQEND
  8
0
  0
POLYLINE
  8
0
 66
1
 10
0.0000
 20
0.0000
 30
0.0000
 40
0.0500
 41
0.0500
 70
0
  0
VERTEX
  8
0
 10
0.2379
 20
0.4250
 30
0.0000
 42
1.0000
  0
VERTEX
  8
0
 10
0.2379
 20
0.4750
 30
0.0000
  0
SEQEND
  8
0
  0
POLYLINE
  8
0
 66
1
 10
0.0000
 20
0.0000
 30
0.0000
 40
0.0500
 41
0.0500
 70
0
  0
VERTEX
  8
0
 10
-0.2379
 20
0.4750
 30
0.0000
 42
1.0000
  0
VERTEX
  8
0
 10
-0.2379
 20
0.4250
 30
0.0000
  0
SEQEND
  8
0
  0
POLYLINE
  8
0
 66
1
 10
0.0000
 20
0.0000
 30
0.0000
 40
0.1000
 41
0.1000
 70
0
  0
VERTEX
  8
0
 10
0.4500
 20
0.2379
 30
0.0000
  0
VERTEX
  8
0
 10
0.4500
 20
-0.2379
 30
0.0000
  0
SEQEND
  8
0
  0
POLYLINE
  8
0
 66
1
 10
0.0000
 20
0.0000
 30
0.0000
 40
0.0500
 41
0.0500
 70
0
  0
VERTEX
  8
0
 10
0.4250
 20
-0.2379
 30
0.0000
 42
1.0000
  0
VERTEX
  8
0
 10
0.4750
 20
-0.2379
 30
0.0000
  0
SEQEND
  8
0
  0
POLYLINE
  8
0
 66
1
 10
0.0000
 20
0.0000
 30
0.0000
 40
0.0500
 41
0.0500
 70
0
  0
VERTEX
  8
0
 10
0.4750
 20
0.2379
 30
0.0000
 42
1.0000
  0
VERTEX
  8
0
 10
0.4250
 20
0.2379
 30
0.0000
  0
SEQEND
  8
0
  0
POLYLINE
  8
0
 66
1
 10
0.0000
 20
0.0000
 30
0.0000
 40
0.1000
 41
0.1000
 70
0
  0
VERTEX
  8
0
 10
0.2379
 20
-0.4500
 30
0.0000
  0
VERTEX
  8
0
 10
-0.2379
 20
-0.4500
 30
0.0000
  0
SEQEND
  8
0
  0
POLYLINE
  8
0
 66
1
 10
0.0000
 20
0.0000
 30
0.0000
 40
0.0500
 41
0.0500
 70
0
  0
VERTEX
  8
0
 10
-0.2379
 20
-0.4250
 30
0.0000
 42
1.0000
  0
VERTEX
  8
0
 10
-0.2379
 20
-0.4750
 30
0.0000
  0
SEQEND
  8
0
  0
POLYLINE
  8
0
 66
1
 10
0.0000
 20
0.0000
 30
0.0000
 40
0.0500
 41
0.0500
 70
0
  0
VERTEX
  8
0
 10
0.2379
 20
-0.4750
 30
0.0000
 42
1.0000
  0
VERTEX
  8
0
 10
0.2379
 20
-0.4250
 30
0.0000
  0
SEQEND
  8
0
  0
POLYLINE
  8
0
 66
1
 10
0.0000
 20
0.0000
 30
0.0000
 40
0.1000
 41
0.1000
 70
0
  0
VERTEX
  8
0
 10
-0.4500
 20
-0.2379
 30
0.0000
  0
VERTEX
  8
0
 10
-0.4500
 20
0.2379
 30
0.0000
  0
SEQEND
  8
0
  0
POLYLINE
  8
0
 66
1
 10
0.0000
 20
0.0000
 30
0.0000
 40
0.0500
 41
0.0500
 70
0
  0
VERTEX
  8
0
 10
-0.4250
 20
0.2379
 30
0.0000
 42
1.0000
  0
VERTEX
  8
0
 10
-0.4750
 20
0.2379
 30
0.0000
  0
SEQEND
  8
0
  0
POLYLINE
  8
0
 66
1
 10
0.0000
 20
0.0000
 30
0.0000
 40
0.0500
 41
0.0500
 70
0
  0
VERTEX
  8
0
 10
-0.4750
 20
-0.2379
 30
0.0000
 42
1.0000
  0
VERTEX
  8
0
 10
-0.4250
 20
-0.2379
 30
0.0000
  0
SEQEND
  8
0
  0
ENDBLK
  8
0
  0
BLOCK
  8
0
  2
OCTAGONV
 70
64
 10
0.0000
 20
0.0000
 30
0.0000
  3
OCTAGONV
  0
POLYLINE
  8
0
 66
1
 10
0.0000
 20
0.0000
 30
0.0000
 40
0.5000
 41
0.5000
 70
0
  0
VERTEX
  8
0
 10
-0.2500
 20
-0.1036
 30
0.0000
  0
VERTEX
  8
0
 10
-0.2500
 20
0.1036
 30
0.0000
  0
VERTEX
  8
0
 10
-0.1036
 20
0.2500
 30
0.0000
  0
VERTEX
  8
0
 10
0.1036
 20
0.2500
 30
0.0000
  0
VERTEX
  8
0
 10
0.2500
 20
0.1036
 30
0.0000
  0
VERTEX
  8
0
 10
0.2500
 20
-0.1036
 30
0.0000
  0
VERTEX
  8
0
 10
0.1036
 20
-0.2500
 30
0.0000
  0
VERTEX
  8
0
 10
-0.1036
 20
-0.2500
 30
0.0000
  0
VERTEX
  8
0
 10
-0.2500
 20
-0.1036
 30
0.0000
  0
VERTEX
  8
0
 10
-0.2500
 20
0.1036
 30
0.0000
  0
SEQEND
  8
0
  0
ENDBLK
  8
0
  0
BLOCK
  8
0
  2
SQUAREV
 70
64
 10
0.0000
 20
0.0000
 30
0.0000
  3
SQUAREV
  0
SOLID
  8
0
 10
-0.5000
 20
-0.5000
 30
0.0000
 11
0.5000
 21
-0.5000
 31
0.0000
 12
-0.5000
 22
0.5000
 32
0.0000
 13
0.5000
 23
0.5000
 33
0.0000
  0
ENDBLK
  8
0
  0
BLOCK
  8
0
  2
ROUNDV
 70
64
 10
0.0000
 20
0.0000
 30
0.0000
  3
ROUNDV
  0
POLYLINE
  8
0
 66
1
 10
0.0000
 20
0.0000
 30
0.0000
 40
0.5000
 41
0.5000
 70
0
  0
VERTEX
  8
0
 10
0.0000
 20
-0.2500
 30
0.0000
 42
1.0000
  0
VERTEX
  8
0
 10
0.0000
 20
0.2500
 30
0.0000
 42
1.0000
  0
VERTEX
  8
0
 10
0.0000
 20
-0.2500
 30
0.0000
  0
SEQEND
  8
0
  0
ENDBLK
  8
0
  0
BLOCK
  8
0
  2
ANNULUSV
 70
64
 10
0.0000
 20
0.0000
 30
0.0000
  3
ANNULUSV
  0
POLYLINE
  8
0
 66
1
 10
0.0000
 20
0.0000
 30
0.0000
 40
0.5000
 41
0.5000
 70
0
  0
VERTEX
  8
0
 10
0.0000
 20
-0.2500
 30
0.0000
 42
1.0000
  0
VERTEX
  8
0
 10
0.0000
 20
0.2500
 30
0.0000
 42
1.0000
  0
VERTEX
  8
0
 10
0.0000
 20
-0.2500
 30
0.0000
  0
SEQEND
  8
0
  0
ENDBLK
  8
0
  0
BLOCK
  8
0
  2
THERMALV
 70
64
 10
0.0000
 20
0.0000
 30
0.0000
  3
THERMALV
  0
POLYLINE
  8
0
 66
1
 10
0.0000
 20
0.0000
 30
0.0000
 40
0.1000
 41
0.1000
 70
0
  0
VERTEX
  8
0
 10
-0.2379
 20
0.4500
 30
0.0000
  0
VERTEX
  8
0
 10
0.2379
 20
0.4500
 30
0.0000
  0
SEQEND
  8
0
  0
POLYLINE
  8
0
 66
1
 10
0.0000
 20
0.0000
 30
0.0000
 40
0.0500
 41
0.0500
 70
0
  0
VERTEX
  8
0
 10
0.2379
 20
0.4250
 30
0.0000
 42
1.0000
  0
VERTEX
  8
0
 10
0.2379
 20
0.4750
 30
0.0000
  0
SEQEND
  8
0
  0
POLYLINE
  8
0
 66
1
 10
0.0000
 20
0.0000
 30
0.0000
 40
0.0500
 41
0.0500
 70
0
  0
VERTEX
  8
0
 10
-0.2379
 20
0.4750
 30
0.0000
 42
1.0000
  0
VERTEX
  8
0
 10
-0.2379
 20
0.4250
 30
0.0000
  0
SEQEND
  8
0
  0
POLYLINE
  8
0
 66
1
 10
0.0000
 20
0.0000
 30
0.0000
 40
0.1000
 41
0.1000
 70
0
  0
VERTEX
  8
0
 10
0.4500
 20
0.2379
 30
0.0000
  0
VERTEX
  8
0
 10
0.4500
 20
-0.2379
 30
0.0000
  0
SEQEND
  8
0
  0
POLYLINE
  8
0
 66
1
 10
0.0000
 20
0.0000
 30
0.0000
 40
0.0500
 41
0.0500
 70
0
  0
VERTEX
  8
0
 10
0.4250
 20
-0.2379
 30
0.0000
 42
1.0000
  0
VERTEX
  8
0
 10
0.4750
 20
-0.2379
 30
0.0000
  0
SEQEND
  8
0
  0
POLYLINE
  8
0
 66
1
 10
0.0000
 20
0.0000
 30
0.0000
 40
0.0500
 41
0.0500
 70
0
  0
VERTEX
  8
0
 10
0.4750
 20
0.2379
 30
0.0000
 42
1.0000
  0
VERTEX
  8
0
 10
0.4250
 20
0.2379
 30
0.0000
  0
SEQEND
  8
0
  0
POLYLINE
  8
0
 66
1
 10
0.0000
 20
0.0000
 30
0.0000
 40
0.1000
 41
0.1000
 70
0
  0
VERTEX
  8
0
 10
0.2379
 20
-0.4500
 30
0.0000
  0
VERTEX
  8
0
 10
-0.2379
 20
-0.4500
 30
0.0000
  0
SEQEND
  8
0
  0
POLYLINE
  8
0
 66
1
 10
0.0000
 20
0.0000
 30
0.0000
 40
0.0500
 41
0.0500
 70
0
  0
VERTEX
  8
0
 10
-0.2379
 20
-0.4250
 30
0.0000
 42
1.0000
  0
VERTEX
  8
0
 10
-0.2379
 20
-0.4750
 30
0.0000
  0
SEQEND
  8
0
  0
POLYLINE
  8
0
 66
1
 10
0.0000
 20
0.0000
 30
0.0000
 40
0.0500
 41
0.0500
 70
0
  0
VERTEX
  8
0
 10
0.2379
 20
-0.4750
 30
0.0000
 42
1.0000
  0
VERTEX
  8
0
 10
0.2379
 20
-0.4250
 30
0.0000
  0
SEQEND
  8
0
  0
POLYLINE
  8
0
 66
1
 10
0.0000
 20
0.0000
 30
0.0000
 40
0.1000
 41
0.1000
 70
0
  0
VERTEX
  8
0
 10
-0.4500
 20
-0.2379
 30
0.0000
  0
VERTEX
  8
0
 10
-0.4500
 20
0.2379
 30
0.0000
  0
SEQEND
  8
0
  0
POLYLINE
  8
0
 66
1
 10
0.0000
 20
0.0000
 30
0.0000
 40
0.0500
 41
0.0500
 70
0
  0
VERTEX
  8
0
 10
-0.4250
 20
0.2379
 30
0.0000
 42
1.0000
  0
VERTEX
  8
0
 10
-0.4750
 20
0.2379
 30
0.0000
  0
SEQEND
  8
0
  0
POLYLINE
  8
0
 66
1
 10
0.0000
 20
0.0000
 30
0.0000
 40
0.0500
 41
0.0500
 70
0
  0
VERTEX
  8
0
 10
-0.4750
 20
-0.2379
 30
0.0000
 42
1.0000
  0
VERTEX
  8
0
 10
-0.4250
 20
-0.2379
 30
0.0000
  0
SEQEND
  8
0
  0
ENDBLK
  8
0
  0
BLOCK
  8
0
  2
LONGP100
 70
64
 10
0.0000
 20
0.0000
 30
0.0000
  3
LONGP100
  0
POLYLINE
  8
0
 66
1
 10
0.0000
 20
0.0000
 30
0.0000
 40
1.0000
 41
1.0000
 70
0
  0
VERTEX
  8
0
 10
-0.5000
 20
0.0000
 30
0.0000
  0
VERTEX
  8
0
 10
0.5000
 20
0.0000
 30
0.0000
  0
SEQEND
  8
0
  0
POLYLINE
  8
0
 66
1
 10
0.0000
 20
0.0000
 30
0.0000
 40
0.5000
 41
0.5000
 70
0
  0
VERTEX
  8
0
 10
0.5000
 20
-0.2500
 30
0.0000
 42
1.0000
  0
VERTEX
  8
0
 10
0.5000
 20
0.2500
 30
0.0000
  0
SEQEND
  8
0
  0
POLYLINE
  8
0
 66
1
 10
0.0000
 20
0.0000
 30
0.0000
 40
0.5000
 41
0.5000
 70
0
  0
VERTEX
  8
0
 10
-0.5000
 20
0.2500
 30
0.0000
 42
1.0000
  0
VERTEX
  8
0
 10
-0.5000
 20
-0.2500
 30
0.0000
  0
SEQEND
  8
0
  0
ENDBLK
  8
0
  0
ENDSEC
  0
SECTION
  2
ENTITIES
  0
POLYLINE
  8
20
 66
1
 10
0.0000
 20
0.0000
 30
0.0000
 40
0.0762
 41
0.0762
 70
0
  0
VERTEX
  8
20
 10
8.2550
 20
58.4200
 30
0.0000
  0
VERTEX
  8
20
 10
105.0925
 20
58.4200
 30
0.0000
  0
SEQEND
  8
0
  0
POLYLINE
  8
20
 66
1
 10
0.0000
 20
0.0000
 30
0.0000
 40
0.0381
 41
0.0381
 70
0
  0
VERTEX
  8
20
 10
105.0925
 20
58.4010
 30
0.0000
 42
1.0000
  0
VERTEX
  8
20
 10
105.0925
 20
58.4391
 30
0.0000
  0
SEQEND
  8
0
  0
POLYLINE
  8
20
 66
1
 10
0.0000
 20
0.0000
 30
0.0000
 40
0.0381
 41
0.0381
 70
0
  0
VERTEX
  8
20
 10
8.2550
 20
58.4391
 30
0.0000
 42
1.0000
  0
VERTEX
  8
20
 10
8.2550
 20
58.4010
 30
0.0000
  0
SEQEND
  8
0
  0
POLYLINE
  8
20
 66
1
 10
0.0000
 20
0.0000
 30
0.0000
 40
0.0762
 41
0.0762
 70
0
  0
VERTEX
  8
20
 10
105.0925
 20
58.4200
 30
0.0000
  0
VERTEX
  8
20
 10
105.4100
 20
58.1025
 30
0.0000
  0
SEQEND
  8
0
  0
POLYLINE
  8
20
 66
1
 10
0.0000
 20
0.0000
 30
0.0000
 40
0.0381
 41
0.0381
 70
0
  0
VERTEX
  8
20
 10
105.3965
 20
58.0890
 30
0.0000
 42
1.0000
  0
VERTEX
  8
20
 10
105.4235
 20
58.1160
 30
0.0000
  0
SEQEND
  8
0
  0
POLYLINE
  8
20
 66
1
 10
0.0000
 20
0.0000
 30
0.0000
 40
0.0381
 41
0.0381
 70
0
  0
VERTEX
  8
20
 10
105.1060
 20
58.4335
 30
0.0000
 42
1.0000
  0
VERTEX
  8
20
 10
105.0790
 20
58.4065
 30
0.0000
  0
SEQEND
  8
0
  0
POLYLINE
  8
20
 66
1
 10
0.0000
 20
0.0000
 30
0.0000
 40
0.0762
 41
0.0762
 70
0
  0
VERTEX
  8
20
 10
105.4100
 20
58.1025
 30
0.0000
  0
VERTEX
  8
20
 10
105.4100
 20
34.6075
 30
0.0000
  0
SEQEND
  8
0
  0
POLYLINE
  8
20
 66
1
 10
0.0000
 20
0.0000
 30
0.0000
 40
0.0381
 41
0.0381
 70
0
  0
VERTEX
  8
20
 10
105.3910
 20
34.6075
 30
0.0000
 42
1.0000
  0
VERTEX
  8
20
 10
105.4291
 20
34.6075
 30
0.0000
  0
SEQEND
  8
0
  0
POLYLINE
  8
20
 66
1
 10
0.0000
 20
0.0000
 30
0.0000
 40
0.0381
 41
0.0381
 70
0
  0
VERTEX
  8
20
 10
105.4291
 20
58.1025
 30
0.0000
 42
1.0000
  0
VERTEX
  8
20
 10
105.3910
 20
58.1025
 30
0.0000
  0
SEQEND
  8
0
  0
POLYLINE
  8
20
 66
1
 10
0.0000
 20
0.0000
 30
0.0000
 40
0.0762
 41
0.0762
 70
0
  0
VERTEX
  8
20
 10
105.4100
 20
34.6075
 30
0.0000
  0
VERTEX
  8
20
 10
105.0925
 20
34.2900
 30
0.0000
  0
SEQEND
  8
0
  0
POLYLINE
  8
20
 66
1
 10
0.0000
 20
0.0000
 30
0.0000
 40
0.0381
 41
0.0381
 70
0
  0
VERTEX
  8
20
 10
105.0790
 20
34.3035
 30
0.0000
 42
1.0000
  0
VERTEX
  8
20
 10
105.1060
 20
34.2765
 30
0.0000
  0
SEQEND
  8
0
  0
POLYLINE
  8
20
 66
1
 10
0.0000
 20
0.0000
 30
0.0000
 40
0.0381
 41
0.0381
 70
0
  0
VERTEX
  8
20
 10
105.4235
 20
34.5940
 30
0.0000
 42
1.0000
  0
VERTEX
  8
20
 10
105.3965
 20
34.6210
 30
0.0000
  0
SEQEND
  8
0
  0
POLYLINE
  8
20
 66
1
 10
0.0000
 20
0.0000
 30
0.0000
 40
0.0762
 41
0.0762
 70
0
  0
VERTEX
  8
20
 10
105.0925
 20
34.2900
 30
0.0000
  0
VERTEX
  8
20
 10
102.5525
 20
34.2900
 30
0.0000
  0
SEQEND
  8
0
  0
POLYLINE
  8
20
 66
1
 10
0.0000
 20
0.0000
 30
0.0000
 40
0.0381
 41
0.0381
 70
0
  0
VERTEX
  8
20
 10
102.5525
 20
34.3090
 30
0.0000
 42
1.0000
  0
VERTEX
  8
20
 10
102.5525
 20
34.2709
 30
0.0000
  0
SEQEND
  8
0
  0
POLYLINE
  8
20
 66
1
 10
0.0000
 20
0.0000
 30
0.0000
 40
0.0381
 41
0.0381
 70
0
  0
VERTEX
  8
20
 10
105.0925
 20
34.2709
 30
0.0000
 42
1.0000
  0
VERTEX
  8
20
 10
105.0925
 20
34.3090
 30
0.0000
  0
SEQEND
  8
0
  0
POLYLINE
  8
20
 66
1
 10
0.0000
 20
0.0000
 30
0.0000
 40
0.0762
 41
0.0762
 70
0
  0
VERTEX
  8
20
 10
102.5525
 20
34.2900
 30
0.0000
  0
VERTEX
  8
20
 10
102.2350
 20
33.9725
 30
0.0000
  0
SEQEND
  8
0
  0
POLYLINE
  8
20
 66
1
 10
0.0000
 20
0.0000
 30
0.0000
 40
0.0381
 41
0.0381
 70
0
  0
VERTEX
  8
20
 10
102.2215
 20
33.9860
 30
0.0000
 42
1.0000
  0
VERTEX
  8
20
 10
102.2485
 20
33.9590
 30
0.0000
  0
SEQEND
  8
0
  0
POLYLINE
  8
20
 66
1
 10
0.0000
 20
0.0000
 30
0.0000
 40
0.0381
 41
0.0381
 70
0
  0
VERTEX
  8
20
 10
102.5660
 20
34.2765
 30
0.0000
 42
1.0000
  0
VERTEX
  8
20
 10
102.5390
 20
34.3035
 30
0.0000
  0
SEQEND
  8
0
  0
POLYLINE
  8
20
 66
1
 10
0.0000
 20
0.0000
 30
0.0000
 40
0.0762
 41
0.0762
 70
0
  0
VERTEX
  8
20
 10
102.2350
 20
33.9725
 30
0.0000
  0
VERTEX
  8
20
 10
102.2350
 20
26.9875
 30
0.0000
  0
SEQEND
  8
0
  0
POLYLINE
  8
20
 66
1
 10
0.0000
 20
0.0000
 30
0.0000
 40
0.0381
 41
0.0381
 70
0
  0
VERTEX
  8
20
 10
102.2160
 20
26.9875
 30
0.0000
 42
1.0000
  0
VERTEX
  8
20
 10
102.2540
 20
26.9875
 30
0.0000
  0
SEQEND
  8
0
  0
POLYLINE
  8
20
 66
1
 10
0.0000
 20
0.0000
 30
0.0000
 40
0.0381
 41
0.0381
 70
0
  0
VERTEX
  8
20
 10
102.2540
 20
33.9725
 30
0.0000
 42
1.0000
  0
VERTEX
  8
20
 10
102.2160
 20
33.9725
 30
0.0000
  0
SEQEND
  8
0
  0
POLYLINE
  8
20
 66
1
 10
0.0000
 20
0.0000
 30
0.0000
 40
0.0762
 41
0.0762
 70
0
  0
VERTEX
  8
20
 10
102.2350
 20
26.9875
 30
0.0000
  0
VERTEX
  8
20
 10
102.5525
 20
26.6700
 30
0.0000
  0
SEQEND
  8
0
  0
POLYLINE
  8
20
 66
1
 10
0.0000
 20
0.0000
 30
0.0000
 40
0.0381
 41
0.0381
 70
0
  0
VERTEX
  8
20
 10
102.5390
 20
26.6565
 30
0.0000
 42
1.0000
  0
VERTEX
  8
20
 10
102.5660
 20
26.6835
 30
0.0000
  0
SEQEND
  8
0
  0
POLYLINE
  8
20
 66
1
 10
0.0000
 20
0.0000
 30
0.0000
 40
0.0381
 41
0.0381
 70
0
  0
VERTEX
  8
20
 10
102.2485
 20
27.0010
 30
0.0000
 42
1.0000
  0
VERTEX
  8
20
 10
102.2215
 20
26.9740
 30
0.0000
  0
SEQEND
  8
0
  0
POLYLINE
  8
20
 66
1
 10
0.0000
 20
0.0000
 30
0.0000
 40
0.0762
 41
0.0762
 70
0
  0
VERTEX
  8
20
 10
102.5525
 20
26.6700
 30
0.0000
  0
VERTEX
  8
20
 10
105.0925
 20
26.6700
 30
0.0000
  0
SEQEND
  8
0
  0
POLYLINE
  8
20
 66
1
 10
0.0000
 20
0.0000
 30
0.0000
 40
0.0381
 41
0.0381
 70
0
  0
VERTEX
  8
20
 10
105.0925
 20
26.6510
 30
0.0000
 42
1.0000
  0
VERTEX
  8
20
 10
105.0925
 20
26.6891
 30
0.0000
  0
SEQEND
  8
0
  0
POLYLINE
  8
20
 66
1
 10
0.0000
 20
0.0000
 30
0.0000
 40
0.0381
 41
0.0381
 70
0
  0
VERTEX
  8
20
 10
102.5525
 20
26.6891
 30
0.0000
 42
1.0000
  0
VERTEX
  8
20
 10
102.5525
 20
26.6510
 30
0.0000
  0
SEQEND
  8
0
  0
POLYLINE
  8
20
 66
1
 10
0.0000
 20
0.0000
 30
0.0000
 40
0.0762
 41
0.0762
 70
0
  0
VERTEX
  8
20
 10
105.0925
 20
26.6700
 30
0.0000
  0
VERTEX
  8
20
 10
105.4100
 20
26.3525
 30
0.0000
  0
SEQEND
  8
0
  0
POLYLINE
  8
20
 66
1
 10
0.0000
 20
0.0000
 30
0.0000
 40
0.0381
 41
0.0381
 70
0
  0
VERTEX
  8
20
 10
105.3965
 20
26.3390
 30
0.0000
 42
1.0000
  0
VERTEX
  8
20
 10
105.4235
 20
26.3660
 30
0.0000
  0
SEQEND
  8
0
  0
POLYLINE
  8
20
 66
1
 10
0.0000
 20
0.0000
 30
0.0000
 40
0.0381
 41
0.0381
 70
0
  0
VERTEX
  8
20
 10
105.1060
 20
26.6835
 30
0.0000
 42
1.0000
  0
VERTEX
  8
20
 10
105.0790
 20
26.6565
 30
0.0000
  0
SEQEND
  8
0
  0
POLYLINE
  8
20
 66
1
 10
0.0000
 20
0.0000
 30
0.0000
 40
0.0762
 41
0.0762
 70
0
  0
VERTEX
  8
20
 10
105.4100
 20
26.3525
 30
0.0000
  0
VERTEX
  8
20
 10
105.4100
 20
6.6675
 30
0.0000
  0
SEQEND
  8
0
  0
POLYLINE
  8
20
 66
1
 10
0.0000
 20
0.0000
 30
0.0000
 40
0.0381
 41
0.0381
 70
0
  0
VERTEX
  8
20
 10
105.3910
 20
6.6675
 30
0.0000
 42
1.0000
  0
VERTEX
  8
20
 10
105.4291
 20
6.6675
 30
0.0000
  0
SEQEND
  8
0
  0
POLYLINE
  8
20
 66
1
 10
0.0000
 20
0.0000
 30
0.0000
 40
0.0381
 41
0.0381
 70
0
  0
VERTEX
  8
20
 10
105.4291
 20
26.3525
 30
0.0000
 42
1.0000
  0
VERTEX
  8
20
 10
105.3910
 20
26.3525
 30
0.0000
  0
SEQEND
  8
0
  0
POLYLINE
  8
20
 66
1
 10
0.0000
 20
0.0000
 30
0.0000
 40
0.0762
 41
0.0762
 70
0
  0
VERTEX
  8
20
 10
105.4100
 20
6.6675
 30
0.0000
  0
VERTEX
  8
20
 10
105.0925
 20
6.3500
 30
0.0000
  0
SEQEND
  8
0
  0
POLYLINE
  8
20
 66
1
 10
0.0000
 20
0.0000
 30
0.0000
 40
0.0381
 41
0.0381
 70
0
  0
VERTEX
  8
20
 10
105.0790
 20
6.3635
 30
0.0000
 42
1.0000
  0
VERTEX
  8
20
 10
105.1060
 20
6.3365
 30
0.0000
  0
SEQEND
  8
0
  0
POLYLINE
  8
20
 66
1
 10
0.0000
 20
0.0000
 30
0.0000
 40
0.0381
 41
0.0381
 70
0
  0
VERTEX
  8
20
 10
105.4235
 20
6.6540
 30
0.0000
 42
1.0000
  0
VERTEX
  8
20
 10
105.3965
 20
6.6810
 30
0.0000
  0
SEQEND
  8
0
  0
POLYLINE
  8
20
 66
1
 10
0.0000
 20
0.0000
 30
0.0000
 40
0.0762
 41
0.0762
 70
0
  0
VERTEX
  8
20
 10
105.0925
 20
6.3500
 30
0.0000
  0
VERTEX
  8
20
 10
8.2550
 20
6.3500
 30
0.0000
  0
SEQEND
  8
0
  0
POLYLINE
  8
20
 66
1
 10
0.0000
 20
0.0000
 30
0.0000
 40
0.0381
 41
0.0381
 70
0
  0
VERTEX
  8
20
 10
8.2550
 20
6.3691
 30
0.0000
 42
1.0000
  0
VERTEX
  8
20
 10
8.2550
 20
6.3310
 30
0.0000
  0
SEQEND
  8
0
  0
POLYLINE
  8
20
 66
1
 10
0.0000
 20
0.0000
 30
0.0000
 40
0.0381
 41
0.0381
 70
0
  0
VERTEX
  8
20
 10
105.0925
 20
6.3310
 30
0.0000
 42
1.0000
  0
VERTEX
  8
20
 10
105.0925
 20
6.3691
 30
0.0000
  0
SEQEND
  8
0
  0
POLYLINE
  8
20
 66
1
 10
0.0000
 20
0.0000
 30
0.0000
 40
0.0762
 41
0.0762
 70
0
  0
VERTEX
  8
20
 10
8.2550
 20
6.3500
 30
0.0000
  0
VERTEX
  8
20
 10
7.9375
 20
6.6675
 30
0.0000
  0
SEQEND
  8
0
  0
POLYLINE
  8
20
 66
1
 10
0.0000
 20
0.0000
 30
0.0000
 40
0.0381
 41
0.0381
 70
0
  0
VERTEX
  8
20
 10
7.9510
 20
6.6810
 30
0.0000
 42
1.0000
  0
VERTEX
  8
20
 10
7.9240
 20
6.6540
 30
0.0000
  0
SEQEND
  8
0
  0
POLYLINE
  8
20
 66
1
 10
0.0000
 20
0.0000
 30
0.0000
 40
0.0381
 41
0.0381
 70
0
  0
VERTEX
  8
20
 10
8.2415
 20
6.3365
 30
0.0000
 42
1.0000
  0
VERTEX
  8
20
 10
8.2685
 20
6.3635
 30
0.0000
  0
SEQEND
  8
0
  0
POLYLINE
  8
20
 66
1
 10
0.0000
 20
0.0000
 30
0.0000
 40
0.0762
 41
0.0762
 70
0
  0
VERTEX
  8
20
 10
7.9375
 20
6.6675
 30
0.0000
  0
VERTEX
  8
20
 10
7.9375
 20
58.1025
 30
0.0000
  0
SEQEND
  8
0
  0
POLYLINE
  8
20
 66
1
 10
0.0000
 20
0.0000
 30
0.0000
 40
0.0381
 41
0.0381
 70
0
  0
VERTEX
  8
20
 10
7.9566
 20
58.1025
 30
0.0000
 42
1.0000
  0
VERTEX
  8
20
 10
7.9184
 20
58.1025
 30
0.0000
  0
SEQEND
  8
0
  0
POLYLINE
  8
20
 66
1
 10
0.0000
 20
0.0000
 30
0.0000
 40
0.0381
 41
0.0381
 70
0
  0
VERTEX
  8
20
 10
7.9184
 20
6.6675
 30
0.0000
 42
1.0000
  0
VERTEX
  8
20
 10
7.9566
 20
6.6675
 30
0.0000
  0
SEQEND
  8
0
  0
POLYLINE
  8
20
 66
1
 10
0.0000
 20
0.0000
 30
0.0000
 40
0.0762
 41
0.0762
 70
0
  0
VERTEX
  8
20
 10
7.9375
 20
58.1025
 30
0.0000
  0
VERTEX
  8
20
 10
8.2550
 20
58.4200
 30
0.0000
  0
SEQEND
  8
0
  0
POLYLINE
  8
20
 66
1
 10
0.0000
 20
0.0000
 30
0.0000
 40
0.0381
 41
0.0381
 70
0
  0
VERTEX
  8
20
 10
8.2685
 20
58.4065
 30
0.0000
 42
1.0000
  0
VERTEX
  8
20
 10
8.2415
 20
58.4335
 30
0.0000
  0
SEQEND
  8
0
  0
POLYLINE
  8
20
 66
1
 10
0.0000
 20
0.0000
 30
0.0000
 40
0.0381
 41
0.0381
 70
0
  0
VERTEX
  8
20
 10
7.9240
 20
58.1160
 30
0.0000
 42
1.0000
  0
VERTEX
  8
20
 10
7.9510
 20
58.0890
 30
0.0000
  0
SEQEND
  8
0
  0
POLYLINE
  8
21
 66
1
 10
0.0000
 20
0.0000
 30
0.0000
 40
0.2032
 41
0.2032
 70
0
  0
VERTEX
  8
21
 10
56.0705
 20
23.0505
 30
0.0000
  0
VERTEX
  8
21
 10
57.5945
 20
23.0505
 30
0.0000
  0
SEQEND
  8
0
  0
POLYLINE
  8
21
 66
1
 10
0.0000
 20
0.0000
 30
0.0000
 40
0.1016
 41
0.1016
 70
0
  0
VERTEX
  8
21
 10
57.5945
 20
22.9997
 30
0.0000
 42
1.0000
  0
VERTEX
  8
21
 10
57.5945
 20
23.1013
 30
0.0000
  0
SEQEND
  8
0
  0
POLYLINE
  8
21
 66
1
 10
0.0000
 20
0.0000
 30
0.0000
 40
0.1016
 41
0.1016
 70
0
  0
VERTEX
  8
21
 10
56.0705
 20
23.1013
 30
0.0000
 42
1.0000
  0
VERTEX
  8
21
 10
56.0705
 20
22.9997
 30
0.0000
  0
SEQEND
  8
0
  0
POLYLINE
  8
21
 66
1
 10
0.0000
 20
0.0000
 30
0.0000
 40
0.2540
 41
0.2540
 70
0
  0
VERTEX
  8
21
 10
84.4550
 20
36.8075
 30
0.0000
 42
1.0000
  0
VERTEX
  8
21
 10
84.4550
 20
57.8075
 30
0.0000
 42
1.0000
  0
VERTEX
  8
21
 10
84.4550
 20
36.8075
 30
0.0000
  0
SEQEND
  8
0
  0
INSERT
  8
17
  2
ROUNDP
 10
84.4550
 20
44.7675
 30
0.0000
 41
2.1844
 42
2.1844
 43
1.0000
 50
90.0000
  0
INSERT
  8
17
  2
ROUNDP
 10
84.4550
 20
44.7675
 30
0.0000
 41
2.1844
 42
2.1844
 43
1.0000
 50
90.0000
  0
INSERT
  8
17
  2
ROUNDP
 10
84.4550
 20
49.8475
 30
0.0000
 41
2.1844
 42
2.1844
 43
1.0000
 50
90.0000
  0
INSERT
  8
17
  2
ROUNDP
 10
84.4550
 20
49.8475
 30
0.0000
 41
2.1844
 42
2.1844
 43
1.0000
 50
90.0000
  0
POLYLINE
  8
21
 66
1
 10
0.0000
 20
0.0000
 30
0.0000
 40
0.1016
 41
0.1016
 70
0
  0
VERTEX
  8
21
 10
21.9075
 20
47.9044
 30
0.0000
  0
VERTEX
  8
21
 10
21.9075
 20
52.4256
 30
0.0000
  0
SEQEND
  8
0
  0
POLYLINE
  8
21
 66
1
 10
0.0000
 20
0.0000
 30
0.0000
 40
0.0508
 41
0.0508
 70
0
  0
VERTEX
  8
21
 10
21.9329
 20
52.4256
 30
0.0000
 42
1.0000
  0
VERTEX
  8
21
 10
21.8821
 20
52.4256
 30
0.0000
  0
SEQEND
  8
0
  0
POLYLINE
  8
21
 66
1
 10
0.0000
 20
0.0000
 30
0.0000
 40
0.0508
 41
0.0508
 70
0
  0
VERTEX
  8
21
 10
21.8821
 20
47.9044
 30
0.0000
 42
1.0000
  0
VERTEX
  8
21
 10
21.9329
 20
47.9044
 30
0.0000
  0
SEQEND
  8
0
  0
POLYLINE
  8
21
 66
1
 10
0.0000
 20
0.0000
 30
0.0000
 40
0.1016
 41
0.1016
 70
0
  0
VERTEX
  8
21
 10
25.7175
 20
47.9044
 30
0.0000
  0
VERTEX
  8
21
 10
25.7175
 20
52.4256
 30
0.0000
  0
SEQEND
  8
0
  0
POLYLINE
  8
21
 66
1
 10
0.0000
 20
0.0000
 30
0.0000
 40
0.0508
 41
0.0508
 70
0
  0
VERTEX
  8
21
 10
25.7429
 20
52.4256
 30
0.0000
 42
1.0000
  0
VERTEX
  8
21
 10
25.6921
 20
52.4256
 30
0.0000
  0
SEQEND
  8
0
  0
POLYLINE
  8
21
 66
1
 10
0.0000
 20
0.0000
 30
0.0000
 40
0.0508
 41
0.0508
 70
0
  0
VERTEX
  8
21
 10
25.6921
 20
47.9044
 30
0.0000
 42
1.0000
  0
VERTEX
  8
21
 10
25.7429
 20
47.9044
 30
0.0000
  0
SEQEND
  8
0
  0
POLYLINE
  8
21
 66
1
 10
0.0000
 20
0.0000
 30
0.0000
 40
0.2032
 41
0.2032
 70
0
  0
VERTEX
  8
21
 10
22.8125
 20
50.3580
 30
0.0000
  0
VERTEX
  8
21
 10
23.8125
 20
49.3350
 30
0.0000
  0
SEQEND
  8
0
  0
POLYLINE
  8
21
 66
1
 10
0.0000
 20
0.0000
 30
0.0000
 40
0.1016
 41
0.1016
 70
0
  0
VERTEX
  8
21
 10
23.7762
 20
49.2995
 30
0.0000
 42
1.0000
  0
VERTEX
  8
21
 10
23.8488
 20
49.3705
 30
0.0000
  0
SEQEND
  8
0
  0
POLYLINE
  8
21
 66
1
 10
0.0000
 20
0.0000
 30
0.0000
 40
0.1016
 41
0.1016
 70
0
  0
VERTEX
  8
21
 10
22.8488
 20
50.3935
 30
0.0000
 42
1.0000
  0
VERTEX
  8
21
 10
22.7762
 20
50.3225
 30
0.0000
  0
SEQEND
  8
0
  0
POLYLINE
  8
21
 66
1
 10
0.0000
 20
0.0000
 30
0.0000
 40
0.2032
 41
0.2032
 70
0
  0
VERTEX
  8
21
 10
23.8125
 20
49.3350
 30
0.0000
  0
VERTEX
  8
21
 10
24.8125
 20
50.3580
 30
0.0000
  0
SEQEND
  8
0
  0
POLYLINE
  8
21
 66
1
 10
0.0000
 20
0.0000
 30
0.0000
 40
0.1016
 41
0.1016
 70
0
  0
VERTEX
  8
21
 10
24.8488
 20
50.3225
 30
0.0000
 42
1.0000
  0
VERTEX
  8
21
 10
24.7762
 20
50.3935
 30
0.0000
  0
SEQEND
  8
0
  0
POLYLINE
  8
21
 66
1
 10
0.0000
 20
0.0000
 30
0.0000
 40
0.1016
 41
0.1016
 70
0
  0
VERTEX
  8
21
 10
23.7762
 20
49.3705
 30
0.0000
 42
1.0000
  0
VERTEX
  8
21
 10
23.8488
 20
49.2995
 30
0.0000
  0
SEQEND
  8
0
  0
POLYLINE
  8
21
 66
1
 10
0.0000
 20
0.0000
 30
0.0000
 40
0.2032
 41
0.2032
 70
0
  0
VERTEX
  8
21
 10
24.8125
 20
50.3580
 30
0.0000
  0
VERTEX
  8
21
 10
22.8125
 20
50.3580
 30
0.0000
  0
SEQEND
  8
0
  0
POLYLINE
  8
21
 66
1
 10
0.0000
 20
0.0000
 30
0.0000
 40
0.1016
 41
0.1016
 70
0
  0
VERTEX
  8
21
 10
22.8125
 20
50.4088
 30
0.0000
 42
1.0000
  0
VERTEX
  8
21
 10
22.8125
 20
50.3072
 30
0.0000
  0
SEQEND
  8
0
  0
POLYLINE
  8
21
 66
1
 10
0.0000
 20
0.0000
 30
0.0000
 40
0.1016
 41
0.1016
 70
0
  0
VERTEX
  8
21
 10
24.8125
 20
50.3072
 30
0.0000
 42
1.0000
  0
VERTEX
  8
21
 10
24.8125
 20
50.4088
 30
0.0000
  0
SEQEND
  8
0
  0
POLYLINE
  8
21
 66
1
 10
0.0000
 20
0.0000
 30
0.0000
 40
0.1524
 41
0.1524
 70
0
  0
VERTEX
  8
21
 10
66.4500
 20
43.9175
 30
0.0000
  0
VERTEX
  8
21
 10
66.6900
 20
43.9175
 30
0.0000
  0
SEQEND
  8
0
  0
POLYLINE
  8
21
 66
1
 10
0.0000
 20
0.0000
 30
0.0000
 40
0.0762
 41
0.0762
 70
0
  0
VERTEX
  8
21
 10
66.6900
 20
43.8794
 30
0.0000
 42
1.0000
  0
VERTEX
  8
21
 10
66.6900
 20
43.9556
 30
0.0000
  0
SEQEND
  8
0
  0
POLYLINE
  8
21
 66
1
 10
0.0000
 20
0.0000
 30
0.0000
 40
0.0762
 41
0.0762
 70
0
  0
VERTEX
  8
21
 10
66.4500
 20
43.9556
 30
0.0000
 42
1.0000
  0
VERTEX
  8
21
 10
66.4500
 20
43.8794
 30
0.0000
  0
SEQEND
  8
0
  0
POLYLINE
  8
21
 66
1
 10
0.0000
 20
0.0000
 30
0.0000
 40
0.1524
 41
0.1524
 70
0
  0
VERTEX
  8
21
 10
66.6900
 20
43.9175
 30
0.0000
  0
VERTEX
  8
21
 10
66.6900
 20
45.6175
 30
0.0000
  0
SEQEND
  8
0
  0
POLYLINE
  8
21
 66
1
 10
0.0000
 20
0.0000
 30
0.0000
 40
0.0762
 41
0.0762
 70
0
  0
VERTEX
  8
21
 10
66.7281
 20
45.6175
 30
0.0000
 42
1.0000
  0
VERTEX
  8
21
 10
66.6519
 20
45.6175
 30
0.0000
  0
SEQEND
  8
0
  0
POLYLINE
  8
21
 66
1
 10
0.0000
 20
0.0000
 30
0.0000
 40
0.0762
 41
0.0762
 70
0
  0
VERTEX
  8
21
 10
66.6519
 20
43.9175
 30
0.0000
 42
1.0000
  0
VERTEX
  8
21
 10
66.7281
 20
43.9175
 30
0.0000
  0
SEQEND
  8
0
  0
POLYLINE
  8
21
 66
1
 10
0.0000
 20
0.0000
 30
0.0000
 40
0.1524
 41
0.1524
 70
0
  0
VERTEX
  8
21
 10
66.6900
 20
45.6175
 30
0.0000
  0
VERTEX
  8
21
 10
66.4500
 20
45.6175
 30
0.0000
  0
SEQEND
  8
0
  0
POLYLINE
  8
21
 66
1
 10
0.0000
 20
0.0000
 30
0.0000
 40
0.0762
 41
0.0762
 70
0
  0
VERTEX
  8
21
 10
66.4500
 20
45.6556
 30
0.0000
 42
1.0000
  0
VERTEX
  8
21
 10
66.4500
 20
45.5794
 30
0.0000
  0
SEQEND
  8
0
  0
POLYLINE
  8
21
 66
1
 10
0.0000
 20
0.0000
 30
0.0000
 40
0.0762
 41
0.0762
 70
0
  0
VERTEX
  8
21
 10
66.6900
 20
45.5794
 30
0.0000
 42
1.0000
  0
VERTEX
  8
21
 10
66.6900
 20
45.6556
 30
0.0000
  0
SEQEND
  8
0
  0
POLYLINE
  8
21
 66
1
 10
0.0000
 20
0.0000
 30
0.0000
 40
0.1524
 41
0.1524
 70
0
  0
VERTEX
  8
21
 10
65.6300
 20
43.9175
 30
0.0000
  0
VERTEX
  8
21
 10
65.3900
 20
43.9175
 30
0.0000
  0
SEQEND
  8
0
  0
POLYLINE
  8
21
 66
1
 10
0.0000
 20
0.0000
 30
0.0000
 40
0.0762
 41
0.0762
 70
0
  0
VERTEX
  8
21
 10
65.3900
 20
43.9556
 30
0.0000
 42
1.0000
  0
VERTEX
  8
21
 10
65.3900
 20
43.8794
 30
0.0000
  0
SEQEND
  8
0
  0
POLYLINE
  8
21
 66
1
 10
0.0000
 20
0.0000
 30
0.0000
 40
0.0762
 41
0.0762
 70
0
  0
VERTEX
  8
21
 10
65.6300
 20
43.8794
 30
0.0000
 42
1.0000
  0
VERTEX
  8
21
 10
65.6300
 20
43.9556
 30
0.0000
  0
SEQEND
  8
0
  0
POLYLINE
  8
21
 66
1
 10
0.0000
 20
0.0000
 30
0.0000
 40
0.1524
 41
0.1524
 70
0
  0
VERTEX
  8
21
 10
65.3900
 20
43.9175
 30
0.0000
  0
VERTEX
  8
21
 10
65.3900
 20
45.6175
 30
0.0000
  0
SEQEND
  8
0
  0
POLYLINE
  8
21
 66
1
 10
0.0000
 20
0.0000
 30
0.0000
 40
0.0762
 41
0.0762
 70
0
  0
VERTEX
  8
21
 10
65.4281
 20
45.6175
 30
0.0000
 42
1.0000
  0
VERTEX
  8
21
 10
65.3519
 20
45.6175
 30
0.0000
  0
SEQEND
  8
0
  0
POLYLINE
  8
21
 66
1
 10
0.0000
 20
0.0000
 30
0.0000
 40
0.0762
 41
0.0762
 70
0
  0
VERTEX
  8
21
 10
65.3519
 20
43.9175
 30
0.0000
 42
1.0000
  0
VERTEX
  8
21
 10
65.4281
 20
43.9175
 30
0.0000
  0
SEQEND
  8
0
  0
POLYLINE
  8
21
 66
1
 10
0.0000
 20
0.0000
 30
0.0000
 40
0.1524
 41
0.1524
 70
0
  0
VERTEX
  8
21
 10
65.3900
 20
45.6175
 30
0.0000
  0
VERTEX
  8
21
 10
65.6300
 20
45.6175
 30
0.0000
  0
SEQEND
  8
0
  0
POLYLINE
  8
21
 66
1
 10
0.0000
 20
0.0000
 30
0.0000
 40
0.0762
 41
0.0762
 70
0
  0
VERTEX
  8
21
 10
65.6300
 20
45.5794
 30
0.0000
 42
1.0000
  0
VERTEX
  8
21
 10
65.6300
 20
45.6556
 30
0.0000
  0
SEQEND
  8
0
  0
POLYLINE
  8
21
 66
1
 10
0.0000
 20
0.0000
 30
0.0000
 40
0.0762
 41
0.0762
 70
0
  0
VERTEX
  8
21
 10
65.3900
 20
45.6556
 30
0.0000
 42
1.0000
  0
VERTEX
  8
21
 10
65.3900
 20
45.5794
 30
0.0000
  0
SEQEND
  8
0
  0
INSERT
  8
21
  2
RECT
 10
66.0400
 20
44.2925
 30
0.0000
 41
0.2500
 42
1.3000
 43
1.0000
 50
90.0000
  0
POLYLINE
  8
21
 66
1
 10
0.0000
 20
0.0000
 30
0.0000
 40
0.1270
 41
0.1270
 70
0
  0
VERTEX
  8
21
 10
97.7900
 20
40.9575
 30
0.0000
  0
VERTEX
  8
21
 10
98.4250
 20
40.4812
 30
0.0000
  0
SEQEND
  8
0
  0
POLYLINE
  8
21
 66
1
 10
0.0000
 20
0.0000
 30
0.0000
 40
0.0635
 41
0.0635
 70
0
  0
VERTEX
  8
21
 10
98.4059
 20
40.4558
 30
0.0000
 42
1.0000
  0
VERTEX
  8
21
 10
98.4441
 20
40.5066
 30
0.0000
  0
SEQEND
  8
0
  0
POLYLINE
  8
21
 66
1
 10
0.0000
 20
0.0000
 30
0.0000
 40
0.0635
 41
0.0635
 70
0
  0
VERTEX
  8
21
 10
97.8091
 20
40.9829
 30
0.0000
 42
1.0000
  0
VERTEX
  8
21
 10
97.7709
 20
40.9321
 30
0.0000
  0
SEQEND
  8
0
  0
POLYLINE
  8
21
 66
1
 10
0.0000
 20
0.0000
 30
0.0000
 40
0.1270
 41
0.1270
 70
0
  0
VERTEX
  8
21
 10
98.4250
 20
40.4812
 30
0.0000
  0
VERTEX
  8
21
 10
98.4250
 20
40.9575
 30
0.0000
  0
SEQEND
  8
0
  0
POLYLINE
  8
21
 66
1
 10
0.0000
 20
0.0000
 30
0.0000
 40
0.0635
 41
0.0635
 70
0
  0
VERTEX
  8
21
 10
98.4568
 20
40.9575
 30
0.0000
 42
1.0000
  0
VERTEX
  8
21
 10
98.3933
 20
40.9575
 30
0.0000
  0
SEQEND
  8
0
  0
POLYLINE
  8
21
 66
1
 10
0.0000
 20
0.0000
 30
0.0000
 40
0.0635
 41
0.0635
 70
0
  0
VERTEX
  8
21
 10
98.3933
 20
40.4812
 30
0.0000
 42
1.0000
  0
VERTEX
  8
21
 10
98.4568
 20
40.4812
 30
0.0000
  0
SEQEND
  8
0
  0
POLYLINE
  8
21
 66
1
 10
0.0000
 20
0.0000
 30
0.0000
 40
0.1270
 41
0.1270
 70
0
  0
VERTEX
  8
21
 10
98.4250
 20
40.9575
 30
0.0000
  0
VERTEX
  8
21
 10
98.4250
 20
41.4338
 30
0.0000
  0
SEQEND
  8
0
  0
POLYLINE
  8
21
 66
1
 10
0.0000
 20
0.0000
 30
0.0000
 40
0.0635
 41
0.0635
 70
0
  0
VERTEX
  8
21
 10
98.4568
 20
41.4338
 30
0.0000
 42
1.0000
  0
VERTEX
  8
21
 10
98.3933
 20
41.4338
 30
0.0000
  0
SEQEND
  8
0
  0
POLYLINE
  8
21
 66
1
 10
0.0000
 20
0.0000
 30
0.0000
 40
0.0635
 41
0.0635
 70
0
  0
VERTEX
  8
21
 10
98.3933
 20
40.9575
 30
0.0000
 42
1.0000
  0
VERTEX
  8
21
 10
98.4568
 20
40.9575
 30
0.0000
  0
SEQEND
  8
0
  0
POLYLINE
  8
21
 66
1
 10
0.0000
 20
0.0000
 30
0.0000
 40
0.1270
 41
0.1270
 70
0
  0
VERTEX
  8
21
 10
98.4250
 20
41.4338
 30
0.0000
  0
VERTEX
  8
21
 10
97.7900
 20
40.9575
 30
0.0000
  0
SEQEND
  8
0
  0
POLYLINE
  8
21
 66
1
 10
0.0000
 20
0.0000
 30
0.0000
 40
0.0635
 41
0.0635
 70
0
  0
VERTEX
  8
21
 10
97.7709
 20
40.9829
 30
0.0000
 42
1.0000
  0
VERTEX
  8
21
 10
97.8091
 20
40.9321
 30
0.0000
  0
SEQEND
  8
0
  0
POLYLINE
  8
21
 66
1
 10
0.0000
 20
0.0000
 30
0.0000
 40
0.0635
 41
0.0635
 70
0
  0
VERTEX
  8
21
 10
98.4441
 20
41.4084
 30
0.0000
 42
1.0000
  0
VERTEX
  8
21
 10
98.4059
 20
41.4592
 30
0.0000
  0
SEQEND
  8
0
  0
POLYLINE
  8
21
 66
1
 10
0.0000
 20
0.0000
 30
0.0000
 40
0.1270
 41
0.1270
 70
0
  0
VERTEX
  8
21
 10
97.7900
 20
40.9575
 30
0.0000
  0
VERTEX
  8
21
 10
97.7900
 20
40.4812
 30
0.0000
  0
SEQEND
  8
0
  0
POLYLINE
  8
21
 66
1
 10
0.0000
 20
0.0000
 30
0.0000
 40
0.0635
 41
0.0635
 70
0
  0
VERTEX
  8
21
 10
97.7583
 20
40.4812
 30
0.0000
 42
1.0000
  0
VERTEX
  8
21
 10
97.8218
 20
40.4812
 30
0.0000
  0
SEQEND
  8
0
  0
POLYLINE
  8
21
 66
1
 10
0.0000
 20
0.0000
 30
0.0000
 40
0.0635
 41
0.0635
 70
0
  0
VERTEX
  8
21
 10
97.8218
 20
40.9575
 30
0.0000
 42
1.0000
  0
VERTEX
  8
21
 10
97.7583
 20
40.9575
 30
0.0000
  0
SEQEND
  8
0
  0
POLYLINE
  8
21
 66
1
 10
0.0000
 20
0.0000
 30
0.0000
 40
0.1270
 41
0.1270
 70
0
  0
VERTEX
  8
21
 10
97.7900
 20
40.9575
 30
0.0000
  0
VERTEX
  8
21
 10
97.7900
 20
41.4338
 30
0.0000
  0
SEQEND
  8
0
  0
POLYLINE
  8
21
 66
1
 10
0.0000
 20
0.0000
 30
0.0000
 40
0.0635
 41
0.0635
 70
0
  0
VERTEX
  8
21
 10
97.8218
 20
41.4338
 30
0.0000
 42
1.0000
  0
VERTEX
  8
21
 10
97.7583
 20
41.4338
 30
0.0000
  0
SEQEND
  8
0
  0
POLYLINE
  8
21
 66
1
 10
0.0000
 20
0.0000
 30
0.0000
 40
0.0635
 41
0.0635
 70
0
  0
VERTEX
  8
21
 10
97.7583
 20
40.9575
 30
0.0000
 42
1.0000
  0
VERTEX
  8
21
 10
97.8218
 20
40.9575
 30
0.0000
  0
SEQEND
  8
0
  0
POLYLINE
  8
21
 66
1
 10
0.0000
 20
0.0000
 30
0.0000
 40
0.1270
 41
0.1270
 70
0
  0
VERTEX
  8
21
 10
98.4250
 20
40.9575
 30
0.0000
  0
VERTEX
  8
21
 10
98.6688
 20
40.9575
 30
0.0000
  0
SEQEND
  8
0
  0
POLYLINE
  8
21
 66
1
 10
0.0000
 20
0.0000
 30
0.0000
 40
0.0635
 41
0.0635
 70
0
  0
VERTEX
  8
21
 10
98.6688
 20
40.9258
 30
0.0000
 42
1.0000
  0
VERTEX
  8
21
 10
98.6688
 20
40.9893
 30
0.0000
  0
SEQEND
  8
0
  0
POLYLINE
  8
21
 66
1
 10
0.0000
 20
0.0000
 30
0.0000
 40
0.0635
 41
0.0635
 70
0
  0
VERTEX
  8
21
 10
98.4250
 20
40.9893
 30
0.0000
 42
1.0000
  0
VERTEX
  8
21
 10
98.4250
 20
40.9258
 30
0.0000
  0
SEQEND
  8
0
  0
POLYLINE
  8
21
 66
1
 10
0.0000
 20
0.0000
 30
0.0000
 40
0.1270
 41
0.1270
 70
0
  0
VERTEX
  8
21
 10
97.7900
 20
40.9575
 30
0.0000
  0
VERTEX
  8
21
 10
97.5462
 20
40.9575
 30
0.0000
  0
SEQEND
  8
0
  0
POLYLINE
  8
21
 66
1
 10
0.0000
 20
0.0000
 30
0.0000
 40
0.0635
 41
0.0635
 70
0
  0
VERTEX
  8
21
 10
97.5462
 20
40.9893
 30
0.0000
 42
1.0000
  0
VERTEX
  8
21
 10
97.5462
 20
40.9258
 30
0.0000
  0
SEQEND
  8
0
  0
POLYLINE
  8
21
 66
1
 10
0.0000
 20
0.0000
 30
0.0000
 40
0.0635
 41
0.0635
 70
0
  0
VERTEX
  8
21
 10
97.7900
 20
40.9258
 30
0.0000
 42
1.0000
  0
VERTEX
  8
21
 10
97.7900
 20
40.9893
 30
0.0000
  0
SEQEND
  8
0
  0
POLYLINE
  8
21
 66
1
 10
0.0000
 20
0.0000
 30
0.0000
 40
0.1524
 41
0.1524
 70
0
  0
VERTEX
  8
21
 10
15.8750
 20
47.5615
 30
0.0000
 42
1.0000
  0
VERTEX
  8
21
 10
15.8750
 20
53.4035
 30
0.0000
 42
1.0000
  0
VERTEX
  8
21
 10
15.8750
 20
47.5615
 30
0.0000
  0
SEQEND
  8
0
  0
POLYLINE
  8
21
 66
1
 10
0.0000
 20
0.0000
 30
0.0000
 40
0.2032
 41
0.2032
 70
0
  0
VERTEX
  8
21
 10
15.8750
 20
48.9825
 30
0.0000
 42
1.0000
  0
VERTEX
  8
21
 10
15.8750
 20
51.9825
 30
0.0000
 42
1.0000
  0
VERTEX
  8
21
 10
15.8750
 20
48.9825
 30
0.0000
  0
SEQEND
  8
0
  0
CIRCLE
  8
20
 10
15.8750
 20
50.4825
 30
0.0000
 40
1.4000
  0
POLYLINE
  8
21
 66
1
 10
0.0000
 20
0.0000
 30
0.0000
 40
0.1524
 41
0.1524
 70
0
  0
VERTEX
  8
21
 10
15.8750
 20
8.1915
 30
0.0000
 42
1.0000
  0
VERTEX
  8
21
 10
15.8750
 20
14.0335
 30
0.0000
 42
1.0000
  0
VERTEX
  8
21
 10
15.8750
 20
8.1915
 30
0.0000
  0
SEQEND
  8
0
  0
POLYLINE
  8
21
 66
1
 10
0.0000
 20
0.0000
 30
0.0000
 40
0.2032
 41
0.2032
 70
0
  0
VERTEX
  8
21
 10
15.8750
 20
9.6125
 30
0.0000
 42
1.0000
  0
VERTEX
  8
21
 10
15.8750
 20
12.6125
 30
0.0000
 42
1.0000
  0
VERTEX
  8
21
 10
15.8750
 20
9.6125
 30
0.0000
  0
SEQEND
  8
0
  0
CIRCLE
  8
20
 10
15.8750
 20
11.1125
 30
0.0000
 40
1.4000
  0
POLYLINE
  8
21
 66
1
 10
0.0000
 20
0.0000
 30
0.0000
 40
0.1524
 41
0.1524
 70
0
  0
VERTEX
  8
21
 10
100.0125
 20
8.1915
 30
0.0000
 42
1.0000
  0
VERTEX
  8
21
 10
100.0125
 20
14.0335
 30
0.0000
 42
1.0000
  0
VERTEX
  8
21
 10
100.0125
 20
8.1915
 30
0.0000
  0
SEQEND
  8
0
  0
POLYLINE
  8
21
 66
1
 10
0.0000
 20
0.0000
 30
0.0000
 40
0.2032
 41
0.2032
 70
0
  0
VERTEX
  8
21
 10
100.0125
 20
9.6125
 30
0.0000
 42
1.0000
  0
VERTEX
  8
21
 10
100.0125
 20
12.6125
 30
0.0000
 42
1.0000
  0
VERTEX
  8
21
 10
100.0125
 20
9.6125
 30
0.0000
  0
SEQEND
  8
0
  0
CIRCLE
  8
20
 10
100.0125
 20
11.1125
 30
0.0000
 40
1.4000
  0
POLYLINE
  8
21
 66
1
 10
0.0000
 20
0.0000
 30
0.0000
 40
0.1524
 41
0.1524
 70
0
  0
VERTEX
  8
21
 10
100.0125
 20
47.8790
 30
0.0000
 42
1.0000
  0
VERTEX
  8
21
 10
100.0125
 20
53.7210
 30
0.0000
 42
1.0000
  0
VERTEX
  8
21
 10
100.0125
 20
47.8790
 30
0.0000
  0
SEQEND
  8
0
  0
POLYLINE
  8
21
 66
1
 10
0.0000
 20
0.0000
 30
0.0000
 40
0.2032
 41
0.2032
 70
0
  0
VERTEX
  8
21
 10
100.0125
 20
49.3000
 30
0.0000
 42
1.0000
  0
VERTEX
  8
21
 10
100.0125
 20
52.3000
 30
0.0000
 42
1.0000
  0
VERTEX
  8
21
 10
100.0125
 20
49.3000
 30
0.0000
  0
SEQEND
  8
0
  0
CIRCLE
  8
20
 10
100.0125
 20
50.8000
 30
0.0000
 40
1.4000
  0
POLYLINE
  8
21
 66
1
 10
0.0000
 20
0.0000
 30
0.0000
 40
0.2032
 41
0.2032
 70
0
  0
VERTEX
  8
21
 10
73.7870
 20
14.8384
 30
0.0000
 42
1.0000
  0
VERTEX
  8
21
 10
73.7870
 20
15.6416
 30
0.0000
 42
1.0000
  0
VERTEX
  8
21
 10
73.7870
 20
14.8384
 30
0.0000
  0
SEQEND
  8
0
  0
POLYLINE
  8
21
 66
1
 10
0.0000
 20
0.0000
 30
0.0000
 40
0.2000
 41
0.2000
 70
0
  0
VERTEX
  8
21
 10
52.7950
 20
46.3425
 30
0.0000
  0
VERTEX
  8
21
 10
52.7950
 20
49.5425
 30
0.0000
  0
SEQEND
  8
0
  0
POLYLINE
  8
21
 66
1
 10
0.0000
 20
0.0000
 30
0.0000
 40
0.1000
 41
0.1000
 70
0
  0
VERTEX
  8
21
 10
52.8450
 20
49.5425
 30
0.0000
 42
1.0000
  0
VERTEX
  8
21
 10
52.7450
 20
49.5425
 30
0.0000
  0
SEQEND
  8
0
  0
POLYLINE
  8
21
 66
1
 10
0.0000
 20
0.0000
 30
0.0000
 40
0.1000
 41
0.1000
 70
0
  0
VERTEX
  8
21
 10
52.7450
 20
46.3425
 30
0.0000
 42
1.0000
  0
VERTEX
  8
21
 10
52.8450
 20
46.3425
 30
0.0000
  0
SEQEND
  8
0
  0
POLYLINE
  8
21
 66
1
 10
0.0000
 20
0.0000
 30
0.0000
 40
0.2000
 41
0.2000
 70
0
  0
VERTEX
  8
21
 10
52.7950
 20
49.5425
 30
0.0000
  0
VERTEX
  8
21
 10
57.6950
 20
49.5425
 30
0.0000
  0
SEQEND
  8
0
  0
POLYLINE
  8
21
 66
1
 10
0.0000
 20
0.0000
 30
0.0000
 40
0.1000
 41
0.1000
 70
0
  0
VERTEX
  8
21
 10
57.6950
 20
49.4925
 30
0.0000
 42
1.0000
  0
VERTEX
  8
21
 10
57.6950
 20
49.5925
 30
0.0000
  0
SEQEND
  8
0
  0
POLYLINE
  8
21
 66
1
 10
0.0000
 20
0.0000
 30
0.0000
 40
0.1000
 41
0.1000
 70
0
  0
VERTEX
  8
21
 10
52.7950
 20
49.5925
 30
0.0000
 42
1.0000
  0
VERTEX
  8
21
 10
52.7950
 20
49.4925
 30
0.0000
  0
SEQEND
  8
0
  0
POLYLINE
  8
21
 66
1
 10
0.0000
 20
0.0000
 30
0.0000
 40
0.2000
 41
0.2000
 70
0
  0
VERTEX
  8
21
 10
57.6950
 20
49.5425
 30
0.0000
  0
VERTEX
  8
21
 10
57.6950
 20
46.3425
 30
0.0000
  0
SEQEND
  8
0
  0
POLYLINE
  8
21
 66
1
 10
0.0000
 20
0.0000
 30
0.0000
 40
0.1000
 41
0.1000
 70
0
  0
VERTEX
  8
21
 10
57.6450
 20
46.3425
 30
0.0000
 42
1.0000
  0
VERTEX
  8
21
 10
57.7450
 20
46.3425
 30
0.0000
  0
SEQEND
  8
0
  0
POLYLINE
  8
21
 66
1
 10
0.0000
 20
0.0000
 30
0.0000
 40
0.1000
 41
0.1000
 70
0
  0
VERTEX
  8
21
 10
57.7450
 20
49.5425
 30
0.0000
 42
1.0000
  0
VERTEX
  8
21
 10
57.6450
 20
49.5425
 30
0.0000
  0
SEQEND
  8
0
  0
POLYLINE
  8
21
 66
1
 10
0.0000
 20
0.0000
 30
0.0000
 40
0.2000
 41
0.2000
 70
0
  0
VERTEX
  8
21
 10
57.6950
 20
46.3425
 30
0.0000
  0
VERTEX
  8
21
 10
52.7950
 20
46.3425
 30
0.0000
  0
SEQEND
  8
0
  0
POLYLINE
  8
21
 66
1
 10
0.0000
 20
0.0000
 30
0.0000
 40
0.1000
 41
0.1000
 70
0
  0
VERTEX
  8
21
 10
52.7950
 20
46.3925
 30
0.0000
 42
1.0000
  0
VERTEX
  8
21
 10
52.7950
 20
46.2925
 30
0.0000
  0
SEQEND
  8
0
  0
POLYLINE
  8
21
 66
1
 10
0.0000
 20
0.0000
 30
0.0000
 40
0.1000
 41
0.1000
 70
0
  0
VERTEX
  8
21
 10
57.6950
 20
46.2925
 30
0.0000
 42
1.0000
  0
VERTEX
  8
21
 10
57.6950
 20
46.3925
 30
0.0000
  0
SEQEND
  8
0
  0
POLYLINE
  8
21
 66
1
 10
0.0000
 20
0.0000
 30
0.0000
 40
0.2000
 41
0.2000
 70
0
  0
VERTEX
  8
21
 10
52.6650
 20
44.4675
 30
0.0000
  0
VERTEX
  8
21
 10
52.6650
 20
45.9925
 30
0.0000
  0
SEQEND
  8
0
  0
POLYLINE
  8
21
 66
1
 10
0.0000
 20
0.0000
 30
0.0000
 40
0.1000
 41
0.1000
 70
0
  0
VERTEX
  8
21
 10
52.7150
 20
45.9925
 30
0.0000
 42
1.0000
  0
VERTEX
  8
21
 10
52.6150
 20
45.9925
 30
0.0000
  0
SEQEND
  8
0
  0
POLYLINE
  8
21
 66
1
 10
0.0000
 20
0.0000
 30
0.0000
 40
0.1000
 41
0.1000
 70
0
  0
VERTEX
  8
21
 10
52.6150
 20
44.4675
 30
0.0000
 42
1.0000
  0
VERTEX
  8
21
 10
52.7150
 20
44.4675
 30
0.0000
  0
SEQEND
  8
0
  0
POLYLINE
  8
21
 66
1
 10
0.0000
 20
0.0000
 30
0.0000
 40
0.2000
 41
0.2000
 70
0
  0
VERTEX
  8
21
 10
34.0625
 20
35.8650
 30
0.0000
  0
VERTEX
  8
21
 10
34.0625
 20
39.0650
 30
0.0000
  0
SEQEND
  8
0
  0
POLYLINE
  8
21
 66
1
 10
0.0000
 20
0.0000
 30
0.0000
 40
0.1000
 41
0.1000
 70
0
  0
VERTEX
  8
21
 10
34.1125
 20
39.0650
 30
0.0000
 42
1.0000
  0
VERTEX
  8
21
 10
34.0125
 20
39.0650
 30
0.0000
  0
SEQEND
  8
0
  0
POLYLINE
  8
21
 66
1
 10
0.0000
 20
0.0000
 30
0.0000
 40
0.1000
 41
0.1000
 70
0
  0
VERTEX
  8
21
 10
34.0125
 20
35.8650
 30
0.0000
 42
1.0000
  0
VERTEX
  8
21
 10
34.1125
 20
35.8650
 30
0.0000
  0
SEQEND
  8
0
  0
POLYLINE
  8
21
 66
1
 10
0.0000
 20
0.0000
 30
0.0000
 40
0.2000
 41
0.2000
 70
0
  0
VERTEX
  8
21
 10
34.0625
 20
39.0650
 30
0.0000
  0
VERTEX
  8
21
 10
38.9625
 20
39.0650
 30
0.0000
  0
SEQEND
  8
0
  0
POLYLINE
  8
21
 66
1
 10
0.0000
 20
0.0000
 30
0.0000
 40
0.1000
 41
0.1000
 70
0
  0
VERTEX
  8
21
 10
38.9625
 20
39.0150
 30
0.0000
 42
1.0000
  0
VERTEX
  8
21
 10
38.9625
 20
39.1150
 30
0.0000
  0
SEQEND
  8
0
  0
POLYLINE
  8
21
 66
1
 10
0.0000
 20
0.0000
 30
0.0000
 40
0.1000
 41
0.1000
 70
0
  0
VERTEX
  8
21
 10
34.0625
 20
39.1150
 30
0.0000
 42
1.0000
  0
VERTEX
  8
21
 10
34.0625
 20
39.0150
 30
0.0000
  0
SEQEND
  8
0
  0
POLYLINE
  8
21
 66
1
 10
0.0000
 20
0.0000
 30
0.0000
 40
0.2000
 41
0.2000
 70
0
  0
VERTEX
  8
21
 10
38.9625
 20
39.0650
 30
0.0000
  0
VERTEX
  8
21
 10
38.9625
 20
35.8650
 30
0.0000
  0
SEQEND
  8
0
  0
POLYLINE
  8
21
 66
1
 10
0.0000
 20
0.0000
 30
0.0000
 40
0.1000
 41
0.1000
 70
0
  0
VERTEX
  8
21
 10
38.9125
 20
35.8650
 30
0.0000
 42
1.0000
  0
VERTEX
  8
21
 10
39.0125
 20
35.8650
 30
0.0000
  0
SEQEND
  8
0
  0
POLYLINE
  8
21
 66
1
 10
0.0000
 20
0.0000
 30
0.0000
 40
0.1000
 41
0.1000
 70
0
  0
VERTEX
  8
21
 10
39.0125
 20
39.0650
 30
0.0000
 42
1.0000
  0
VERTEX
  8
21
 10
38.9125
 20
39.0650
 30
0.0000
  0
SEQEND
  8
0
  0
POLYLINE
  8
21
 66
1
 10
0.0000
 20
0.0000
 30
0.0000
 40
0.2000
 41
0.2000
 70
0
  0
VERTEX
  8
21
 10
38.9625
 20
35.8650
 30
0.0000
  0
VERTEX
  8
21
 10
34.0625
 20
35.8650
 30
0.0000
  0
SEQEND
  8
0
  0
POLYLINE
  8
21
 66
1
 10
0.0000
 20
0.0000
 30
0.0000
 40
0.1000
 41
0.1000
 70
0
  0
VERTEX
  8
21
 10
34.0625
 20
35.9150
 30
0.0000
 42
1.0000
  0
VERTEX
  8
21
 10
34.0625
 20
35.8150
 30
0.0000
  0
SEQEND
  8
0
  0
POLYLINE
  8
21
 66
1
 10
0.0000
 20
0.0000
 30
0.0000
 40
0.1000
 41
0.1000
 70
0
  0
VERTEX
  8
21
 10
38.9625
 20
35.8150
 30
0.0000
 42
1.0000
  0
VERTEX
  8
21
 10
38.9625
 20
35.9150
 30
0.0000
  0
SEQEND
  8
0
  0
POLYLINE
  8
21
 66
1
 10
0.0000
 20
0.0000
 30
0.0000
 40
0.2000
 41
0.2000
 70
0
  0
VERTEX
  8
21
 10
33.9075
 20
33.9900
 30
0.0000
  0
VERTEX
  8
21
 10
33.9075
 20
35.5150
 30
0.0000
  0
SEQEND
  8
0
  0
POLYLINE
  8
21
 66
1
 10
0.0000
 20
0.0000
 30
0.0000
 40
0.1000
 41
0.1000
 70
0
  0
VERTEX
  8
21
 10
33.9575
 20
35.5150
 30
0.0000
 42
1.0000
  0
VERTEX
  8
21
 10
33.8575
 20
35.5150
 30
0.0000
  0
SEQEND
  8
0
  0
POLYLINE
  8
21
 66
1
 10
0.0000
 20
0.0000
 30
0.0000
 40
0.1000
 41
0.1000
 70
0
  0
VERTEX
  8
21
 10
33.8575
 20
33.9900
 30
0.0000
 42
1.0000
  0
VERTEX
  8
21
 10
33.9575
 20
33.9900
 30
0.0000
  0
SEQEND
  8
0
  0
POLYLINE
  8
21
 66
1
 10
0.0000
 20
0.0000
 30
0.0000
 40
0.1000
 41
0.1000
 70
0
  0
VERTEX
  8
21
 10
43.0925
 20
21.6775
 30
0.0000
  0
VERTEX
  8
21
 10
43.0925
 20
24.6775
 30
0.0000
  0
SEQEND
  8
0
  0
POLYLINE
  8
21
 66
1
 10
0.0000
 20
0.0000
 30
0.0000
 40
0.0500
 41
0.0500
 70
0
  0
VERTEX
  8
21
 10
43.1175
 20
24.6775
 30
0.0000
 42
1.0000
  0
VERTEX
  8
21
 10
43.0675
 20
24.6775
 30
0.0000
  0
SEQEND
  8
0
  0
POLYLINE
  8
21
 66
1
 10
0.0000
 20
0.0000
 30
0.0000
 40
0.0500
 41
0.0500
 70
0
  0
VERTEX
  8
21
 10
43.0675
 20
21.6775
 30
0.0000
 42
1.0000
  0
VERTEX
  8
21
 10
43.1175
 20
21.6775
 30
0.0000
  0
SEQEND
  8
0
  0
POLYLINE
  8
21
 66
1
 10
0.0000
 20
0.0000
 30
0.0000
 40
0.1000
 41
0.1000
 70
0
  0
VERTEX
  8
21
 10
36.2825
 20
21.6775
 30
0.0000
  0
VERTEX
  8
21
 10
36.2825
 20
24.6775
 30
0.0000
  0
SEQEND
  8
0
  0
POLYLINE
  8
21
 66
1
 10
0.0000
 20
0.0000
 30
0.0000
 40
0.0500
 41
0.0500
 70
0
  0
VERTEX
  8
21
 10
36.3075
 20
24.6775
 30
0.0000
 42
1.0000
  0
VERTEX
  8
21
 10
36.2575
 20
24.6775
 30
0.0000
  0
SEQEND
  8
0
  0
POLYLINE
  8
21
 66
1
 10
0.0000
 20
0.0000
 30
0.0000
 40
0.0500
 41
0.0500
 70
0
  0
VERTEX
  8
21
 10
36.2575
 20
21.6775
 30
0.0000
 42
1.0000
  0
VERTEX
  8
21
 10
36.3075
 20
21.6775
 30
0.0000
  0
SEQEND
  8
0
  0
POLYLINE
  8
21
 66
1
 10
0.0000
 20
0.0000
 30
0.0000
 40
0.2000
 41
0.2000
 70
0
  0
VERTEX
  8
21
 10
35.7875
 20
21.0775
 30
0.0000
 42
1.0000
  0
VERTEX
  8
21
 10
35.9875
 20
21.0775
 30
0.0000
  0
SEQEND
  8
0
  0
POLYLINE
  8
21
 66
1
 10
0.0000
 20
0.0000
 30
0.0000
 40
0.1000
 41
0.1000
 70
0
  0
VERTEX
  8
21
 10
35.8375
 20
21.0775
 30
0.0000
 42
1.0000
  0
VERTEX
  8
21
 10
35.7375
 20
21.0775
 30
0.0000
  0
SEQEND
  8
0
  0
POLYLINE
  8
21
 66
1
 10
0.0000
 20
0.0000
 30
0.0000
 40
0.1000
 41
0.1000
 70
0
  0
VERTEX
  8
21
 10
36.0375
 20
21.0775
 30
0.0000
 42
1.0000
  0
VERTEX
  8
21
 10
35.9375
 20
21.0775
 30
0.0000
  0
SEQEND
  8
0
  0
POLYLINE
  8
21
 66
1
 10
0.0000
 20
0.0000
 30
0.0000
 40
0.2000
 41
0.2000
 70
0
  0
VERTEX
  8
21
 10
35.9875
 20
21.0775
 30
0.0000
 42
1.0000
  0
VERTEX
  8
21
 10
35.7875
 20
21.0775
 30
0.0000
  0
SEQEND
  8
0
  0
POLYLINE
  8
21
 66
1
 10
0.0000
 20
0.0000
 30
0.0000
 40
0.1000
 41
0.1000
 70
0
  0
VERTEX
  8
21
 10
35.9375
 20
21.0775
 30
0.0000
 42
1.0000
  0
VERTEX
  8
21
 10
36.0375
 20
21.0775
 30
0.0000
  0
SEQEND
  8
0
  0
POLYLINE
  8
21
 66
1
 10
0.0000
 20
0.0000
 30
0.0000
 40
0.1000
 41
0.1000
 70
0
  0
VERTEX
  8
21
 10
35.7375
 20
21.0775
 30
0.0000
 42
1.0000
  0
VERTEX
  8
21
 10
35.8375
 20
21.0775
 30
0.0000
  0
SEQEND
  8
0
  0
INSERT
  8
21
  2
RECT
 10
59.6915
 20
36.7811
 30
0.0000
 41
0.6500
 42
1.4000
 43
1.0000
 50
270.0000
  0
INSERT
  8
21
  2
RECT
 10
59.6915
 20
38.2543
 30
0.0000
 41
0.6500
 42
1.4000
 43
1.0000
 50
270.0000
  0
INSERT
  8
21
  2
RECT
 10
62.8665
 20
36.7811
 30
0.0000
 41
0.6500
 42
1.4000
 43
1.0000
 50
270.0000
  0
INSERT
  8
21
  2
RECT
 10
62.8665
 20
38.2543
 30
0.0000
 41
0.6500
 42
1.4000
 43
1.0000
 50
270.0000
  0
POLYLINE
  8
21
 66
1
 10
0.0000
 20
0.0000
 30
0.0000
 40
0.1524
 41
0.1524
 70
0
  0
VERTEX
  8
21
 10
41.6175
 20
36.4380
 30
0.0000
  0
VERTEX
  8
21
 10
41.6175
 20
38.4920
 30
0.0000
  0
SEQEND
  8
0
  0
POLYLINE
  8
21
 66
1
 10
0.0000
 20
0.0000
 30
0.0000
 40
0.0762
 41
0.0762
 70
0
  0
VERTEX
  8
21
 10
41.6556
 20
38.4920
 30
0.0000
 42
1.0000
  0
VERTEX
  8
21
 10
41.5794
 20
38.4920
 30
0.0000
  0
SEQEND
  8
0
  0
POLYLINE
  8
21
 66
1
 10
0.0000
 20
0.0000
 30
0.0000
 40
0.0762
 41
0.0762
 70
0
  0
VERTEX
  8
21
 10
41.5794
 20
36.4380
 30
0.0000
 42
1.0000
  0
VERTEX
  8
21
 10
41.6556
 20
36.4380
 30
0.0000
  0
SEQEND
  8
0
  0
POLYLINE
  8
21
 66
1
 10
0.0000
 20
0.0000
 30
0.0000
 40
0.1524
 41
0.1524
 70
0
  0
VERTEX
  8
21
 10
44.1075
 20
36.4630
 30
0.0000
  0
VERTEX
  8
21
 10
44.1075
 20
38.4810
 30
0.0000
  0
SEQEND
  8
0
  0
POLYLINE
  8
21
 66
1
 10
0.0000
 20
0.0000
 30
0.0000
 40
0.0762
 41
0.0762
 70
0
  0
VERTEX
  8
21
 10
44.1456
 20
38.4810
 30
0.0000
 42
1.0000
  0
VERTEX
  8
21
 10
44.0694
 20
38.4810
 30
0.0000
  0
SEQEND
  8
0
  0
POLYLINE
  8
21
 66
1
 10
0.0000
 20
0.0000
 30
0.0000
 40
0.0762
 41
0.0762
 70
0
  0
VERTEX
  8
21
 10
44.0694
 20
36.4630
 30
0.0000
 42
1.0000
  0
VERTEX
  8
21
 10
44.1456
 20
36.4630
 30
0.0000
  0
SEQEND
  8
0
  0
POLYLINE
  8
21
 66
1
 10
0.0000
 20
0.0000
 30
0.0000
 40
0.5080
 41
0.5080
 70
0
  0
VERTEX
  8
21
 10
10.7950
 20
50.6095
 30
0.0000
  0
VERTEX
  8
21
 10
10.7950
 20
50.3555
 30
0.0000
  0
SEQEND
  8
0
  0
POLYLINE
  8
21
 66
1
 10
0.0000
 20
0.0000
 30
0.0000
 40
0.2540
 41
0.2540
 70
0
  0
VERTEX
  8
21
 10
10.6680
 20
50.3555
 30
0.0000
 42
1.0000
  0
VERTEX
  8
21
 10
10.9220
 20
50.3555
 30
0.0000
  0
SEQEND
  8
0
  0
POLYLINE
  8
21
 66
1
 10
0.0000
 20
0.0000
 30
0.0000
 40
0.2540
 41
0.2540
 70
0
  0
VERTEX
  8
21
 10
10.9220
 20
50.6095
 30
0.0000
 42
1.0000
  0
VERTEX
  8
21
 10
10.6680
 20
50.6095
 30
0.0000
  0
SEQEND
  8
0
  0
INSERT
  8
17
  2
OCTAGONP
 10
10.7950
 20
51.7525
 30
0.0000
 41
1.3208
 42
1.3208
 43
1.0000
 50
270.0000
  0
INSERT
  8
17
  2
OCTAGONP
 10
10.7950
 20
51.7525
 30
0.0000
 41
1.3208
 42
1.3208
 43
1.0000
 50
270.0000
  0
INSERT
  8
17
  2
OCTAGONP
 10
10.7950
 20
49.2125
 30
0.0000
 41
1.3208
 42
1.3208
 43
1.0000
 50
270.0000
  0
INSERT
  8
17
  2
OCTAGONP
 10
10.7950
 20
49.2125
 30
0.0000
 41
1.3208
 42
1.3208
 43
1.0000
 50
270.0000
  0
INSERT
  8
17
  2
LONGP100
 10
51.5112
 20
13.3731
 30
0.0000
 41
1.5240
 42
1.5240
 43
1.0000
 50
180.0000
  0
INSERT
  8
17
  2
LONGP100
 10
51.5112
 20
13.3731
 30
0.0000
 41
1.5240
 42
1.5240
 43
1.0000
 50
180.0000
  0
INSERT
  8
17
  2
LONGP100
 10
45.0088
 20
13.3731
 30
0.0000
 41
1.5240
 42
1.5240
 43
1.0000
 50
180.0000
  0
INSERT
  8
17
  2
LONGP100
 10
45.0088
 20
13.3731
 30
0.0000
 41
1.5240
 42
1.5240
 43
1.0000
 50
180.0000
  0
INSERT
  8
17
  2
LONGP100
 10
51.5112
 20
8.8519
 30
0.0000
 41
1.5240
 42
1.5240
 43
1.0000
 50
180.0000
  0
INSERT
  8
17
  2
LONGP100
 10
51.5112
 20
8.8519
 30
0.0000
 41
1.5240
 42
1.5240
 43
1.0000
 50
180.0000
  0
INSERT
  8
17
  2
LONGP100
 10
45.0088
 20
8.8519
 30
0.0000
 41
1.5240
 42
1.5240
 43
1.0000
 50
180.0000
  0
INSERT
  8
17
  2
LONGP100
 10
45.0088
 20
8.8519
 30
0.0000
 41
1.5240
 42
1.5240
 43
1.0000
 50
180.0000
  0
POLYLINE
  8
21
 66
1
 10
0.0000
 20
0.0000
 30
0.0000
 40
0.2540
 41
0.2540
 70
0
  0
VERTEX
  8
21
 10
86.1695
 20
19.3675
 30
0.0000
  0
VERTEX
  8
21
 10
86.1695
 20
20.6375
 30
0.0000
  0
SEQEND
  8
0
  0
POLYLINE
  8
21
 66
1
 10
0.0000
 20
0.0000
 30
0.0000
 40
0.1270
 41
0.1270
 70
0
  0
VERTEX
  8
21
 10
86.2330
 20
20.6375
 30
0.0000
 42
1.0000
  0
VERTEX
  8
21
 10
86.1060
 20
20.6375
 30
0.0000
  0
SEQEND
  8
0
  0
POLYLINE
  8
21
 66
1
 10
0.0000
 20
0.0000
 30
0.0000
 40
0.1270
 41
0.1270
 70
0
  0
VERTEX
  8
21
 10
86.1060
 20
19.3675
 30
0.0000
 42
1.0000
  0
VERTEX
  8
21
 10
86.2330
 20
19.3675
 30
0.0000
  0
SEQEND
  8
0
  0
POLYLINE
  8
21
 66
1
 10
0.0000
 20
0.0000
 30
0.0000
 40
0.2540
 41
0.2540
 70
0
  0
VERTEX
  8
21
 10
85.5345
 20
20.0025
 30
0.0000
  0
VERTEX
  8
21
 10
86.8045
 20
20.0025
 30
0.0000
  0
SEQEND
  8
0
  0
POLYLINE
  8
21
 66
1
 10
0.0000
 20
0.0000
 30
0.0000
 40
0.1270
 41
0.1270
 70
0
  0
VERTEX
  8
21
 10
86.8045
 20
19.9390
 30
0.0000
 42
1.0000
  0
VERTEX
  8
21
 10
86.8045
 20
20.0660
 30
0.0000
  0
SEQEND
  8
0
  0
POLYLINE
  8
21
 66
1
 10
0.0000
 20
0.0000
 30
0.0000
 40
0.1270
 41
0.1270
 70
0
  0
VERTEX
  8
21
 10
85.5345
 20
20.0660
 30
0.0000
 42
1.0000
  0
VERTEX
  8
21
 10
85.5345
 20
19.9390
 30
0.0000
  0
SEQEND
  8
0
  0
POLYLINE
  8
21
 66
1
 10
0.0000
 20
0.0000
 30
0.0000
 40
0.1524
 41
0.1524
 70
0
  0
VERTEX
  8
21
 10
89.2175
 20
9.2075
 30
0.0000
 42
1.0000
  0
VERTEX
  8
21
 10
89.2175
 20
23.1775
 30
0.0000
 42
1.0000
  0
VERTEX
  8
21
 10
89.2175
 20
9.2075
 30
0.0000
  0
SEQEND
  8
0
  0
POLYLINE
  8
21
 66
1
 10
0.0000
 20
0.0000
 30
0.0000
 40
0.1524
 41
0.1524
 70
0
  0
VERTEX
  8
21
 10
89.2175
 20
14.9225
 30
0.0000
 42
1.0000
  0
VERTEX
  8
21
 10
89.2175
 20
17.4625
 30
0.0000
 42
1.0000
  0
VERTEX
  8
21
 10
89.2175
 20
14.9225
 30
0.0000
  0
SEQEND
  8
0
  0
POLYLINE
  8
21
 66
1
 10
0.0000
 20
0.0000
 30
0.0000
 40
0.1524
 41
0.1524
 70
0
  0
VERTEX
  8
21
 10
86.1695
 20
18.7325
 30
0.0000
 42
1.0000
  0
VERTEX
  8
21
 10
86.1695
 20
21.2725
 30
0.0000
 42
1.0000
  0
VERTEX
  8
21
 10
86.1695
 20
18.7325
 30
0.0000
  0
SEQEND
  8
0
  0
INSERT
  8
17
  2
OCTAGONP
 10
89.2175
 20
20.0025
 30
0.0000
 41
2.5400
 42
2.5400
 43
1.0000
 50
90.0000
  0
INSERT
  8
17
  2
OCTAGONP
 10
89.2175
 20
20.0025
 30
0.0000
 41
2.5400
 42
2.5400
 43
1.0000
 50
90.0000
  0
INSERT
  8
17
  2
OCTAGONP
 10
89.2175
 20
12.3825
 30
0.0000
 41
2.5400
 42
2.5400
 43
1.0000
 50
90.0000
  0
INSERT
  8
17
  2
OCTAGONP
 10
89.2175
 20
12.3825
 30
0.0000
 41
2.5400
 42
2.5400
 43
1.0000
 50
90.0000
  0
POLYLINE
  8
21
 66
1
 10
0.0000
 20
0.0000
 30
0.0000
 40
0.1524
 41
0.1524
 70
0
  0
VERTEX
  8
21
 10
49.7840
 20
13.0175
 30
0.0000
  0
VERTEX
  8
21
 10
49.7840
 20
9.2075
 30
0.0000
  0
SEQEND
  8
0
  0
POLYLINE
  8
21
 66
1
 10
0.0000
 20
0.0000
 30
0.0000
 40
0.0762
 41
0.0762
 70
0
  0
VERTEX
  8
21
 10
49.7459
 20
9.2075
 30
0.0000
 42
1.0000
  0
VERTEX
  8
21
 10
49.8221
 20
9.2075
 30
0.0000
  0
SEQEND
  8
0
  0
POLYLINE
  8
21
 66
1
 10
0.0000
 20
0.0000
 30
0.0000
 40
0.0762
 41
0.0762
 70
0
  0
VERTEX
  8
21
 10
49.8221
 20
13.0175
 30
0.0000
 42
1.0000
  0
VERTEX
  8
21
 10
49.7459
 20
13.0175
 30
0.0000
  0
SEQEND
  8
0
  0
POLYLINE
  8
21
 66
1
 10
0.0000
 20
0.0000
 30
0.0000
 40
0.1524
 41
0.1524
 70
0
  0
VERTEX
  8
21
 10
46.9900
 20
13.2715
 30
0.0000
 42
0.4142
  0
VERTEX
  8
21
 10
46.7360
 20
13.0175
 30
0.0000
  0
SEQEND
  8
0
  0
POLYLINE
  8
21
 66
1
 10
0.0000
 20
0.0000
 30
0.0000
 40
0.0762
 41
0.0762
 70
0
  0
VERTEX
  8
21
 10
46.9900
 20
13.2334
 30
0.0000
 42
1.0000
  0
VERTEX
  8
21
 10
46.9900
 20
13.3096
 30
0.0000
  0
SEQEND
  8
0
  0
POLYLINE
  8
21
 66
1
 10
0.0000
 20
0.0000
 30
0.0000
 40
0.0762
 41
0.0762
 70
0
  0
VERTEX
  8
21
 10
46.6979
 20
13.0175
 30
0.0000
 42
1.0000
  0
VERTEX
  8
21
 10
46.7741
 20
13.0175
 30
0.0000
  0
SEQEND
  8
0
  0
POLYLINE
  8
21
 66
1
 10
0.0000
 20
0.0000
 30
0.0000
 40
0.1524
 41
0.1524
 70
0
  0
VERTEX
  8
21
 10
46.7360
 20
9.2075
 30
0.0000
 42
0.4142
  0
VERTEX
  8
21
 10
46.9900
 20
8.9535
 30
0.0000
  0
SEQEND
  8
0
  0
POLYLINE
  8
21
 66
1
 10
0.0000
 20
0.0000
 30
0.0000
 40
0.0762
 41
0.0762
 70
0
  0
VERTEX
  8
21
 10
46.7741
 20
9.2075
 30
0.0000
 42
1.0000
  0
VERTEX
  8
21
 10
46.6979
 20
9.2075
 30
0.0000
  0
SEQEND
  8
0
  0
POLYLINE
  8
21
 66
1
 10
0.0000
 20
0.0000
 30
0.0000
 40
0.0762
 41
0.0762
 70
0
  0
VERTEX
  8
21
 10
46.9900
 20
8.9154
 30
0.0000
 42
1.0000
  0
VERTEX
  8
21
 10
46.9900
 20
8.9916
 30
0.0000
  0
SEQEND
  8
0
  0
POLYLINE
  8
21
 66
1
 10
0.0000
 20
0.0000
 30
0.0000
 40
0.1524
 41
0.1524
 70
0
  0
VERTEX
  8
21
 10
49.5300
 20
8.9535
 30
0.0000
 42
0.4142
  0
VERTEX
  8
21
 10
49.7840
 20
9.2075
 30
0.0000
  0
SEQEND
  8
0
  0
POLYLINE
  8
21
 66
1
 10
0.0000
 20
0.0000
 30
0.0000
 40
0.0762
 41
0.0762
 70
0
  0
VERTEX
  8
21
 10
49.5300
 20
8.9916
 30
0.0000
 42
1.0000
  0
VERTEX
  8
21
 10
49.5300
 20
8.9154
 30
0.0000
  0
SEQEND
  8
0
  0
POLYLINE
  8
21
 66
1
 10
0.0000
 20
0.0000
 30
0.0000
 40
0.0762
 41
0.0762
 70
0
  0
VERTEX
  8
21
 10
49.8221
 20
9.2075
 30
0.0000
 42
1.0000
  0
VERTEX
  8
21
 10
49.7459
 20
9.2075
 30
0.0000
  0
SEQEND
  8
0
  0
POLYLINE
  8
21
 66
1
 10
0.0000
 20
0.0000
 30
0.0000
 40
0.1524
 41
0.1524
 70
0
  0
VERTEX
  8
21
 10
49.7840
 20
13.0175
 30
0.0000
 42
0.4142
  0
VERTEX
  8
21
 10
49.5300
 20
13.2715
 30
0.0000
  0
SEQEND
  8
0
  0
POLYLINE
  8
21
 66
1
 10
0.0000
 20
0.0000
 30
0.0000
 40
0.0762
 41
0.0762
 70
0
  0
VERTEX
  8
21
 10
49.7459
 20
13.0175
 30
0.0000
 42
1.0000
  0
VERTEX
  8
21
 10
49.8221
 20
13.0175
 30
0.0000
  0
SEQEND
  8
0
  0
POLYLINE
  8
21
 66
1
 10
0.0000
 20
0.0000
 30
0.0000
 40
0.0762
 41
0.0762
 70
0
  0
VERTEX
  8
21
 10
49.5300
 20
13.3096
 30
0.0000
 42
1.0000
  0
VERTEX
  8
21
 10
49.5300
 20
13.2334
 30
0.0000
  0
SEQEND
  8
0
  0
POLYLINE
  8
21
 66
1
 10
0.0000
 20
0.0000
 30
0.0000
 40
0.1524
 41
0.1524
 70
0
  0
VERTEX
  8
21
 10
49.5300
 20
13.2715
 30
0.0000
  0
VERTEX
  8
21
 10
46.9900
 20
13.2715
 30
0.0000
  0
SEQEND
  8
0
  0
POLYLINE
  8
21
 66
1
 10
0.0000
 20
0.0000
 30
0.0000
 40
0.0762
 41
0.0762
 70
0
  0
VERTEX
  8
21
 10
46.9900
 20
13.3096
 30
0.0000
 42
1.0000
  0
VERTEX
  8
21
 10
46.9900
 20
13.2334
 30
0.0000
  0
SEQEND
  8
0
  0
POLYLINE
  8
21
 66
1
 10
0.0000
 20
0.0000
 30
0.0000
 40
0.0762
 41
0.0762
 70
0
  0
VERTEX
  8
21
 10
49.5300
 20
13.2334
 30
0.0000
 42
1.0000
  0
VERTEX
  8
21
 10
49.5300
 20
13.3096
 30
0.0000
  0
SEQEND
  8
0
  0
POLYLINE
  8
21
 66
1
 10
0.0000
 20
0.0000
 30
0.0000
 40
0.1524
 41
0.1524
 70
0
  0
VERTEX
  8
21
 10
49.5300
 20
8.9535
 30
0.0000
  0
VERTEX
  8
21
 10
46.9900
 20
8.9535
 30
0.0000
  0
SEQEND
  8
0
  0
POLYLINE
  8
21
 66
1
 10
0.0000
 20
0.0000
 30
0.0000
 40
0.0762
 41
0.0762
 70
0
  0
VERTEX
  8
21
 10
46.9900
 20
8.9916
 30
0.0000
 42
1.0000
  0
VERTEX
  8
21
 10
46.9900
 20
8.9154
 30
0.0000
  0
SEQEND
  8
0
  0
POLYLINE
  8
21
 66
1
 10
0.0000
 20
0.0000
 30
0.0000
 40
0.0762
 41
0.0762
 70
0
  0
VERTEX
  8
21
 10
49.5300
 20
8.9154
 30
0.0000
 42
1.0000
  0
VERTEX
  8
21
 10
49.5300
 20
8.9916
 30
0.0000
  0
SEQEND
  8
0
  0
POLYLINE
  8
21
 66
1
 10
0.0000
 20
0.0000
 30
0.0000
 40
0.1524
 41
0.1524
 70
0
  0
VERTEX
  8
21
 10
46.7360
 20
9.2075
 30
0.0000
  0
VERTEX
  8
21
 10
46.7360
 20
13.0175
 30
0.0000
  0
SEQEND
  8
0
  0
POLYLINE
  8
21
 66
1
 10
0.0000
 20
0.0000
 30
0.0000
 40
0.0762
 41
0.0762
 70
0
  0
VERTEX
  8
21
 10
46.7741
 20
13.0175
 30
0.0000
 42
1.0000
  0
VERTEX
  8
21
 10
46.6979
 20
13.0175
 30
0.0000
  0
SEQEND
  8
0
  0
POLYLINE
  8
21
 66
1
 10
0.0000
 20
0.0000
 30
0.0000
 40
0.0762
 41
0.0762
 70
0
  0
VERTEX
  8
21
 10
46.6979
 20
9.2075
 30
0.0000
 42
1.0000
  0
VERTEX
  8
21
 10
46.7741
 20
9.2075
 30
0.0000
  0
SEQEND
  8
0
  0
POLYLINE
  8
21
 66
1
 10
0.0000
 20
0.0000
 30
0.0000
 40
0.1524
 41
0.1524
 70
0
  0
VERTEX
  8
21
 10
100.0125
 20
25.6540
 30
0.0000
  0
VERTEX
  8
21
 10
103.8225
 20
25.6540
 30
0.0000
  0
SEQEND
  8
0
  0
POLYLINE
  8
21
 66
1
 10
0.0000
 20
0.0000
 30
0.0000
 40
0.0762
 41
0.0762
 70
0
  0
VERTEX
  8
21
 10
103.8225
 20
25.6159
 30
0.0000
 42
1.0000
  0
VERTEX
  8
21
 10
103.8225
 20
25.6921
 30
0.0000
  0
SEQEND
  8
0
  0
POLYLINE
  8
21
 66
1
 10
0.0000
 20
0.0000
 30
0.0000
 40
0.0762
 41
0.0762
 70
0
  0
VERTEX
  8
21
 10
100.0125
 20
25.6921
 30
0.0000
 42
1.0000
  0
VERTEX
  8
21
 10
100.0125
 20
25.6159
 30
0.0000
  0
SEQEND
  8
0
  0
POLYLINE
  8
21
 66
1
 10
0.0000
 20
0.0000
 30
0.0000
 40
0.1524
 41
0.1524
 70
0
  0
VERTEX
  8
21
 10
99.7585
 20
22.8600
 30
0.0000
 42
0.4142
  0
VERTEX
  8
21
 10
100.0125
 20
22.6060
 30
0.0000
  0
SEQEND
  8
0
  0
POLYLINE
  8
21
 66
1
 10
0.0000
 20
0.0000
 30
0.0000
 40
0.0762
 41
0.0762
 70
0
  0
VERTEX
  8
21
 10
99.7966
 20
22.8600
 30
0.0000
 42
1.0000
  0
VERTEX
  8
21
 10
99.7204
 20
22.8600
 30
0.0000
  0
SEQEND
  8
0
  0
POLYLINE
  8
21
 66
1
 10
0.0000
 20
0.0000
 30
0.0000
 40
0.0762
 41
0.0762
 70
0
  0
VERTEX
  8
21
 10
100.0125
 20
22.5679
 30
0.0000
 42
1.0000
  0
VERTEX
  8
21
 10
100.0125
 20
22.6441
 30
0.0000
  0
SEQEND
  8
0
  0
POLYLINE
  8
21
 66
1
 10
0.0000
 20
0.0000
 30
0.0000
 40
0.1524
 41
0.1524
 70
0
  0
VERTEX
  8
21
 10
103.8225
 20
22.6060
 30
0.0000
 42
0.4142
  0
VERTEX
  8
21
 10
104.0765
 20
22.8600
 30
0.0000
  0
SEQEND
  8
0
  0
POLYLINE
  8
21
 66
1
 10
0.0000
 20
0.0000
 30
0.0000
 40
0.0762
 41
0.0762
 70
0
  0
VERTEX
  8
21
 10
103.8225
 20
22.6441
 30
0.0000
 42
1.0000
  0
VERTEX
  8
21
 10
103.8225
 20
22.5679
 30
0.0000
  0
SEQEND
  8
0
  0
POLYLINE
  8
21
 66
1
 10
0.0000
 20
0.0000
 30
0.0000
 40
0.0762
 41
0.0762
 70
0
  0
VERTEX
  8
21
 10
104.1146
 20
22.8600
 30
0.0000
 42
1.0000
  0
VERTEX
  8
21
 10
104.0384
 20
22.8600
 30
0.0000
  0
SEQEND
  8
0
  0
POLYLINE
  8
21
 66
1
 10
0.0000
 20
0.0000
 30
0.0000
 40
0.1524
 41
0.1524
 70
0
  0
VERTEX
  8
21
 10
104.0765
 20
25.4000
 30
0.0000
 42
0.4142
  0
VERTEX
  8
21
 10
103.8225
 20
25.6540
 30
0.0000
  0
SEQEND
  8
0
  0
POLYLINE
  8
21
 66
1
 10
0.0000
 20
0.0000
 30
0.0000
 40
0.0762
 41
0.0762
 70
0
  0
VERTEX
  8
21
 10
104.0384
 20
25.4000
 30
0.0000
 42
1.0000
  0
VERTEX
  8
21
 10
104.1146
 20
25.4000
 30
0.0000
  0
SEQEND
  8
0
  0
POLYLINE
  8
21
 66
1
 10
0.0000
 20
0.0000
 30
0.0000
 40
0.0762
 41
0.0762
 70
0
  0
VERTEX
  8
21
 10
103.8225
 20
25.6921
 30
0.0000
 42
1.0000
  0
VERTEX
  8
21
 10
103.8225
 20
25.6159
 30
0.0000
  0
SEQEND
  8
0
  0
POLYLINE
  8
21
 66
1
 10
0.0000
 20
0.0000
 30
0.0000
 40
0.1524
 41
0.1524
 70
0
  0
VERTEX
  8
21
 10
100.0125
 20
25.6540
 30
0.0000
 42
0.4142
  0
VERTEX
  8
21
 10
99.7585
 20
25.4000
 30
0.0000
  0
SEQEND
  8
0
  0
POLYLINE
  8
21
 66
1
 10
0.0000
 20
0.0000
 30
0.0000
 40
0.0762
 41
0.0762
 70
0
  0
VERTEX
  8
21
 10
100.0125
 20
25.6159
 30
0.0000
 42
1.0000
  0
VERTEX
  8
21
 10
100.0125
 20
25.6921
 30
0.0000
  0
SEQEND
  8
0
  0
POLYLINE
  8
21
 66
1
 10
0.0000
 20
0.0000
 30
0.0000
 40
0.0762
 41
0.0762
 70
0
  0
VERTEX
  8
21
 10
99.7204
 20
25.4000
 30
0.0000
 42
1.0000
  0
VERTEX
  8
21
 10
99.7966
 20
25.4000
 30
0.0000
  0
SEQEND
  8
0
  0
POLYLINE
  8
21
 66
1
 10
0.0000
 20
0.0000
 30
0.0000
 40
0.1524
 41
0.1524
 70
0
  0
VERTEX
  8
21
 10
99.7585
 20
25.4000
 30
0.0000
  0
VERTEX
  8
21
 10
99.7585
 20
22.8600
 30
0.0000
  0
SEQEND
  8
0
  0
POLYLINE
  8
21
 66
1
 10
0.0000
 20
0.0000
 30
0.0000
 40
0.0762
 41
0.0762
 70
0
  0
VERTEX
  8
21
 10
99.7204
 20
22.8600
 30
0.0000
 42
1.0000
  0
VERTEX
  8
21
 10
99.7966
 20
22.8600
 30
0.0000
  0
SEQEND
  8
0
  0
POLYLINE
  8
21
 66
1
 10
0.0000
 20
0.0000
 30
0.0000
 40
0.0762
 41
0.0762
 70
0
  0
VERTEX
  8
21
 10
99.7966
 20
25.4000
 30
0.0000
 42
1.0000
  0
VERTEX
  8
21
 10
99.7204
 20
25.4000
 30
0.0000
  0
SEQEND
  8
0
  0
POLYLINE
  8
21
 66
1
 10
0.0000
 20
0.0000
 30
0.0000
 40
0.1524
 41
0.1524
 70
0
  0
VERTEX
  8
21
 10
104.0765
 20
25.4000
 30
0.0000
  0
VERTEX
  8
21
 10
104.0765
 20
22.8600
 30
0.0000
  0
SEQEND
  8
0
  0
POLYLINE
  8
21
 66
1
 10
0.0000
 20
0.0000
 30
0.0000
 40
0.0762
 41
0.0762
 70
0
  0
VERTEX
  8
21
 10
104.0384
 20
22.8600
 30
0.0000
 42
1.0000
  0
VERTEX
  8
21
 10
104.1146
 20
22.8600
 30
0.0000
  0
SEQEND
  8
0
  0
POLYLINE
  8
21
 66
1
 10
0.0000
 20
0.0000
 30
0.0000
 40
0.0762
 41
0.0762
 70
0
  0
VERTEX
  8
21
 10
104.1146
 20
25.4000
 30
0.0000
 42
1.0000
  0
VERTEX
  8
21
 10
104.0384
 20
25.4000
 30
0.0000
  0
SEQEND
  8
0
  0
POLYLINE
  8
21
 66
1
 10
0.0000
 20
0.0000
 30
0.0000
 40
0.1524
 41
0.1524
 70
0
  0
VERTEX
  8
21
 10
103.8225
 20
22.6060
 30
0.0000
  0
VERTEX
  8
21
 10
100.0125
 20
22.6060
 30
0.0000
  0
SEQEND
  8
0
  0
POLYLINE
  8
21
 66
1
 10
0.0000
 20
0.0000
 30
0.0000
 40
0.0762
 41
0.0762
 70
0
  0
VERTEX
  8
21
 10
100.0125
 20
22.6441
 30
0.0000
 42
1.0000
  0
VERTEX
  8
21
 10
100.0125
 20
22.5679
 30
0.0000
  0
SEQEND
  8
0
  0
POLYLINE
  8
21
 66
1
 10
0.0000
 20
0.0000
 30
0.0000
 40
0.0762
 41
0.0762
 70
0
  0
VERTEX
  8
21
 10
103.8225
 20
22.5679
 30
0.0000
 42
1.0000
  0
VERTEX
  8
21
 10
103.8225
 20
22.6441
 30
0.0000
  0
SEQEND
  8
0
  0
POLYLINE
  8
21
 66
1
 10
0.0000
 20
0.0000
 30
0.0000
 40
0.1524
 41
0.1524
 70
0
  0
VERTEX
  8
21
 10
100.3300
 20
38.3540
 30
0.0000
  0
VERTEX
  8
21
 10
104.1400
 20
38.3540
 30
0.0000
  0
SEQEND
  8
0
  0
POLYLINE
  8
21
 66
1
 10
0.0000
 20
0.0000
 30
0.0000
 40
0.0762
 41
0.0762
 70
0
  0
VERTEX
  8
21
 10
104.1400
 20
38.3159
 30
0.0000
 42
1.0000
  0
VERTEX
  8
21
 10
104.1400
 20
38.3921
 30
0.0000
  0
SEQEND
  8
0
  0
POLYLINE
  8
21
 66
1
 10
0.0000
 20
0.0000
 30
0.0000
 40
0.0762
 41
0.0762
 70
0
  0
VERTEX
  8
21
 10
100.3300
 20
38.3921
 30
0.0000
 42
1.0000
  0
VERTEX
  8
21
 10
100.3300
 20
38.3159
 30
0.0000
  0
SEQEND
  8
0
  0
POLYLINE
  8
21
 66
1
 10
0.0000
 20
0.0000
 30
0.0000
 40
0.1524
 41
0.1524
 70
0
  0
VERTEX
  8
21
 10
100.0760
 20
35.5600
 30
0.0000
 42
0.4142
  0
VERTEX
  8
21
 10
100.3300
 20
35.3060
 30
0.0000
  0
SEQEND
  8
0
  0
POLYLINE
  8
21
 66
1
 10
0.0000
 20
0.0000
 30
0.0000
 40
0.0762
 41
0.0762
 70
0
  0
VERTEX
  8
21
 10
100.1141
 20
35.5600
 30
0.0000
 42
1.0000
  0
VERTEX
  8
21
 10
100.0379
 20
35.5600
 30
0.0000
  0
SEQEND
  8
0
  0
POLYLINE
  8
21
 66
1
 10
0.0000
 20
0.0000
 30
0.0000
 40
0.0762
 41
0.0762
 70
0
  0
VERTEX
  8
21
 10
100.3300
 20
35.2679
 30
0.0000
 42
1.0000
  0
VERTEX
  8
21
 10
100.3300
 20
35.3441
 30
0.0000
  0
SEQEND
  8
0
  0
POLYLINE
  8
21
 66
1
 10
0.0000
 20
0.0000
 30
0.0000
 40
0.1524
 41
0.1524
 70
0
  0
VERTEX
  8
21
 10
104.1400
 20
35.3060
 30
0.0000
 42
0.4142
  0
VERTEX
  8
21
 10
104.3940
 20
35.5600
 30
0.0000
  0
SEQEND
  8
0
  0
POLYLINE
  8
21
 66
1
 10
0.0000
 20
0.0000
 30
0.0000
 40
0.0762
 41
0.0762
 70
0
  0
VERTEX
  8
21
 10
104.1400
 20
35.3441
 30
0.0000
 42
1.0000
  0
VERTEX
  8
21
 10
104.1400
 20
35.2679
 30
0.0000
  0
SEQEND
  8
0
  0
POLYLINE
  8
21
 66
1
 10
0.0000
 20
0.0000
 30
0.0000
 40
0.0762
 41
0.0762
 70
0
  0
VERTEX
  8
21
 10
104.4321
 20
35.5600
 30
0.0000
 42
1.0000
  0
VERTEX
  8
21
 10
104.3559
 20
35.5600
 30
0.0000
  0
SEQEND
  8
0
  0
POLYLINE
  8
21
 66
1
 10
0.0000
 20
0.0000
 30
0.0000
 40
0.1524
 41
0.1524
 70
0
  0
VERTEX
  8
21
 10
104.3940
 20
38.1000
 30
0.0000
 42
0.4142
  0
VERTEX
  8
21
 10
104.1400
 20
38.3540
 30
0.0000
  0
SEQEND
  8
0
  0
POLYLINE
  8
21
 66
1
 10
0.0000
 20
0.0000
 30
0.0000
 40
0.0762
 41
0.0762
 70
0
  0
VERTEX
  8
21
 10
104.3559
 20
38.1000
 30
0.0000
 42
1.0000
  0
VERTEX
  8
21
 10
104.4321
 20
38.1000
 30
0.0000
  0
SEQEND
  8
0
  0
POLYLINE
  8
21
 66
1
 10
0.0000
 20
0.0000
 30
0.0000
 40
0.0762
 41
0.0762
 70
0
  0
VERTEX
  8
21
 10
104.1400
 20
38.3921
 30
0.0000
 42
1.0000
  0
VERTEX
  8
21
 10
104.1400
 20
38.3159
 30
0.0000
  0
SEQEND
  8
0
  0
POLYLINE
  8
21
 66
1
 10
0.0000
 20
0.0000
 30
0.0000
 40
0.1524
 41
0.1524
 70
0
  0
VERTEX
  8
21
 10
100.3300
 20
38.3540
 30
0.0000
 42
0.4142
  0
VERTEX
  8
21
 10
100.0760
 20
38.1000
 30
0.0000
  0
SEQEND
  8
0
  0
POLYLINE
  8
21
 66
1
 10
0.0000
 20
0.0000
 30
0.0000
 40
0.0762
 41
0.0762
 70
0
  0
VERTEX
  8
21
 10
100.3300
 20
38.3159
 30
0.0000
 42
1.0000
  0
VERTEX
  8
21
 10
100.3300
 20
38.3921
 30
0.0000
  0
SEQEND
  8
0
  0
POLYLINE
  8
21
 66
1
 10
0.0000
 20
0.0000
 30
0.0000
 40
0.0762
 41
0.0762
 70
0
  0
VERTEX
  8
21
 10
100.0379
 20
38.1000
 30
0.0000
 42
1.0000
  0
VERTEX
  8
21
 10
100.1141
 20
38.1000
 30
0.0000
  0
SEQEND
  8
0
  0
POLYLINE
  8
21
 66
1
 10
0.0000
 20
0.0000
 30
0.0000
 40
0.1524
 41
0.1524
 70
0
  0
VERTEX
  8
21
 10
100.0760
 20
38.1000
 30
0.0000
  0
VERTEX
  8
21
 10
100.0760
 20
35.5600
 30
0.0000
  0
SEQEND
  8
0
  0
POLYLINE
  8
21
 66
1
 10
0.0000
 20
0.0000
 30
0.0000
 40
0.0762
 41
0.0762
 70
0
  0
VERTEX
  8
21
 10
100.0379
 20
35.5600
 30
0.0000
 42
1.0000
  0
VERTEX
  8
21
 10
100.1141
 20
35.5600
 30
0.0000
  0
SEQEND
  8
0
  0
POLYLINE
  8
21
 66
1
 10
0.0000
 20
0.0000
 30
0.0000
 40
0.0762
 41
0.0762
 70
0
  0
VERTEX
  8
21
 10
100.1141
 20
38.1000
 30
0.0000
 42
1.0000
  0
VERTEX
  8
21
 10
100.0379
 20
38.1000
 30
0.0000
  0
SEQEND
  8
0
  0
POLYLINE
  8
21
 66
1
 10
0.0000
 20
0.0000
 30
0.0000
 40
0.1524
 41
0.1524
 70
0
  0
VERTEX
  8
21
 10
104.3940
 20
38.1000
 30
0.0000
  0
VERTEX
  8
21
 10
104.3940
 20
35.5600
 30
0.0000
  0
SEQEND
  8
0
  0
POLYLINE
  8
21
 66
1
 10
0.0000
 20
0.0000
 30
0.0000
 40
0.0762
 41
0.0762
 70
0
  0
VERTEX
  8
21
 10
104.3559
 20
35.5600
 30
0.0000
 42
1.0000
  0
VERTEX
  8
21
 10
104.4321
 20
35.5600
 30
0.0000
  0
SEQEND
  8
0
  0
POLYLINE
  8
21
 66
1
 10
0.0000
 20
0.0000
 30
0.0000
 40
0.0762
 41
0.0762
 70
0
  0
VERTEX
  8
21
 10
104.4321
 20
38.1000
 30
0.0000
 42
1.0000
  0
VERTEX
  8
21
 10
104.3559
 20
38.1000
 30
0.0000
  0
SEQEND
  8
0
  0
POLYLINE
  8
21
 66
1
 10
0.0000
 20
0.0000
 30
0.0000
 40
0.1524
 41
0.1524
 70
0
  0
VERTEX
  8
21
 10
104.1400
 20
35.3060
 30
0.0000
  0
VERTEX
  8
21
 10
100.3300
 20
35.3060
 30
0.0000
  0
SEQEND
  8
0
  0
POLYLINE
  8
21
 66
1
 10
0.0000
 20
0.0000
 30
0.0000
 40
0.0762
 41
0.0762
 70
0
  0
VERTEX
  8
21
 10
100.3300
 20
35.3441
 30
0.0000
 42
1.0000
  0
VERTEX
  8
21
 10
100.3300
 20
35.2679
 30
0.0000
  0
SEQEND
  8
0
  0
POLYLINE
  8
21
 66
1
 10
0.0000
 20
0.0000
 30
0.0000
 40
0.0762
 41
0.0762
 70
0
  0
VERTEX
  8
21
 10
104.1400
 20
35.2679
 30
0.0000
 42
1.0000
  0
VERTEX
  8
21
 10
104.1400
 20
35.3441
 30
0.0000
  0
SEQEND
  8
0
  0
POLYLINE
  8
21
 66
1
 10
0.0000
 20
0.0000
 30
0.0000
 40
0.1524
 41
0.1524
 70
0
  0
VERTEX
  8
21
 10
14.6050
 20
32.3850
 30
0.0000
  0
VERTEX
  8
21
 10
14.6050
 20
31.1150
 30
0.0000
  0
SEQEND
  8
0
  0
POLYLINE
  8
21
 66
1
 10
0.0000
 20
0.0000
 30
0.0000
 40
0.0762
 41
0.0762
 70
0
  0
VERTEX
  8
21
 10
14.5669
 20
31.1150
 30
0.0000
 42
1.0000
  0
VERTEX
  8
21
 10
14.6431
 20
31.1150
 30
0.0000
  0
SEQEND
  8
0
  0
POLYLINE
  8
21
 66
1
 10
0.0000
 20
0.0000
 30
0.0000
 40
0.0762
 41
0.0762
 70
0
  0
VERTEX
  8
21
 10
14.6431
 20
32.3850
 30
0.0000
 42
1.0000
  0
VERTEX
  8
21
 10
14.5669
 20
32.3850
 30
0.0000
  0
SEQEND
  8
0
  0
POLYLINE
  8
21
 66
1
 10
0.0000
 20
0.0000
 30
0.0000
 40
0.1524
 41
0.1524
 70
0
  0
VERTEX
  8
21
 10
14.6050
 20
31.1150
 30
0.0000
  0
VERTEX
  8
21
 10
13.9700
 20
30.4800
 30
0.0000
  0
SEQEND
  8
0
  0
POLYLINE
  8
21
 66
1
 10
0.0000
 20
0.0000
 30
0.0000
 40
0.0762
 41
0.0762
 70
0
  0
VERTEX
  8
21
 10
13.9431
 20
30.5069
 30
0.0000
 42
1.0000
  0
VERTEX
  8
21
 10
13.9969
 20
30.4531
 30
0.0000
  0
SEQEND
  8
0
  0
POLYLINE
  8
21
 66
1
 10
0.0000
 20
0.0000
 30
0.0000
 40
0.0762
 41
0.0762
 70
0
  0
VERTEX
  8
21
 10
14.6319
 20
31.0881
 30
0.0000
 42
1.0000
  0
VERTEX
  8
21
 10
14.5781
 20
31.1419
 30
0.0000
  0
SEQEND
  8
0
  0
POLYLINE
  8
21
 66
1
 10
0.0000
 20
0.0000
 30
0.0000
 40
0.1524
 41
0.1524
 70
0
  0
VERTEX
  8
21
 10
12.7000
 20
30.4800
 30
0.0000
  0
VERTEX
  8
21
 10
12.0650
 20
31.1150
 30
0.0000
  0
SEQEND
  8
0
  0
POLYLINE
  8
21
 66
1
 10
0.0000
 20
0.0000
 30
0.0000
 40
0.0762
 41
0.0762
 70
0
  0
VERTEX
  8
21
 10
12.0919
 20
31.1419
 30
0.0000
 42
1.0000
  0
VERTEX
  8
21
 10
12.0381
 20
31.0881
 30
0.0000
  0
SEQEND
  8
0
  0
POLYLINE
  8
21
 66
1
 10
0.0000
 20
0.0000
 30
0.0000
 40
0.0762
 41
0.0762
 70
0
  0
VERTEX
  8
21
 10
12.6731
 20
30.4531
 30
0.0000
 42
1.0000
  0
VERTEX
  8
21
 10
12.7269
 20
30.5069
 30
0.0000
  0
SEQEND
  8
0
  0
POLYLINE
  8
21
 66
1
 10
0.0000
 20
0.0000
 30
0.0000
 40
0.1524
 41
0.1524
 70
0
  0
VERTEX
  8
21
 10
13.9700
 20
30.4800
 30
0.0000
  0
VERTEX
  8
21
 10
14.6050
 20
29.8450
 30
0.0000
  0
SEQEND
  8
0
  0
POLYLINE
  8
21
 66
1
 10
0.0000
 20
0.0000
 30
0.0000
 40
0.0762
 41
0.0762
 70
0
  0
VERTEX
  8
21
 10
14.5781
 20
29.8181
 30
0.0000
 42
1.0000
  0
VERTEX
  8
21
 10
14.6319
 20
29.8719
 30
0.0000
  0
SEQEND
  8
0
  0
POLYLINE
  8
21
 66
1
 10
0.0000
 20
0.0000
 30
0.0000
 40
0.0762
 41
0.0762
 70
0
  0
VERTEX
  8
21
 10
13.9969
 20
30.5069
 30
0.0000
 42
1.0000
  0
VERTEX
  8
21
 10
13.9431
 20
30.4531
 30
0.0000
  0
SEQEND
  8
0
  0
POLYLINE
  8
21
 66
1
 10
0.0000
 20
0.0000
 30
0.0000
 40
0.1524
 41
0.1524
 70
0
  0
VERTEX
  8
21
 10
14.6050
 20
29.8450
 30
0.0000
  0
VERTEX
  8
21
 10
14.6050
 20
28.5750
 30
0.0000
  0
SEQEND
  8
0
  0
POLYLINE
  8
21
 66
1
 10
0.0000
 20
0.0000
 30
0.0000
 40
0.0762
 41
0.0762
 70
0
  0
VERTEX
  8
21
 10
14.5669
 20
28.5750
 30
0.0000
 42
1.0000
  0
VERTEX
  8
21
 10
14.6431
 20
28.5750
 30
0.0000
  0
SEQEND
  8
0
  0
POLYLINE
  8
21
 66
1
 10
0.0000
 20
0.0000
 30
0.0000
 40
0.0762
 41
0.0762
 70
0
  0
VERTEX
  8
21
 10
14.6431
 20
29.8450
 30
0.0000
 42
1.0000
  0
VERTEX
  8
21
 10
14.5669
 20
29.8450
 30
0.0000
  0
SEQEND
  8
0
  0
POLYLINE
  8
21
 66
1
 10
0.0000
 20
0.0000
 30
0.0000
 40
0.1524
 41
0.1524
 70
0
  0
VERTEX
  8
21
 10
14.6050
 20
28.5750
 30
0.0000
  0
VERTEX
  8
21
 10
13.9700
 20
27.9400
 30
0.0000
  0
SEQEND
  8
0
  0
POLYLINE
  8
21
 66
1
 10
0.0000
 20
0.0000
 30
0.0000
 40
0.0762
 41
0.0762
 70
0
  0
VERTEX
  8
21
 10
13.9431
 20
27.9669
 30
0.0000
 42
1.0000
  0
VERTEX
  8
21
 10
13.9969
 20
27.9131
 30
0.0000
  0
SEQEND
  8
0
  0
POLYLINE
  8
21
 66
1
 10
0.0000
 20
0.0000
 30
0.0000
 40
0.0762
 41
0.0762
 70
0
  0
VERTEX
  8
21
 10
14.6319
 20
28.5481
 30
0.0000
 42
1.0000
  0
VERTEX
  8
21
 10
14.5781
 20
28.6019
 30
0.0000
  0
SEQEND
  8
0
  0
POLYLINE
  8
21
 66
1
 10
0.0000
 20
0.0000
 30
0.0000
 40
0.1524
 41
0.1524
 70
0
  0
VERTEX
  8
21
 10
12.7000
 20
27.9400
 30
0.0000
  0
VERTEX
  8
21
 10
12.0650
 20
28.5750
 30
0.0000
  0
SEQEND
  8
0
  0
POLYLINE
  8
21
 66
1
 10
0.0000
 20
0.0000
 30
0.0000
 40
0.0762
 41
0.0762
 70
0
  0
VERTEX
  8
21
 10
12.0919
 20
28.6019
 30
0.0000
 42
1.0000
  0
VERTEX
  8
21
 10
12.0381
 20
28.5481
 30
0.0000
  0
SEQEND
  8
0
  0
POLYLINE
  8
21
 66
1
 10
0.0000
 20
0.0000
 30
0.0000
 40
0.0762
 41
0.0762
 70
0
  0
VERTEX
  8
21
 10
12.6731
 20
27.9131
 30
0.0000
 42
1.0000
  0
VERTEX
  8
21
 10
12.7269
 20
27.9669
 30
0.0000
  0
SEQEND
  8
0
  0
POLYLINE
  8
21
 66
1
 10
0.0000
 20
0.0000
 30
0.0000
 40
0.1524
 41
0.1524
 70
0
  0
VERTEX
  8
21
 10
12.0650
 20
28.5750
 30
0.0000
  0
VERTEX
  8
21
 10
12.0650
 20
29.8450
 30
0.0000
  0
SEQEND
  8
0
  0
POLYLINE
  8
21
 66
1
 10
0.0000
 20
0.0000
 30
0.0000
 40
0.0762
 41
0.0762
 70
0
  0
VERTEX
  8
21
 10
12.1031
 20
29.8450
 30
0.0000
 42
1.0000
  0
VERTEX
  8
21
 10
12.0269
 20
29.8450
 30
0.0000
  0
SEQEND
  8
0
  0
POLYLINE
  8
21
 66
1
 10
0.0000
 20
0.0000
 30
0.0000
 40
0.0762
 41
0.0762
 70
0
  0
VERTEX
  8
21
 10
12.0269
 20
28.5750
 30
0.0000
 42
1.0000
  0
VERTEX
  8
21
 10
12.1031
 20
28.5750
 30
0.0000
  0
SEQEND
  8
0
  0
POLYLINE
  8
21
 66
1
 10
0.0000
 20
0.0000
 30
0.0000
 40
0.1524
 41
0.1524
 70
0
  0
VERTEX
  8
21
 10
12.0650
 20
29.8450
 30
0.0000
  0
VERTEX
  8
21
 10
12.7000
 20
30.4800
 30
0.0000
  0
SEQEND
  8
0
  0
POLYLINE
  8
21
 66
1
 10
0.0000
 20
0.0000
 30
0.0000
 40
0.0762
 41
0.0762
 70
0
  0
VERTEX
  8
21
 10
12.7269
 20
30.4531
 30
0.0000
 42
1.0000
  0
VERTEX
  8
21
 10
12.6731
 20
30.5069
 30
0.0000
  0
SEQEND
  8
0
  0
POLYLINE
  8
21
 66
1
 10
0.0000
 20
0.0000
 30
0.0000
 40
0.0762
 41
0.0762
 70
0
  0
VERTEX
  8
21
 10
12.0381
 20
29.8719
 30
0.0000
 42
1.0000
  0
VERTEX
  8
21
 10
12.0919
 20
29.8181
 30
0.0000
  0
SEQEND
  8
0
  0
POLYLINE
  8
21
 66
1
 10
0.0000
 20
0.0000
 30
0.0000
 40
0.1524
 41
0.1524
 70
0
  0
VERTEX
  8
21
 10
13.9700
 20
33.0200
 30
0.0000
  0
VERTEX
  8
21
 10
12.7000
 20
33.0200
 30
0.0000
  0
SEQEND
  8
0
  0
POLYLINE
  8
21
 66
1
 10
0.0000
 20
0.0000
 30
0.0000
 40
0.0762
 41
0.0762
 70
0
  0
VERTEX
  8
21
 10
12.7000
 20
33.0581
 30
0.0000
 42
1.0000
  0
VERTEX
  8
21
 10
12.7000
 20
32.9819
 30
0.0000
  0
SEQEND
  8
0
  0
POLYLINE
  8
21
 66
1
 10
0.0000
 20
0.0000
 30
0.0000
 40
0.0762
 41
0.0762
 70
0
  0
VERTEX
  8
21
 10
13.9700
 20
32.9819
 30
0.0000
 42
1.0000
  0
VERTEX
  8
21
 10
13.9700
 20
33.0581
 30
0.0000
  0
SEQEND
  8
0
  0
POLYLINE
  8
21
 66
1
 10
0.0000
 20
0.0000
 30
0.0000
 40
0.1524
 41
0.1524
 70
0
  0
VERTEX
  8
21
 10
14.6050
 20
32.3850
 30
0.0000
  0
VERTEX
  8
21
 10
13.9700
 20
33.0200
 30
0.0000
  0
SEQEND
  8
0
  0
POLYLINE
  8
21
 66
1
 10
0.0000
 20
0.0000
 30
0.0000
 40
0.0762
 41
0.0762
 70
0
  0
VERTEX
  8
21
 10
13.9969
 20
33.0469
 30
0.0000
 42
1.0000
  0
VERTEX
  8
21
 10
13.9431
 20
32.9931
 30
0.0000
  0
SEQEND
  8
0
  0
POLYLINE
  8
21
 66
1
 10
0.0000
 20
0.0000
 30
0.0000
 40
0.0762
 41
0.0762
 70
0
  0
VERTEX
  8
21
 10
14.5781
 20
32.3581
 30
0.0000
 42
1.0000
  0
VERTEX
  8
21
 10
14.6319
 20
32.4119
 30
0.0000
  0
SEQEND
  8
0
  0
POLYLINE
  8
21
 66
1
 10
0.0000
 20
0.0000
 30
0.0000
 40
0.1524
 41
0.1524
 70
0
  0
VERTEX
  8
21
 10
12.7000
 20
33.0200
 30
0.0000
  0
VERTEX
  8
21
 10
12.0650
 20
32.3850
 30
0.0000
  0
SEQEND
  8
0
  0
POLYLINE
  8
21
 66
1
 10
0.0000
 20
0.0000
 30
0.0000
 40
0.0762
 41
0.0762
 70
0
  0
VERTEX
  8
21
 10
12.0381
 20
32.4119
 30
0.0000
 42
1.0000
  0
VERTEX
  8
21
 10
12.0919
 20
32.3581
 30
0.0000
  0
SEQEND
  8
0
  0
POLYLINE
  8
21
 66
1
 10
0.0000
 20
0.0000
 30
0.0000
 40
0.0762
 41
0.0762
 70
0
  0
VERTEX
  8
21
 10
12.7269
 20
32.9931
 30
0.0000
 42
1.0000
  0
VERTEX
  8
21
 10
12.6731
 20
33.0469
 30
0.0000
  0
SEQEND
  8
0
  0
POLYLINE
  8
21
 66
1
 10
0.0000
 20
0.0000
 30
0.0000
 40
0.1524
 41
0.1524
 70
0
  0
VERTEX
  8
21
 10
12.0650
 20
31.1150
 30
0.0000
  0
VERTEX
  8
21
 10
12.0650
 20
32.3850
 30
0.0000
  0
SEQEND
  8
0
  0
POLYLINE
  8
21
 66
1
 10
0.0000
 20
0.0000
 30
0.0000
 40
0.0762
 41
0.0762
 70
0
  0
VERTEX
  8
21
 10
12.1031
 20
32.3850
 30
0.0000
 42
1.0000
  0
VERTEX
  8
21
 10
12.0269
 20
32.3850
 30
0.0000
  0
SEQEND
  8
0
  0
POLYLINE
  8
21
 66
1
 10
0.0000
 20
0.0000
 30
0.0000
 40
0.0762
 41
0.0762
 70
0
  0
VERTEX
  8
21
 10
12.0269
 20
31.1150
 30
0.0000
 42
1.0000
  0
VERTEX
  8
21
 10
12.1031
 20
31.1150
 30
0.0000
  0
SEQEND
  8
0
  0
POLYLINE
  8
21
 66
1
 10
0.0000
 20
0.0000
 30
0.0000
 40
0.1524
 41
0.1524
 70
0
  0
VERTEX
  8
21
 10
13.9700
 20
27.9400
 30
0.0000
  0
VERTEX
  8
21
 10
14.6050
 20
27.3050
 30
0.0000
  0
SEQEND
  8
0
  0
POLYLINE
  8
21
 66
1
 10
0.0000
 20
0.0000
 30
0.0000
 40
0.0762
 41
0.0762
 70
0
  0
VERTEX
  8
21
 10
14.5781
 20
27.2781
 30
0.0000
 42
1.0000
  0
VERTEX
  8
21
 10
14.6319
 20
27.3319
 30
0.0000
  0
SEQEND
  8
0
  0
POLYLINE
  8
21
 66
1
 10
0.0000
 20
0.0000
 30
0.0000
 40
0.0762
 41
0.0762
 70
0
  0
VERTEX
  8
21
 10
13.9969
 20
27.9669
 30
0.0000
 42
1.0000
  0
VERTEX
  8
21
 10
13.9431
 20
27.9131
 30
0.0000
  0
SEQEND
  8
0
  0
POLYLINE
  8
21
 66
1
 10
0.0000
 20
0.0000
 30
0.0000
 40
0.1524
 41
0.1524
 70
0
  0
VERTEX
  8
21
 10
14.6050
 20
27.3050
 30
0.0000
  0
VERTEX
  8
21
 10
14.6050
 20
26.0350
 30
0.0000
  0
SEQEND
  8
0
  0
POLYLINE
  8
21
 66
1
 10
0.0000
 20
0.0000
 30
0.0000
 40
0.0762
 41
0.0762
 70
0
  0
VERTEX
  8
21
 10
14.5669
 20
26.0350
 30
0.0000
 42
1.0000
  0
VERTEX
  8
21
 10
14.6431
 20
26.0350
 30
0.0000
  0
SEQEND
  8
0
  0
POLYLINE
  8
21
 66
1
 10
0.0000
 20
0.0000
 30
0.0000
 40
0.0762
 41
0.0762
 70
0
  0
VERTEX
  8
21
 10
14.6431
 20
27.3050
 30
0.0000
 42
1.0000
  0
VERTEX
  8
21
 10
14.5669
 20
27.3050
 30
0.0000
  0
SEQEND
  8
0
  0
POLYLINE
  8
21
 66
1
 10
0.0000
 20
0.0000
 30
0.0000
 40
0.1524
 41
0.1524
 70
0
  0
VERTEX
  8
21
 10
14.6050
 20
26.0350
 30
0.0000
  0
VERTEX
  8
21
 10
13.9700
 20
25.4000
 30
0.0000
  0
SEQEND
  8
0
  0
POLYLINE
  8
21
 66
1
 10
0.0000
 20
0.0000
 30
0.0000
 40
0.0762
 41
0.0762
 70
0
  0
VERTEX
  8
21
 10
13.9431
 20
25.4269
 30
0.0000
 42
1.0000
  0
VERTEX
  8
21
 10
13.9969
 20
25.3731
 30
0.0000
  0
SEQEND
  8
0
  0
POLYLINE
  8
21
 66
1
 10
0.0000
 20
0.0000
 30
0.0000
 40
0.0762
 41
0.0762
 70
0
  0
VERTEX
  8
21
 10
14.6319
 20
26.0081
 30
0.0000
 42
1.0000
  0
VERTEX
  8
21
 10
14.5781
 20
26.0619
 30
0.0000
  0
SEQEND
  8
0
  0
POLYLINE
  8
21
 66
1
 10
0.0000
 20
0.0000
 30
0.0000
 40
0.1524
 41
0.1524
 70
0
  0
VERTEX
  8
21
 10
12.7000
 20
25.4000
 30
0.0000
  0
VERTEX
  8
21
 10
12.0650
 20
26.0350
 30
0.0000
  0
SEQEND
  8
0
  0
POLYLINE
  8
21
 66
1
 10
0.0000
 20
0.0000
 30
0.0000
 40
0.0762
 41
0.0762
 70
0
  0
VERTEX
  8
21
 10
12.0919
 20
26.0619
 30
0.0000
 42
1.0000
  0
VERTEX
  8
21
 10
12.0381
 20
26.0081
 30
0.0000
  0
SEQEND
  8
0
  0
POLYLINE
  8
21
 66
1
 10
0.0000
 20
0.0000
 30
0.0000
 40
0.0762
 41
0.0762
 70
0
  0
VERTEX
  8
21
 10
12.6731
 20
25.3731
 30
0.0000
 42
1.0000
  0
VERTEX
  8
21
 10
12.7269
 20
25.4269
 30
0.0000
  0
SEQEND
  8
0
  0
POLYLINE
  8
21
 66
1
 10
0.0000
 20
0.0000
 30
0.0000
 40
0.1524
 41
0.1524
 70
0
  0
VERTEX
  8
21
 10
12.0650
 20
26.0350
 30
0.0000
  0
VERTEX
  8
21
 10
12.0650
 20
27.3050
 30
0.0000
  0
SEQEND
  8
0
  0
POLYLINE
  8
21
 66
1
 10
0.0000
 20
0.0000
 30
0.0000
 40
0.0762
 41
0.0762
 70
0
  0
VERTEX
  8
21
 10
12.1031
 20
27.3050
 30
0.0000
 42
1.0000
  0
VERTEX
  8
21
 10
12.0269
 20
27.3050
 30
0.0000
  0
SEQEND
  8
0
  0
POLYLINE
  8
21
 66
1
 10
0.0000
 20
0.0000
 30
0.0000
 40
0.0762
 41
0.0762
 70
0
  0
VERTEX
  8
21
 10
12.0269
 20
26.0350
 30
0.0000
 42
1.0000
  0
VERTEX
  8
21
 10
12.1031
 20
26.0350
 30
0.0000
  0
SEQEND
  8
0
  0
POLYLINE
  8
21
 66
1
 10
0.0000
 20
0.0000
 30
0.0000
 40
0.1524
 41
0.1524
 70
0
  0
VERTEX
  8
21
 10
12.0650
 20
27.3050
 30
0.0000
  0
VERTEX
  8
21
 10
12.7000
 20
27.9400
 30
0.0000
  0
SEQEND
  8
0
  0
POLYLINE
  8
21
 66
1
 10
0.0000
 20
0.0000
 30
0.0000
 40
0.0762
 41
0.0762
 70
0
  0
VERTEX
  8
21
 10
12.7269
 20
27.9131
 30
0.0000
 42
1.0000
  0
VERTEX
  8
21
 10
12.6731
 20
27.9669
 30
0.0000
  0
SEQEND
  8
0
  0
POLYLINE
  8
21
 66
1
 10
0.0000
 20
0.0000
 30
0.0000
 40
0.0762
 41
0.0762
 70
0
  0
VERTEX
  8
21
 10
12.0381
 20
27.3319
 30
0.0000
 42
1.0000
  0
VERTEX
  8
21
 10
12.0919
 20
27.2781
 30
0.0000
  0
SEQEND
  8
0
  0
POLYLINE
  8
21
 66
1
 10
0.0000
 20
0.0000
 30
0.0000
 40
0.1524
 41
0.1524
 70
0
  0
VERTEX
  8
21
 10
14.6050
 20
24.7650
 30
0.0000
  0
VERTEX
  8
21
 10
14.6050
 20
23.4950
 30
0.0000
  0
SEQEND
  8
0
  0
POLYLINE
  8
21
 66
1
 10
0.0000
 20
0.0000
 30
0.0000
 40
0.0762
 41
0.0762
 70
0
  0
VERTEX
  8
21
 10
14.5669
 20
23.4950
 30
0.0000
 42
1.0000
  0
VERTEX
  8
21
 10
14.6431
 20
23.4950
 30
0.0000
  0
SEQEND
  8
0
  0
POLYLINE
  8
21
 66
1
 10
0.0000
 20
0.0000
 30
0.0000
 40
0.0762
 41
0.0762
 70
0
  0
VERTEX
  8
21
 10
14.6431
 20
24.7650
 30
0.0000
 42
1.0000
  0
VERTEX
  8
21
 10
14.5669
 20
24.7650
 30
0.0000
  0
SEQEND
  8
0
  0
POLYLINE
  8
21
 66
1
 10
0.0000
 20
0.0000
 30
0.0000
 40
0.1524
 41
0.1524
 70
0
  0
VERTEX
  8
21
 10
14.6050
 20
23.4950
 30
0.0000
  0
VERTEX
  8
21
 10
13.9700
 20
22.8600
 30
0.0000
  0
SEQEND
  8
0
  0
POLYLINE
  8
21
 66
1
 10
0.0000
 20
0.0000
 30
0.0000
 40
0.0762
 41
0.0762
 70
0
  0
VERTEX
  8
21
 10
13.9431
 20
22.8869
 30
0.0000
 42
1.0000
  0
VERTEX
  8
21
 10
13.9969
 20
22.8331
 30
0.0000
  0
SEQEND
  8
0
  0
POLYLINE
  8
21
 66
1
 10
0.0000
 20
0.0000
 30
0.0000
 40
0.0762
 41
0.0762
 70
0
  0
VERTEX
  8
21
 10
14.6319
 20
23.4681
 30
0.0000
 42
1.0000
  0
VERTEX
  8
21
 10
14.5781
 20
23.5219
 30
0.0000
  0
SEQEND
  8
0
  0
POLYLINE
  8
21
 66
1
 10
0.0000
 20
0.0000
 30
0.0000
 40
0.1524
 41
0.1524
 70
0
  0
VERTEX
  8
21
 10
12.7000
 20
22.8600
 30
0.0000
  0
VERTEX
  8
21
 10
12.0650
 20
23.4950
 30
0.0000
  0
SEQEND
  8
0
  0
POLYLINE
  8
21
 66
1
 10
0.0000
 20
0.0000
 30
0.0000
 40
0.0762
 41
0.0762
 70
0
  0
VERTEX
  8
21
 10
12.0919
 20
23.5219
 30
0.0000
 42
1.0000
  0
VERTEX
  8
21
 10
12.0381
 20
23.4681
 30
0.0000
  0
SEQEND
  8
0
  0
POLYLINE
  8
21
 66
1
 10
0.0000
 20
0.0000
 30
0.0000
 40
0.0762
 41
0.0762
 70
0
  0
VERTEX
  8
21
 10
12.6731
 20
22.8331
 30
0.0000
 42
1.0000
  0
VERTEX
  8
21
 10
12.7269
 20
22.8869
 30
0.0000
  0
SEQEND
  8
0
  0
POLYLINE
  8
21
 66
1
 10
0.0000
 20
0.0000
 30
0.0000
 40
0.1524
 41
0.1524
 70
0
  0
VERTEX
  8
21
 10
13.9700
 20
22.8600
 30
0.0000
  0
VERTEX
  8
21
 10
14.6050
 20
22.2250
 30
0.0000
  0
SEQEND
  8
0
  0
POLYLINE
  8
21
 66
1
 10
0.0000
 20
0.0000
 30
0.0000
 40
0.0762
 41
0.0762
 70
0
  0
VERTEX
  8
21
 10
14.5781
 20
22.1981
 30
0.0000
 42
1.0000
  0
VERTEX
  8
21
 10
14.6319
 20
22.2519
 30
0.0000
  0
SEQEND
  8
0
  0
POLYLINE
  8
21
 66
1
 10
0.0000
 20
0.0000
 30
0.0000
 40
0.0762
 41
0.0762
 70
0
  0
VERTEX
  8
21
 10
13.9969
 20
22.8869
 30
0.0000
 42
1.0000
  0
VERTEX
  8
21
 10
13.9431
 20
22.8331
 30
0.0000
  0
SEQEND
  8
0
  0
POLYLINE
  8
21
 66
1
 10
0.0000
 20
0.0000
 30
0.0000
 40
0.1524
 41
0.1524
 70
0
  0
VERTEX
  8
21
 10
14.6050
 20
22.2250
 30
0.0000
  0
VERTEX
  8
21
 10
14.6050
 20
20.9550
 30
0.0000
  0
SEQEND
  8
0
  0
POLYLINE
  8
21
 66
1
 10
0.0000
 20
0.0000
 30
0.0000
 40
0.0762
 41
0.0762
 70
0
  0
VERTEX
  8
21
 10
14.5669
 20
20.9550
 30
0.0000
 42
1.0000
  0
VERTEX
  8
21
 10
14.6431
 20
20.9550
 30
0.0000
  0
SEQEND
  8
0
  0
POLYLINE
  8
21
 66
1
 10
0.0000
 20
0.0000
 30
0.0000
 40
0.0762
 41
0.0762
 70
0
  0
VERTEX
  8
21
 10
14.6431
 20
22.2250
 30
0.0000
 42
1.0000
  0
VERTEX
  8
21
 10
14.5669
 20
22.2250
 30
0.0000
  0
SEQEND
  8
0
  0
POLYLINE
  8
21
 66
1
 10
0.0000
 20
0.0000
 30
0.0000
 40
0.1524
 41
0.1524
 70
0
  0
VERTEX
  8
21
 10
14.6050
 20
20.9550
 30
0.0000
  0
VERTEX
  8
21
 10
13.9700
 20
20.3200
 30
0.0000
  0
SEQEND
  8
0
  0
POLYLINE
  8
21
 66
1
 10
0.0000
 20
0.0000
 30
0.0000
 40
0.0762
 41
0.0762
 70
0
  0
VERTEX
  8
21
 10
13.9431
 20
20.3469
 30
0.0000
 42
1.0000
  0
VERTEX
  8
21
 10
13.9969
 20
20.2931
 30
0.0000
  0
SEQEND
  8
0
  0
POLYLINE
  8
21
 66
1
 10
0.0000
 20
0.0000
 30
0.0000
 40
0.0762
 41
0.0762
 70
0
  0
VERTEX
  8
21
 10
14.6319
 20
20.9281
 30
0.0000
 42
1.0000
  0
VERTEX
  8
21
 10
14.5781
 20
20.9819
 30
0.0000
  0
SEQEND
  8
0
  0
POLYLINE
  8
21
 66
1
 10
0.0000
 20
0.0000
 30
0.0000
 40
0.1524
 41
0.1524
 70
0
  0
VERTEX
  8
21
 10
12.7000
 20
20.3200
 30
0.0000
  0
VERTEX
  8
21
 10
12.0650
 20
20.9550
 30
0.0000
  0
SEQEND
  8
0
  0
POLYLINE
  8
21
 66
1
 10
0.0000
 20
0.0000
 30
0.0000
 40
0.0762
 41
0.0762
 70
0
  0
VERTEX
  8
21
 10
12.0919
 20
20.9819
 30
0.0000
 42
1.0000
  0
VERTEX
  8
21
 10
12.0381
 20
20.9281
 30
0.0000
  0
SEQEND
  8
0
  0
POLYLINE
  8
21
 66
1
 10
0.0000
 20
0.0000
 30
0.0000
 40
0.0762
 41
0.0762
 70
0
  0
VERTEX
  8
21
 10
12.6731
 20
20.2931
 30
0.0000
 42
1.0000
  0
VERTEX
  8
21
 10
12.7269
 20
20.3469
 30
0.0000
  0
SEQEND
  8
0
  0
POLYLINE
  8
21
 66
1
 10
0.0000
 20
0.0000
 30
0.0000
 40
0.1524
 41
0.1524
 70
0
  0
VERTEX
  8
21
 10
12.0650
 20
20.9550
 30
0.0000
  0
VERTEX
  8
21
 10
12.0650
 20
22.2250
 30
0.0000
  0
SEQEND
  8
0
  0
POLYLINE
  8
21
 66
1
 10
0.0000
 20
0.0000
 30
0.0000
 40
0.0762
 41
0.0762
 70
0
  0
VERTEX
  8
21
 10
12.1031
 20
22.2250
 30
0.0000
 42
1.0000
  0
VERTEX
  8
21
 10
12.0269
 20
22.2250
 30
0.0000
  0
SEQEND
  8
0
  0
POLYLINE
  8
21
 66
1
 10
0.0000
 20
0.0000
 30
0.0000
 40
0.0762
 41
0.0762
 70
0
  0
VERTEX
  8
21
 10
12.0269
 20
20.9550
 30
0.0000
 42
1.0000
  0
VERTEX
  8
21
 10
12.1031
 20
20.9550
 30
0.0000
  0
SEQEND
  8
0
  0
POLYLINE
  8
21
 66
1
 10
0.0000
 20
0.0000
 30
0.0000
 40
0.1524
 41
0.1524
 70
0
  0
VERTEX
  8
21
 10
12.0650
 20
22.2250
 30
0.0000
  0
VERTEX
  8
21
 10
12.7000
 20
22.8600
 30
0.0000
  0
SEQEND
  8
0
  0
POLYLINE
  8
21
 66
1
 10
0.0000
 20
0.0000
 30
0.0000
 40
0.0762
 41
0.0762
 70
0
  0
VERTEX
  8
21
 10
12.7269
 20
22.8331
 30
0.0000
 42
1.0000
  0
VERTEX
  8
21
 10
12.6731
 20
22.8869
 30
0.0000
  0
SEQEND
  8
0
  0
POLYLINE
  8
21
 66
1
 10
0.0000
 20
0.0000
 30
0.0000
 40
0.0762
 41
0.0762
 70
0
  0
VERTEX
  8
21
 10
12.0381
 20
22.2519
 30
0.0000
 42
1.0000
  0
VERTEX
  8
21
 10
12.0919
 20
22.1981
 30
0.0000
  0
SEQEND
  8
0
  0
POLYLINE
  8
21
 66
1
 10
0.0000
 20
0.0000
 30
0.0000
 40
0.1524
 41
0.1524
 70
0
  0
VERTEX
  8
21
 10
14.6050
 20
24.7650
 30
0.0000
  0
VERTEX
  8
21
 10
13.9700
 20
25.4000
 30
0.0000
  0
SEQEND
  8
0
  0
POLYLINE
  8
21
 66
1
 10
0.0000
 20
0.0000
 30
0.0000
 40
0.0762
 41
0.0762
 70
0
  0
VERTEX
  8
21
 10
13.9969
 20
25.4269
 30
0.0000
 42
1.0000
  0
VERTEX
  8
21
 10
13.9431
 20
25.3731
 30
0.0000
  0
SEQEND
  8
0
  0
POLYLINE
  8
21
 66
1
 10
0.0000
 20
0.0000
 30
0.0000
 40
0.0762
 41
0.0762
 70
0
  0
VERTEX
  8
21
 10
14.5781
 20
24.7381
 30
0.0000
 42
1.0000
  0
VERTEX
  8
21
 10
14.6319
 20
24.7919
 30
0.0000
  0
SEQEND
  8
0
  0
POLYLINE
  8
21
 66
1
 10
0.0000
 20
0.0000
 30
0.0000
 40
0.1524
 41
0.1524
 70
0
  0
VERTEX
  8
21
 10
12.7000
 20
25.4000
 30
0.0000
  0
VERTEX
  8
21
 10
12.0650
 20
24.7650
 30
0.0000
  0
SEQEND
  8
0
  0
POLYLINE
  8
21
 66
1
 10
0.0000
 20
0.0000
 30
0.0000
 40
0.0762
 41
0.0762
 70
0
  0
VERTEX
  8
21
 10
12.0381
 20
24.7919
 30
0.0000
 42
1.0000
  0
VERTEX
  8
21
 10
12.0919
 20
24.7381
 30
0.0000
  0
SEQEND
  8
0
  0
POLYLINE
  8
21
 66
1
 10
0.0000
 20
0.0000
 30
0.0000
 40
0.0762
 41
0.0762
 70
0
  0
VERTEX
  8
21
 10
12.7269
 20
25.3731
 30
0.0000
 42
1.0000
  0
VERTEX
  8
21
 10
12.6731
 20
25.4269
 30
0.0000
  0
SEQEND
  8
0
  0
POLYLINE
  8
21
 66
1
 10
0.0000
 20
0.0000
 30
0.0000
 40
0.1524
 41
0.1524
 70
0
  0
VERTEX
  8
21
 10
12.0650
 20
23.4950
 30
0.0000
  0
VERTEX
  8
21
 10
12.0650
 20
24.7650
 30
0.0000
  0
SEQEND
  8
0
  0
POLYLINE
  8
21
 66
1
 10
0.0000
 20
0.0000
 30
0.0000
 40
0.0762
 41
0.0762
 70
0
  0
VERTEX
  8
21
 10
12.1031
 20
24.7650
 30
0.0000
 42
1.0000
  0
VERTEX
  8
21
 10
12.0269
 20
24.7650
 30
0.0000
  0
SEQEND
  8
0
  0
POLYLINE
  8
21
 66
1
 10
0.0000
 20
0.0000
 30
0.0000
 40
0.0762
 41
0.0762
 70
0
  0
VERTEX
  8
21
 10
12.0269
 20
23.4950
 30
0.0000
 42
1.0000
  0
VERTEX
  8
21
 10
12.1031
 20
23.4950
 30
0.0000
  0
SEQEND
  8
0
  0
POLYLINE
  8
21
 66
1
 10
0.0000
 20
0.0000
 30
0.0000
 40
0.1524
 41
0.1524
 70
0
  0
VERTEX
  8
21
 10
13.9700
 20
20.3200
 30
0.0000
  0
VERTEX
  8
21
 10
14.6050
 20
19.6850
 30
0.0000
  0
SEQEND
  8
0
  0
POLYLINE
  8
21
 66
1
 10
0.0000
 20
0.0000
 30
0.0000
 40
0.0762
 41
0.0762
 70
0
  0
VERTEX
  8
21
 10
14.5781
 20
19.6581
 30
0.0000
 42
1.0000
  0
VERTEX
  8
21
 10
14.6319
 20
19.7119
 30
0.0000
  0
SEQEND
  8
0
  0
POLYLINE
  8
21
 66
1
 10
0.0000
 20
0.0000
 30
0.0000
 40
0.0762
 41
0.0762
 70
0
  0
VERTEX
  8
21
 10
13.9969
 20
20.3469
 30
0.0000
 42
1.0000
  0
VERTEX
  8
21
 10
13.9431
 20
20.2931
 30
0.0000
  0
SEQEND
  8
0
  0
POLYLINE
  8
21
 66
1
 10
0.0000
 20
0.0000
 30
0.0000
 40
0.1524
 41
0.1524
 70
0
  0
VERTEX
  8
21
 10
14.6050
 20
19.6850
 30
0.0000
  0
VERTEX
  8
21
 10
14.6050
 20
18.4150
 30
0.0000
  0
SEQEND
  8
0
  0
POLYLINE
  8
21
 66
1
 10
0.0000
 20
0.0000
 30
0.0000
 40
0.0762
 41
0.0762
 70
0
  0
VERTEX
  8
21
 10
14.5669
 20
18.4150
 30
0.0000
 42
1.0000
  0
VERTEX
  8
21
 10
14.6431
 20
18.4150
 30
0.0000
  0
SEQEND
  8
0
  0
POLYLINE
  8
21
 66
1
 10
0.0000
 20
0.0000
 30
0.0000
 40
0.0762
 41
0.0762
 70
0
  0
VERTEX
  8
21
 10
14.6431
 20
19.6850
 30
0.0000
 42
1.0000
  0
VERTEX
  8
21
 10
14.5669
 20
19.6850
 30
0.0000
  0
SEQEND
  8
0
  0
POLYLINE
  8
21
 66
1
 10
0.0000
 20
0.0000
 30
0.0000
 40
0.1524
 41
0.1524
 70
0
  0
VERTEX
  8
21
 10
14.6050
 20
18.4150
 30
0.0000
  0
VERTEX
  8
21
 10
13.9700
 20
17.7800
 30
0.0000
  0
SEQEND
  8
0
  0
POLYLINE
  8
21
 66
1
 10
0.0000
 20
0.0000
 30
0.0000
 40
0.0762
 41
0.0762
 70
0
  0
VERTEX
  8
21
 10
13.9431
 20
17.8069
 30
0.0000
 42
1.0000
  0
VERTEX
  8
21
 10
13.9969
 20
17.7531
 30
0.0000
  0
SEQEND
  8
0
  0
POLYLINE
  8
21
 66
1
 10
0.0000
 20
0.0000
 30
0.0000
 40
0.0762
 41
0.0762
 70
0
  0
VERTEX
  8
21
 10
14.6319
 20
18.3881
 30
0.0000
 42
1.0000
  0
VERTEX
  8
21
 10
14.5781
 20
18.4419
 30
0.0000
  0
SEQEND
  8
0
  0
POLYLINE
  8
21
 66
1
 10
0.0000
 20
0.0000
 30
0.0000
 40
0.1524
 41
0.1524
 70
0
  0
VERTEX
  8
21
 10
12.7000
 20
17.7800
 30
0.0000
  0
VERTEX
  8
21
 10
12.0650
 20
18.4150
 30
0.0000
  0
SEQEND
  8
0
  0
POLYLINE
  8
21
 66
1
 10
0.0000
 20
0.0000
 30
0.0000
 40
0.0762
 41
0.0762
 70
0
  0
VERTEX
  8
21
 10
12.0919
 20
18.4419
 30
0.0000
 42
1.0000
  0
VERTEX
  8
21
 10
12.0381
 20
18.3881
 30
0.0000
  0
SEQEND
  8
0
  0
POLYLINE
  8
21
 66
1
 10
0.0000
 20
0.0000
 30
0.0000
 40
0.0762
 41
0.0762
 70
0
  0
VERTEX
  8
21
 10
12.6731
 20
17.7531
 30
0.0000
 42
1.0000
  0
VERTEX
  8
21
 10
12.7269
 20
17.8069
 30
0.0000
  0
SEQEND
  8
0
  0
POLYLINE
  8
21
 66
1
 10
0.0000
 20
0.0000
 30
0.0000
 40
0.1524
 41
0.1524
 70
0
  0
VERTEX
  8
21
 10
12.0650
 20
18.4150
 30
0.0000
  0
VERTEX
  8
21
 10
12.0650
 20
19.6850
 30
0.0000
  0
SEQEND
  8
0
  0
POLYLINE
  8
21
 66
1
 10
0.0000
 20
0.0000
 30
0.0000
 40
0.0762
 41
0.0762
 70
0
  0
VERTEX
  8
21
 10
12.1031
 20
19.6850
 30
0.0000
 42
1.0000
  0
VERTEX
  8
21
 10
12.0269
 20
19.6850
 30
0.0000
  0
SEQEND
  8
0
  0
POLYLINE
  8
21
 66
1
 10
0.0000
 20
0.0000
 30
0.0000
 40
0.0762
 41
0.0762
 70
0
  0
VERTEX
  8
21
 10
12.0269
 20
18.4150
 30
0.0000
 42
1.0000
  0
VERTEX
  8
21
 10
12.1031
 20
18.4150
 30
0.0000
  0
SEQEND
  8
0
  0
POLYLINE
  8
21
 66
1
 10
0.0000
 20
0.0000
 30
0.0000
 40
0.1524
 41
0.1524
 70
0
  0
VERTEX
  8
21
 10
12.0650
 20
19.6850
 30
0.0000
  0
VERTEX
  8
21
 10
12.7000
 20
20.3200
 30
0.0000
  0
SEQEND
  8
0
  0
POLYLINE
  8
21
 66
1
 10
0.0000
 20
0.0000
 30
0.0000
 40
0.0762
 41
0.0762
 70
0
  0
VERTEX
  8
21
 10
12.7269
 20
20.2931
 30
0.0000
 42
1.0000
  0
VERTEX
  8
21
 10
12.6731
 20
20.3469
 30
0.0000
  0
SEQEND
  8
0
  0
POLYLINE
  8
21
 66
1
 10
0.0000
 20
0.0000
 30
0.0000
 40
0.0762
 41
0.0762
 70
0
  0
VERTEX
  8
21
 10
12.0381
 20
19.7119
 30
0.0000
 42
1.0000
  0
VERTEX
  8
21
 10
12.0919
 20
19.6581
 30
0.0000
  0
SEQEND
  8
0
  0
POLYLINE
  8
21
 66
1
 10
0.0000
 20
0.0000
 30
0.0000
 40
0.1524
 41
0.1524
 70
0
  0
VERTEX
  8
21
 10
14.6050
 20
17.1450
 30
0.0000
  0
VERTEX
  8
21
 10
14.6050
 20
15.8750
 30
0.0000
  0
SEQEND
  8
0
  0
POLYLINE
  8
21
 66
1
 10
0.0000
 20
0.0000
 30
0.0000
 40
0.0762
 41
0.0762
 70
0
  0
VERTEX
  8
21
 10
14.5669
 20
15.8750
 30
0.0000
 42
1.0000
  0
VERTEX
  8
21
 10
14.6431
 20
15.8750
 30
0.0000
  0
SEQEND
  8
0
  0
POLYLINE
  8
21
 66
1
 10
0.0000
 20
0.0000
 30
0.0000
 40
0.0762
 41
0.0762
 70
0
  0
VERTEX
  8
21
 10
14.6431
 20
17.1450
 30
0.0000
 42
1.0000
  0
VERTEX
  8
21
 10
14.5669
 20
17.1450
 30
0.0000
  0
SEQEND
  8
0
  0
POLYLINE
  8
21
 66
1
 10
0.0000
 20
0.0000
 30
0.0000
 40
0.1524
 41
0.1524
 70
0
  0
VERTEX
  8
21
 10
14.6050
 20
15.8750
 30
0.0000
  0
VERTEX
  8
21
 10
13.9700
 20
15.2400
 30
0.0000
  0
SEQEND
  8
0
  0
POLYLINE
  8
21
 66
1
 10
0.0000
 20
0.0000
 30
0.0000
 40
0.0762
 41
0.0762
 70
0
  0
VERTEX
  8
21
 10
13.9431
 20
15.2669
 30
0.0000
 42
1.0000
  0
VERTEX
  8
21
 10
13.9969
 20
15.2131
 30
0.0000
  0
SEQEND
  8
0
  0
POLYLINE
  8
21
 66
1
 10
0.0000
 20
0.0000
 30
0.0000
 40
0.0762
 41
0.0762
 70
0
  0
VERTEX
  8
21
 10
14.6319
 20
15.8481
 30
0.0000
 42
1.0000
  0
VERTEX
  8
21
 10
14.5781
 20
15.9019
 30
0.0000
  0
SEQEND
  8
0
  0
POLYLINE
  8
21
 66
1
 10
0.0000
 20
0.0000
 30
0.0000
 40
0.1524
 41
0.1524
 70
0
  0
VERTEX
  8
21
 10
13.9700
 20
15.2400
 30
0.0000
  0
VERTEX
  8
21
 10
12.7000
 20
15.2400
 30
0.0000
  0
SEQEND
  8
0
  0
POLYLINE
  8
21
 66
1
 10
0.0000
 20
0.0000
 30
0.0000
 40
0.0762
 41
0.0762
 70
0
  0
VERTEX
  8
21
 10
12.7000
 20
15.2781
 30
0.0000
 42
1.0000
  0
VERTEX
  8
21
 10
12.7000
 20
15.2019
 30
0.0000
  0
SEQEND
  8
0
  0
POLYLINE
  8
21
 66
1
 10
0.0000
 20
0.0000
 30
0.0000
 40
0.0762
 41
0.0762
 70
0
  0
VERTEX
  8
21
 10
13.9700
 20
15.2019
 30
0.0000
 42
1.0000
  0
VERTEX
  8
21
 10
13.9700
 20
15.2781
 30
0.0000
  0
SEQEND
  8
0
  0
POLYLINE
  8
21
 66
1
 10
0.0000
 20
0.0000
 30
0.0000
 40
0.1524
 41
0.1524
 70
0
  0
VERTEX
  8
21
 10
12.7000
 20
15.2400
 30
0.0000
  0
VERTEX
  8
21
 10
12.0650
 20
15.8750
 30
0.0000
  0
SEQEND
  8
0
  0
POLYLINE
  8
21
 66
1
 10
0.0000
 20
0.0000
 30
0.0000
 40
0.0762
 41
0.0762
 70
0
  0
VERTEX
  8
21
 10
12.0919
 20
15.9019
 30
0.0000
 42
1.0000
  0
VERTEX
  8
21
 10
12.0381
 20
15.8481
 30
0.0000
  0
SEQEND
  8
0
  0
POLYLINE
  8
21
 66
1
 10
0.0000
 20
0.0000
 30
0.0000
 40
0.0762
 41
0.0762
 70
0
  0
VERTEX
  8
21
 10
12.6731
 20
15.2131
 30
0.0000
 42
1.0000
  0
VERTEX
  8
21
 10
12.7269
 20
15.2669
 30
0.0000
  0
SEQEND
  8
0
  0
POLYLINE
  8
21
 66
1
 10
0.0000
 20
0.0000
 30
0.0000
 40
0.1524
 41
0.1524
 70
0
  0
VERTEX
  8
21
 10
14.6050
 20
17.1450
 30
0.0000
  0
VERTEX
  8
21
 10
13.9700
 20
17.7800
 30
0.0000
  0
SEQEND
  8
0
  0
POLYLINE
  8
21
 66
1
 10
0.0000
 20
0.0000
 30
0.0000
 40
0.0762
 41
0.0762
 70
0
  0
VERTEX
  8
21
 10
13.9969
 20
17.8069
 30
0.0000
 42
1.0000
  0
VERTEX
  8
21
 10
13.9431
 20
17.7531
 30
0.0000
  0
SEQEND
  8
0
  0
POLYLINE
  8
21
 66
1
 10
0.0000
 20
0.0000
 30
0.0000
 40
0.0762
 41
0.0762
 70
0
  0
VERTEX
  8
21
 10
14.5781
 20
17.1181
 30
0.0000
 42
1.0000
  0
VERTEX
  8
21
 10
14.6319
 20
17.1719
 30
0.0000
  0
SEQEND
  8
0
  0
POLYLINE
  8
21
 66
1
 10
0.0000
 20
0.0000
 30
0.0000
 40
0.1524
 41
0.1524
 70
0
  0
VERTEX
  8
21
 10
12.7000
 20
17.7800
 30
0.0000
  0
VERTEX
  8
21
 10
12.0650
 20
17.1450
 30
0.0000
  0
SEQEND
  8
0
  0
POLYLINE
  8
21
 66
1
 10
0.0000
 20
0.0000
 30
0.0000
 40
0.0762
 41
0.0762
 70
0
  0
VERTEX
  8
21
 10
12.0381
 20
17.1719
 30
0.0000
 42
1.0000
  0
VERTEX
  8
21
 10
12.0919
 20
17.1181
 30
0.0000
  0
SEQEND
  8
0
  0
POLYLINE
  8
21
 66
1
 10
0.0000
 20
0.0000
 30
0.0000
 40
0.0762
 41
0.0762
 70
0
  0
VERTEX
  8
21
 10
12.7269
 20
17.7531
 30
0.0000
 42
1.0000
  0
VERTEX
  8
21
 10
12.6731
 20
17.8069
 30
0.0000
  0
SEQEND
  8
0
  0
POLYLINE
  8
21
 66
1
 10
0.0000
 20
0.0000
 30
0.0000
 40
0.1524
 41
0.1524
 70
0
  0
VERTEX
  8
21
 10
12.0650
 20
15.8750
 30
0.0000
  0
VERTEX
  8
21
 10
12.0650
 20
17.1450
 30
0.0000
  0
SEQEND
  8
0
  0
POLYLINE
  8
21
 66
1
 10
0.0000
 20
0.0000
 30
0.0000
 40
0.0762
 41
0.0762
 70
0
  0
VERTEX
  8
21
 10
12.1031
 20
17.1450
 30
0.0000
 42
1.0000
  0
VERTEX
  8
21
 10
12.0269
 20
17.1450
 30
0.0000
  0
SEQEND
  8
0
  0
POLYLINE
  8
21
 66
1
 10
0.0000
 20
0.0000
 30
0.0000
 40
0.0762
 41
0.0762
 70
0
  0
VERTEX
  8
21
 10
12.0269
 20
15.8750
 30
0.0000
 42
1.0000
  0
VERTEX
  8
21
 10
12.1031
 20
15.8750
 30
0.0000
  0
SEQEND
  8
0
  0
POLYLINE
  8
21
 66
1
 10
0.0000
 20
0.0000
 30
0.0000
 40
0.1270
 41
0.1270
 70
0
  0
VERTEX
  8
21
 10
10.8579
 20
31.2791
 30
0.0000
  0
VERTEX
  8
21
 10
10.4765
 20
31.6604
 30
0.0000
  0
SEQEND
  8
0
  0
POLYLINE
  8
21
 66
1
 10
0.0000
 20
0.0000
 30
0.0000
 40
0.0635
 41
0.0635
 70
0
  0
VERTEX
  8
21
 10
10.4990
 20
31.6829
 30
0.0000
 42
1.0000
  0
VERTEX
  8
21
 10
10.4541
 20
31.6380
 30
0.0000
  0
SEQEND
  8
0
  0
POLYLINE
  8
21
 66
1
 10
0.0000
 20
0.0000
 30
0.0000
 40
0.0635
 41
0.0635
 70
0
  0
VERTEX
  8
21
 10
10.8354
 20
31.2567
 30
0.0000
 42
1.0000
  0
VERTEX
  8
21
 10
10.8803
 20
31.3016
 30
0.0000
  0
SEQEND
  8
0
  0
POLYLINE
  8
21
 66
1
 10
0.0000
 20
0.0000
 30
0.0000
 40
0.1270
 41
0.1270
 70
0
  0
VERTEX
  8
21
 10
10.4765
 20
31.6604
 30
0.0000
  0
VERTEX
  8
21
 10
11.6205
 20
31.6604
 30
0.0000
  0
SEQEND
  8
0
  0
POLYLINE
  8
21
 66
1
 10
0.0000
 20
0.0000
 30
0.0000
 40
0.0635
 41
0.0635
 70
0
  0
VERTEX
  8
21
 10
11.6205
 20
31.6287
 30
0.0000
 42
1.0000
  0
VERTEX
  8
21
 10
11.6205
 20
31.6922
 30
0.0000
  0
SEQEND
  8
0
  0
POLYLINE
  8
21
 66
1
 10
0.0000
 20
0.0000
 30
0.0000
 40
0.0635
 41
0.0635
 70
0
  0
VERTEX
  8
21
 10
10.4765
 20
31.6922
 30
0.0000
 42
1.0000
  0
VERTEX
  8
21
 10
10.4765
 20
31.6287
 30
0.0000
  0
SEQEND
  8
0
  0
POLYLINE
  8
21
 66
1
 10
0.0000
 20
0.0000
 30
0.0000
 40
0.1270
 41
0.1270
 70
0
  0
VERTEX
  8
21
 10
11.6205
 20
31.2791
 30
0.0000
  0
VERTEX
  8
21
 10
11.6205
 20
32.0418
 30
0.0000
  0
SEQEND
  8
0
  0
POLYLINE
  8
21
 66
1
 10
0.0000
 20
0.0000
 30
0.0000
 40
0.0635
 41
0.0635
 70
0
  0
VERTEX
  8
21
 10
11.6523
 20
32.0418
 30
0.0000
 42
1.0000
  0
VERTEX
  8
21
 10
11.5887
 20
32.0418
 30
0.0000
  0
SEQEND
  8
0
  0
POLYLINE
  8
21
 66
1
 10
0.0000
 20
0.0000
 30
0.0000
 40
0.0635
 41
0.0635
 70
0
  0
VERTEX
  8
21
 10
11.5887
 20
31.2791
 30
0.0000
 42
1.0000
  0
VERTEX
  8
21
 10
11.6523
 20
31.2791
 30
0.0000
  0
SEQEND
  8
0
  0
POLYLINE
  8
21
 66
1
 10
0.0000
 20
0.0000
 30
0.0000
 40
0.1270
 41
0.1270
 70
0
  0
VERTEX
  8
21
 10
15.0485
 20
15.7851
 30
0.0000
  0
VERTEX
  8
21
 10
15.0485
 20
16.5478
 30
0.0000
  0
SEQEND
  8
0
  0
POLYLINE
  8
21
 66
1
 10
0.0000
 20
0.0000
 30
0.0000
 40
0.0635
 41
0.0635
 70
0
  0
VERTEX
  8
21
 10
15.0803
 20
16.5478
 30
0.0000
 42
1.0000
  0
VERTEX
  8
21
 10
15.0168
 20
16.5478
 30
0.0000
  0
SEQEND
  8
0
  0
POLYLINE
  8
21
 66
1
 10
0.0000
 20
0.0000
 30
0.0000
 40
0.0635
 41
0.0635
 70
0
  0
VERTEX
  8
21
 10
15.0168
 20
15.7851
 30
0.0000
 42
1.0000
  0
VERTEX
  8
21
 10
15.0803
 20
15.7851
 30
0.0000
  0
SEQEND
  8
0
  0
POLYLINE
  8
21
 66
1
 10
0.0000
 20
0.0000
 30
0.0000
 40
0.1270
 41
0.1270
 70
0
  0
VERTEX
  8
21
 10
15.0485
 20
16.5478
 30
0.0000
  0
VERTEX
  8
21
 10
15.2392
 20
16.5478
 30
0.0000
  0
SEQEND
  8
0
  0
POLYLINE
  8
21
 66
1
 10
0.0000
 20
0.0000
 30
0.0000
 40
0.0635
 41
0.0635
 70
0
  0
VERTEX
  8
21
 10
15.2392
 20
16.5160
 30
0.0000
 42
1.0000
  0
VERTEX
  8
21
 10
15.2392
 20
16.5795
 30
0.0000
  0
SEQEND
  8
0
  0
POLYLINE
  8
21
 66
1
 10
0.0000
 20
0.0000
 30
0.0000
 40
0.0635
 41
0.0635
 70
0
  0
VERTEX
  8
21
 10
15.0485
 20
16.5795
 30
0.0000
 42
1.0000
  0
VERTEX
  8
21
 10
15.0485
 20
16.5160
 30
0.0000
  0
SEQEND
  8
0
  0
POLYLINE
  8
21
 66
1
 10
0.0000
 20
0.0000
 30
0.0000
 40
0.1270
 41
0.1270
 70
0
  0
VERTEX
  8
21
 10
15.2392
 20
16.5478
 30
0.0000
  0
VERTEX
  8
21
 10
16.0018
 20
15.7851
 30
0.0000
  0
SEQEND
  8
0
  0
POLYLINE
  8
21
 66
1
 10
0.0000
 20
0.0000
 30
0.0000
 40
0.0635
 41
0.0635
 70
0
  0
VERTEX
  8
21
 10
15.9794
 20
15.7627
 30
0.0000
 42
1.0000
  0
VERTEX
  8
21
 10
16.0243
 20
15.8076
 30
0.0000
  0
SEQEND
  8
0
  0
POLYLINE
  8
21
 66
1
 10
0.0000
 20
0.0000
 30
0.0000
 40
0.0635
 41
0.0635
 70
0
  0
VERTEX
  8
21
 10
15.2616
 20
16.5702
 30
0.0000
 42
1.0000
  0
VERTEX
  8
21
 10
15.2167
 20
16.5253
 30
0.0000
  0
SEQEND
  8
0
  0
POLYLINE
  8
21
 66
1
 10
0.0000
 20
0.0000
 30
0.0000
 40
0.1270
 41
0.1270
 70
0
  0
VERTEX
  8
21
 10
16.0018
 20
15.7851
 30
0.0000
  0
VERTEX
  8
21
 10
16.1925
 20
15.7851
 30
0.0000
  0
SEQEND
  8
0
  0
POLYLINE
  8
21
 66
1
 10
0.0000
 20
0.0000
 30
0.0000
 40
0.0635
 41
0.0635
 70
0
  0
VERTEX
  8
21
 10
16.1925
 20
15.7534
 30
0.0000
 42
1.0000
  0
VERTEX
  8
21
 10
16.1925
 20
15.8169
 30
0.0000
  0
SEQEND
  8
0
  0
POLYLINE
  8
21
 66
1
 10
0.0000
 20
0.0000
 30
0.0000
 40
0.0635
 41
0.0635
 70
0
  0
VERTEX
  8
21
 10
16.0018
 20
15.8169
 30
0.0000
 42
1.0000
  0
VERTEX
  8
21
 10
16.0018
 20
15.7534
 30
0.0000
  0
SEQEND
  8
0
  0
INSERT
  8
17
  2
LONGP100
 10
13.3350
 20
31.7500
 30
0.0000
 41
1.5240
 42
1.5240
 43
1.0000
 50
0.0000
  0
INSERT
  8
17
  2
LONGP100
 10
13.3350
 20
31.7500
 30
0.0000
 41
1.5240
 42
1.5240
 43
1.0000
 50
0.0000
  0
INSERT
  8
17
  2
LONGP100
 10
13.3350
 20
29.2100
 30
0.0000
 41
1.5240
 42
1.5240
 43
1.0000
 50
0.0000
  0
INSERT
  8
17
  2
LONGP100
 10
13.3350
 20
29.2100
 30
0.0000
 41
1.5240
 42
1.5240
 43
1.0000
 50
0.0000
  0
INSERT
  8
17
  2
LONGP100
 10
13.3350
 20
26.6700
 30
0.0000
 41
1.5240
 42
1.5240
 43
1.0000
 50
0.0000
  0
INSERT
  8
17
  2
LONGP100
 10
13.3350
 20
26.6700
 30
0.0000
 41
1.5240
 42
1.5240
 43
1.0000
 50
0.0000
  0
INSERT
  8
17
  2
LONGP100
 10
13.3350
 20
24.1300
 30
0.0000
 41
1.5240
 42
1.5240
 43
1.0000
 50
0.0000
  0
INSERT
  8
17
  2
LONGP100
 10
13.3350
 20
24.1300
 30
0.0000
 41
1.5240
 42
1.5240
 43
1.0000
 50
0.0000
  0
INSERT
  8
17
  2
LONGP100
 10
13.3350
 20
21.5900
 30
0.0000
 41
1.5240
 42
1.5240
 43
1.0000
 50
0.0000
  0
INSERT
  8
17
  2
LONGP100
 10
13.3350
 20
21.5900
 30
0.0000
 41
1.5240
 42
1.5240
 43
1.0000
 50
0.0000
  0
INSERT
  8
17
  2
LONGP100
 10
13.3350
 20
19.0500
 30
0.0000
 41
1.5240
 42
1.5240
 43
1.0000
 50
0.0000
  0
INSERT
  8
17
  2
LONGP100
 10
13.3350
 20
19.0500
 30
0.0000
 41
1.5240
 42
1.5240
 43
1.0000
 50
0.0000
  0
INSERT
  8
17
  2
LONGP100
 10
13.3350
 20
16.5100
 30
0.0000
 41
1.5240
 42
1.5240
 43
1.0000
 50
0.0000
  0
INSERT
  8
17
  2
LONGP100
 10
13.3350
 20
16.5100
 30
0.0000
 41
1.5240
 42
1.5240
 43
1.0000
 50
0.0000
  0
POLYLINE
  8
21
 66
1
 10
0.0000
 20
0.0000
 30
0.0000
 40
0.1524
 41
0.1524
 70
0
  0
VERTEX
  8
21
 10
96.8375
 20
29.1465
 30
0.0000
  0
VERTEX
  8
21
 10
97.5995
 20
29.1465
 30
0.0000
  0
SEQEND
  8
0
  0
POLYLINE
  8
21
 66
1
 10
0.0000
 20
0.0000
 30
0.0000
 40
0.0762
 41
0.0762
 70
0
  0
VERTEX
  8
21
 10
97.5995
 20
29.1084
 30
0.0000
 42
1.0000
  0
VERTEX
  8
21
 10
97.5995
 20
29.1846
 30
0.0000
  0
SEQEND
  8
0
  0
POLYLINE
  8
21
 66
1
 10
0.0000
 20
0.0000
 30
0.0000
 40
0.0762
 41
0.0762
 70
0
  0
VERTEX
  8
21
 10
96.8375
 20
29.1846
 30
0.0000
 42
1.0000
  0
VERTEX
  8
21
 10
96.8375
 20
29.1084
 30
0.0000
  0
SEQEND
  8
0
  0
POLYLINE
  8
21
 66
1
 10
0.0000
 20
0.0000
 30
0.0000
 40
0.1524
 41
0.1524
 70
0
  0
VERTEX
  8
21
 10
97.5995
 20
29.1465
 30
0.0000
  0
VERTEX
  8
21
 10
97.5995
 20
31.0515
 30
0.0000
  0
SEQEND
  8
0
  0
POLYLINE
  8
21
 66
1
 10
0.0000
 20
0.0000
 30
0.0000
 40
0.0762
 41
0.0762
 70
0
  0
VERTEX
  8
21
 10
97.6376
 20
31.0515
 30
0.0000
 42
1.0000
  0
VERTEX
  8
21
 10
97.5614
 20
31.0515
 30
0.0000
  0
SEQEND
  8
0
  0
POLYLINE
  8
21
 66
1
 10
0.0000
 20
0.0000
 30
0.0000
 40
0.0762
 41
0.0762
 70
0
  0
VERTEX
  8
21
 10
97.5614
 20
29.1465
 30
0.0000
 42
1.0000
  0
VERTEX
  8
21
 10
97.6376
 20
29.1465
 30
0.0000
  0
SEQEND
  8
0
  0
POLYLINE
  8
21
 66
1
 10
0.0000
 20
0.0000
 30
0.0000
 40
0.1524
 41
0.1524
 70
0
  0
VERTEX
  8
21
 10
97.5995
 20
31.0515
 30
0.0000
  0
VERTEX
  8
21
 10
97.7265
 20
31.1785
 30
0.0000
  0
SEQEND
  8
0
  0
POLYLINE
  8
21
 66
1
 10
0.0000
 20
0.0000
 30
0.0000
 40
0.0762
 41
0.0762
 70
0
  0
VERTEX
  8
21
 10
97.7534
 20
31.1516
 30
0.0000
 42
1.0000
  0
VERTEX
  8
21
 10
97.6996
 20
31.2054
 30
0.0000
  0
SEQEND
  8
0
  0
POLYLINE
  8
21
 66
1
 10
0.0000
 20
0.0000
 30
0.0000
 40
0.0762
 41
0.0762
 70
0
  0
VERTEX
  8
21
 10
97.5726
 20
31.0784
 30
0.0000
 42
1.0000
  0
VERTEX
  8
21
 10
97.6264
 20
31.0246
 30
0.0000
  0
SEQEND
  8
0
  0
POLYLINE
  8
21
 66
1
 10
0.0000
 20
0.0000
 30
0.0000
 40
0.1524
 41
0.1524
 70
0
  0
VERTEX
  8
21
 10
97.7265
 20
31.1785
 30
0.0000
  0
VERTEX
  8
21
 10
97.9805
 20
31.4325
 30
0.0000
  0
SEQEND
  8
0
  0
POLYLINE
  8
21
 66
1
 10
0.0000
 20
0.0000
 30
0.0000
 40
0.0762
 41
0.0762
 70
0
  0
VERTEX
  8
21
 10
98.0074
 20
31.4056
 30
0.0000
 42
1.0000
  0
VERTEX
  8
21
 10
97.9536
 20
31.4594
 30
0.0000
  0
SEQEND
  8
0
  0
POLYLINE
  8
21
 66
1
 10
0.0000
 20
0.0000
 30
0.0000
 40
0.0762
 41
0.0762
 70
0
  0
VERTEX
  8
21
 10
97.6996
 20
31.2054
 30
0.0000
 42
1.0000
  0
VERTEX
  8
21
 10
97.7534
 20
31.1516
 30
0.0000
  0
SEQEND
  8
0
  0
POLYLINE
  8
21
 66
1
 10
0.0000
 20
0.0000
 30
0.0000
 40
0.1524
 41
0.1524
 70
0
  0
VERTEX
  8
21
 10
97.9805
 20
31.4325
 30
0.0000
  0
VERTEX
  8
21
 10
97.7265
 20
31.6865
 30
0.0000
  0
SEQEND
  8
0
  0
POLYLINE
  8
21
 66
1
 10
0.0000
 20
0.0000
 30
0.0000
 40
0.0762
 41
0.0762
 70
0
  0
VERTEX
  8
21
 10
97.7534
 20
31.7134
 30
0.0000
 42
1.0000
  0
VERTEX
  8
21
 10
97.6996
 20
31.6596
 30
0.0000
  0
SEQEND
  8
0
  0
POLYLINE
  8
21
 66
1
 10
0.0000
 20
0.0000
 30
0.0000
 40
0.0762
 41
0.0762
 70
0
  0
VERTEX
  8
21
 10
97.9536
 20
31.4056
 30
0.0000
 42
1.0000
  0
VERTEX
  8
21
 10
98.0074
 20
31.4594
 30
0.0000
  0
SEQEND
  8
0
  0
POLYLINE
  8
21
 66
1
 10
0.0000
 20
0.0000
 30
0.0000
 40
0.1524
 41
0.1524
 70
0
  0
VERTEX
  8
21
 10
97.7265
 20
31.6865
 30
0.0000
  0
VERTEX
  8
21
 10
97.5995
 20
31.8135
 30
0.0000
  0
SEQEND
  8
0
  0
POLYLINE
  8
21
 66
1
 10
0.0000
 20
0.0000
 30
0.0000
 40
0.0762
 41
0.0762
 70
0
  0
VERTEX
  8
21
 10
97.6264
 20
31.8404
 30
0.0000
 42
1.0000
  0
VERTEX
  8
21
 10
97.5726
 20
31.7866
 30
0.0000
  0
SEQEND
  8
0
  0
POLYLINE
  8
21
 66
1
 10
0.0000
 20
0.0000
 30
0.0000
 40
0.0762
 41
0.0762
 70
0
  0
VERTEX
  8
21
 10
97.6996
 20
31.6596
 30
0.0000
 42
1.0000
  0
VERTEX
  8
21
 10
97.7534
 20
31.7134
 30
0.0000
  0
SEQEND
  8
0
  0
POLYLINE
  8
21
 66
1
 10
0.0000
 20
0.0000
 30
0.0000
 40
0.1524
 41
0.1524
 70
0
  0
VERTEX
  8
21
 10
101.5365
 20
31.1785
 30
0.0000
  0
VERTEX
  8
21
 10
101.6635
 20
31.1785
 30
0.0000
  0
SEQEND
  8
0
  0
POLYLINE
  8
21
 66
1
 10
0.0000
 20
0.0000
 30
0.0000
 40
0.0762
 41
0.0762
 70
0
  0
VERTEX
  8
21
 10
101.6635
 20
31.1404
 30
0.0000
 42
1.0000
  0
VERTEX
  8
21
 10
101.6635
 20
31.2166
 30
0.0000
  0
SEQEND
  8
0
  0
POLYLINE
  8
21
 66
1
 10
0.0000
 20
0.0000
 30
0.0000
 40
0.0762
 41
0.0762
 70
0
  0
VERTEX
  8
21
 10
101.5365
 20
31.2166
 30
0.0000
 42
1.0000
  0
VERTEX
  8
21
 10
101.5365
 20
31.1404
 30
0.0000
  0
SEQEND
  8
0
  0
POLYLINE
  8
21
 66
1
 10
0.0000
 20
0.0000
 30
0.0000
 40
0.1524
 41
0.1524
 70
0
  0
VERTEX
  8
21
 10
101.6635
 20
31.1785
 30
0.0000
  0
VERTEX
  8
21
 10
101.6635
 20
29.1465
 30
0.0000
  0
SEQEND
  8
0
  0
POLYLINE
  8
21
 66
1
 10
0.0000
 20
0.0000
 30
0.0000
 40
0.0762
 41
0.0762
 70
0
  0
VERTEX
  8
21
 10
101.6254
 20
29.1465
 30
0.0000
 42
1.0000
  0
VERTEX
  8
21
 10
101.7016
 20
29.1465
 30
0.0000
  0
SEQEND
  8
0
  0
POLYLINE
  8
21
 66
1
 10
0.0000
 20
0.0000
 30
0.0000
 40
0.0762
 41
0.0762
 70
0
  0
VERTEX
  8
21
 10
101.7016
 20
31.1785
 30
0.0000
 42
1.0000
  0
VERTEX
  8
21
 10
101.6254
 20
31.1785
 30
0.0000
  0
SEQEND
  8
0
  0
POLYLINE
  8
21
 66
1
 10
0.0000
 20
0.0000
 30
0.0000
 40
0.1524
 41
0.1524
 70
0
  0
VERTEX
  8
21
 10
101.5365
 20
31.6865
 30
0.0000
  0
VERTEX
  8
21
 10
101.5365
 20
31.1785
 30
0.0000
  0
SEQEND
  8
0
  0
POLYLINE
  8
21
 66
1
 10
0.0000
 20
0.0000
 30
0.0000
 40
0.0762
 41
0.0762
 70
0
  0
VERTEX
  8
21
 10
101.4984
 20
31.1785
 30
0.0000
 42
1.0000
  0
VERTEX
  8
21
 10
101.5746
 20
31.1785
 30
0.0000
  0
SEQEND
  8
0
  0
POLYLINE
  8
21
 66
1
 10
0.0000
 20
0.0000
 30
0.0000
 40
0.0762
 41
0.0762
 70
0
  0
VERTEX
  8
21
 10
101.5746
 20
31.6865
 30
0.0000
 42
1.0000
  0
VERTEX
  8
21
 10
101.4984
 20
31.6865
 30
0.0000
  0
SEQEND
  8
0
  0
POLYLINE
  8
21
 66
1
 10
0.0000
 20
0.0000
 30
0.0000
 40
0.1524
 41
0.1524
 70
0
  0
VERTEX
  8
21
 10
101.5365
 20
31.6865
 30
0.0000
  0
VERTEX
  8
21
 10
101.6635
 20
31.6865
 30
0.0000
  0
SEQEND
  8
0
  0
POLYLINE
  8
21
 66
1
 10
0.0000
 20
0.0000
 30
0.0000
 40
0.0762
 41
0.0762
 70
0
  0
VERTEX
  8
21
 10
101.6635
 20
31.6484
 30
0.0000
 42
1.0000
  0
VERTEX
  8
21
 10
101.6635
 20
31.7246
 30
0.0000
  0
SEQEND
  8
0
  0
POLYLINE
  8
21
 66
1
 10
0.0000
 20
0.0000
 30
0.0000
 40
0.0762
 41
0.0762
 70
0
  0
VERTEX
  8
21
 10
101.5365
 20
31.7246
 30
0.0000
 42
1.0000
  0
VERTEX
  8
21
 10
101.5365
 20
31.6484
 30
0.0000
  0
SEQEND
  8
0
  0
POLYLINE
  8
21
 66
1
 10
0.0000
 20
0.0000
 30
0.0000
 40
0.1524
 41
0.1524
 70
0
  0
VERTEX
  8
21
 10
101.6635
 20
33.7185
 30
0.0000
  0
VERTEX
  8
21
 10
101.6635
 20
31.6865
 30
0.0000
  0
SEQEND
  8
0
  0
POLYLINE
  8
21
 66
1
 10
0.0000
 20
0.0000
 30
0.0000
 40
0.0762
 41
0.0762
 70
0
  0
VERTEX
  8
21
 10
101.6254
 20
31.6865
 30
0.0000
 42
1.0000
  0
VERTEX
  8
21
 10
101.7016
 20
31.6865
 30
0.0000
  0
SEQEND
  8
0
  0
POLYLINE
  8
21
 66
1
 10
0.0000
 20
0.0000
 30
0.0000
 40
0.0762
 41
0.0762
 70
0
  0
VERTEX
  8
21
 10
101.7016
 20
33.7185
 30
0.0000
 42
1.0000
  0
VERTEX
  8
21
 10
101.6254
 20
33.7185
 30
0.0000
  0
SEQEND
  8
0
  0
POLYLINE
  8
21
 66
1
 10
0.0000
 20
0.0000
 30
0.0000
 40
0.1524
 41
0.1524
 70
0
  0
VERTEX
  8
21
 10
97.5995
 20
31.8135
 30
0.0000
  0
VERTEX
  8
21
 10
97.5995
 20
33.7185
 30
0.0000
  0
SEQEND
  8
0
  0
POLYLINE
  8
21
 66
1
 10
0.0000
 20
0.0000
 30
0.0000
 40
0.0762
 41
0.0762
 70
0
  0
VERTEX
  8
21
 10
97.6376
 20
33.7185
 30
0.0000
 42
1.0000
  0
VERTEX
  8
21
 10
97.5614
 20
33.7185
 30
0.0000
  0
SEQEND
  8
0
  0
POLYLINE
  8
21
 66
1
 10
0.0000
 20
0.0000
 30
0.0000
 40
0.0762
 41
0.0762
 70
0
  0
VERTEX
  8
21
 10
97.5614
 20
31.8135
 30
0.0000
 42
1.0000
  0
VERTEX
  8
21
 10
97.6376
 20
31.8135
 30
0.0000
  0
SEQEND
  8
0
  0
POLYLINE
  8
21
 66
1
 10
0.0000
 20
0.0000
 30
0.0000
 40
0.1524
 41
0.1524
 70
0
  0
VERTEX
  8
21
 10
97.5995
 20
33.7185
 30
0.0000
  0
VERTEX
  8
21
 10
96.8375
 20
33.7185
 30
0.0000
  0
SEQEND
  8
0
  0
POLYLINE
  8
21
 66
1
 10
0.0000
 20
0.0000
 30
0.0000
 40
0.0762
 41
0.0762
 70
0
  0
VERTEX
  8
21
 10
96.8375
 20
33.7566
 30
0.0000
 42
1.0000
  0
VERTEX
  8
21
 10
96.8375
 20
33.6804
 30
0.0000
  0
SEQEND
  8
0
  0
POLYLINE
  8
21
 66
1
 10
0.0000
 20
0.0000
 30
0.0000
 40
0.0762
 41
0.0762
 70
0
  0
VERTEX
  8
21
 10
97.5995
 20
33.6804
 30
0.0000
 42
1.0000
  0
VERTEX
  8
21
 10
97.5995
 20
33.7566
 30
0.0000
  0
SEQEND
  8
0
  0
POLYLINE
  8
21
 66
1
 10
0.0000
 20
0.0000
 30
0.0000
 40
0.1524
 41
0.1524
 70
0
  0
VERTEX
  8
21
 10
97.5995
 20
29.1465
 30
0.0000
  0
VERTEX
  8
21
 10
100.9015
 20
29.1465
 30
0.0000
  0
SEQEND
  8
0
  0
POLYLINE
  8
21
 66
1
 10
0.0000
 20
0.0000
 30
0.0000
 40
0.0762
 41
0.0762
 70
0
  0
VERTEX
  8
21
 10
100.9015
 20
29.1084
 30
0.0000
 42
1.0000
  0
VERTEX
  8
21
 10
100.9015
 20
29.1846
 30
0.0000
  0
SEQEND
  8
0
  0
POLYLINE
  8
21
 66
1
 10
0.0000
 20
0.0000
 30
0.0000
 40
0.0762
 41
0.0762
 70
0
  0
VERTEX
  8
21
 10
97.5995
 20
29.1846
 30
0.0000
 42
1.0000
  0
VERTEX
  8
21
 10
97.5995
 20
29.1084
 30
0.0000
  0
SEQEND
  8
0
  0
POLYLINE
  8
21
 66
1
 10
0.0000
 20
0.0000
 30
0.0000
 40
0.1524
 41
0.1524
 70
0
  0
VERTEX
  8
21
 10
101.1555
 20
29.1465
 30
0.0000
  0
VERTEX
  8
21
 10
101.6635
 20
29.1465
 30
0.0000
  0
SEQEND
  8
0
  0
POLYLINE
  8
21
 66
1
 10
0.0000
 20
0.0000
 30
0.0000
 40
0.0762
 41
0.0762
 70
0
  0
VERTEX
  8
21
 10
101.6635
 20
29.1084
 30
0.0000
 42
1.0000
  0
VERTEX
  8
21
 10
101.6635
 20
29.1846
 30
0.0000
  0
SEQEND
  8
0
  0
POLYLINE
  8
21
 66
1
 10
0.0000
 20
0.0000
 30
0.0000
 40
0.0762
 41
0.0762
 70
0
  0
VERTEX
  8
21
 10
101.1555
 20
29.1846
 30
0.0000
 42
1.0000
  0
VERTEX
  8
21
 10
101.1555
 20
29.1084
 30
0.0000
  0
SEQEND
  8
0
  0
POLYLINE
  8
21
 66
1
 10
0.0000
 20
0.0000
 30
0.0000
 40
0.1524
 41
0.1524
 70
0
  0
VERTEX
  8
21
 10
101.1555
 20
29.1465
 30
0.0000
  0
VERTEX
  8
21
 10
101.1555
 20
29.5275
 30
0.0000
  0
SEQEND
  8
0
  0
POLYLINE
  8
21
 66
1
 10
0.0000
 20
0.0000
 30
0.0000
 40
0.0762
 41
0.0762
 70
0
  0
VERTEX
  8
21
 10
101.1936
 20
29.5275
 30
0.0000
 42
1.0000
  0
VERTEX
  8
21
 10
101.1174
 20
29.5275
 30
0.0000
  0
SEQEND
  8
0
  0
POLYLINE
  8
21
 66
1
 10
0.0000
 20
0.0000
 30
0.0000
 40
0.0762
 41
0.0762
 70
0
  0
VERTEX
  8
21
 10
101.1174
 20
29.1465
 30
0.0000
 42
1.0000
  0
VERTEX
  8
21
 10
101.1936
 20
29.1465
 30
0.0000
  0
SEQEND
  8
0
  0
POLYLINE
  8
21
 66
1
 10
0.0000
 20
0.0000
 30
0.0000
 40
0.1524
 41
0.1524
 70
0
  0
VERTEX
  8
21
 10
101.1555
 20
33.7185
 30
0.0000
  0
VERTEX
  8
21
 10
101.6635
 20
33.7185
 30
0.0000
  0
SEQEND
  8
0
  0
POLYLINE
  8
21
 66
1
 10
0.0000
 20
0.0000
 30
0.0000
 40
0.0762
 41
0.0762
 70
0
  0
VERTEX
  8
21
 10
101.6635
 20
33.6804
 30
0.0000
 42
1.0000
  0
VERTEX
  8
21
 10
101.6635
 20
33.7566
 30
0.0000
  0
SEQEND
  8
0
  0
POLYLINE
  8
21
 66
1
 10
0.0000
 20
0.0000
 30
0.0000
 40
0.0762
 41
0.0762
 70
0
  0
VERTEX
  8
21
 10
101.1555
 20
33.7566
 30
0.0000
 42
1.0000
  0
VERTEX
  8
21
 10
101.1555
 20
33.6804
 30
0.0000
  0
SEQEND
  8
0
  0
POLYLINE
  8
21
 66
1
 10
0.0000
 20
0.0000
 30
0.0000
 40
0.1524
 41
0.1524
 70
0
  0
VERTEX
  8
21
 10
101.1555
 20
33.7185
 30
0.0000
  0
VERTEX
  8
21
 10
101.1555
 20
33.3375
 30
0.0000
  0
SEQEND
  8
0
  0
POLYLINE
  8
21
 66
1
 10
0.0000
 20
0.0000
 30
0.0000
 40
0.0762
 41
0.0762
 70
0
  0
VERTEX
  8
21
 10
101.1174
 20
33.3375
 30
0.0000
 42
1.0000
  0
VERTEX
  8
21
 10
101.1936
 20
33.3375
 30
0.0000
  0
SEQEND
  8
0
  0
POLYLINE
  8
21
 66
1
 10
0.0000
 20
0.0000
 30
0.0000
 40
0.0762
 41
0.0762
 70
0
  0
VERTEX
  8
21
 10
101.1936
 20
33.7185
 30
0.0000
 42
1.0000
  0
VERTEX
  8
21
 10
101.1174
 20
33.7185
 30
0.0000
  0
SEQEND
  8
0
  0
POLYLINE
  8
21
 66
1
 10
0.0000
 20
0.0000
 30
0.0000
 40
0.1524
 41
0.1524
 70
0
  0
VERTEX
  8
21
 10
97.5995
 20
33.7185
 30
0.0000
  0
VERTEX
  8
21
 10
100.9015
 20
33.7185
 30
0.0000
  0
SEQEND
  8
0
  0
POLYLINE
  8
21
 66
1
 10
0.0000
 20
0.0000
 30
0.0000
 40
0.0762
 41
0.0762
 70
0
  0
VERTEX
  8
21
 10
100.9015
 20
33.6804
 30
0.0000
 42
1.0000
  0
VERTEX
  8
21
 10
100.9015
 20
33.7566
 30
0.0000
  0
SEQEND
  8
0
  0
POLYLINE
  8
21
 66
1
 10
0.0000
 20
0.0000
 30
0.0000
 40
0.0762
 41
0.0762
 70
0
  0
VERTEX
  8
21
 10
97.5995
 20
33.7566
 30
0.0000
 42
1.0000
  0
VERTEX
  8
21
 10
97.5995
 20
33.6804
 30
0.0000
  0
SEQEND
  8
0
  0
POLYLINE
  8
21
 66
1
 10
0.0000
 20
0.0000
 30
0.0000
 40
0.1524
 41
0.1524
 70
0
  0
VERTEX
  8
21
 10
101.1555
 20
33.3375
 30
0.0000
  0
VERTEX
  8
21
 10
100.9015
 20
33.3375
 30
0.0000
  0
SEQEND
  8
0
  0
POLYLINE
  8
21
 66
1
 10
0.0000
 20
0.0000
 30
0.0000
 40
0.0762
 41
0.0762
 70
0
  0
VERTEX
  8
21
 10
100.9015
 20
33.3756
 30
0.0000
 42
1.0000
  0
VERTEX
  8
21
 10
100.9015
 20
33.2994
 30
0.0000
  0
SEQEND
  8
0
  0
POLYLINE
  8
21
 66
1
 10
0.0000
 20
0.0000
 30
0.0000
 40
0.0762
 41
0.0762
 70
0
  0
VERTEX
  8
21
 10
101.1555
 20
33.2994
 30
0.0000
 42
1.0000
  0
VERTEX
  8
21
 10
101.1555
 20
33.3756
 30
0.0000
  0
SEQEND
  8
0
  0
POLYLINE
  8
21
 66
1
 10
0.0000
 20
0.0000
 30
0.0000
 40
0.1524
 41
0.1524
 70
0
  0
VERTEX
  8
21
 10
100.6475
 20
32.0675
 30
0.0000
  0
VERTEX
  8
21
 10
100.6475
 20
33.3375
 30
0.0000
  0
SEQEND
  8
0
  0
POLYLINE
  8
21
 66
1
 10
0.0000
 20
0.0000
 30
0.0000
 40
0.0762
 41
0.0762
 70
0
  0
VERTEX
  8
21
 10
100.6856
 20
33.3375
 30
0.0000
 42
1.0000
  0
VERTEX
  8
21
 10
100.6094
 20
33.3375
 30
0.0000
  0
SEQEND
  8
0
  0
POLYLINE
  8
21
 66
1
 10
0.0000
 20
0.0000
 30
0.0000
 40
0.0762
 41
0.0762
 70
0
  0
VERTEX
  8
21
 10
100.6094
 20
32.0675
 30
0.0000
 42
1.0000
  0
VERTEX
  8
21
 10
100.6856
 20
32.0675
 30
0.0000
  0
SEQEND
  8
0
  0
POLYLINE
  8
21
 66
1
 10
0.0000
 20
0.0000
 30
0.0000
 40
0.1524
 41
0.1524
 70
0
  0
VERTEX
  8
21
 10
101.1555
 20
30.7975
 30
0.0000
  0
VERTEX
  8
21
 10
100.9015
 20
30.7975
 30
0.0000
  0
SEQEND
  8
0
  0
POLYLINE
  8
21
 66
1
 10
0.0000
 20
0.0000
 30
0.0000
 40
0.0762
 41
0.0762
 70
0
  0
VERTEX
  8
21
 10
100.9015
 20
30.8356
 30
0.0000
 42
1.0000
  0
VERTEX
  8
21
 10
100.9015
 20
30.7594
 30
0.0000
  0
SEQEND
  8
0
  0
POLYLINE
  8
21
 66
1
 10
0.0000
 20
0.0000
 30
0.0000
 40
0.0762
 41
0.0762
 70
0
  0
VERTEX
  8
21
 10
101.1555
 20
30.7594
 30
0.0000
 42
1.0000
  0
VERTEX
  8
21
 10
101.1555
 20
30.8356
 30
0.0000
  0
SEQEND
  8
0
  0
POLYLINE
  8
21
 66
1
 10
0.0000
 20
0.0000
 30
0.0000
 40
0.1524
 41
0.1524
 70
0
  0
VERTEX
  8
21
 10
101.1555
 20
29.5275
 30
0.0000
  0
VERTEX
  8
21
 10
100.9015
 20
29.5275
 30
0.0000
  0
SEQEND
  8
0
  0
POLYLINE
  8
21
 66
1
 10
0.0000
 20
0.0000
 30
0.0000
 40
0.0762
 41
0.0762
 70
0
  0
VERTEX
  8
21
 10
100.9015
 20
29.5656
 30
0.0000
 42
1.0000
  0
VERTEX
  8
21
 10
100.9015
 20
29.4894
 30
0.0000
  0
SEQEND
  8
0
  0
POLYLINE
  8
21
 66
1
 10
0.0000
 20
0.0000
 30
0.0000
 40
0.0762
 41
0.0762
 70
0
  0
VERTEX
  8
21
 10
101.1555
 20
29.4894
 30
0.0000
 42
1.0000
  0
VERTEX
  8
21
 10
101.1555
 20
29.5656
 30
0.0000
  0
SEQEND
  8
0
  0
POLYLINE
  8
21
 66
1
 10
0.0000
 20
0.0000
 30
0.0000
 40
0.1524
 41
0.1524
 70
0
  0
VERTEX
  8
21
 10
100.6475
 20
29.5275
 30
0.0000
  0
VERTEX
  8
21
 10
100.6475
 20
30.7975
 30
0.0000
  0
SEQEND
  8
0
  0
POLYLINE
  8
21
 66
1
 10
0.0000
 20
0.0000
 30
0.0000
 40
0.0762
 41
0.0762
 70
0
  0
VERTEX
  8
21
 10
100.6856
 20
30.7975
 30
0.0000
 42
1.0000
  0
VERTEX
  8
21
 10
100.6094
 20
30.7975
 30
0.0000
  0
SEQEND
  8
0
  0
POLYLINE
  8
21
 66
1
 10
0.0000
 20
0.0000
 30
0.0000
 40
0.0762
 41
0.0762
 70
0
  0
VERTEX
  8
21
 10
100.6094
 20
29.5275
 30
0.0000
 42
1.0000
  0
VERTEX
  8
21
 10
100.6856
 20
29.5275
 30
0.0000
  0
SEQEND
  8
0
  0
POLYLINE
  8
21
 66
1
 10
0.0000
 20
0.0000
 30
0.0000
 40
0.1524
 41
0.1524
 70
0
  0
VERTEX
  8
21
 10
101.1555
 20
30.7975
 30
0.0000
  0
VERTEX
  8
21
 10
101.1555
 20
32.0675
 30
0.0000
  0
SEQEND
  8
0
  0
POLYLINE
  8
21
 66
1
 10
0.0000
 20
0.0000
 30
0.0000
 40
0.0762
 41
0.0762
 70
0
  0
VERTEX
  8
21
 10
101.1936
 20
32.0675
 30
0.0000
 42
1.0000
  0
VERTEX
  8
21
 10
101.1174
 20
32.0675
 30
0.0000
  0
SEQEND
  8
0
  0
POLYLINE
  8
21
 66
1
 10
0.0000
 20
0.0000
 30
0.0000
 40
0.0762
 41
0.0762
 70
0
  0
VERTEX
  8
21
 10
101.1174
 20
30.7975
 30
0.0000
 42
1.0000
  0
VERTEX
  8
21
 10
101.1936
 20
30.7975
 30
0.0000
  0
SEQEND
  8
0
  0
POLYLINE
  8
21
 66
1
 10
0.0000
 20
0.0000
 30
0.0000
 40
0.1524
 41
0.1524
 70
0
  0
VERTEX
  8
21
 10
100.9015
 20
30.7975
 30
0.0000
  0
VERTEX
  8
21
 10
100.6475
 20
30.7975
 30
0.0000
  0
SEQEND
  8
0
  0
POLYLINE
  8
21
 66
1
 10
0.0000
 20
0.0000
 30
0.0000
 40
0.0762
 41
0.0762
 70
0
  0
VERTEX
  8
21
 10
100.6475
 20
30.8356
 30
0.0000
 42
1.0000
  0
VERTEX
  8
21
 10
100.6475
 20
30.7594
 30
0.0000
  0
SEQEND
  8
0
  0
POLYLINE
  8
21
 66
1
 10
0.0000
 20
0.0000
 30
0.0000
 40
0.0762
 41
0.0762
 70
0
  0
VERTEX
  8
21
 10
100.9015
 20
30.7594
 30
0.0000
 42
1.0000
  0
VERTEX
  8
21
 10
100.9015
 20
30.8356
 30
0.0000
  0
SEQEND
  8
0
  0
POLYLINE
  8
21
 66
1
 10
0.0000
 20
0.0000
 30
0.0000
 40
0.1524
 41
0.1524
 70
0
  0
VERTEX
  8
21
 10
101.1555
 20
32.0675
 30
0.0000
  0
VERTEX
  8
21
 10
100.9015
 20
32.0675
 30
0.0000
  0
SEQEND
  8
0
  0
POLYLINE
  8
21
 66
1
 10
0.0000
 20
0.0000
 30
0.0000
 40
0.0762
 41
0.0762
 70
0
  0
VERTEX
  8
21
 10
100.9015
 20
32.1056
 30
0.0000
 42
1.0000
  0
VERTEX
  8
21
 10
100.9015
 20
32.0294
 30
0.0000
  0
SEQEND
  8
0
  0
POLYLINE
  8
21
 66
1
 10
0.0000
 20
0.0000
 30
0.0000
 40
0.0762
 41
0.0762
 70
0
  0
VERTEX
  8
21
 10
101.1555
 20
32.0294
 30
0.0000
 42
1.0000
  0
VERTEX
  8
21
 10
101.1555
 20
32.1056
 30
0.0000
  0
SEQEND
  8
0
  0
POLYLINE
  8
21
 66
1
 10
0.0000
 20
0.0000
 30
0.0000
 40
0.1524
 41
0.1524
 70
0
  0
VERTEX
  8
21
 10
100.9015
 20
32.0675
 30
0.0000
  0
VERTEX
  8
21
 10
100.6475
 20
32.0675
 30
0.0000
  0
SEQEND
  8
0
  0
POLYLINE
  8
21
 66
1
 10
0.0000
 20
0.0000
 30
0.0000
 40
0.0762
 41
0.0762
 70
0
  0
VERTEX
  8
21
 10
100.6475
 20
32.1056
 30
0.0000
 42
1.0000
  0
VERTEX
  8
21
 10
100.6475
 20
32.0294
 30
0.0000
  0
SEQEND
  8
0
  0
POLYLINE
  8
21
 66
1
 10
0.0000
 20
0.0000
 30
0.0000
 40
0.0762
 41
0.0762
 70
0
  0
VERTEX
  8
21
 10
100.9015
 20
32.0294
 30
0.0000
 42
1.0000
  0
VERTEX
  8
21
 10
100.9015
 20
32.1056
 30
0.0000
  0
SEQEND
  8
0
  0
POLYLINE
  8
21
 66
1
 10
0.0000
 20
0.0000
 30
0.0000
 40
0.1524
 41
0.1524
 70
0
  0
VERTEX
  8
21
 10
100.9015
 20
31.6865
 30
0.0000
  0
VERTEX
  8
21
 10
100.9015
 20
32.0675
 30
0.0000
  0
SEQEND
  8
0
  0
POLYLINE
  8
21
 66
1
 10
0.0000
 20
0.0000
 30
0.0000
 40
0.0762
 41
0.0762
 70
0
  0
VERTEX
  8
21
 10
100.9396
 20
32.0675
 30
0.0000
 42
1.0000
  0
VERTEX
  8
21
 10
100.8634
 20
32.0675
 30
0.0000
  0
SEQEND
  8
0
  0
POLYLINE
  8
21
 66
1
 10
0.0000
 20
0.0000
 30
0.0000
 40
0.0762
 41
0.0762
 70
0
  0
VERTEX
  8
21
 10
100.8634
 20
31.6865
 30
0.0000
 42
1.0000
  0
VERTEX
  8
21
 10
100.9396
 20
31.6865
 30
0.0000
  0
SEQEND
  8
0
  0
POLYLINE
  8
21
 66
1
 10
0.0000
 20
0.0000
 30
0.0000
 40
0.1524
 41
0.1524
 70
0
  0
VERTEX
  8
21
 10
100.9015
 20
31.6865
 30
0.0000
  0
VERTEX
  8
21
 10
97.7265
 20
31.6865
 30
0.0000
  0
SEQEND
  8
0
  0
POLYLINE
  8
21
 66
1
 10
0.0000
 20
0.0000
 30
0.0000
 40
0.0762
 41
0.0762
 70
0
  0
VERTEX
  8
21
 10
97.7265
 20
31.7246
 30
0.0000
 42
1.0000
  0
VERTEX
  8
21
 10
97.7265
 20
31.6484
 30
0.0000
  0
SEQEND
  8
0
  0
POLYLINE
  8
21
 66
1
 10
0.0000
 20
0.0000
 30
0.0000
 40
0.0762
 41
0.0762
 70
0
  0
VERTEX
  8
21
 10
100.9015
 20
31.6484
 30
0.0000
 42
1.0000
  0
VERTEX
  8
21
 10
100.9015
 20
31.7246
 30
0.0000
  0
SEQEND
  8
0
  0
POLYLINE
  8
21
 66
1
 10
0.0000
 20
0.0000
 30
0.0000
 40
0.1524
 41
0.1524
 70
0
  0
VERTEX
  8
21
 10
100.9015
 20
30.7975
 30
0.0000
  0
VERTEX
  8
21
 10
100.9015
 20
31.1785
 30
0.0000
  0
SEQEND
  8
0
  0
POLYLINE
  8
21
 66
1
 10
0.0000
 20
0.0000
 30
0.0000
 40
0.0762
 41
0.0762
 70
0
  0
VERTEX
  8
21
 10
100.9396
 20
31.1785
 30
0.0000
 42
1.0000
  0
VERTEX
  8
21
 10
100.8634
 20
31.1785
 30
0.0000
  0
SEQEND
  8
0
  0
POLYLINE
  8
21
 66
1
 10
0.0000
 20
0.0000
 30
0.0000
 40
0.0762
 41
0.0762
 70
0
  0
VERTEX
  8
21
 10
100.8634
 20
30.7975
 30
0.0000
 42
1.0000
  0
VERTEX
  8
21
 10
100.9396
 20
30.7975
 30
0.0000
  0
SEQEND
  8
0
  0
POLYLINE
  8
21
 66
1
 10
0.0000
 20
0.0000
 30
0.0000
 40
0.1524
 41
0.1524
 70
0
  0
VERTEX
  8
21
 10
100.9015
 20
31.1785
 30
0.0000
  0
VERTEX
  8
21
 10
100.9015
 20
31.6865
 30
0.0000
  0
SEQEND
  8
0
  0
POLYLINE
  8
21
 66
1
 10
0.0000
 20
0.0000
 30
0.0000
 40
0.0762
 41
0.0762
 70
0
  0
VERTEX
  8
21
 10
100.9396
 20
31.6865
 30
0.0000
 42
1.0000
  0
VERTEX
  8
21
 10
100.8634
 20
31.6865
 30
0.0000
  0
SEQEND
  8
0
  0
POLYLINE
  8
21
 66
1
 10
0.0000
 20
0.0000
 30
0.0000
 40
0.0762
 41
0.0762
 70
0
  0
VERTEX
  8
21
 10
100.8634
 20
31.1785
 30
0.0000
 42
1.0000
  0
VERTEX
  8
21
 10
100.9396
 20
31.1785
 30
0.0000
  0
SEQEND
  8
0
  0
POLYLINE
  8
21
 66
1
 10
0.0000
 20
0.0000
 30
0.0000
 40
0.1524
 41
0.1524
 70
0
  0
VERTEX
  8
21
 10
100.9015
 20
31.1785
 30
0.0000
  0
VERTEX
  8
21
 10
97.7265
 20
31.1785
 30
0.0000
  0
SEQEND
  8
0
  0
POLYLINE
  8
21
 66
1
 10
0.0000
 20
0.0000
 30
0.0000
 40
0.0762
 41
0.0762
 70
0
  0
VERTEX
  8
21
 10
97.7265
 20
31.2166
 30
0.0000
 42
1.0000
  0
VERTEX
  8
21
 10
97.7265
 20
31.1404
 30
0.0000
  0
SEQEND
  8
0
  0
POLYLINE
  8
21
 66
1
 10
0.0000
 20
0.0000
 30
0.0000
 40
0.0762
 41
0.0762
 70
0
  0
VERTEX
  8
21
 10
100.9015
 20
31.1404
 30
0.0000
 42
1.0000
  0
VERTEX
  8
21
 10
100.9015
 20
31.2166
 30
0.0000
  0
SEQEND
  8
0
  0
POLYLINE
  8
21
 66
1
 10
0.0000
 20
0.0000
 30
0.0000
 40
0.1524
 41
0.1524
 70
0
  0
VERTEX
  8
21
 10
100.9015
 20
33.3375
 30
0.0000
  0
VERTEX
  8
21
 10
100.9015
 20
33.7185
 30
0.0000
  0
SEQEND
  8
0
  0
POLYLINE
  8
21
 66
1
 10
0.0000
 20
0.0000
 30
0.0000
 40
0.0762
 41
0.0762
 70
0
  0
VERTEX
  8
21
 10
100.9396
 20
33.7185
 30
0.0000
 42
1.0000
  0
VERTEX
  8
21
 10
100.8634
 20
33.7185
 30
0.0000
  0
SEQEND
  8
0
  0
POLYLINE
  8
21
 66
1
 10
0.0000
 20
0.0000
 30
0.0000
 40
0.0762
 41
0.0762
 70
0
  0
VERTEX
  8
21
 10
100.8634
 20
33.3375
 30
0.0000
 42
1.0000
  0
VERTEX
  8
21
 10
100.9396
 20
33.3375
 30
0.0000
  0
SEQEND
  8
0
  0
POLYLINE
  8
21
 66
1
 10
0.0000
 20
0.0000
 30
0.0000
 40
0.1524
 41
0.1524
 70
0
  0
VERTEX
  8
21
 10
100.9015
 20
33.3375
 30
0.0000
  0
VERTEX
  8
21
 10
100.6475
 20
33.3375
 30
0.0000
  0
SEQEND
  8
0
  0
POLYLINE
  8
21
 66
1
 10
0.0000
 20
0.0000
 30
0.0000
 40
0.0762
 41
0.0762
 70
0
  0
VERTEX
  8
21
 10
100.6475
 20
33.3756
 30
0.0000
 42
1.0000
  0
VERTEX
  8
21
 10
100.6475
 20
33.2994
 30
0.0000
  0
SEQEND
  8
0
  0
POLYLINE
  8
21
 66
1
 10
0.0000
 20
0.0000
 30
0.0000
 40
0.0762
 41
0.0762
 70
0
  0
VERTEX
  8
21
 10
100.9015
 20
33.2994
 30
0.0000
 42
1.0000
  0
VERTEX
  8
21
 10
100.9015
 20
33.3756
 30
0.0000
  0
SEQEND
  8
0
  0
POLYLINE
  8
21
 66
1
 10
0.0000
 20
0.0000
 30
0.0000
 40
0.1524
 41
0.1524
 70
0
  0
VERTEX
  8
21
 10
100.9015
 20
33.7185
 30
0.0000
  0
VERTEX
  8
21
 10
101.1555
 20
33.7185
 30
0.0000
  0
SEQEND
  8
0
  0
POLYLINE
  8
21
 66
1
 10
0.0000
 20
0.0000
 30
0.0000
 40
0.0762
 41
0.0762
 70
0
  0
VERTEX
  8
21
 10
101.1555
 20
33.6804
 30
0.0000
 42
1.0000
  0
VERTEX
  8
21
 10
101.1555
 20
33.7566
 30
0.0000
  0
SEQEND
  8
0
  0
POLYLINE
  8
21
 66
1
 10
0.0000
 20
0.0000
 30
0.0000
 40
0.0762
 41
0.0762
 70
0
  0
VERTEX
  8
21
 10
100.9015
 20
33.7566
 30
0.0000
 42
1.0000
  0
VERTEX
  8
21
 10
100.9015
 20
33.6804
 30
0.0000
  0
SEQEND
  8
0
  0
POLYLINE
  8
21
 66
1
 10
0.0000
 20
0.0000
 30
0.0000
 40
0.1524
 41
0.1524
 70
0
  0
VERTEX
  8
21
 10
100.9015
 20
29.5275
 30
0.0000
  0
VERTEX
  8
21
 10
100.9015
 20
29.1465
 30
0.0000
  0
SEQEND
  8
0
  0
POLYLINE
  8
21
 66
1
 10
0.0000
 20
0.0000
 30
0.0000
 40
0.0762
 41
0.0762
 70
0
  0
VERTEX
  8
21
 10
100.8634
 20
29.1465
 30
0.0000
 42
1.0000
  0
VERTEX
  8
21
 10
100.9396
 20
29.1465
 30
0.0000
  0
SEQEND
  8
0
  0
POLYLINE
  8
21
 66
1
 10
0.0000
 20
0.0000
 30
0.0000
 40
0.0762
 41
0.0762
 70
0
  0
VERTEX
  8
21
 10
100.9396
 20
29.5275
 30
0.0000
 42
1.0000
  0
VERTEX
  8
21
 10
100.8634
 20
29.5275
 30
0.0000
  0
SEQEND
  8
0
  0
POLYLINE
  8
21
 66
1
 10
0.0000
 20
0.0000
 30
0.0000
 40
0.1524
 41
0.1524
 70
0
  0
VERTEX
  8
21
 10
100.9015
 20
29.5275
 30
0.0000
  0
VERTEX
  8
21
 10
100.6475
 20
29.5275
 30
0.0000
  0
SEQEND
  8
0
  0
POLYLINE
  8
21
 66
1
 10
0.0000
 20
0.0000
 30
0.0000
 40
0.0762
 41
0.0762
 70
0
  0
VERTEX
  8
21
 10
100.6475
 20
29.5656
 30
0.0000
 42
1.0000
  0
VERTEX
  8
21
 10
100.6475
 20
29.4894
 30
0.0000
  0
SEQEND
  8
0
  0
POLYLINE
  8
21
 66
1
 10
0.0000
 20
0.0000
 30
0.0000
 40
0.0762
 41
0.0762
 70
0
  0
VERTEX
  8
21
 10
100.9015
 20
29.4894
 30
0.0000
 42
1.0000
  0
VERTEX
  8
21
 10
100.9015
 20
29.5656
 30
0.0000
  0
SEQEND
  8
0
  0
POLYLINE
  8
21
 66
1
 10
0.0000
 20
0.0000
 30
0.0000
 40
0.1524
 41
0.1524
 70
0
  0
VERTEX
  8
21
 10
100.9015
 20
29.1465
 30
0.0000
  0
VERTEX
  8
21
 10
101.1555
 20
29.1465
 30
0.0000
  0
SEQEND
  8
0
  0
POLYLINE
  8
21
 66
1
 10
0.0000
 20
0.0000
 30
0.0000
 40
0.0762
 41
0.0762
 70
0
  0
VERTEX
  8
21
 10
101.1555
 20
29.1084
 30
0.0000
 42
1.0000
  0
VERTEX
  8
21
 10
101.1555
 20
29.1846
 30
0.0000
  0
SEQEND
  8
0
  0
POLYLINE
  8
21
 66
1
 10
0.0000
 20
0.0000
 30
0.0000
 40
0.0762
 41
0.0762
 70
0
  0
VERTEX
  8
21
 10
100.9015
 20
29.1846
 30
0.0000
 42
1.0000
  0
VERTEX
  8
21
 10
100.9015
 20
29.1084
 30
0.0000
  0
SEQEND
  8
0
  0
POLYLINE
  8
21
 66
1
 10
0.0000
 20
0.0000
 30
0.0000
 40
0.1524
 41
0.1524
 70
0
  0
VERTEX
  8
21
 10
96.8375
 20
29.1465
 30
0.0000
  0
VERTEX
  8
21
 10
96.8375
 20
29.9085
 30
0.0000
  0
SEQEND
  8
0
  0
POLYLINE
  8
21
 66
1
 10
0.0000
 20
0.0000
 30
0.0000
 40
0.0762
 41
0.0762
 70
0
  0
VERTEX
  8
21
 10
96.8756
 20
29.9085
 30
0.0000
 42
1.0000
  0
VERTEX
  8
21
 10
96.7994
 20
29.9085
 30
0.0000
  0
SEQEND
  8
0
  0
POLYLINE
  8
21
 66
1
 10
0.0000
 20
0.0000
 30
0.0000
 40
0.0762
 41
0.0762
 70
0
  0
VERTEX
  8
21
 10
96.7994
 20
29.1465
 30
0.0000
 42
1.0000
  0
VERTEX
  8
21
 10
96.8756
 20
29.1465
 30
0.0000
  0
SEQEND
  8
0
  0
POLYLINE
  8
21
 66
1
 10
0.0000
 20
0.0000
 30
0.0000
 40
0.1524
 41
0.1524
 70
0
  0
VERTEX
  8
21
 10
96.8375
 20
29.9085
 30
0.0000
  0
VERTEX
  8
21
 10
96.7105
 20
29.9085
 30
0.0000
  0
SEQEND
  8
0
  0
POLYLINE
  8
21
 66
1
 10
0.0000
 20
0.0000
 30
0.0000
 40
0.0762
 41
0.0762
 70
0
  0
VERTEX
  8
21
 10
96.7105
 20
29.9466
 30
0.0000
 42
1.0000
  0
VERTEX
  8
21
 10
96.7105
 20
29.8704
 30
0.0000
  0
SEQEND
  8
0
  0
POLYLINE
  8
21
 66
1
 10
0.0000
 20
0.0000
 30
0.0000
 40
0.0762
 41
0.0762
 70
0
  0
VERTEX
  8
21
 10
96.8375
 20
29.8704
 30
0.0000
 42
1.0000
  0
VERTEX
  8
21
 10
96.8375
 20
29.9466
 30
0.0000
  0
SEQEND
  8
0
  0
POLYLINE
  8
21
 66
1
 10
0.0000
 20
0.0000
 30
0.0000
 40
0.1524
 41
0.1524
 70
0
  0
VERTEX
  8
21
 10
96.8375
 20
30.4165
 30
0.0000
  0
VERTEX
  8
21
 10
96.7105
 20
30.4165
 30
0.0000
  0
SEQEND
  8
0
  0
POLYLINE
  8
21
 66
1
 10
0.0000
 20
0.0000
 30
0.0000
 40
0.0762
 41
0.0762
 70
0
  0
VERTEX
  8
21
 10
96.7105
 20
30.4546
 30
0.0000
 42
1.0000
  0
VERTEX
  8
21
 10
96.7105
 20
30.3784
 30
0.0000
  0
SEQEND
  8
0
  0
POLYLINE
  8
21
 66
1
 10
0.0000
 20
0.0000
 30
0.0000
 40
0.0762
 41
0.0762
 70
0
  0
VERTEX
  8
21
 10
96.8375
 20
30.3784
 30
0.0000
 42
1.0000
  0
VERTEX
  8
21
 10
96.8375
 20
30.4546
 30
0.0000
  0
SEQEND
  8
0
  0
POLYLINE
  8
21
 66
1
 10
0.0000
 20
0.0000
 30
0.0000
 40
0.1524
 41
0.1524
 70
0
  0
VERTEX
  8
21
 10
96.7105
 20
30.4165
 30
0.0000
  0
VERTEX
  8
21
 10
96.7105
 20
29.9085
 30
0.0000
  0
SEQEND
  8
0
  0
POLYLINE
  8
21
 66
1
 10
0.0000
 20
0.0000
 30
0.0000
 40
0.0762
 41
0.0762
 70
0
  0
VERTEX
  8
21
 10
96.6724
 20
29.9085
 30
0.0000
 42
1.0000
  0
VERTEX
  8
21
 10
96.7486
 20
29.9085
 30
0.0000
  0
SEQEND
  8
0
  0
POLYLINE
  8
21
 66
1
 10
0.0000
 20
0.0000
 30
0.0000
 40
0.0762
 41
0.0762
 70
0
  0
VERTEX
  8
21
 10
96.7486
 20
30.4165
 30
0.0000
 42
1.0000
  0
VERTEX
  8
21
 10
96.6724
 20
30.4165
 30
0.0000
  0
SEQEND
  8
0
  0
POLYLINE
  8
21
 66
1
 10
0.0000
 20
0.0000
 30
0.0000
 40
0.1524
 41
0.1524
 70
0
  0
VERTEX
  8
21
 10
96.8375
 20
32.4485
 30
0.0000
  0
VERTEX
  8
21
 10
96.7105
 20
32.4485
 30
0.0000
  0
SEQEND
  8
0
  0
POLYLINE
  8
21
 66
1
 10
0.0000
 20
0.0000
 30
0.0000
 40
0.0762
 41
0.0762
 70
0
  0
VERTEX
  8
21
 10
96.7105
 20
32.4866
 30
0.0000
 42
1.0000
  0
VERTEX
  8
21
 10
96.7105
 20
32.4104
 30
0.0000
  0
SEQEND
  8
0
  0
POLYLINE
  8
21
 66
1
 10
0.0000
 20
0.0000
 30
0.0000
 40
0.0762
 41
0.0762
 70
0
  0
VERTEX
  8
21
 10
96.8375
 20
32.4104
 30
0.0000
 42
1.0000
  0
VERTEX
  8
21
 10
96.8375
 20
32.4866
 30
0.0000
  0
SEQEND
  8
0
  0
POLYLINE
  8
21
 66
1
 10
0.0000
 20
0.0000
 30
0.0000
 40
0.1524
 41
0.1524
 70
0
  0
VERTEX
  8
21
 10
96.8375
 20
32.9565
 30
0.0000
  0
VERTEX
  8
21
 10
96.8375
 20
33.7185
 30
0.0000
  0
SEQEND
  8
0
  0
POLYLINE
  8
21
 66
1
 10
0.0000
 20
0.0000
 30
0.0000
 40
0.0762
 41
0.0762
 70
0
  0
VERTEX
  8
21
 10
96.8756
 20
33.7185
 30
0.0000
 42
1.0000
  0
VERTEX
  8
21
 10
96.7994
 20
33.7185
 30
0.0000
  0
SEQEND
  8
0
  0
POLYLINE
  8
21
 66
1
 10
0.0000
 20
0.0000
 30
0.0000
 40
0.0762
 41
0.0762
 70
0
  0
VERTEX
  8
21
 10
96.7994
 20
32.9565
 30
0.0000
 42
1.0000
  0
VERTEX
  8
21
 10
96.8756
 20
32.9565
 30
0.0000
  0
SEQEND
  8
0
  0
POLYLINE
  8
21
 66
1
 10
0.0000
 20
0.0000
 30
0.0000
 40
0.1524
 41
0.1524
 70
0
  0
VERTEX
  8
21
 10
96.8375
 20
32.9565
 30
0.0000
  0
VERTEX
  8
21
 10
96.7105
 20
32.9565
 30
0.0000
  0
SEQEND
  8
0
  0
POLYLINE
  8
21
 66
1
 10
0.0000
 20
0.0000
 30
0.0000
 40
0.0762
 41
0.0762
 70
0
  0
VERTEX
  8
21
 10
96.7105
 20
32.9946
 30
0.0000
 42
1.0000
  0
VERTEX
  8
21
 10
96.7105
 20
32.9184
 30
0.0000
  0
SEQEND
  8
0
  0
POLYLINE
  8
21
 66
1
 10
0.0000
 20
0.0000
 30
0.0000
 40
0.0762
 41
0.0762
 70
0
  0
VERTEX
  8
21
 10
96.8375
 20
32.9184
 30
0.0000
 42
1.0000
  0
VERTEX
  8
21
 10
96.8375
 20
32.9946
 30
0.0000
  0
SEQEND
  8
0
  0
POLYLINE
  8
21
 66
1
 10
0.0000
 20
0.0000
 30
0.0000
 40
0.1524
 41
0.1524
 70
0
  0
VERTEX
  8
21
 10
96.7105
 20
32.9565
 30
0.0000
  0
VERTEX
  8
21
 10
96.7105
 20
32.4485
 30
0.0000
  0
SEQEND
  8
0
  0
POLYLINE
  8
21
 66
1
 10
0.0000
 20
0.0000
 30
0.0000
 40
0.0762
 41
0.0762
 70
0
  0
VERTEX
  8
21
 10
96.6724
 20
32.4485
 30
0.0000
 42
1.0000
  0
VERTEX
  8
21
 10
96.7486
 20
32.4485
 30
0.0000
  0
SEQEND
  8
0
  0
POLYLINE
  8
21
 66
1
 10
0.0000
 20
0.0000
 30
0.0000
 40
0.0762
 41
0.0762
 70
0
  0
VERTEX
  8
21
 10
96.7486
 20
32.9565
 30
0.0000
 42
1.0000
  0
VERTEX
  8
21
 10
96.6724
 20
32.9565
 30
0.0000
  0
SEQEND
  8
0
  0
POLYLINE
  8
21
 66
1
 10
0.0000
 20
0.0000
 30
0.0000
 40
0.1524
 41
0.1524
 70
0
  0
VERTEX
  8
21
 10
96.9645
 20
31.6865
 30
0.0000
  0
VERTEX
  8
21
 10
96.8375
 20
31.6865
 30
0.0000
  0
SEQEND
  8
0
  0
POLYLINE
  8
21
 66
1
 10
0.0000
 20
0.0000
 30
0.0000
 40
0.0762
 41
0.0762
 70
0
  0
VERTEX
  8
21
 10
96.8375
 20
31.7246
 30
0.0000
 42
1.0000
  0
VERTEX
  8
21
 10
96.8375
 20
31.6484
 30
0.0000
  0
SEQEND
  8
0
  0
POLYLINE
  8
21
 66
1
 10
0.0000
 20
0.0000
 30
0.0000
 40
0.0762
 41
0.0762
 70
0
  0
VERTEX
  8
21
 10
96.9645
 20
31.6484
 30
0.0000
 42
1.0000
  0
VERTEX
  8
21
 10
96.9645
 20
31.7246
 30
0.0000
  0
SEQEND
  8
0
  0
POLYLINE
  8
21
 66
1
 10
0.0000
 20
0.0000
 30
0.0000
 40
0.1524
 41
0.1524
 70
0
  0
VERTEX
  8
21
 10
96.8375
 20
31.6865
 30
0.0000
  0
VERTEX
  8
21
 10
96.8375
 20
32.4485
 30
0.0000
  0
SEQEND
  8
0
  0
POLYLINE
  8
21
 66
1
 10
0.0000
 20
0.0000
 30
0.0000
 40
0.0762
 41
0.0762
 70
0
  0
VERTEX
  8
21
 10
96.8756
 20
32.4485
 30
0.0000
 42
1.0000
  0
VERTEX
  8
21
 10
96.7994
 20
32.4485
 30
0.0000
  0
SEQEND
  8
0
  0
POLYLINE
  8
21
 66
1
 10
0.0000
 20
0.0000
 30
0.0000
 40
0.0762
 41
0.0762
 70
0
  0
VERTEX
  8
21
 10
96.7994
 20
31.6865
 30
0.0000
 42
1.0000
  0
VERTEX
  8
21
 10
96.8756
 20
31.6865
 30
0.0000
  0
SEQEND
  8
0
  0
POLYLINE
  8
21
 66
1
 10
0.0000
 20
0.0000
 30
0.0000
 40
0.1524
 41
0.1524
 70
0
  0
VERTEX
  8
21
 10
96.9645
 20
31.6865
 30
0.0000
  0
VERTEX
  8
21
 10
96.9645
 20
31.1785
 30
0.0000
  0
SEQEND
  8
0
  0
POLYLINE
  8
21
 66
1
 10
0.0000
 20
0.0000
 30
0.0000
 40
0.0762
 41
0.0762
 70
0
  0
VERTEX
  8
21
 10
96.9264
 20
31.1785
 30
0.0000
 42
1.0000
  0
VERTEX
  8
21
 10
97.0026
 20
31.1785
 30
0.0000
  0
SEQEND
  8
0
  0
POLYLINE
  8
21
 66
1
 10
0.0000
 20
0.0000
 30
0.0000
 40
0.0762
 41
0.0762
 70
0
  0
VERTEX
  8
21
 10
97.0026
 20
31.6865
 30
0.0000
 42
1.0000
  0
VERTEX
  8
21
 10
96.9264
 20
31.6865
 30
0.0000
  0
SEQEND
  8
0
  0
POLYLINE
  8
21
 66
1
 10
0.0000
 20
0.0000
 30
0.0000
 40
0.1524
 41
0.1524
 70
0
  0
VERTEX
  8
21
 10
96.9645
 20
31.1785
 30
0.0000
  0
VERTEX
  8
21
 10
96.8375
 20
31.1785
 30
0.0000
  0
SEQEND
  8
0
  0
POLYLINE
  8
21
 66
1
 10
0.0000
 20
0.0000
 30
0.0000
 40
0.0762
 41
0.0762
 70
0
  0
VERTEX
  8
21
 10
96.8375
 20
31.2166
 30
0.0000
 42
1.0000
  0
VERTEX
  8
21
 10
96.8375
 20
31.1404
 30
0.0000
  0
SEQEND
  8
0
  0
POLYLINE
  8
21
 66
1
 10
0.0000
 20
0.0000
 30
0.0000
 40
0.0762
 41
0.0762
 70
0
  0
VERTEX
  8
21
 10
96.9645
 20
31.1404
 30
0.0000
 42
1.0000
  0
VERTEX
  8
21
 10
96.9645
 20
31.2166
 30
0.0000
  0
SEQEND
  8
0
  0
POLYLINE
  8
21
 66
1
 10
0.0000
 20
0.0000
 30
0.0000
 40
0.1524
 41
0.1524
 70
0
  0
VERTEX
  8
21
 10
96.8375
 20
31.1785
 30
0.0000
  0
VERTEX
  8
21
 10
96.8375
 20
30.4165
 30
0.0000
  0
SEQEND
  8
0
  0
POLYLINE
  8
21
 66
1
 10
0.0000
 20
0.0000
 30
0.0000
 40
0.0762
 41
0.0762
 70
0
  0
VERTEX
  8
21
 10
96.7994
 20
30.4165
 30
0.0000
 42
1.0000
  0
VERTEX
  8
21
 10
96.8756
 20
30.4165
 30
0.0000
  0
SEQEND
  8
0
  0
POLYLINE
  8
21
 66
1
 10
0.0000
 20
0.0000
 30
0.0000
 40
0.0762
 41
0.0762
 70
0
  0
VERTEX
  8
21
 10
96.8756
 20
31.1785
 30
0.0000
 42
1.0000
  0
VERTEX
  8
21
 10
96.7994
 20
31.1785
 30
0.0000
  0
SEQEND
  8
0
  0
POLYLINE
  8
21
 66
1
 10
0.0000
 20
0.0000
 30
0.0000
 40
0.1270
 41
0.1270
 70
0
  0
VERTEX
  8
21
 10
97.5891
 20
30.3196
 30
0.0000
  0
VERTEX
  8
21
 10
97.8772
 20
30.6077
 30
0.0000
  0
SEQEND
  8
0
  0
POLYLINE
  8
21
 66
1
 10
0.0000
 20
0.0000
 30
0.0000
 40
0.0635
 41
0.0635
 70
0
  0
VERTEX
  8
21
 10
97.8996
 20
30.5853
 30
0.0000
 42
1.0000
  0
VERTEX
  8
21
 10
97.8547
 20
30.6302
 30
0.0000
  0
SEQEND
  8
0
  0
POLYLINE
  8
21
 66
1
 10
0.0000
 20
0.0000
 30
0.0000
 40
0.0635
 41
0.0635
 70
0
  0
VERTEX
  8
21
 10
97.5666
 20
30.3421
 30
0.0000
 42
1.0000
  0
VERTEX
  8
21
 10
97.6115
 20
30.2972
 30
0.0000
  0
SEQEND
  8
0
  0
POLYLINE
  8
21
 66
1
 10
0.0000
 20
0.0000
 30
0.0000
 40
0.1270
 41
0.1270
 70
0
  0
VERTEX
  8
21
 10
97.8772
 20
30.6077
 30
0.0000
  0
VERTEX
  8
21
 10
97.8772
 20
29.7434
 30
0.0000
  0
SEQEND
  8
0
  0
POLYLINE
  8
21
 66
1
 10
0.0000
 20
0.0000
 30
0.0000
 40
0.0635
 41
0.0635
 70
0
  0
VERTEX
  8
21
 10
97.8454
 20
29.7434
 30
0.0000
 42
1.0000
  0
VERTEX
  8
21
 10
97.9089
 20
29.7434
 30
0.0000
  0
SEQEND
  8
0
  0
POLYLINE
  8
21
 66
1
 10
0.0000
 20
0.0000
 30
0.0000
 40
0.0635
 41
0.0635
 70
0
  0
VERTEX
  8
21
 10
97.9089
 20
30.6077
 30
0.0000
 42
1.0000
  0
VERTEX
  8
21
 10
97.8454
 20
30.6077
 30
0.0000
  0
SEQEND
  8
0
  0
POLYLINE
  8
21
 66
1
 10
0.0000
 20
0.0000
 30
0.0000
 40
0.1270
 41
0.1270
 70
0
  0
VERTEX
  8
21
 10
97.5891
 20
29.7434
 30
0.0000
  0
VERTEX
  8
21
 10
98.1653
 20
29.7434
 30
0.0000
  0
SEQEND
  8
0
  0
POLYLINE
  8
21
 66
1
 10
0.0000
 20
0.0000
 30
0.0000
 40
0.0635
 41
0.0635
 70
0
  0
VERTEX
  8
21
 10
98.1653
 20
29.7117
 30
0.0000
 42
1.0000
  0
VERTEX
  8
21
 10
98.1653
 20
29.7752
 30
0.0000
  0
SEQEND
  8
0
  0
POLYLINE
  8
21
 66
1
 10
0.0000
 20
0.0000
 30
0.0000
 40
0.0635
 41
0.0635
 70
0
  0
VERTEX
  8
21
 10
97.5891
 20
29.7752
 30
0.0000
 42
1.0000
  0
VERTEX
  8
21
 10
97.5891
 20
29.7117
 30
0.0000
  0
SEQEND
  8
0
  0
INSERT
  8
17
  2
LONGP100
 10
99.3775
 20
30.1625
 30
0.0000
 41
1.4224
 42
1.4224
 43
1.0000
 50
180.0000
  0
INSERT
  8
17
  2
LONGP100
 10
99.3775
 20
30.1625
 30
0.0000
 41
1.4224
 42
1.4224
 43
1.0000
 50
180.0000
  0
INSERT
  8
17
  2
LONGP100
 10
99.3775
 20
32.7025
 30
0.0000
 41
1.4224
 42
1.4224
 43
1.0000
 50
180.0000
  0
INSERT
  8
17
  2
LONGP100
 10
99.3775
 20
32.7025
 30
0.0000
 41
1.4224
 42
1.4224
 43
1.0000
 50
180.0000
  0
ENDSEC
  0
EOF
